<?xml version="1.0" encoding="utf-8"?>
<!-- Generator: Adobe Illustrator 17.1.0, SVG Export Plug-In . SVG Version: 6.00 Build 0)  -->
<!DOCTYPE svg PUBLIC "-//W3C//DTD SVG 1.1//EN" "http://www.w3.org/Graphics/SVG/1.1/DTD/svg11.dtd">
<svg version="1.1" id="alien" xmlns="http://www.w3.org/2000/svg" xmlns:xlink="http://www.w3.org/1999/xlink" x="0px" y="0px"
	 viewBox="0 0 949.8851 1010" enable-background="new 0 0 949.8851 1010" xml:space="preserve">
<g id="alien-alien">
	<g id="alien-alien_1_">
		<g>
			<path fill="#FDF4BC" d="M474.9334,16.8335C286.89,16.8335-141.4557,235.4038,77.5418,505
				c219.0474,269.5967,146.437,488.167,397.3916,488.167c250.898,0,178.3364-218.5703,397.3999-488.167
				C1091.3645,235.4038,662.9359,16.8003,474.9334,16.8335z"/>
			<path fill="#535352" d="M474.9334,1010c-163.1137,0-200.4136-89.5254-252.0317-213.4248
				c-32.7461-78.6104-73.4976-176.4375-158.4204-280.9561c-67.7447-83.3935-82.4409-171.8017-42.5191-255.6723
				C96.3558,103.6797,343.867,0,474.9334,0C606.0247,0,853.5267,103.6797,927.929,259.9634
				c39.9141,83.8706,25.2168,172.2783-42.5273,255.6557c-84.9395,104.5352-125.707,202.3623-158.4531,280.9727
				C675.3138,920.4746,638.015,1010,474.9334,1010L474.9334,1010z M474.9744,33.6665
				c-124.0551,0-356.1303,101.0986-422.6088,240.7466c-34.439,72.3306-21.5674,146.3379,38.2451,219.9673
				c87.997,108.3149,129.7929,208.6411,163.3691,289.2407c51.7656,124.2607,80.2783,192.7119,220.9536,192.7119
				c140.6265,0,169.1636-68.4512,220.9292-192.6953c33.584-80.6162,75.4043-180.9424,163.418-289.2573
				c59.8047-73.6128,72.6601-147.6201,38.2363-219.9512C831.0384,134.7651,598.9896,33.6665,474.9744,33.6665L474.9744,33.6665z"/>
		</g>
		<g>
			<path fill="#A5A5A4" d="M261.3114,542.5469c-82.2105-27.9141-138.0367-98.8965-124.6226-158.5694
				c13.4795-59.7055,91.0381-85.4819,173.1826-57.6015c82.2764,27.9458,138.0532,98.896,124.606,158.6675
				C421.1126,544.6504,343.5218,570.3936,261.3114,542.5469z"/>
			<path fill="#535352" d="M326.5325,570.6074c-23.1298,0-46.8837-4.0771-70.621-12.1152
				c-91.5479-31.086-151.1221-109.3677-135.6451-178.2134c11.2442-49.793,60.0835-81.9805,124.4419-81.9805
				c23.1128,0,46.8584,4.0933,70.5713,12.1319c91.5479,31.1025,151.1221,109.417,135.6201,178.312
				C439.7542,538.4687,390.931,570.6074,326.5325,570.6074L326.5325,570.6074z M244.7083,331.9653
				c-48.0014,0-83.9614,21.8799-91.5971,55.7276c-11.3594,50.5161,40.6694,114.1508,113.6084,138.9077
				c20.2446,6.8545,40.3657,10.3398,59.8129,10.3398c48.0254,0,83.9527-21.8134,91.5225-55.5796
				c11.376-50.5986-40.6445-114.2661-113.6001-139.039C284.2352,335.4502,264.1302,331.9653,244.7083,331.9653L244.7083,331.9653z"
				/>
		</g>
		<g>
			<path fill="#A5A5A4" d="M688.5482,542.5791c-82.1621,27.8799-159.7852,2.1045-173.2325-57.5356
				C501.9349,425.272,557.761,354.3218,639.9543,326.376c82.293-27.9131,159.8838-2.1372,173.2324,57.6015
				C826.6009,443.6504,770.8724,514.6328,688.5482,542.5791z"/>
			<path fill="#535352" d="M623.3509,570.6562c-64.3906,0-113.2305-32.1542-124.458-81.914
				c-15.4189-68.895,44.1709-147.1934,135.6367-178.2954c23.7871-8.0713,47.5733-12.1646,70.7197-12.1646
				c64.4073,0,113.2305,32.2036,124.376,82.0293c15.4688,68.8457-44.1221,147.128-135.6689,178.2139
				C670.2347,566.5635,646.4642,570.6562,623.3509,570.6562L623.3509,570.6562z M705.2493,331.9487
				c-19.4628,0-39.6171,3.4849-59.8867,10.3731c-72.9062,24.7895-124.951,88.457-113.6084,139.039
				c7.5948,33.7818,43.5635,55.6294,91.5967,55.6294c19.4316,0,39.5527-3.4854,59.7881-10.3574
				c72.956-24.7563,124.9844-88.4072,113.625-138.9565C789.1859,353.8125,753.2834,331.9487,705.2493,331.9487L705.2493,331.9487z"
				/>
		</g>
		<g>
			<path fill="#535352" d="M551.8752,798.8271H398.0164c-9.2964,0-16.8335-7.5292-16.8335-16.833
				c0-9.3046,7.5371-16.8339,16.8335-16.8339h153.8589c9.3037,0,16.833,7.5293,16.833,16.8339
				C568.7083,791.2979,561.179,798.8271,551.8752,798.8271L551.8752,798.8271z"/>
		</g>
	</g>
</g>
</svg>
