<?xml version="1.0" encoding="utf-8"?>
<!-- Generator: Adobe Illustrator 17.1.0, SVG Export Plug-In . SVG Version: 6.00 Build 0)  -->
<!DOCTYPE svg PUBLIC "-//W3C//DTD SVG 1.1//EN" "http://www.w3.org/Graphics/SVG/1.1/DTD/svg11.dtd">
<svg version="1.1" id="asteroid-earth" xmlns="http://www.w3.org/2000/svg" xmlns:xlink="http://www.w3.org/1999/xlink" x="0px"
	 y="0px" viewBox="0 0 927.4112 1010" enable-background="new 0 0 927.4112 1010" xml:space="preserve">
<g id="asteroid-earth-asteroid-earth">
	<g>
		<g>
			<g>
				<path fill="#B0D8EF" d="M763.5166,423.5127c26.4004,52.8838,41.2618,112.5244,41.2618,175.6816
					c0,217.5508-176.4219,393.9727-393.9722,393.9727c-217.5845,0-393.9722-176.4219-393.9722-393.9727
					c0-217.5839,176.3877-393.972,393.9722-393.972c19.1016,0,37.9404,1.3808,56.352,4.0107"/>
				<path fill="#535352" d="M410.8062,1010C184.2793,1010,0,825.7051,0,599.1943c0-226.5268,184.2793-410.8055,410.8062-410.8055
					c19.5454,0,39.3052,1.4135,58.7358,4.1919c9.1895,1.3149,15.584,9.8305,14.2686,19.0361
					c-1.3154,9.2056-9.8955,15.5347-19.0361,14.2852c-17.8526-2.5479-36.001-3.8467-53.9683-3.8467
					c-207.9507,0-377.1392,169.1885-377.1392,377.1391c0,207.9512,169.1885,377.1387,377.1392,377.1387
					s377.1382-169.1875,377.1382-377.1387c0-59.0976-13.2813-115.6635-39.4854-168.1523
					c-4.1591-8.3184-0.789-18.4282,7.5284-22.5869c8.3515-4.1758,18.4453-0.773,22.5878,7.5454
					c28.5538,57.1904,43.0372,118.8354,43.0372,183.1938C821.6124,825.7051,637.3165,1010,410.8062,1010L410.8062,1010z"/>
			</g>
			<g>
				<g>
					<path fill="#535352" d="M412.5816,480.4077c-4.669,0-9.3208-1.9399-12.625-5.688c-5.8526-6.6411-5.5728-16.6689,0.6411-22.9648
						c1.8247-1.8579,4.3726-3.8633,7.2495-5.9019c7.2656-5.1616,17.2769-3.748,22.8662,3.2222
						c5.5728,6.9536,4.751,17.0635-1.874,23.0142c-0.8057,0.7236-2.3672,2.0551-6.0166,4.8496
						C419.7652,479.2734,416.1651,480.4077,412.5816,480.4077L412.5816,480.4077z"/>
				</g>
				<g>
					<path fill="#A5A5A4" d="M452.396,375.1826c-12.5263,1.1509-53.3271-60.1494-58.8505-67.7934
						c-3.962-5.7535-25.5459-10.5704-32.96-14.1045c-16.3731-7.5454-59.5249-15.8799-46.1929-42.0342
						c5.918-11.9014,44.6968-34.8174,42.6094-32.8447c3.5508-3.3204,7.2988-7.0191,11.0962-10.833
						c-113.2144,12.1977-212.0278,72.3798-275.7778,159.8017c-1.5118,5.2603-3.7803,10.603-4.2901,15.7647
						c-2.3838,27.1567,1.5122,52.4399,21.7813,71.4594c5.77,5.3921,13.8579,7.2495,18.7402,13.4961
						c7.1016,9.4361,13.5127,13.6607,21.9785,16.9649c14.1865,4.7016,17.5078,13.5127,27.0752,25.497
						c9.2051,12.0664,17.1289,18.6407,22.6358,32.8116c6.247,16.8661,51.5361,16.8661,67.1035,25.0527
						c21.6826,11.4092,106.2109,69.0762,130.6718,65.8535c0,0,30.2476-0.5918,24.0337,22.2588
						c-2.9589,10.29-12.2963,16.6025-16.1103,26.7295c-3.2876,9.1396-1.1177,16.9316-2.2686,25.7432
						c-1.1176,9.041-8.2358-0.0987-1.1176,15.288c3.1235,7.167,7.9565,13.6114,12.1977,20.0879
						c8.1533,13.0528,14.1372,24.3955,25.4141,34.8828c7.7265,7.4639,24.8882,16.1758,28.8667,27.1241
						c3.6172,9.6992,0.6582,31.2998-1.0196,41.5908c-3.8134,21.6328-3.2539,47.6064-9.1069,67.5957
						c-5.5889,19.6943-12.1645,25.3818-7.2988,46.6211c2.2685,9.8633-1.8408,25.9072-1.315,24.625
						c-0.5918,1.6435-1.5122,3.0576-2.3671,4.5371c16.7675-1.5781,33.1738-4.2412,49.25-7.8252
						c0.1328-0.2627,0.3623-0.624,0.4941-0.8545c2.5312-6.5752,14.0391-33.5683,19.8574-35.376
						c-2.7949-23.5078,32.6485-3.7158,36.4287-27.8144c-4.0771-2.1699-3.3213-0.9863-3.8799-4.6035
						c0.7559,4.3398,17.0313-1.7755,18.6426,1.2822c1.1504,2.335,21.8633-26.9268,24.1309-29.4248
						c5.9844-6.3457,11.0801-11.3428,14.6972-19.0039c11.8692-22.9815,10.8165-18.9375,32.9766-29.9844
						c-3.0918,1.5459,23.1123-21.2383,24.6904-29.9844c1.9727-10.9803-0.5918-21.041,2.8272-30.9375
						c4.373-12.5263,14.7949-16.5703,21.6015-27.2558c5.3907-8.1201,10.3223-21.3369,3.2208-29.3926
						c-12.6895-14.334-51.6172-17.3594-60.8887-20.7451c-25.7754-9.1406-32.4824-11.0801-34.3906-24.5928
						c-3.3204-30.2148-40.8663-27.0586-50.5-35.2119c-26.9258-22.5205-77.8536-31.8252-102.1832-24.1651
						c-17.8852,5.6875-8.4824,19.5625-25.3813,11.3428c-28.916-13.7763-46.0942-24.1982-56.4673-42.6416
						c-3.7646-6.8066-11.8359-2.5-10.0278-9.963c1.8086-8.0215,22.2583-29.8846,1.3481-29.326
						c-16.0444,0.5918-34.6694,9.2382-36.3296-5.4258c-2.1533-21.1895-3.5839-32.5489,16.0938-45.0581
						c15.9453-10.1099,38.8774-19.6446,52.5054,1.5947c3.978,6.1973,13.8413,30.1157,18.7402,14.6138
						c1.5449-4.7178-3.8799-25.0855-5.6553-33.7979c0,0.082-0.0986,0.1807-0.1972,0.2959c0-1.0029-0.0987-1.874-0.1973-2.8603
						c0.0986,0.6904,0.1973,1.5942,0.3945,2.5644c5.1948-8.3511,20.7788-19.8091,17.8526-17.228
						c5.622-3.9619,13.0195-8.4658,14.5976-13.562c1.2495-3.7974-4.2412-8.6963-1.3808-13.8906
						c-0.6246,1.1342,14.7949-22.4556,31.4311-36.7574"/>
					<path fill="#535352" d="M447.9249,1008.1914c-5.7042,0-11.0635-2.8926-14.1705-7.7422
						c-3.4028-5.3096-3.5669-12.0664-0.4106-17.5234c0,0,0.3779-0.6582,0.7231-1.2334c1.8907-10.3731,1.4302-14.4502,1.1343-15.7315
						c-4.7016-20.5156-0.7231-31.4482,3.5015-43.0039c1.2656-3.4365,2.6631-7.2665,4.0112-11.9843
						c3.041-10.3897,4.1426-23.1289,5.3096-36.6094c0.855-9.7315,1.7261-19.792,3.4028-29.3106
						c3.3369-20.4336,2.6465-30.4111,1.8247-32.7949c-1.2495-2.9258-9.1401-8.6797-13.3647-11.7705
						c-4.3892-3.2051-8.4658-6.2627-11.4248-9.123c-10.899-10.1436-17.3926-20.7627-24.2476-31.9903l-6.2466-9.8135
						c-3.6494-5.4091-7.792-11.5245-10.8496-18.543c-2.2192-4.7842-8.6137-18.6426,0.0987-27.8975
						c0.0166-1.2158-0.0166-2.416-0.0328-3.5996c-0.0659-5.9834-0.1645-13.4141,2.9097-21.9619
						c2.7778-7.3818,6.9863-12.8223,10.3726-17.2119c2.3838-3.0908,4.4716-5.7862,5.2607-8.0547
						c-1.9233-0.6582-4.9155-1.1348-6.8389-1.1836c-21.0415,1.8076-55.3818-16.7354-115.1211-53.3447
						c-10.5371-6.46-19.1835-11.7863-24.2636-14.4492c-3.4844-1.8418-13.1343-3.7481-20.8936-5.2774
						c-21.9785-4.3398-46.8994-9.2539-54.1494-28.833c-2.8931-7.4463-6.707-11.9834-12.4932-18.8721
						c-2.4658-2.9424-5.0468-6.0331-7.7431-9.5508c-2.0713-2.5976-4.044-5.3095-5.8682-7.8242
						c-5.6055-7.727-7.4795-10.0449-13.1182-11.9189c-13.25-5.145-21.749-11.6714-30.1328-22.8169
						c-0.4931-0.6245-2.9423-2.022-5.1123-3.2383c-3.4189-1.9399-7.6767-4.3564-11.6714-8.0879
						c-21.4858-20.1543-30.3129-48.018-27.0581-85.2187c0.5586-5.6387,2.1534-10.5044,3.5674-14.8116l1.3145-4.1425
						c0.5429-1.8907,1.414-3.666,2.581-5.2603c68.2212-93.5532,173.0352-154.2783,287.5806-166.624
						c6.9536-0.7559,13.8906,3.0249,16.9648,9.4526c3.0904,6.4273,1.792,14.1045-3.2382,19.1675
						c-3.9454,3.9619-7.8413,7.792-11.524,11.2441c-1.6928,1.5782-3.6328,2.7452-5.6714,3.5015
						c-8.2685,4.5371-29.935,19.2661-33.5512,24.8721c-0.5098,1.0356-0.5752,1.6108-0.5752,1.6108
						c2.1699,3.7315,18.9043,9.732,26.0386,12.2964c4.9482,1.7915,9.436,3.4356,12.8881,5.0137
						c2.2027,1.0522,5.5235,2.0547,9.1402,3.2383c14.959,4.8823,25.1675,8.6797,30.6416,16.6196l3.0908,4.4224
						c29.3594,42.3627,40.7515,53.4589,44.8447,56.3354c7.2827,1.2988,13.0855,7.3154,13.7925,15.0415
						c0.1973,2.1206,0,4.1919-0.5586,6.1318c2.3994,0.9698,4.6026,2.5152,6.3945,4.6192
						c6.0655,7.0522,5.2598,17.6719-1.7919,23.7378c-7.4639,6.4277-16.3731,16.6362-25.316,29.0146
						c1.2002,3.8628,2.0547,8.729,0.2793,14.1206c-3.0083,9.732-11.7534,15.7652-18.7895,20.6143l-2.0874,1.4468
						c-0.4932,0.3452-1.003,0.6577-1.5127,0.9536c-2.1699,1.6767-5.2769,4.3891-7.8247,6.9043
						c4.2246,18.477,5.8027,27.4204,3.4355,34.6528c-4.3891,13.875-14.3178,16.2744-18.395,16.6524
						c-15.2056,1.1679-22.8003-13.1348-28.4717-23.7374c-0.8056-1.496-1.4795-2.811-2.0219-3.6826
						c-2.2359-3.4682-6.8882-10.7016-29.3272,3.5352c-9.1728,5.8349-10.3232,7.8242-9.0742,21.9785
						c1.4961-0.2305,3.0249-0.4766,4.3071-0.6914c5.0303-0.8379,10.3071-1.6602,15.3701-1.8574
						c13.7266-0.4279,20.6475,5.8359,23.7705,11.1288c6.543,11.0312,1.1675,22.7676-3.7314,31.4472
						c1.4302,1.4805,2.7944,3.2559,3.978,5.3926c7.6279,13.5449,20.8447,21.9951,45.2398,33.7989
						c3.4687-3.8311,8.6469-7.8086,16.7675-10.3907c29.3433-9.2539,86.0406,0.4942,118.0962,27.2891
						c0.6084,0.2139,5.0303,1.3642,8.2696,2.2031c15.584,4.0274,44.582,11.5401,48.165,44.0889
						c0.165,1.1504,0.3945,1.6924,0.4111,1.7256c1.5616,1.2988,11.1289,4.6855,20.3838,7.957l2.4824,0.8867
						c2.2022,0.7569,5.9014,1.3487,10.3731,2.2031c23.4092,4.4717,45.4209,9.6006,57.4863,23.2442
						c13.1846,14.9433,7.71,35.541-1.792,49.8594c-3.748,5.8848-8.3506,10.2744-12.0332,13.8087
						c-4.2578,4.0605-6.5254,6.3291-7.6933,9.6826c-1.0196,2.9258-1.0196,6.789-1.0352,11.671
						c0,4.916-0.0166,10.5049-1.1182,16.7021c-1.7099,9.4688-9.8466,18.9873-25.2333,34.3076
						c-0.7559,0.7569-1.4297,1.4141-1.9893,1.9727c-1.5781,2.4004-3.7803,4.4062-6.5098,5.7871c-0.0166,0-0.0166,0-0.0166,0l0,0
						c-3.9121,1.9561-7.1347,3.4521-9.8301,4.7178c-8.4824,3.9453-8.4824,3.9453-15.6992,17.9345
						c-4.1914,8.877-10.1269,15.1407-15.8799,21.1895l-1.5283,1.6279c-0.247,0.3614-1.8906,2.5645-3.9629,5.3584
						c-17.8681,23.9844-22.6523,30.3788-33.7646,29.4092c-0.0986,0-0.1807-0.0166-0.2793-0.0166
						c-7.6436,14.5977-24.1162,16.4395-31.9072,17.3106c-0.3946,0.0332-0.8067,0.082-1.25,0.1308
						c-0.9375,4.3731-3.4844,8.3184-7.1348,10.8174c-3.1895,4.2578-9.8965,18.2637-13.4297,27.4365
						c-0.2969,0.7891-0.6581,1.5615-1.0859,2.3008c-2.3496,4.1103-6.8223,7.9072-11.4414,8.9268
						c-17.1289,3.8134-34.3897,6.5585-51.3379,8.1533C448.9771,1008.1592,448.4346,1008.1914,447.9249,1008.1914L447.9249,1008.1914
						z M418.3843,718.4414c1.9561,4.0938,4.6358,8.0713,7.4795,12.2637l7.0855,11.1123
						c6.0986,10.0107,10.9316,17.9014,18.6743,25.1181c2.2519,2.17,5.1123,4.1758,8.1206,6.379
						c9.206,6.7226,20.6631,15.0908,25.1025,27.3212c1.3311,3.5674,5.5235,14.795-0.2304,50.0391
						c-1.4473,8.2852-2.2188,17.1953-3.0411,26.6143c-1.2656,14.5156-2.581,29.541-6.5263,43.0039
						c-1.5459,5.5078-3.2217,10.0937-4.7178,14.2031c-3.4854,9.5518-4.8008,13.1348-2.3184,23.9355
						c0.9707,4.2247,1.2168,8.8106,1.0684,13.299c5.3262-0.8223,10.6523-1.7755,15.9785-2.8438
						c6.2149-14.8935,11.5235-23.7383,15.8633-29.0801c0.707-4.4882,2.4336-8.4668,5.1621-11.9023
						c7.1348-8.9922,17.6719-10.1592,25.3652-11.0303c0.5918-0.0654,1.2657-0.1318,1.9727-0.2138
						c-0.2959-8.5147,5.7051-16.5206,14.2197-17.8028c2.8272-0.4277,5.6055-0.1972,8.1045,0.625
						c0.6406-0.083,1.2988-0.1972,1.9727-0.2803c1.3642-0.1972,3.041-0.4433,4.915-0.5751
						c3.7481-4.6846,8.8604-11.5567,11.5068-15.1075c3.0909-4.1425,5.5079-7.2822,6.2471-8.1035l1.8252-1.9238
						c4.7998-5.0635,7.9561-8.4004,10.1094-12.9375c11.3594-22.0274,14.8769-25.7266,31.6611-33.5518
						c1.71-0.8056,3.666-1.709,5.8858-2.7783c1.0507-1.167,2.0703-2.1699,2.9091-3.0244
						c8.8604-8.8115,14.253-14.7617,16.0606-17.7207c0.3945-2.9268,0.3945-6.1318,0.3945-9.4854
						c0.0166-6.7402,0.0322-14.3671,2.8936-22.6689c3.9121-11.2119,10.75-17.7373,16.2412-22.9814
						c2.8769-2.7451,5.3428-5.1124,7.0693-7.8085c3.3037-4.9805,4.2901-9.337,4.1094-10.5206
						c-4.751-4.8496-27.963-9.2714-37.875-11.1621c-6.7891-1.2988-11.7051-2.2197-15.4863-3.6005l-2.3008-0.8213
						c-24.7568-8.7627-39.6992-14.0557-42.9707-37.2344c-0.9043-8.1201-5.4414-11.0957-23.2119-15.6992
						c-8.0381-2.0869-15.6338-4.0439-21.502-9.0244c-22.0771-18.461-66.6592-27.1075-86.2544-20.96
						c-1.9399,0.625-1.9399,0.625-3.0742,2.5156c-2.334,3.8799-5.063,6.8223-8.1372,8.8438
						c1.4141,5.5732,1.2822,11.7206-0.4439,18.0663c-2.5151,8.7617-7.3149,14.9756-11.1782,19.9736
						c-2.4165,3.1397-4.5044,5.8516-5.4248,8.2852c-0.8711,2.4492-0.8877,5.2265-0.8384,9.8954
						c0.0494,3.9619,0.0494,7.9238-0.4931,12.083C420.0938,713.3779,419.502,715.9102,418.3843,718.4414L418.3843,718.4414z
						 M107.5762,375.0513c-0.2471,0.7724-0.5097,1.5615-0.7568,2.3506c-0.9199,2.7617-1.8574,5.622-2.0381,7.3974
						c-2.3506,26.7788,2.7617,44.582,16.5537,57.5361c1.0361,0.9698,3.0742,2.1207,5.2441,3.337
						c4.6524,2.6464,10.4385,5.9179,15.2388,12.0659c5.3101,7.0522,9.1402,9.4194,14.8443,11.6387
						c15.3535,5.0795,22.2578,14.5976,28.9487,23.8037c1.5454,2.1367,3.2056,4.4384,5.145,6.8711
						c2.5811,3.3701,4.8496,6.0654,7.0029,8.6298c6.4776,7.7266,13.168,15.6993,18.1817,28.5879
						c2.9097,2.5479,20.0058,5.9336,29.1787,7.7422c11.4414,2.252,22.2256,4.3897,30.0664,8.499
						c5.4746,2.8936,14.8115,8.5977,26.1709,15.5518c11.2109,6.8711,31.8916,19.5449,51.355,30.2139
						c-0.9536-1.3477-1.8579-2.7285-2.7456-4.1592c-13.1348-5.0625-15.4522-15.9619-13.2989-24.8711
						c0.4766-2.1377,1.2989-4.2246,2.334-6.3457c-9.4023,1.3808-19.4468,1.8906-27.8633-4.4717
						c-3.8798-2.9258-8.7295-8.4492-9.8144-18.083c-2.3174-22.7178-4.4053-43.2334,23.7871-61.1519
						c26.8447-17.0141,45.6509-15.8305,58.144-9.518c1.3155-4.6851,4.5044-8.729,8.795-10.9155
						c4.1753-4.7012,9.896-10.3399,15.8632-13.8741l-0.0327-0.0659l2.3838-1.6601c1.0518-0.7071,2.4165-1.6607,3.6655-2.5811
						c-1.1669-4.8003-1.4956-10.9976,2.1207-17.5732l0,0c0.4277-0.7725,0.9042-1.4956,1.4301-2.1861
						c8.8443-12.625,17.5074-23.2612,25.6446-31.5625c-12.0166-5.0635-28.0279-22.2749-60.2808-68.7964l-2.0059-2.8603
						c-3.041-1.6113-10.3891-4.0112-14.5151-5.3594c-5.2769-1.7261-10.0444-3.3535-12.9702-4.7505
						c-2.5318-1.1675-6.0825-2.4165-9.9785-3.8139c-16.3897-5.8853-38.812-13.94-46.0948-32.3023
						c-2.498-6.3291-4.1586-16.439,2.1211-28.7681c0.8379-1.6928,2.334-3.748,4.3233-6.0166
						C225.919,260.6865,156.6954,308.7373,107.5762,375.0513L107.5762,375.0513z"/>
				</g>
				<g>
					<path fill="#535352" d="M497.3721,1000.3008c-5.5234,0-10.7012-2.7119-13.8408-7.249
						c-3.1397-4.5372-3.8633-10.3233-1.9229-15.502c0.0157-0.0332,0.1153-0.2959,0.1153-0.3125
						c0.1972-0.5264,0.6406-1.5947,0.8867-2.0879c0.1641-0.3447,0.543-1.0029,0.8223-1.4951
						c3.8964-7.5459,12.8886-11.0469,20.9433-7.9902c8.4326,3.206,12.8379,12.4941,9.9785,21.0586
						c-0.1318,0.4111-0.3125,0.8544-0.4941,1.2988l0,0c-0.0156,0.0332-0.0156,0.0488-0.0322,0.082
						c0,0.0166-0.0166,0.0332-0.0166,0.0488l-0.8057,1.9073c-1.5615,3.666-4.3896,6.6416-7.9404,8.4337
						C502.7315,999.6602,499.9864,1000.3008,497.3721,1000.3008L497.3721,1000.3008z"/>
				</g>
			</g>
		</g>
	</g>
	<g>
		<path fill="#535352" d="M685.8604,514.6494c0,10.3408,8.416,18.7568,18.7734,18.7568c10.3555,0,18.7725-8.416,18.7725-18.7568
			c0-10.3564-8.4171-18.7563-18.7725-18.7563C694.2764,495.8931,685.8604,504.293,685.8604,514.6494"/>
		<path fill="#535352" d="M685.8604,598.208c0,10.3565,8.416,18.7725,18.7734,18.7725c10.3555,0,18.7725-8.416,18.7725-18.7725
			c0-10.3564-8.4171-18.7725-18.7725-18.7725C694.2764,579.4355,685.8604,587.8516,685.8604,598.208"/>
		<path fill="#535352" d="M817.1729,468.999c0,10.3399,8.417,18.7569,18.7734,18.7569c10.3565,0,18.7735-8.417,18.7735-18.7569
			c0-10.3564-8.417-18.7568-18.7735-18.7568C825.5899,450.2422,817.1729,458.6426,817.1729,468.999"/>
		<path fill="#535352" d="M479.5206,112.5566c0,10.3565,8.416,18.7564,18.7402,18.7564c10.3555,0,18.7734-8.3999,18.7734-18.7564
			c0-10.3403-8.4179-18.7568-18.7734-18.7568C487.9366,93.7998,479.5206,102.2163,479.5206,112.5566"/>
		<path fill="#535352" d="M592.0928,75.043c0,10.3564,8.3848,18.7568,18.7404,18.7568c10.3574,0,18.7734-8.4004,18.7734-18.7568
			c0-10.3399-8.416-18.7564-18.7734-18.7564C600.4776,56.2866,592.0928,64.7031,592.0928,75.043"/>
		<path fill="#535352" d="M817.1729,337.686c0,10.3399,8.417,18.7564,18.7734,18.7564c10.3565,0,18.7735-8.4165,18.7735-18.7564
			c0-10.3564-8.417-18.7568-18.7735-18.7568C825.5899,318.9292,817.1729,327.3296,817.1729,337.686"/>
		<path fill="#535352" d="M404.4605,150.0864c0,10.3565,8.417,18.7564,18.7734,18.7564c10.3565,0,18.773-8.3999,18.773-18.7564
			c0-10.3564-8.4165-18.7734-18.773-18.7734C412.8775,131.313,404.4605,139.73,404.4605,150.0864"/>
		<path fill="#535352" d="M273.1475,338.7378c0,10.3564,8.417,18.7568,18.7568,18.7568c10.3565,0,18.773-8.4004,18.773-18.7568
			c0-10.3399-8.4165-18.7564-18.773-18.7564C281.5645,319.9814,273.1475,328.3979,273.1475,338.7378"/>
		<path fill="#535352" d="M385.7041,255.5249c0,10.3398,8.4166,18.7563,18.7564,18.7563c10.3564,0,18.7734-8.4165,18.7734-18.7563
			c0-10.373-8.417-18.7734-18.7734-18.7734C394.1207,236.7515,385.7041,245.1519,385.7041,255.5249"/>
		<path fill="#535352" d="M373.1446,375.1826c0,10.3403,8.417,18.7569,18.7568,18.7569c10.3565,0,18.773-8.4166,18.773-18.7569
			c0-10.3564-8.4165-18.7563-18.773-18.7563C381.5616,356.4263,373.1446,364.8262,373.1446,375.1826"/>
		<path fill="#535352" d="M554.5469,544.0254c0,10.3574,8.417,18.7734,18.7725,18.7734c10.3574,0,18.7734-8.416,18.7734-18.7734
			c0-10.3233-8.416-18.7402-18.7734-18.7402C562.9639,525.2852,554.5469,533.7021,554.5469,544.0254"/>
		<path fill="#535352" d="M742.1465,18.7729c0,10.3565,8.417,18.7569,18.7725,18.7569c10.3242,0,18.7402-8.4004,18.7402-18.7569
			C779.6592,8.4165,771.2432,0,760.919,0C750.5635,0,742.1465,8.4165,742.1465,18.7729"/>
		<path fill="#535352" d="M889.8985,168.8428c0,10.3564,8.3838,18.7568,18.7402,18.7568c10.3565,0,18.7725-8.4004,18.7725-18.7568
			c0-10.3399-8.416-18.7564-18.7725-18.7564C898.2823,150.0864,889.8985,158.5029,889.8985,168.8428"/>
		<path fill="#535352" d="M404.4605,75.043c0,10.3564,8.417,18.7568,18.7734,18.7568c10.3565,0,18.773-8.4004,18.773-18.7568
			c0-10.3399-8.4165-18.7564-18.773-18.7564C412.8775,56.2866,404.4605,64.7031,404.4605,75.043"/>
		<g>
			<path fill="#FDF4BC" d="M779.6592,309.5425c0,88.063-71.4101,159.4565-159.4551,159.4565
				c-88.0468,0-159.457-71.3935-159.457-159.4565c0-88.0625,71.4102-159.4561,159.457-159.4561
				C708.2491,150.0864,779.6592,221.48,779.6592,309.5425z"/>
			<path fill="#535352" d="M620.2041,485.8325c-97.2031,0-176.2905-79.0874-176.2905-176.29s79.0874-176.2896,176.2905-176.2896
				c97.2022,0,176.2891,79.0869,176.2891,176.2896S717.4063,485.8325,620.2041,485.8325L620.2041,485.8325z M620.2041,166.9194
				c-78.6445,0-142.623,63.98-142.623,142.6231c0,78.6435,63.9785,142.623,142.623,142.623
				c78.6426,0,142.6231-63.9795,142.6231-142.623C762.8272,230.8994,698.8467,166.9194,620.2041,166.9194L620.2041,166.9194z"/>
		</g>
		<g>
			<path fill="#535352" d="M685.8604,110.6333c-4.3066,0-8.6309-1.644-11.918-4.9316c-6.5595-6.5757-6.5595-17.2281,0.0157-23.8038
				l37.5468-37.5131c6.5752-6.5591,17.2276-6.5757,23.8028,0c6.5761,6.5918,6.5761,17.2441,0,23.8198l-37.5459,37.5132
				C694.4737,108.9893,690.167,110.6333,685.8604,110.6333L685.8604,110.6333z"/>
		</g>
		<g>
			<path fill="#535352" d="M779.6592,166.9194c-4.3066,0-8.6133-1.6435-11.9004-4.9316c-6.5761-6.5752-6.5761-17.2275,0-23.8032
				l93.7989-93.7998c6.5761-6.5757,17.2285-6.5757,23.8037,0c6.5752,6.5756,6.5752,17.228,0,23.8032l-93.7998,93.7998
				C788.2745,165.2759,783.9668,166.9194,779.6592,166.9194L779.6592,166.9194z"/>
		</g>
		<g>
			<path fill="#535352" d="M835.9463,260.7031c-4.3066,0-8.6132-1.644-11.9023-4.9316c-6.5742-6.5757-6.5742-17.228,0-23.8037
				l37.5137-37.5132c6.5761-6.5757,17.2285-6.5757,23.8037,0s6.5752,17.228,0,23.8032l-37.5127,37.5137
				C844.5596,259.0591,840.253,260.7031,835.9463,260.7031L835.9463,260.7031z"/>
		</g>
		<g>
			<path fill="#535352" d="M458.8404,343.3081c0,8.7783,7.1343,15.9453,15.9458,15.9453c8.8105,0,15.9453-7.167,15.9453-15.9453
				c0-8.8276-7.1348-15.9785-15.9453-15.9785C465.9747,327.3296,458.8404,334.4805,458.8404,343.3081"/>
			<path fill="#535352" d="M522.6553,343.3081c0,8.7783,7.168,15.9453,15.9131,15.9453c8.8447,0,15.9463-7.167,15.9463-15.9453
				c0-8.8276-7.1016-15.9785-15.9463-15.9785C529.8233,327.3296,522.6553,334.4805,522.6553,343.3081"/>
			<path fill="#535352" d="M490.7315,375.1992c0,8.7949,7.168,15.8965,15.9453,15.8965c8.8115,0,15.9785-7.1016,15.9785-15.8965
				c0-8.7783-7.167-15.9458-15.9785-15.9458C497.8995,359.2534,490.7315,366.4209,490.7315,375.1992"/>
			<path fill="#535352" d="M554.5147,375.1992c0,8.7949,7.166,15.8965,15.9785,15.8965c8.7774,0,15.9453-7.1016,15.9453-15.8965
				c0-8.7783-7.1679-15.9458-15.9453-15.9458C561.6807,359.2534,554.5147,366.4209,554.5147,375.1992"/>
			<path fill="#535352" d="M522.6553,407.1396c0,8.7291,7.168,15.8965,15.9131,15.8965c8.8447,0,15.9463-7.1674,15.9463-15.8965
				c0-8.8769-7.1016-16.0439-15.9463-16.0439C529.8233,391.0957,522.6553,398.2627,522.6553,407.1396"/>
			<path fill="#535352" d="M618.3624,375.1992c0,8.7949,7.1015,15.8965,15.9121,15.8965c8.8125,0,15.9462-7.1016,15.9462-15.8965
				c0-8.7783-7.1337-15.9458-15.9462-15.9458C625.4639,359.2534,618.3624,366.4209,618.3624,375.1992"/>
			<path fill="#535352" d="M586.4385,407.1396c0,8.7291,7.167,15.8965,15.9453,15.8965c8.8438,0,15.9786-7.1674,15.9786-15.8965
				c0-8.8769-7.1348-16.0439-15.9786-16.0439C593.6055,391.0957,586.4385,398.2627,586.4385,407.1396"/>
			<path fill="#535352" d="M618.3624,438.9487c0,8.8277,7.1015,16.0117,15.9121,16.0117c8.8125,0,15.9462-7.184,15.9462-16.0117
				c0-8.7451-7.1337-15.9126-15.9462-15.9126C625.4639,423.0361,618.3624,430.2036,618.3624,438.9487"/>
			<path fill="#535352" d="M554.5147,438.9487c0,8.8277,7.166,16.0117,15.9785,16.0117c8.7774,0,15.9453-7.184,15.9453-16.0117
				c0-8.7451-7.1679-15.9126-15.9453-15.9126C561.6807,423.0361,554.5147,430.2036,554.5147,438.9487"/>
			<path fill="#535352" d="M490.7315,311.4165c0,8.8115,7.168,15.9131,15.9453,15.9131c8.8115,0,15.9785-7.1016,15.9785-15.9131
				c0-8.811-7.167-15.9619-15.9785-15.9619C497.8995,295.4546,490.7315,302.6055,490.7315,311.4165"/>
			<path fill="#535352" d="M570.4932,327.3296c0,8.8276,7.1339,15.9785,15.9453,15.9785c8.8106,0,15.9453-7.1509,15.9453-15.9785
				c0-8.7622-7.1347-15.9131-15.9453-15.9131C577.627,311.4165,570.4932,318.5674,570.4932,327.3296"/>
		</g>
	</g>
</g>
</svg>
