<?xml version="1.0" encoding="utf-8"?>
<!-- Generator: Adobe Illustrator 17.1.0, SVG Export Plug-In . SVG Version: 6.00 Build 0)  -->
<!DOCTYPE svg PUBLIC "-//W3C//DTD SVG 1.1//EN" "http://www.w3.org/Graphics/SVG/1.1/DTD/svg11.dtd">
<svg version="1.1" id="asteroid" xmlns="http://www.w3.org/2000/svg" xmlns:xlink="http://www.w3.org/1999/xlink" x="0px" y="0px"
	 viewBox="0 0 992.7038 1010" enable-background="new 0 0 992.7038 1010" xml:space="preserve">
<g id="asteroid-asteroid">
	<g>
		<path fill="#A5A5A4" d="M107.9757,480.1279c-117.7837,117.7676-125.1977,316.6612,0,426.5215
			c62.4512,54.8399,213.2442,131.3291,313.7837,53.1631c23.7544-18.4775,117.2998-37.4639,167.5694-90.4961
			c77.1308-81.4209,73.2509-279.8535-72.627-360.2402c-79.2266-43.6607-99.6108,3.1406-155.1572-42.0991
			C298.8961,416.0166,171.1173,416.9702,107.9757,480.1279z"/>
		<path fill="#535352" d="M319.2799,1010c-94.0298,0-184.0488-57.0098-222.417-90.709
			C37.1901,866.9336,2.8498,792.6787,0.1701,710.2383c-2.9263-89.9365,32.0229-178.1465,95.9038-242.0117
			c34.604-34.6202,88.4409-54.462,147.7358-54.462c50.2041,0,96.9888,14.6304,128.354,40.1436
			c25.0855,20.4336,39.9463,18.2964,57.9634,17.8691c23.376-0.6411,51.3384-1.3481,94.6958,22.5538
			c69.5684,38.3349,114.9395,104.748,127.7617,187.0078c11.8037,76.0292-8.2187,154.3437-51.0586,199.5507
			c-35.541,37.5137-89.5175,58.5879-128.9214,73.9747c-17.622,6.8711-34.2583,13.3808-40.5048,18.2304
			C400.5866,997.5889,362.6295,1010,319.2799,1010L319.2799,1010z M243.8097,447.4312c-49.6782,0-96.0024,16.6689-123.9321,44.5986
			c-57.3223,57.3061-88.6875,136.4419-86.0571,217.1069c2.3833,73.0547,32.6635,138.6944,85.2514,184.8545
			c45.1739,39.667,127.0884,82.3418,200.208,82.3418c35.689,0,66.6924-10.0273,92.1397-29.8193
			c10.1098-7.8584,27.2554-14.5489,48.9385-23.0146c36.4448-14.2363,86.3613-33.7158,116.7402-65.7715
			c35.9355-37.9082,52.5059-105.1103,42.2148-171.2099c-6.4765-41.541-29.4589-117.916-110.7236-162.6953
			c-35.9189-19.792-57.7661-18.8882-77.5586-18.3951c-27.0581,0.7896-50.0395-0.9038-80.1225-25.3979
			C325.445,459.3164,286.4025,447.4312,243.8097,447.4312L243.8097,447.4312z"/>
	</g>
	<g>
		<path fill="#535352" d="M567.399,458.8726c-4.3398,0-8.6797-1.6768-11.9668-5.0137c-6.543-6.625-6.4776-17.2774,0.164-23.8032
			l390.5196-385.375c6.5761-6.5098,17.2285-6.4605,23.8037,0.1479c6.5097,6.625,6.4443,17.2774-0.1641,23.8198L579.235,454.0234
			C575.9479,457.2451,571.6735,458.8726,567.399,458.8726L567.399,458.8726z"/>
	</g>
	<g>
		<path fill="#535352" d="M415.7267,410.5264c-4.3398,0-8.6797-1.6768-11.9678-5.0142c-6.5424-6.6084-6.4765-17.2607,0.1319-23.8032
			l341.146-337.0283c6.6416-6.5264,17.2939-6.4605,23.8037,0.1479c6.543,6.6084,6.4765,17.2774-0.1319,23.8032l-341.146,337.0284
			C424.2746,408.8989,420.0006,410.5264,415.7267,410.5264L415.7267,410.5264z"/>
	</g>
	<g>
		<path fill="#535352" d="M254.2155,375.1172c-4.4058,0-8.8115-1.7261-12.1152-5.1621c-6.461-6.6905-6.2637-17.3428,0.4272-23.8032
			L407.277,187.4023c6.707-6.4277,17.3594-6.2465,23.8032,0.4439c6.4605,6.6904,6.2632,17.3594-0.4272,23.8032L265.9035,370.3989
			C262.632,373.5552,258.4235,375.1172,254.2155,375.1172L254.2155,375.1172z"/>
	</g>
	<g>
		<path fill="#535352" d="M701.4743,710.2051c-4.4053,0-8.8448-1.7422-12.132-5.1944c-6.4443-6.707-6.2137-17.3593,0.4932-23.8037
			l122.4033-117.2734c6.7071-6.4121,17.3594-6.2149,23.8028,0.5098c6.4443,6.7226,6.2148,17.375-0.5254,23.8027L713.1129,705.5205
			C709.8581,708.6436,705.6823,710.2051,701.4743,710.2051L701.4743,710.2051z"/>
	</g>
	<g>
		<path fill="#535352" d="M658.6676,567.7969c-4.3398,0-8.6797-1.6778-12.0009-5.0312c-6.5098-6.625-6.4102-17.2773,0.1972-23.8027
			l265.75-261.6074c6.6084-6.5425,17.2608-6.4278,23.8036,0.1806c6.5098,6.625,6.4444,17.294-0.1971,23.8037l-265.75,261.6075
			C667.2155,566.1855,662.942,567.7969,658.6676,567.7969L658.6676,567.7969z"/>
	</g>
	<g>
		<g>
			<path fill="#535352" d="M159.5934,799.041c-18.5918,0-36.083-7.25-49.2339-20.417
				c-13.1347-13.1181-20.3843-30.6094-20.3843-49.2178c0-18.6093,7.2496-36.083,20.417-49.2343
				c6.543-6.5586,17.2281-6.5752,23.8037,0.0166c6.5586,6.5752,6.5586,17.2441-0.0332,23.8037
				c-6.789,6.789-10.5205,15.8135-10.5205,25.414c0,9.6163,3.7315,18.6417,10.5205,25.4141
				c13.628,13.6279,37.3165,13.5947,50.8453,0.0166c6.5756-6.5918,17.2607-6.5752,23.8032-0.0166
				c6.5923,6.5762,6.5923,17.2285,0.0332,23.8037C195.693,791.791,178.2023,799.041,159.5934,799.041L159.5934,799.041z"/>
		</g>
		<g>
			<path fill="#535352" d="M236.7081,616.3398c-38.4009,0-69.6348-31.2334-69.6348-69.6181c0-9.3036,7.5288-16.8329,16.8335-16.8329
				c9.3042,0,16.833,7.5293,16.833,16.8329c0,19.8252,16.1431,35.9521,35.9683,35.9521c19.8252,0,35.9516-16.127,35.9516-35.9521
				c0-9.3036,7.5288-16.8329,16.833-16.8329c9.3047,0,16.8335,7.5293,16.8335,16.8329
				C306.3263,585.1064,275.0924,616.3398,236.7081,616.3398L236.7081,616.3398z"/>
		</g>
		<g>
			<path fill="#535352" d="M355.4948,680.0732c-18.6084,0-36.083-7.249-49.2344-20.4003c-6.5752-6.5918-6.5752-17.2442,0-23.8204
				c6.5757-6.5586,17.228-6.5586,23.8037,0.0166c13.5781,13.5948,37.2832,13.5948,50.8613,0
				c6.8057-6.8056,10.5376-15.8466,10.5376-25.4472c0-9.5995-3.7319-18.625-10.521-25.3809
				c-6.5918-6.5762-6.5918-17.2285-0.0327-23.8037c6.5752-6.5928,17.2276-6.5928,23.8033-0.0332
				c13.1674,13.1182,20.4169,30.5928,20.4169,49.2021c0.0166,18.6084-7.2329,36.1153-20.4003,49.2667
				C391.5778,672.8242,374.1037,680.0732,355.4948,680.0732L355.4948,680.0732z"/>
		</g>
		<g>
			<path fill="#535352" d="M368.695,893.5313c-9.3042,0-16.833-7.5459-16.833-16.834c0-19.8409-16.1431-35.9678-35.9683-35.9678
				s-35.9517,16.1269-35.9517,35.9678c0,9.2881-7.5288,16.834-16.833,16.834c-9.3046,0-16.8335-7.5459-16.8335-16.834
				c0-38.4005,31.2339-69.6348,69.6181-69.6348c38.4009,0,69.6348,31.2344,69.6348,69.6348
				C385.5285,885.9854,377.9997,893.5313,368.695,893.5313L368.695,893.5313z"/>
		</g>
		<g>
			<path fill="#535352" d="M459.6017,809.9238c-9.3042,0-16.8335-7.5459-16.8335-16.834c0-9.3046,7.5293-16.833,16.8335-16.833
				c19.8252,0,35.9683-16.1435,35.9683-35.9677c0-19.8262-16.1431-35.9522-35.9683-35.9522c-9.3042,0-16.8335-7.5459-16.8335-16.833
				c0-9.3047,7.5293-16.834,16.8335-16.834c38.4009,0,69.6265,31.2344,69.6265,69.6192
				C529.2282,778.6729,498.0026,809.9238,459.6017,809.9238L459.6017,809.9238z"/>
		</g>
	</g>
	<g>
		<path fill="#535352" d="M756.774,136.7871c0,9.6167,7.7921,17.376,17.3594,17.376c9.6328,0,17.3925-7.7593,17.3925-17.376
			c0-9.5835-7.7597-17.3755-17.3925-17.3755C764.5661,119.4116,756.774,127.2036,756.774,136.7871"/>
		<path fill="#535352" d="M957.9196,249.3604c0,9.5673,7.792,17.3593,17.3916,17.3593c9.6006,0,17.3926-7.792,17.3926-17.3593
			c0-9.6333-7.7921-17.376-17.3926-17.376C965.7115,231.9844,957.9196,239.7271,957.9196,249.3604"/>
		<path fill="#535352" d="M514.9596,391.8188c0,9.5508,7.792,17.3594,17.3926,17.3594c9.5996,0,17.3916-7.8086,17.3916-17.3594
			c0-9.6333-7.792-17.392-17.3916-17.392C522.7516,374.4268,514.9596,382.1855,514.9596,391.8188"/>
		<path fill="#535352" d="M514.9596,95.0493c0,9.5674,7.792,17.3594,17.3926,17.3594c9.5996,0,17.3916-7.792,17.3916-17.3594
			c0-9.6006-7.792-17.4087-17.3916-17.4087C522.7516,77.6406,514.9596,85.4487,514.9596,95.0493"/>
		<path fill="#535352" d="M310.6002,362.6069c0,9.6006,7.792,17.3594,17.3926,17.3594c9.5674,0,17.3921-7.7588,17.3921-17.3594
			c0-9.6167-7.8247-17.3921-17.3921-17.3921C318.3922,345.2148,310.6002,352.9902,310.6002,362.6069"/>
		<path fill="#535352" d="M756.774,336.749c0,9.5835,7.7921,17.3594,17.3926,17.3594c9.5996,0,17.3925-7.7759,17.3925-17.3594
			c0-9.6167-7.7929-17.4253-17.3925-17.4253C764.5661,319.3237,756.774,327.1323,756.774,336.749"/>
		<path fill="#535352" d="M453.026,154.1958c0,9.6006,7.7759,17.4087,17.3926,17.4087c9.5674,0,17.3594-7.8081,17.3594-17.4087
			c0-9.5835-7.792-17.4087-17.3594-17.4087C460.8019,136.7871,453.026,144.6123,453.026,154.1958"/>
		<path fill="#535352" d="M774.1667,17.3921c0,9.6167,7.7919,17.4087,17.3925,17.4087c9.5995,0,17.3594-7.792,17.3594-17.4087
			C808.9186,7.792,801.1588,0,791.5592,0C781.9586,0,774.1667,7.792,774.1667,17.3921"/>
		<path fill="#535352" d="M858.0377,542.8916c0,9.583,7.8243,17.376,17.3916,17.376c9.6006,0,17.3926-7.793,17.3926-17.376
			c0-9.5674-7.7921-17.376-17.3926-17.376C865.862,525.5156,858.0377,533.3242,858.0377,542.8916"/>
		<path fill="#535352" d="M674.2838,599.5234c0,9.584,7.793,17.375,17.3926,17.375c9.5674,0,17.3594-7.791,17.3594-17.375
			c0-9.5683-7.792-17.3925-17.3594-17.3925C682.0768,582.1309,674.2838,589.9551,674.2838,599.5234"/>
		<path fill="#535352" d="M656.8589,249.3271c0,9.6167,7.7921,17.4253,17.3926,17.4253c9.5674,0,17.3916-7.8086,17.3916-17.4253
			c0-9.5834-7.8242-17.3593-17.3916-17.3593C664.651,231.9678,656.8589,239.7437,656.8589,249.3271"/>
	</g>
</g>
</svg>
