<?xml version="1.0" encoding="utf-8"?>
<!-- Generator: Adobe Illustrator 17.1.0, SVG Export Plug-In . SVG Version: 6.00 Build 0)  -->
<!DOCTYPE svg PUBLIC "-//W3C//DTD SVG 1.1//EN" "http://www.w3.org/Graphics/SVG/1.1/DTD/svg11.dtd">
<svg version="1.1" id="asteroid-2" xmlns="http://www.w3.org/2000/svg" xmlns:xlink="http://www.w3.org/1999/xlink" x="0px" y="0px"
	 viewBox="0 0 1009.9968 1005.3989" enable-background="new 0 0 1009.9968 1005.3989" xml:space="preserve">
<g id="asteroid-2-asteroid-2">
	<g>
		<path fill="#A5A5A4" d="M113.8394,444.248c-124.8906,124.8736-132.7363,335.729,0,452.2212
			c66.2256,58.127,226.0938,139.2365,332.6729,56.3633c25.2002-19.6055,124.3447-39.7148,177.667-95.9453
			c81.7831-86.3184,77.6836-296.7207-76.9766-381.9458c-84.0078-46.2842-105.6299,3.3428-164.5303-44.6211
			C316.2457,376.2754,180.7877,377.2997,113.8394,444.248z"/>
		<path fill="#535352" d="M337.8756,1005.3989c-99.4649,0-194.754-60.3457-235.3848-95.9941
			C39.357,853.981,3.0181,775.4243,0.1793,688.182c-3.0909-95.1719,33.9023-188.5112,101.497-256.0971
			c36.5733-36.5743,93.4912-57.5567,156.1641-57.5567c53.0791,0,102.5381,15.4727,135.6934,42.4531
			c26.7539,21.7725,42.6377,19.6055,61.8828,19.0674c24.6279-0.6211,54.2041-1.4443,100.0849,23.8233
			c73.584,40.5547,121.5645,110.812,135.1055,197.8354c12.499,80.4043-8.6689,163.2285-53.9453,211.0078
			c-37.6152,39.6641-94.7344,61.9746-136.4483,78.2539c-18.7402,7.3243-36.4394,14.2305-43.1337,19.4375
			C423.7984,992.2953,383.689,1005.3989,337.8756,1005.3989L337.8756,1005.3989z M257.8404,408.9345
			c-52.8272,0-102.1104,17.7568-131.8379,47.4765c-60.8916,60.8823-94.2227,144.9488-91.4336,230.646
			c2.5283,77.6328,34.709,147.4199,90.6192,196.4746c47.9892,42.1348,135.0204,87.461,212.6875,87.461
			c37.9843,0,70.9882-10.668,98.0781-31.7344c10.6504-8.2988,28.7861-15.3731,51.7431-24.3438
			c38.6905-15.1035,91.6944-35.7832,123.9844-69.871c38.2188-40.3204,55.8418-111.7872,44.9219-182.043
			c-6.8711-44.168-31.2979-125.3789-117.6992-172.9898c-38.2451-21.0673-61.5391-20.1093-82.5635-19.5547
			c-28.5684,0.7891-52.7773-0.9414-84.5293-26.7959C344.6959,421.6015,303.15,408.9345,257.8404,408.9345L257.8404,408.9345z"/>
	</g>
	<g>
		<path fill="#535352" d="M600.9625,421.08c-4.4355,0-8.8868-1.7129-12.248-5.1231c-6.6689-6.7539-6.6015-17.6406,0.1524-24.3271
			l24.4941-24.1748c6.7363-6.67,17.6563-6.6026,24.3262,0.1679c6.6699,6.7539,6.6015,17.6397-0.168,24.3262l-24.4775,24.1758
			C609.6988,419.4345,605.3297,421.08,600.9625,421.08L600.9625,421.08z M662.1812,360.6679c-4.4355,0-8.8711-1.7139-12.2305-5.1241
			c-6.6855-6.7539-6.6191-17.6396,0.1348-24.3261l24.4942-24.1748c6.7539-6.67,17.6562-6.586,24.326,0.1679
			c6.6866,6.753,6.6192,17.6397-0.1504,24.3262l-24.4785,24.1748C670.9175,359.0215,666.5494,360.6679,662.1812,360.6679
			L662.1812,360.6679z M723.4,300.2383c-4.4355,0-8.8701-1.7129-12.2471-5.124c-6.6689-6.7706-6.6025-17.6563,0.168-24.3262
			l24.4951-24.1582c6.7695-6.6865,17.6562-6.586,24.3262,0.1679c6.6689,6.7706,6.6015,17.6573-0.168,24.3262L735.48,295.2821
			C732.1363,298.5917,727.7681,300.2383,723.4,300.2383L723.4,300.2383z M784.6187,239.8261c-4.4346,0-8.8691-1.7139-12.2305-5.1241
			c-6.6855-6.7539-6.6191-17.6572,0.168-24.3261l24.4785-24.1582c6.7696-6.67,17.6563-6.6026,24.3262,0.1679
			c6.6699,6.753,6.6016,17.6563-0.168,24.3262l-24.4775,24.1582C793.355,238.1796,788.9879,239.8261,784.6187,239.8261
			L784.6187,239.8261z M845.855,179.4131c-4.4355,0-8.8867-1.7129-12.247-5.124c-6.669-6.753-6.6026-17.6397,0.1679-24.3262
			l24.4776-24.1748c6.7705-6.6699,17.6562-6.6026,24.3262,0.1679c6.6699,6.753,6.6025,17.6397-0.1514,24.3262l-24.4942,24.1748
			C854.5914,177.7666,850.2232,179.4131,845.855,179.4131L845.855,179.4131z M907.0738,119.001
			c-4.4512,0-8.8867-1.7139-12.2471-5.1241c-6.6689-6.7539-6.6025-17.6572,0.168-24.3261l24.4951-24.1758
			c6.7529-6.669,17.6387-6.585,24.3262,0.168c6.6689,6.7539,6.6015,17.6572-0.168,24.3261l-24.4941,24.1758
			C915.8101,117.3545,911.442,119.001,907.0738,119.001L907.0738,119.001z M968.3101,58.5713c-4.4521,0-8.8867-1.7139-12.2635-5.124
			c-6.6534-6.7705-6.586-17.6563,0.1678-24.3262l24.4943-24.1582c6.787-6.6865,17.6738-6.6026,24.326,0.168
			c6.6856,6.7705,6.6016,17.6562-0.1679,24.3261l-24.4941,24.1582C977.0289,56.9248,972.6617,58.5713,968.3101,58.5713
			L968.3101,58.5713z"/>
	</g>
	<g>
		<path fill="#535352" d="M440.1285,369.8065c-4.4356,0-8.8711-1.7129-12.2393-5.1064c-6.6777-6.7705-6.6103-17.6572,0.1514-24.3438
			l24.4775-24.1748c6.7539-6.6699,17.6397-6.5859,24.3262,0.1514c6.6777,6.7705,6.6113,17.6563-0.1514,24.3428l-24.4775,24.1758
			C448.8638,368.161,444.4957,369.8065,440.1285,369.8065L440.1285,369.8065z M501.3218,309.3612
			c-4.4345,0-8.8701-1.7138-12.2382-5.1074c-6.6787-6.7539-6.6114-17.6572,0.1425-24.3262l24.4766-24.1924
			c6.7539-6.7031,17.6406-6.6357,24.3272,0.1348c6.6865,6.7529,6.6191,17.6563-0.1348,24.3262l-24.4776,24.1914
			C510.0582,307.7148,505.69,309.3612,501.3218,309.3612L501.3218,309.3612z M562.524,248.9149
			c-4.4346,0-8.8701-1.7138-12.2471-5.1074c-6.6699-6.7539-6.6025-17.6572,0.1504-24.3262l24.4609-24.1923
			c6.754-6.7032,17.6407-6.6358,24.3438,0.1347c6.6699,6.7539,6.6016,17.6563-0.1514,24.3262l-24.4609,24.1924
			C571.2593,247.2684,566.8922,248.9149,562.524,248.9149L562.524,248.9149z M623.7095,188.4521
			c-4.4355,0-8.8701-1.7138-12.247-5.1074c-6.67-6.7705-6.6026-17.6572,0.1505-24.3437l24.4785-24.1748
			c6.7695-6.67,17.623-6.586,24.3261,0.1513c6.67,6.7705,6.6016,17.6563-0.1513,24.3428l-24.4776,24.1758
			C632.4449,186.8056,628.0777,188.4521,623.7095,188.4521L623.7095,188.4521z M684.8941,128.0058
			c-4.4346,0-8.8691-1.7139-12.2295-5.1075c-6.6865-6.7705-6.6201-17.6572,0.1338-24.3437l24.4941-24.1748
			c6.754-6.669,17.6407-6.585,24.3262,0.1513c6.6699,6.7706,6.6035,17.6573-0.168,24.3428l-24.4599,24.1758
			C693.6304,126.3594,689.2632,128.0058,684.8941,128.0058L684.8941,128.0058z M746.0797,67.5596
			c-4.4346,0-8.8692-1.6973-12.2305-5.1075c-6.6856-6.7539-6.6192-17.6572,0.1348-24.3261l24.4941-24.1924
			c6.7539-6.7031,17.6406-6.6026,24.3262,0.1348c6.6875,6.7539,6.6191,17.6562-0.1338,24.3261l-24.4942,24.1924
			C754.8336,65.9131,750.4488,67.5596,746.0797,67.5596L746.0797,67.5596z"/>
	</g>
	<g>
		<path fill="#535352" d="M268.8697,332.2763c-4.5107,0-9.0137-1.7647-12.3906-5.2754c-6.5938-6.8379-6.3838-17.7237,0.4541-24.3096
			l24.7793-23.873c6.8379-6.585,17.7412-6.3838,24.3271,0.4541c6.5938,6.8369,6.3838,17.7236-0.4541,24.3095l-24.7793,23.8721
			C277.4713,330.6796,273.1705,332.2763,268.8697,332.2763L268.8697,332.2763z M330.8111,272.6024
			c-4.5107,0-9.0137-1.7636-12.3906-5.2754c-6.5938-6.8369-6.3838-17.7236,0.4541-24.3095l24.7803-23.8721
			c6.8369-6.6025,17.7402-6.4014,24.3261,0.4531c6.5938,6.8379,6.3838,17.7237-0.4541,24.3096l-24.7793,23.873
			C339.4127,271.0067,335.1119,272.6024,330.8111,272.6024L330.8111,272.6024z M392.7603,212.912
			c-4.5107,0-9.0127-1.7637-12.3896-5.2578c-6.5938-6.8545-6.3926-17.7412,0.4541-24.3262l24.7715-23.873
			c6.8369-6.6026,17.7236-6.3838,24.3261,0.4365c6.5938,6.8545,6.3926,17.7412-0.4541,24.3262l-24.7715,23.873
			C401.3619,211.3163,397.0611,212.912,392.7603,212.912L392.7603,212.912z"/>
	</g>
	<g>
		<path fill="#535352" d="M743.0894,687.5453c-4.5352,0-9.0547-1.7812-12.4316-5.3105c-6.5684-6.8536-6.3506-17.7404,0.5215-24.3087
			l24.8466-23.8047c6.8545-6.586,17.7569-6.334,24.3262,0.5195c6.5694,6.8555,6.3506,17.7402-0.5205,24.3106l-24.8476,23.8046
			C751.6578,685.9652,747.357,687.5453,743.0894,687.5453L743.0894,687.5453z M805.1822,628.0394
			c-4.5186,0-9.0381-1.7812-12.415-5.3086c-6.5684-6.8554-6.334-17.7421,0.5214-24.3105l24.8467-23.8047
			c6.8711-6.5859,17.7569-6.334,24.3262,0.5195c6.5693,6.8555,6.333,17.7422-0.5205,24.3106l-24.8477,23.8047
			C813.7506,626.4594,809.483,628.0394,805.1822,628.0394L805.1822,628.0394z M867.3082,568.5336
			c-4.5352,0-9.0547-1.7813-12.4317-5.3086c-6.5683-6.8555-6.334-17.7402,0.5215-24.3262l5.5606-5.3262
			c6.8711-6.5507,17.7734-6.3164,24.326,0.5372c6.5684,6.8554,6.334,17.7421-0.5215,24.326l-5.5605,5.3262
			C875.8765,566.9536,871.5757,568.5336,867.3082,568.5336L867.3082,568.5336z"/>
	</g>
	<g>
		<path fill="#535352" d="M697.6968,536.5629c-4.4355,0-8.8877-1.7129-12.248-5.1406c-6.6699-6.7696-6.5859-17.6563,0.1855-24.3262
			l24.5274-24.1411c6.7539-6.6533,17.6562-6.586,24.3262,0.2011c6.6533,6.7706,6.5859,17.6573-0.2012,24.3267l-24.5117,24.1406
			C706.4322,534.9164,702.064,536.5629,697.6968,536.5629L697.6968,536.5629z M758.9996,476.2177
			c-4.4522,0-8.8867-1.7139-12.2481-5.1407c-6.6855-6.7705-6.5848-17.6562,0.168-24.3261l24.5293-24.1416
			c6.7529-6.6358,17.6728-6.586,24.3262,0.2011c6.6689,6.7705,6.5849,17.6573-0.1855,24.3272l-24.5107,24.1406
			C767.7183,474.5712,763.3511,476.2177,758.9996,476.2177L758.9996,476.2177z M820.3023,415.873
			c-4.4355,0-8.9043-1.7138-12.2637-5.1416c-6.6523-6.7705-6.5859-17.6562,0.2012-24.3261l24.5117-24.1416
			c6.7697-6.6524,17.6563-6.585,24.3262,0.2021c6.6699,6.7705,6.5859,17.6563-0.1855,24.3262l-24.5274,24.1416
			C829.0211,414.2265,824.6705,415.873,820.3023,415.873L820.3023,415.873z M881.5884,355.5273
			c-4.4345,0-8.8877-1.7138-12.2636-5.1406c-6.6533-6.7705-6.5694-17.6572,0.2011-24.3262l24.5284-24.125
			c6.7695-6.6533,17.6738-6.5859,24.3261,0.2012c6.6524,6.7705,6.586,17.6572-0.2011,24.3262l-24.5284,24.125
			C890.3238,353.8809,885.9566,355.5273,881.5884,355.5273L881.5884,355.5273z M942.8922,295.1815
			c-4.4532,0-8.8878-1.7138-12.2647-5.1406c-6.6689-6.7705-6.5693-17.6572,0.2022-24.3262l24.5107-24.125
			c6.7871-6.6523,17.6728-6.5683,24.3262,0.2022c6.6689,6.7695,6.5848,17.6562-0.2023,24.3262l-24.5107,24.124
			C951.6109,293.535,947.2427,295.1815,942.8922,295.1815L942.8922,295.1815z"/>
	</g>
	<g>
		<path fill="#535352" d="M530.0504,826.7816c-3.7305,0-7.4434-0.5879-11.0801-1.8144
			c-9.0049-3.0235-13.8428-12.7832-10.8106-21.7891c3.0235-9.0215,12.7842-13.8926,21.8057-10.8027
			c2.0498,0.5879,13.4736-5.2754,19.79-23.9727c5.9815-17.7753,1.3781-30.2226-1.2422-31.1133
			c-8.9882-3.0586-13.8105-12.8359-10.7519-21.8242c3.041-9.0038,12.8008-13.826,21.8057-10.7676
			c24.1591,8.1973,34.1377,41.0079,22.7802,74.6915C572.6715,808.0336,551.1334,826.7816,530.0504,826.7816L530.0504,826.7816z"/>
	</g>
	<g>
		<path fill="#535352" d="M118.6441,713.1137c-1.3105,0-2.6289-0.1504-3.956-0.4532
			c-30.6856-7.2246-48.9385-41.6972-40.6817-76.8261c8.2832-35.162,39.9424-57.8926,70.6524-50.6523
			c9.249,2.1836,14.9853,11.4413,12.8105,20.6973c-2.1846,9.2402-11.4668,14.918-20.6895,12.8027
			c-11.9111-2.7383-25.4179,8.6348-29.2822,25.0312c-3.8476,16.3808,3.0489,32.625,15.0694,35.4472
			c9.248,2.1856,14.9853,11.4414,12.8095,20.6993C133.5123,707.7719,126.439,713.1137,118.6441,713.1137L118.6441,713.1137z"/>
	</g>
	<g>
		<path fill="#535352" d="M265.6607,887.4965c-9.5176,0-19.2363-2.6192-27.9297-7.6778
			c-24.2178-14.0781-33.8017-43.0234-21.3447-64.5117c4.7715-8.2148,15.2715-11.0527,23.5117-6.2656
			c8.2149,4.7539,11.0205,15.2871,6.2578,23.5039c-2.5371,4.3848,0.4873,12.6504,8.8789,17.5391
			c4.7373,2.7539,10.1553,3.6777,14.4483,2.5371c1.6709-0.4375,3.9228-1.4121,5.1318-3.4961
			c4.7715-8.1973,15.2969-11.0039,23.5205-6.2481c8.2149,4.7696,11.0117,15.3047,6.249,23.5196
			c-5.5693,9.5918-14.8339,16.5136-26.0986,19.4882C274.1949,886.9769,269.9449,887.4965,265.6607,887.4965L265.6607,887.4965z"/>
	</g>
	<g>
		<path fill="#535352" d="M381.6558,622.4946c-12.2304,0-24.9902-3.1738-36.8506-9.8105
			c-15.4726-8.6524-27.291-21.9571-33.2802-37.4473c-6.334-16.3809-5.3848-33.9531,2.5947-48.2148
			c4.6289-8.2831,15.0703-11.2578,23.4111-6.6211c8.291,4.6386,11.2559,15.1211,6.6104,23.4199
			c-4.0479,7.2402-2.0655,15.0195-0.5205,19.0176c3.0576,7.9121,9.6093,15.1367,17.9843,19.8066
			c16.1866,9.0723,35.5157,6.5703,42.2432-5.459c4.6455-8.2832,15.1543-11.2051,23.4111-6.6191
			c8.2911,4.6523,11.2559,15.1367,6.6114,23.418C423.5552,612.4144,403.4537,622.4789,381.6558,622.4946L381.6558,622.4946z"/>
	</g>
</g>
</svg>
