<?xml version="1.0" encoding="utf-8"?>
<!-- Generator: Adobe Illustrator 17.1.0, SVG Export Plug-In . SVG Version: 6.00 Build 0)  -->
<!DOCTYPE svg PUBLIC "-//W3C//DTD SVG 1.1//EN" "http://www.w3.org/Graphics/SVG/1.1/DTD/svg11.dtd">
<svg version="1.1" id="astronaut-helmet" xmlns="http://www.w3.org/2000/svg" xmlns:xlink="http://www.w3.org/1999/xlink" x="0px"
	 y="0px" viewBox="0 0 1010 991.9748" enable-background="new 0 0 1010 991.9748" xml:space="preserve">
<g id="astronaut-helmet-astronaut-helmet">
	<g>
		<path fill="#FDF4BC" d="M841.6338,756.7688v122.5341c-83.3447,74.6328-203.1836,95.8389-336.3706,95.8389
			c-141.3902,0-267.7222-27.124-351.3794-109.8447v-132.168"/>
		<path fill="#535352" d="M505.2632,991.9748c-166.3609,0-285.1641-37.5459-363.2153-114.71
			c-3.2061-3.1562-4.9976-7.4628-4.9976-11.9677v-132.168c0-9.3037,7.5288-16.833,16.8335-16.833
			c9.3042,0,16.833,7.5293,16.833,16.833v125.001c71.5747,67.3994,181.1064,100.1786,334.5464,100.1786
			c148.0806,0,249.9028-27.585,319.5376-86.666v-114.874c0-9.3047,7.5293-16.8331,16.833-16.8331s16.833,7.5283,16.833,16.8331
			v122.5341c0,4.7676-2.0381,9.3379-5.6055,12.5274C776.5859,960.1496,666.1328,991.9748,505.2632,991.9748L505.2632,991.9748z"/>
	</g>
	<path fill="#E1E1E1" d="M892.1504,605.9592v98.8955c-15.7158,14.0389-32.6475,27.6172-50.5166,40.5712v-1.25
		c-88.9834,60.791-203.3154,97.4492-328.2002,97.4492c-140.0591,0-266.917-45.9951-359.5498-120.5293v0.7236
		c-12.6582-10.6191-24.7241-21.6006-36.0342-32.8115v-83.0488"/>
	<path fill="#FFFFFF" d="M892.1504,403.9348c0-20.3848,18.4111-36.6924,39.4365-33.1573
		c16.5703,2.7618,27.8965,18.4278,27.8965,35.212v35.5566c0,7.1182,5.8193,12.9043,12.9053,12.9043h0.1972
		c11.3916,0,20.5801,9.1894,20.5801,20.5654v59.8613c0,11.376-9.1885,20.5489-20.5801,20.5489h-0.1972
		c-7.086,0-12.9053,5.7861-12.9053,12.9541v35.54c0,16.7676-11.3262,32.4512-27.8965,35.1797
		c-21.0254,3.584-39.4365-12.7568-39.4365-33.1406"/>
	<path fill="#E6E6E6" d="M117.8496,403.9348c0-117.8008,53.377-223.6504,137.0342-294.8145v0.0166
		c9.9121-8.416,20.2031-16.373,30.8555-23.7373c58.1279-40.1767,127.5981-64.9004,202.4111-68.1885
		c5.6055-0.2461,11.2109-0.4267,16.8496-0.4267s11.2275,0.1806,16.8496,0.4267c74.8301,3.2881,144.2832,28.0118,202.4434,68.1885
		c10.6523,7.3643,20.9277,15.3213,30.8066,23.7373c0.0166,0,0.0166-0.0166,0.0166-0.0166
		c83.6406,71.1641,137.0342,177.0137,137.0342,294.8145"/>
	<path fill="#FFFFFF" d="M117.8496,605.9592c0,20.3838-18.4111,36.7246-39.4365,33.1406
		c-16.5537-2.7285-27.8965-18.4121-27.8965-35.1797v-41.9512c0-3.5839-2.9756-6.5429-6.5757-6.5429h-6.5757
		c-11.3261,0-20.5322-9.1074-20.5322-20.5489v-53.3183c0-14.9766,12.1484-27.1084,27.1079-27.1084
		c3.6001,0,6.5757-2.9424,6.5757-6.5586v-41.8857c0-16.7842,11.3428-32.4834,27.8965-35.2286
		c21.0254-3.5673,39.4365,12.7725,39.4365,33.1573"/>
	<g>
		<path fill="#A5A5A4" d="M892.1504,627.1652v77.6895c-15.7158,14.0389-32.6475,27.6172-50.5166,40.5712v-1.25
			c-88.9834,60.791-203.3154,97.4492-328.2002,97.4492c-140.0591,0-266.917-45.9951-359.5498-120.5293v0.7236
			c-12.6582-10.6191-24.7241-21.6006-36.0342-32.8115v-83.0488"/>
		<path fill="#535352" d="M513.4336,858.4592c-137.4121,0-267.3447-43.0703-366.4541-121.3516
			c-1.3975-0.5918-2.7129-1.3808-3.9126-2.4004c-13.1343-11.0136-25.6118-22.3886-37.0698-33.7646
			c-3.1885-3.1563-4.9805-7.4639-4.9805-11.9346v-83.0488c0-9.3047,7.5288-16.834,16.833-16.834
			c9.3047,0,16.8335,7.5293,16.8335,16.834v75.9804c8.3677,8.0879,17.2607,16.1426,26.5483,24.0333
			c1.1182,0.5253,2.2032,1.1835,3.2061,2.0058C258.04,783.301,381.9717,824.7922,513.4336,824.7922
			c116.3047,0,229.4853-33.5674,318.6992-94.5225c1.4951-0.9863,3.1064-1.7431,4.7832-2.2363
			c13.4795-9.9619,26.3516-20.2852,38.4004-30.7734v-70.0948c0-9.3047,7.5293-16.833,16.834-16.833s16.833,7.5283,16.833,16.833
			v77.6895c0,4.7997-2.0381,9.3701-5.6221,12.5596c-15.9941,14.3017-33.4365,28.3076-51.8476,41.6562
			c-1.792,1.2813-3.7969,2.2022-5.8848,2.7285C751.7461,824.1682,634.0781,858.4592,513.4336,858.4592L513.4336,858.4592z"/>
	</g>
	<g>
		<path fill="#E6E6E6" d="M875.3164,403.9348c0-20.3848,35.2451-36.6924,56.2704-33.1573
			c16.5703,2.7618,27.8965,18.4278,27.8965,35.212v35.5566c0,7.1182,5.8193,12.9043,12.9053,12.9043h0.1972
			c11.3916,0,20.5801,9.1894,20.5801,20.5654v59.8613c0,11.376-9.1885,20.5489-20.5801,20.5489h-0.1972
			c-7.086,0-12.9053,5.7861-12.9053,12.9541v35.54c0,16.7676-11.3262,32.4512-27.8965,35.1797
			c-21.0254,3.584-39.4365,8.4492-39.4365-11.9346"/>
		<path fill="#535352" d="M907.6523,659.1223c-8.0878,0.0322-15.666-1.6768-22.0117-7.003
			c-4.701-3.9453-10.3242-11.4746-10.3242-24.9541c0-9.3047,7.5293-16.833,16.834-16.833c8.7285,0,15.9121,6.6407,16.751,15.1563
			c4.1259-0.2305,10.5049-1.3477,15.1074-2.1367l4.7666-0.8555c7.8086-1.2822,13.875-9.4356,13.875-18.5762v-35.54
			c0-16.4063,13.3476-29.7871,29.7383-29.7871c2.3008,0,3.9453-1.6114,3.9453-3.7159v-59.8613c0-2.0879-1.6445-3.7314-3.7481-3.7314
			c-16.5879,0-29.9355-13.3487-29.9355-29.7383v-35.5566c0-9.1407-6.082-17.3106-13.8252-18.6094
			c-7.9229-1.2822-22.8662,2.6142-31.9736,10.3076c-3.8633,3.2715-4.7012,5.6221-4.7012,6.2471
			c0,9.3037-7.5293,16.833-16.834,16.833c-9.3037,0-16.833-7.5293-16.833-16.833c0-11.6885,5.7539-22.7354,16.6357-31.9414
			c15.8633-13.4307,40.7032-20.877,59.2618-17.8194c23.9023,3.9785,41.9355,26.2696,41.9355,51.8155v31.8251
			C995.2871,439.7707,1010,455.7004,1010,475.0158v59.8613c0,19.3653-14.7949,35.3438-33.6836,37.2178v31.8252
			c0,25.5469-18.0488,47.8379-41.9844,51.7832l-4.4882,0.7891C922.3975,657.8068,914.8359,659.1223,907.6523,659.1223
			L907.6523,659.1223z"/>
	</g>
	<g>
		<path fill="#A5A5A4" d="M117.8496,403.9348c0-117.8008,53.377-223.6504,137.0342-294.8145v0.0166
			c9.9121-8.416,20.2031-16.373,30.8555-23.7373c58.1279-40.1767,127.5981-64.9004,202.4111-68.1885
			c5.6055-0.2461,11.2109-0.4267,16.8496-0.4267s11.2275,0.1806,16.8496,0.4267c74.8301,3.2881,144.2832,28.0118,202.4434,68.1885
			c10.6523,7.3643,20.9277,15.3213,30.8066,23.7373c0.0166,0,0.0166-0.0166,0.0166-0.0166
			c83.6406,71.1641,137.0342,177.0137,137.0342,294.8145"/>
		<path fill="#535352" d="M892.1504,420.7678c-9.3047,0-16.834-7.5293-16.834-16.833c0-108.3155-47.7871-211.1075-131.1152-281.9922
			c-9.7149-8.252-19.6446-15.8955-29.4746-22.7012C657.3711,59.6232,590.416,37.0695,521.1094,34.0285
			c-10.75-0.4609-21.5015-0.4609-32.2193,0c-69.3227,3.041-136.2612,25.5947-193.5835,65.2129
			c-9.8964,6.8545-19.8252,14.499-29.5244,22.7344c-83.3115,70.8515-131.0991,173.6269-131.0991,281.959
			c0,9.3037-7.5288,16.833-16.8335,16.833c-9.3042,0-16.833-7.5293-16.833-16.833c0-118.2286,52.1108-230.3575,142.9678-307.6368
			c10.5869-8.9755,21.4199-17.2929,32.1875-24.7402C338.7051,28.3244,411.7593,3.715,487.4106,0.3947
			c11.7041-0.5263,23.441-0.5263,35.1792,0c75.6348,3.3203,148.6885,27.9297,211.2715,71.1465
			c10.833,7.4961,21.6494,15.8311,32.1543,24.79c90.8574,77.2627,142.9678,189.375,142.9678,307.6036
			C908.9834,413.2385,901.4551,420.7678,892.1504,420.7678L892.1504,420.7678z"/>
	</g>
	<g>
		<path fill="#E6E6E6" d="M117.8496,605.9592c0,20.3838-18.4111,36.7246-39.4365,33.1406
			c-16.5537-2.7285-27.8965-18.4121-27.8965-35.1797v-41.9512c0-3.5839-2.9756-6.5429-6.5757-6.5429h-6.5757
			c-11.3261,0-20.5322-9.1074-20.5322-20.5489v-53.3183c0-14.9766,12.1484-27.1084,27.1079-27.1084
			c3.6001,0,6.5757-2.9424,6.5757-6.5586v-41.8857c0-16.7842,11.3428-32.4834,27.8965-35.2286
			c21.0254-3.5673,56.27,12.7725,56.27,33.1573"/>
		<path fill="#535352" d="M84.1338,656.426c-2.8272,0-5.6875-0.2305-8.5317-0.7227c-23.8692-3.9453-41.919-26.2363-41.919-51.7832
			v-31.8252C14.7949,570.2209,0,554.2424,0,534.8771v-53.3183c0-20.6973,14.3838-38.1055,33.6831-42.7246v-32.8281
			c0-25.5791,18.0498-47.8702,41.9683-51.8321c18.3789-3.1396,43.2832,4.3399,59.1797,17.7705
			c10.915,9.2051,16.6855,20.2686,16.6855,31.9903c0,9.3037-7.5293,16.833-16.8335,16.833s-16.8335-7.5293-16.8335-16.833
			c0-0.625-0.8545-2.9922-4.7344-6.2803c-9.123-7.6934-24.083-11.6719-31.8911-10.2744
			c-7.8081,1.2822-13.8745,9.4687-13.8745,18.626v41.8857c0,12.9043-10.5039,23.3926-23.4087,23.3926
			c-5.6714,0-10.2739,4.6025-10.2739,10.2744v53.3183c0,2.1045,1.6269,3.7159,3.6982,3.7159h6.5757
			c12.9048,0,23.4087,10.4873,23.4087,23.3759v41.9512c0,9.1406,6.0664,17.294,13.8252,18.5762
			c6.8223,1.1836,11.5894-1.8087,13.8252-3.7149c3.8135-3.2226,6.0166-7.8906,6.0166-12.8222c0-9.3047,7.5288-16.834,16.833-16.834
			c9.3047,0,16.8335,7.5293,16.8335,16.834c0,14.8603-6.5425,28.8994-17.9673,38.5654
			C107.5264,652.2834,96.0029,656.426,84.1338,656.426L84.1338,656.426z"/>
	</g>
	<path fill="#535352" d="M104.8301,504.9348c0-5.5235-2.334-11.0313-6.1153-15.0752c-7.874-7.8575-22.0937-7.8575-30.1982,0
		c-3.7969,4.0439-6.1313,9.5517-6.1313,15.0752c0,5.4902,2.3344,11.0048,6.1313,15.082c4.0938,3.8135,9.6006,6.082,15.0908,6.082
		c5.5073,0,11.0469-2.2685,15.1074-6.082C102.4961,515.9396,104.8301,510.425,104.8301,504.9348z"/>
	<g>
		<path fill="#B0D8EF" d="M872.8018,464.4953c0-127.9277-165.5225-248.6699-367.8018-248.6699S137.1982,336.5676,137.1982,464.4953
			v171.3818c89.4434,55.9913,224.587,107.6748,375.8077,107.6748c142.4589,0,270.5995-47.7061,359.7958-98.1729V464.4953z"/>
		<path fill="#535352" d="M513.0059,760.385c-188.2574,0-331.7681-77.0977-384.7339-110.2383l-7.9068-4.9317V464.4953
			c0-141.4404,179.7412-265.5039,384.6348-265.5039c204.8926,0,384.6348,124.0635,384.6348,265.5039V655.177l-8.5479,4.833
			C814.8379,697.5236,678.9219,760.385,513.0059,760.385L513.0059,760.385z M154.0312,626.4748
			c55.8926,33.666,188.0928,100.2441,358.9747,100.2441c151.4012,0,276.9121-55.0703,342.9629-91.2363V464.4953
			c0-123.5049-164.0098-231.8369-350.9688-231.8369c-186.9585,0-350.9688,108.332-350.9688,231.8369V626.4748L154.0312,626.4748z"/>
	</g>
	<path fill="#535352" d="M947.6152,504.9348c0-5.5235-2.2851-11.0635-6.1328-15.0909c-7.873-7.8418-22.3066-7.8418-30.1484,0
		c-3.8457,4.0274-6.1641,9.3536-6.1641,15.0909c0,5.6875,2.3184,11.0048,6.1641,15.082c4.0449,3.8135,9.5185,6.1484,15.0586,6.1484
		c5.4902,0,11.0137-2.3349,15.0898-6.1484C945.3301,515.9396,947.6152,510.425,947.6152,504.9348z"/>
	<g>
		<path fill="#FFFFFF" d="M240.0391,606.1564c-9.3037,0-16.833-7.5293-16.833-16.8339V485.635
			c0-84.8077,111.5205-179.3145,271.5361-179.3145c9.3042,0,16.834,7.5293,16.834,16.833c0,9.3047-7.5298,16.834-16.834,16.834
			c-133.96,0-237.8691,78.2979-237.8691,145.6475v103.6875C256.873,598.6271,249.3438,606.1564,240.0391,606.1564L240.0391,606.1564
			z"/>
	</g>
</g>
</svg>
