<?xml version="1.0" encoding="utf-8"?>
<!-- Generator: Adobe Illustrator 17.1.0, SVG Export Plug-In . SVG Version: 6.00 Build 0)  -->
<!DOCTYPE svg PUBLIC "-//W3C//DTD SVG 1.1//EN" "http://www.w3.org/Graphics/SVG/1.1/DTD/svg11.dtd">
<svg version="1.1" id="astronaut-face" xmlns="http://www.w3.org/2000/svg" xmlns:xlink="http://www.w3.org/1999/xlink" x="0px"
	 y="0px" viewBox="0 0 893.6537 1010" enable-background="new 0 0 893.6537 1010" xml:space="preserve">
<g id="astronaut-face-astronaut-face">
	<g>
		<path fill="#B0D8EF" d="M773.7485,993.167H114.8979c-46.1109,0-83.4927-200.1592-83.4927-200.1592
			c0-46.0947,37.3818-83.4766,83.4927-83.4766h658.8506c46.1279,0,83.5097,37.3819,83.5097,83.4766
			C857.2582,793.0078,819.8764,993.167,773.7485,993.167z"/>
		<path fill="#535352" d="M773.7485,1010H114.8979c-52.292,0-85.1201-134.0088-100.0464-213.9014
			c-0.1812-1.0195-0.2798-2.0555-0.2798-3.0908c0-55.2998,45.0098-100.3096,100.3262-100.3096h658.8506
			c55.333,0,100.3427,45.0098,100.3427,100.3096c0,1.0352-0.0986,2.0713-0.2792,3.0908
			C858.8852,875.9912,826.0405,1010,773.7485,1010L773.7485,1010z M48.2553,791.5283
			c17.77,94.1455,49.4639,182.0108,66.7246,184.8213l658.7197-0.0166c17.293-2.876,48.9541-90.6924,66.7081-184.8047
			c-0.7891-36.0664-30.3947-65.1631-66.6592-65.1631H114.8979C78.6342,726.3652,49.0444,755.4619,48.2553,791.5283L48.2553,791.5283
			z"/>
	</g>
	<g>
		<path fill="#FDF4BC" d="M679.1928,730.7373c0,45.7002-107.5098,82.7207-240.0723,82.7207
			c-132.5957,0-231.935-40.834-231.935-86.5342c0-127.8281-8.1865-248.1601,237.1626-248.1601
			C679.1928,478.7637,679.1928,587.8184,679.1928,730.7373z"/>
		<path fill="#E6E6E6" d="M133.5727,327.5923c0-171.6045,139.1377-310.7588,310.7422-310.7588
			c171.6211,0,310.7597,139.1543,310.7597,310.7588v130.8364c0,153.5225-139.1386,278.0293-310.7597,278.0293
			c-171.6045,0-310.7422-124.5068-310.7422-278.0293V327.5923z"/>
		<path fill="#A5A5A4" d="M755.0746,441.8091c0,88.9995-135.8505,161.1333-303.4931,161.1333
			c-167.627,0-303.5098-72.1338-303.5098-161.1333c0-88.9502-64.9336-263.6782,318.5342-272.7359
			C812.3803,160.9194,755.0746,352.8589,755.0746,441.8091z"/>
		<g>
			<path fill="#535352" d="M755.0746,349.4888c-9.3046,0-16.8339-7.5454-16.8339-16.833
				c0-83.9698-134.6006-154.9029-293.9258-154.9029c-159.3081,0-293.9092,70.9331-293.9092,154.9029
				c0,9.2876-7.5288,16.833-16.833,16.833c-9.3047,0-16.8335-7.5454-16.8335-16.833c0-105.751,143.8887-188.5699,327.5757-188.5699
				c183.7041,0,327.5928,82.8189,327.5928,188.5699C771.9077,341.9434,764.3784,349.4888,755.0746,349.4888L755.0746,349.4888z"/>
		</g>
		<g>
			<path fill="#535352" d="M444.3149,622.4717c-183.687,0-327.5757-82.835-327.5757-188.586
				c0-9.3042,7.5288-16.8335,16.8335-16.8335c9.3042,0,16.833,7.5293,16.833,16.8335c0,83.9698,134.6011,154.919,293.9092,154.919
				c159.3252,0,293.9258-70.9492,293.9258-154.919c0-9.3042,7.5293-16.8335,16.8339-16.8335
				c9.3038,0,16.8331,7.5293,16.8331,16.8335C771.9077,539.6367,628.019,622.4717,444.3149,622.4717L444.3149,622.4717z"/>
		</g>
		<g>
			<path fill="#535352" d="M689.6811,388.6133c-9.3047,0-16.834-7.5454-16.834-16.8335
				c0-67.6128-104.6494-124.7373-228.5322-124.7373c-123.8496,0-228.4824,57.1245-228.4824,124.7373
				c0,9.2881-7.5293,16.8335-16.8335,16.8335c-9.3042,0-16.8335-7.5454-16.8335-16.8335
				c0-88.835,115.1538-158.4043,262.1494-158.4043c147.0293,0,262.1992,69.5693,262.1992,158.4043
				C706.5141,381.0679,698.9848,388.6133,689.6811,388.6133L689.6811,388.6133z"/>
		</g>
		<g>
			<path fill="#535352" d="M444.3149,835.0908c-142.0967,0-262.1494-63.8808-262.1494-139.499v-62.1719
				c0-9.2881,7.5293-16.834,16.8335-16.834c9.3042,0,16.8335,7.5459,16.8335,16.834v62.1719
				c0,49.957,97.7119,105.833,228.4824,105.833c98.7978,0,157.2207-28.7021,183.2431-45.8154
				c7.8086-5.0957,18.2149-2.959,23.3272,4.8164c5.0957,7.7597,2.9424,18.1982-4.8164,23.3105
				C616.8901,802.9199,551.8745,835.0908,444.3149,835.0908L444.3149,835.0908z"/>
		</g>
		<g>
			<path fill="#535352" d="M444.3149,753.292c-180.6294,0-327.5757-132.2666-327.5757-294.8633V327.5923
				C116.7392,146.9463,263.6855,0,444.3149,0c180.6299,0,327.5928,146.9463,327.5928,327.5923v130.8364
				C771.9077,621.0254,624.9448,753.292,444.3149,753.292L444.3149,753.292z M444.3149,33.6665
				c-162.0698,0-293.9092,131.856-293.9092,293.9258v130.8364c0,144.0205,131.8394,261.1963,293.9092,261.1963
				c162.0703,0,293.9258-117.1758,293.9258-261.1963V327.5923C738.2407,165.5225,606.3852,33.6665,444.3149,33.6665
				L444.3149,33.6665z"/>
		</g>
		<g>
			<path fill="#535352" d="M636.8295,786.498c-5.5556,0-10.9803-2.7285-14.1865-7.7587
				c-5.0137-7.8252-2.7285-18.2315,5.0967-23.2452c29.0801-18.6251,45.1074-39.8964,45.1074-59.9023v-62.1719
				c0-9.2881,7.5293-16.834,16.834-16.834c9.3037,0,16.833,7.5459,16.833,16.834v62.1719c0,31.8906-21.5352,63.2236-60.626,88.2598
				C643.0766,785.6436,639.937,786.498,636.8295,786.498L636.8295,786.498z"/>
		</g>
		<g>
			<g>
				<path fill="#535352" d="M337.3647,396.8491c-12.3789,0-22.4561-10.0771-22.4561-22.4717
					c0-12.395,10.0772-22.4721,22.4561-22.4721c12.3945,0,22.4883,10.0771,22.4883,22.4721
					C359.853,386.772,349.7592,396.8491,337.3647,396.8491L337.3647,396.8491z"/>
			</g>
			<g>
				<path fill="#535352" d="M376.7846,352.5303c-1.7266,0-3.4687-0.2798-5.1943-0.8384c-22.3897-7.2827-46.062-7.2827-68.4517,0
					c-8.8442,2.8437-18.3291-1.9727-21.206-10.8003c-2.8765-8.8442,1.9726-18.3457,10.8169-21.2227
					c29.1621-9.4853,60.0673-9.4853,89.2294,0c8.8448,2.877,13.6934,12.3785,10.8174,21.2227
					C390.478,347.9932,383.8862,352.5137,376.7846,352.5303L376.7846,352.5303z"/>
			</g>
			<g>
				<path fill="#535352" d="M548.9975,396.8491c-12.3789,0-22.4551-10.0771-22.4551-22.4717
					c0-12.395,10.0762-22.4721,22.4551-22.4721c12.3945,0,22.4883,10.0771,22.4883,22.4721
					C571.4858,386.772,561.392,396.8491,548.9975,396.8491L548.9975,396.8491z"/>
			</g>
			<g>
				<path fill="#535352" d="M588.3852,352.5303c-1.7266,0-3.4688-0.2798-5.1953-0.8384c-22.3897-7.2661-45.9951-7.2661-68.3848,0
					c-8.8281,2.8437-18.3301-1.9727-21.206-10.8003c-2.877-8.8442,1.9726-18.3457,10.8164-21.2227
					c29.1621-9.4687,60.0019-9.4687,89.164,0c8.8438,2.877,13.6934,12.3785,10.8164,21.2227
					C602.0786,347.9932,595.4868,352.5303,588.3852,352.5303L588.3852,352.5303z"/>
			</g>
			<g>
				<path fill="#535352" d="M443.1977,463.7715c-11.2285,0-22.4727-1.7754-33.3877-5.3428
					c-8.8438-2.8765-13.6768-12.3784-10.7998-21.2222c2.876-8.8276,12.4111-13.6772,21.2217-10.7841
					c15.0088,4.8823,30.872,4.8989,45.8808,0c8.9102-2.8604,18.3457,1.9565,21.2227,10.7841
					c2.8935,8.8438-1.9395,18.3457-10.7676,21.2222C465.6528,461.9961,454.4252,463.7715,443.1977,463.7715L443.1977,463.7715z"/>
			</g>
			<g>
				<path fill="#535352" d="M500.7329,544.2559H387.9467c-9.3047,0-16.834-7.5293-16.834-16.834
					c0-9.2871,7.5293-16.8321,16.834-16.8321h112.7862c9.3046,0,16.8339,7.545,16.8339,16.8321
					C517.5668,536.7266,510.0375,544.2559,500.7329,544.2559L500.7329,544.2559z"/>
			</g>
		</g>
	</g>
	<g>
		<path fill="#535352" d="M95.5991,482.1338c2.4326,9.1069-2.959,18.4936-12.0992,20.9429
			c-9.1069,2.4331-18.477-2.9756-20.9101-12.0826c-2.4331-9.1401,2.9917-18.477,12.0659-20.9267
			C83.7631,467.6182,93.166,473.0264,95.5991,482.1338"/>
		<path fill="#535352" d="M811.9194,611.8193c2.4336,9.1075-2.959,18.5098-12.0655,20.9434
			c-9.1406,2.4326-18.5107-2.9922-20.9433-12.0664c-2.4326-9.1397,2.959-18.4776,12.0986-20.9424
			C800.1166,597.3203,809.4868,602.7129,811.9194,611.8193"/>
		<path fill="#535352" d="M873.7621,668.2373c2.4336,9.1074-2.9912,18.4775-12.0986,20.9434
			c-9.1074,2.4326-18.4775-2.9922-20.9102-12.0996c-2.4659-9.1065,2.9589-18.4766,12.0986-20.9102
			C861.9594,653.7051,871.3295,659.0977,873.7621,668.2373"/>
		<path fill="#535352" d="M50.2768,542.3164c2.4331,9.1074-2.959,18.4932-12.082,20.9434
			c-9.1241,2.4316-18.4776-2.9766-20.9102-12.083c-2.4497-9.1397,2.9751-18.4776,12.082-20.9268
			C38.4575,527.8008,47.8442,533.209,50.2768,542.3164"/>
		<path fill="#535352" d="M33.5751,446.0835c2.4659,9.1396-2.9589,18.477-12.0659,20.9263
			c-9.1074,2.4497-18.4936-2.9751-20.9267-12.066c-2.4327-9.1235,2.9755-18.4936,12.0991-20.9267
			C21.7885,431.5679,31.142,436.9761,33.5751,446.0835"/>
		<g>
			<g>
				<path fill="#535352" d="M840.1616,575.3252c-6.9698,0-12.625-5.6553-12.625-12.625v-81.7173
					c0-6.9702,5.6552-12.625,12.625-12.625c6.9697,0,12.625,5.6548,12.625,12.625v81.7173
					C852.7866,569.6699,847.1313,575.3252,840.1616,575.3252L840.1616,575.3252z"/>
			</g>
			<g>
				<path fill="#535352" d="M881.0287,534.459h-81.7343c-6.9698,0-12.625-5.6562-12.625-12.625
					c0-6.9707,5.6552-12.625,12.625-12.625h81.7343c6.9698,0,12.625,5.6543,12.625,12.625
					C893.6537,528.8027,887.9985,534.459,881.0287,534.459L881.0287,534.459z"/>
			</g>
		</g>
		<g>
			<g>
				<path fill="#535352" d="M68.6557,683.1309c-6.9702,0-12.625-5.6553-12.625-12.625v-81.7012
					c0-6.9697,5.6548-12.625,12.625-12.625c6.9697,0,12.625,5.6553,12.625,12.625v81.7012
					C81.2807,677.4756,75.6254,683.1309,68.6557,683.1309L68.6557,683.1309z"/>
			</g>
			<g>
				<path fill="#535352" d="M109.5224,642.2637H27.8051c-6.9697,0-12.625-5.6544-12.625-12.625
					c0-6.9698,5.6553-12.625,12.625-12.625h81.7173c6.9702,0,12.625,5.6552,12.625,12.625
					C122.1474,636.6094,116.4926,642.2637,109.5224,642.2637L109.5224,642.2637z"/>
			</g>
		</g>
	</g>
</g>
</svg>
