<?xml version="1.0" encoding="utf-8"?>
<!-- Generator: Adobe Illustrator 17.1.0, SVG Export Plug-In . SVG Version: 6.00 Build 0)  -->
<!DOCTYPE svg PUBLIC "-//W3C//DTD SVG 1.1//EN" "http://www.w3.org/Graphics/SVG/1.1/DTD/svg11.dtd">
<svg version="1.1" id="astronaut-moon" xmlns="http://www.w3.org/2000/svg" xmlns:xlink="http://www.w3.org/1999/xlink" x="0px"
	 y="0px" viewBox="0 0 1010 1010" enable-background="new 0 0 1010 1010" xml:space="preserve">
<g id="astronaut-moon-astronaut-moon">
	<g>
		<path fill="#FDF4BC" d="M505,482.8242c-269.6128,0-488.167,218.5371-488.167,488.1338v22.209h976.333v-22.209
			C993.166,701.3613,774.6133,482.8242,505,482.8242z"/>
		<g>
			<path fill="#535352" d="M993.166,1010H16.833C7.5371,1010,0,1002.4707,0,993.167v-22.209
				c0-278.4404,226.543-504.9673,505-504.9673s505,226.5269,505,504.9673v22.209C1010,1002.4707,1002.4707,1010,993.166,1010
				L993.166,1010z M33.667,976.333h942.667v-5.375c0-259.8809-211.4365-471.3008-471.334-471.3008S33.667,711.0771,33.667,970.958
				V976.333L33.667,976.333z"/>
		</g>
	</g>
	<g>
		<g>
			<rect x="274.5938" y="183.5723" fill="#A5A5A4" width="460.8125" height="321.4277"/>
			<path fill="#535352" d="M735.4063,521.834H274.5938c-9.2959,0-16.8331-7.537-16.8331-16.834V183.5723
				c0-9.2964,7.5372-16.8335,16.8331-16.8335h460.8125c9.3046,0,16.8339,7.5371,16.8339,16.8335V505
				C752.2402,514.2969,744.7109,521.834,735.4063,521.834L735.4063,521.834z M291.4268,488.1665h427.1455V200.4053H291.4268
				V488.1665L291.4268,488.1665z"/>
		</g>
		<g>
			<path fill="#A5A5A4" d="M324.042,630.0996c0,29.1621-23.5571,52.8008-52.6045,52.8008s-52.6045-23.6387-52.6045-52.8008"/>
			<path fill="#535352" d="M271.4375,699.7344C233.1514,699.7344,202,668.5,202,630.0996h33.667
				c0,19.8252,16.0439,35.9678,35.7705,35.9678c19.7266,0,35.7705-16.1426,35.7705-35.9678h33.667
				C340.875,668.5,309.7236,699.7344,271.4375,699.7344L271.4375,699.7344z"/>
		</g>
		<g>
			<path fill="#A5A5A4" d="M685.959,630.0996c0,29.1621,23.5566,52.8008,52.6035,52.8008c29.0469,0,52.6035-23.6387,52.6035-52.8008
				"/>
			<path fill="#535352" d="M738.5625,699.7344c-38.2861,0-69.4375-31.2344-69.4375-69.6348h33.666
				c0,19.8252,16.0449,35.9678,35.7715,35.9678c19.7266,0,35.7715-16.1426,35.7715-35.9678H808
				C808,668.5,776.8486,699.7344,738.5625,699.7344L738.5625,699.7344z"/>
		</g>
		<g>
			<g>
				<path fill="#E6E6E6" d="M336.667,286.1665c0,0,0,149.7412,0,168.3335v202v336.667h134.6665V656.5h67.3325v336.667h134.668V656.5
					v-202c0-18.5923,0-168.3335,0-168.3335"/>
				<path fill="#535352" d="M673.334,1010H538.666c-9.3037,0-16.832-7.5293-16.832-16.833V673.333h-33.6675v319.834
					c0,9.3037-7.5371,16.833-16.833,16.833H336.667c-9.2964,0-16.834-7.5293-16.834-16.833V286.1665H353.5V976.333h101V656.5
					c0-9.3047,7.5371-16.833,16.8335-16.833h67.3325c9.3047,0,16.834,7.5283,16.834,16.833v319.833h101V286.1665h33.666V993.167
					C690.166,1002.4707,682.6377,1010,673.334,1010L673.334,1010z"/>
			</g>
			<g>
				<path fill="#C9C9C8" d="M336.667,286.1665v-101c0-92.9775,75.3716-168.333,168.333-168.333l0,0
					c92.9609,0,168.334,75.3555,168.334,168.333v101H336.667z"/>
				<path fill="#535352" d="M673.334,303H336.667c-9.2964,0-16.834-7.5371-16.834-16.8335v-101C319.833,83.0654,402.8984,0,505,0
					s185.166,83.0654,185.166,185.1665v101C690.166,295.4629,682.6377,303,673.334,303L673.334,303z M353.5,269.3335h303v-84.167
					c0-83.5337-67.958-151.5-151.5-151.5c-83.5337,0-151.5,67.9663-151.5,151.5V269.3335L353.5,269.3335z"/>
			</g>
			<g>
				<path fill="#A5A5A4" d="M471.3335,993.167H336.667V959.5c0-37.1846,30.1484-67.333,67.333-67.333l0,0
					c37.1846,0,67.3335,30.1484,67.3335,67.333V993.167z"/>
				<path fill="#535352" d="M471.3335,1010H336.667c-9.2964,0-16.834-7.5293-16.834-16.833V959.5
					c0-46.4062,37.7603-84.167,84.167-84.167s84.1665,37.7608,84.1665,84.167v33.667
					C488.1665,1002.4707,480.6294,1010,471.3335,1010L471.3335,1010z M353.5,976.333h101V959.5c0-27.8477-22.6528-50.5-50.5-50.5
					c-27.8477,0-50.5,22.6523-50.5,50.5V976.333L353.5,976.333z"/>
			</g>
			<g>
				<path fill="#A5A5A4" d="M673.334,993.167H538.666V959.5c0-37.1846,30.1494-67.333,67.334-67.333l0,0
					c37.1846,0,67.334,30.1484,67.334,67.333V993.167z"/>
				<path fill="#535352" d="M673.334,1010H538.666c-9.3037,0-16.832-7.5293-16.832-16.833V959.5
					c0-46.4062,37.7598-84.167,84.166-84.167c46.4063,0,84.166,37.7608,84.166,84.167v33.667
					C690.166,1002.4707,682.6377,1010,673.334,1010L673.334,1010z M555.5,976.333h101V959.5c0-27.8477-22.6523-50.5-50.5-50.5
					s-50.5,22.6523-50.5,50.5V976.333L555.5,976.333z"/>
			</g>
			<g>
				<polygon fill="#535352" points="471.3335,824.833 336.667,824.833 336.667,791.167 471.3335,791.167 471.3335,824.833 				"/>
			</g>
			<g>
				<polygon fill="#535352" points="673.334,824.833 538.666,824.833 538.666,791.167 673.334,791.167 673.334,824.833 				"/>
			</g>
			<g>
				<polygon fill="#535352" points="471.3335,757.5 336.667,757.5 336.667,723.833 471.3335,723.833 471.3335,757.5 				"/>
			</g>
			<g>
				<polygon fill="#535352" points="673.334,757.5 538.666,757.5 538.666,723.833 673.334,723.833 673.334,757.5 				"/>
			</g>
			<g>
				<polygon fill="#535352" points="673.334,572.334 336.667,572.334 336.667,538.666 673.334,538.666 673.334,572.334 				"/>
			</g>
			<g>
				<path fill="#A5A5A4" d="M572.334,454.5H437.6665C419.0742,454.5,404,439.4258,404,420.8335l0,0
					c0-18.5923,15.0742-33.667,33.6665-33.667H572.334c18.5918,0,33.666,15.0747,33.666,33.667l0,0
					C606,439.4258,590.9258,454.5,572.334,454.5z"/>
				<path fill="#535352" d="M572.334,471.3335H437.6665c-27.8472,0-50.4995-22.6528-50.4995-50.5
					c0-27.8477,22.6523-50.5,50.4995-50.5H572.334c27.8467,0,50.5,22.6523,50.5,50.5
					C622.834,448.6807,600.1807,471.3335,572.334,471.3335L572.334,471.3335z M437.6665,404c-9.2798,0-16.833,7.5537-16.833,16.8335
					c0,9.2798,7.5532,16.833,16.833,16.833H572.334c9.2715,0,16.832-7.5532,16.832-16.833c0-9.2798-7.5605-16.8335-16.832-16.8335
					H437.6665L437.6665,404z"/>
			</g>
			<g>
				<path fill="#B0D8EF" d="M404,218.8335v-33.667c0-55.7769,45.2231-101,101-101l0,0c55.7773,0,101,45.2231,101,101v33.667"/>
				<path fill="#535352" d="M622.834,218.8335h-33.668v-33.667C589.166,138.7598,551.4063,101,505,101
					c-46.4067,0-84.1665,37.7598-84.1665,84.1665v33.667H387.167v-33.667c0-64.9741,52.8584-117.833,117.833-117.833
					c64.9668,0,117.834,52.8589,117.834,117.833V218.8335L622.834,218.8335z"/>
			</g>
			<g>
				<polygon fill="#535352" points="622.834,245.6284 387.167,245.6284 387.167,211.9619 622.834,211.9619 622.834,245.6284 				"/>
			</g>
		</g>
		<g>
			<rect x="673.334" y="283.5366" fill="#E6E6E6" width="117.832" height="341.9273"/>
			<path fill="#535352" d="M791.166,642.2969H673.334c-9.3047,0-16.834-7.5293-16.834-16.8329V283.5366
				c0-9.2964,7.5293-16.8335,16.834-16.8335h117.832c9.3047,0,16.834,7.5371,16.834,16.8335v341.9273
				C808,634.7676,800.4707,642.2969,791.166,642.2969L791.166,642.2969z M690.166,608.6309h84.168V300.3696h-84.168V608.6309
				L690.166,608.6309z"/>
		</g>
		<g>
			<rect x="218.833" y="286.561" fill="#E6E6E6" width="117.834" height="335.8941"/>
			<path fill="#535352" d="M336.667,639.2891H218.833c-9.2959,0-16.833-7.5459-16.833-16.834V286.561
				c0-9.2959,7.5371-16.833,16.833-16.833h117.834c9.2959,0,16.833,7.5371,16.833,16.833v335.8941
				C353.5,631.7432,345.9629,639.2891,336.667,639.2891L336.667,639.2891z M235.667,605.6221h84.166V303.3945h-84.166V605.6221
				L235.667,605.6221z"/>
		</g>
		<g>
			<polygon fill="#535352" points="319.833,488.1665 218.833,488.1665 218.833,454.5 319.833,454.5 319.833,488.1665 			"/>
		</g>
		<g>
			<polygon fill="#535352" points="319.833,420.8335 218.833,420.8335 218.833,387.1665 319.833,387.1665 319.833,420.8335 			"/>
		</g>
		<g>
			<polygon fill="#535352" points="791.166,488.1665 690.166,488.1665 690.166,454.5 791.166,454.5 791.166,488.1665 			"/>
		</g>
		<g>
			<polygon fill="#535352" points="791.166,420.8335 690.166,420.8335 690.166,387.1665 791.166,387.1665 791.166,420.8335 			"/>
		</g>
	</g>
	<g>
		<path fill="#535352" d="M209.7754,718.9014c0,9.2881-7.5615,16.834-16.833,16.834c-9.3047,0-16.8335-7.5459-16.8335-16.834
			c0-9.2881,7.5288-16.833,16.8335-16.833C202.2139,702.0684,209.7754,709.6133,209.7754,718.9014"/>
		<g>
			<path fill="#535352" d="M135.2256,202c-9.2881,0-16.833,7.5454-16.833,16.8335c0,9.2876,7.5449,16.833,16.833,16.833
				s16.833-7.5454,16.833-16.833C152.0586,209.5454,144.5137,202,135.2256,202z"/>
			<path fill="#535352" d="M229.9785,903.6572c-9.2876,0-16.833,7.5459-16.833,16.8329c0,9.2881,7.5454,16.834,16.833,16.834
				c9.2881,0,16.834-7.5459,16.834-16.834C246.8125,911.2031,239.2666,903.6572,229.9785,903.6572z"/>
			<path fill="#535352" d="M330.9785,11.4907c-9.2876,0-16.833,7.5454-16.833,16.8335c0,9.2876,7.5454,16.833,16.833,16.833
				c9.2881,0,16.834-7.5454,16.834-16.833C347.8125,19.0361,340.2666,11.4907,330.9785,11.4907z"/>
			<path fill="#535352" d="M906.6162,235.8477c-9.3037,0-16.833,7.5288-16.833,16.833c0,9.2714,7.5293,16.8335,16.833,16.8335
				c9.2715,0,16.8329-7.5621,16.8329-16.8335C923.4492,243.3765,915.8877,235.8477,906.6162,235.8477z"/>
			<path fill="#535352" d="M822.4492,806.2246c-9.3036,0-16.8329,7.5449-16.8329,16.833c0,9.2881,7.5293,16.834,16.8329,16.834
				c9.2715,0,16.834-7.5459,16.834-16.834C839.2832,813.7695,831.7207,806.2246,822.4492,806.2246z"/>
			<path fill="#535352" d="M112.1621,449.1821c-9.2881,0-16.8335,7.5454-16.8335,16.8335c0,9.2876,7.5454,16.833,16.8335,16.833
				s16.833-7.5454,16.833-16.833C128.9951,456.7275,121.4502,449.1821,112.1621,449.1821z"/>
		</g>
	</g>
	<g>
		<g>
			
				<rect x="803.5743" y="81.4669" transform="matrix(0.7071 0.7071 -0.7071 0.7071 328.6762 -559.1428)" fill="#FDF4BC" width="71.4178" height="71.4178"/>
			<path fill="#535352" d="M839.2832,191.479l-74.3037-74.3032l74.3037-74.3032l74.3027,74.3032L839.2832,191.479L839.2832,191.479z
				 M812.5859,117.1758l26.6973,26.6968l26.6963-26.6968L839.2832,90.479L812.5859,117.1758L812.5859,117.1758z"/>
		</g>
		<g>
			<line fill="#FDF4BC" x1="839.2832" y1="66.6758" x2="839.2832" y2="33.0093"/>
			<path fill="#535352" d="M839.2832,83.5093c-9.2881,0-16.834-7.5376-16.834-16.8335V33.0093
				c0-9.2964,7.5459-16.8335,16.834-16.8335c9.2871,0,16.833,7.5371,16.833,16.8335v33.6665
				C856.1162,75.9717,848.5703,83.5093,839.2832,83.5093L839.2832,83.5093z"/>
		</g>
		<g>
			<line fill="#FDF4BC" x1="889.7832" y1="117.1758" x2="923.4492" y2="117.1758"/>
			<path fill="#535352" d="M923.4492,134.0093h-33.666c-9.2881,0-16.834-7.5376-16.834-16.8335
				c0-9.2964,7.5459-16.8335,16.834-16.8335h33.666c9.2891,0,16.834,7.5371,16.834,16.8335
				C940.2832,126.4717,932.7383,134.0093,923.4492,134.0093L923.4492,134.0093z"/>
		</g>
		<g>
			<line fill="#FDF4BC" x1="839.2832" y1="167.6758" x2="839.2832" y2="201.3423"/>
			<path fill="#535352" d="M839.2832,218.1758c-9.2881,0-16.834-7.5371-16.834-16.8335v-33.6665
				c0-9.2964,7.5459-16.8335,16.834-16.8335c9.2871,0,16.833,7.5371,16.833,16.8335v33.6665
				C856.1162,210.6387,848.5703,218.1758,839.2832,218.1758L839.2832,218.1758z"/>
		</g>
		<g>
			<line fill="#FDF4BC" x1="788.7832" y1="117.1758" x2="755.1162" y2="117.1758"/>
			<path fill="#535352" d="M788.7832,134.0093h-33.667c-9.2881,0-16.833-7.5376-16.833-16.8335
				c0-9.2964,7.5449-16.8335,16.833-16.8335h33.667c9.2871,0,16.833,7.5371,16.833,16.8335
				C805.6162,126.4717,798.0703,134.0093,788.7832,134.0093L788.7832,134.0093z"/>
		</g>
	</g>
	<g>
		<g>
			<path fill="#535352" d="M906.5996,585.4844c-6.9697,0-12.625-5.6543-12.625-12.625v-81.709c0-6.9702,5.6553-12.625,12.625-12.625
				c6.9707,0,12.625,5.6548,12.625,12.625v81.709C919.2246,579.8301,913.5703,585.4844,906.5996,585.4844L906.5996,585.4844z"/>
		</g>
		<g>
			<path fill="#535352" d="M947.4668,544.6172h-81.7344c-6.9687,0-12.625-5.6543-12.625-12.625
				c0-6.9697,5.6563-12.625,12.625-12.625h81.7344c6.9707,0,12.625,5.6553,12.625,12.625
				C960.0918,538.9629,954.4375,544.6172,947.4668,544.6172L947.4668,544.6172z"/>
		</g>
	</g>
	<g>
		<g>
			<path fill="#535352" d="M218.998,140.8477c-6.9707,0-12.625-5.6548-12.625-12.625V46.5054c0-6.9702,5.6543-12.625,12.625-12.625
				c6.9698,0,12.625,5.6548,12.625,12.625v81.7173C231.623,135.1929,225.9678,140.8477,218.998,140.8477L218.998,140.8477z"/>
		</g>
		<g>
			<path fill="#535352" d="M259.8643,99.981h-81.7334c-6.9698,0-12.625-5.6553-12.625-12.625c0-6.9703,5.6552-12.625,12.625-12.625
				h81.7334c6.9707,0,12.625,5.6547,12.625,12.625C272.4893,94.3257,266.835,99.981,259.8643,99.981L259.8643,99.981z"/>
		</g>
	</g>
</g>
</svg>
