<?xml version="1.0" encoding="utf-8"?>
<!-- Generator: Adobe Illustrator 17.1.0, SVG Export Plug-In . SVG Version: 6.00 Build 0)  -->
<!DOCTYPE svg PUBLIC "-//W3C//DTD SVG 1.1//EN" "http://www.w3.org/Graphics/SVG/1.1/DTD/svg11.dtd">
<svg version="1.1" id="comet" xmlns="http://www.w3.org/2000/svg" xmlns:xlink="http://www.w3.org/1999/xlink" x="0px" y="0px"
	 viewBox="0 0 1009.9995 919.3672" enable-background="new 0 0 1009.9995 919.3672" xml:space="preserve">
<g id="comet-comet">
	<g>
		<g>
			
				<rect x="435.8919" y="63.614" transform="matrix(-0.7071 0.7071 -0.7071 -0.7071 873.0919 -164.8324)" fill="#FDF4BC" width="69.5833" height="69.5834"/>
			<path fill="#535352" d="M470.6836,169.2505l-70.8447-70.8447l70.8447-70.8448l70.8447,70.8448L470.6836,169.2505
				L470.6836,169.2505z M443.123,98.4058l27.5606,27.5605l27.5605-27.5605l-27.5605-27.5611L443.123,98.4058L443.123,98.4058z"/>
		</g>
		<g>
			<line fill="#FDF4BC" x1="470.6836" y1="49.2031" x2="470.6836" y2="16.396"/>
			<path fill="#535352" d="M470.6836,64.5078c-8.4595,0-15.3047-6.8603-15.3047-15.3047V16.396
				c0-8.4595,6.8452-15.3047,15.3047-15.3047c8.46,0,15.3047,6.8452,15.3047,15.3047v32.8071
				C485.9883,57.6475,479.1436,64.5078,470.6836,64.5078L470.6836,64.5078z"/>
		</g>
		<g>
			<line fill="#FDF4BC" x1="421.481" y1="98.4058" x2="388.6895" y2="98.4058"/>
			<path fill="#535352" d="M421.481,113.7105h-32.7915c-8.46,0-15.3052-6.8604-15.3052-15.3047
				c0-8.4595,6.8452-15.3052,15.3052-15.3052h32.7915c8.4594,0,15.3051,6.8457,15.3051,15.3052
				C436.7861,106.8501,429.9404,113.7105,421.481,113.7105L421.481,113.7105z"/>
		</g>
		<g>
			<line fill="#FDF4BC" x1="470.6836" y1="147.6084" x2="470.6836" y2="180.415"/>
			<path fill="#535352" d="M470.6836,195.7197c-8.4595,0-15.3047-6.8603-15.3047-15.3047v-32.8066
				c0-8.4595,6.8452-15.3052,15.3047-15.3052c8.46,0,15.3047,6.8457,15.3047,15.3052v32.8066
				C485.9883,188.8594,479.1436,195.7197,470.6836,195.7197L470.6836,195.7197z"/>
		</g>
		<g>
			<line fill="#FDF4BC" x1="519.8867" y1="98.4058" x2="552.708" y2="98.4058"/>
			<path fill="#535352" d="M552.708,113.7105h-32.8213c-8.4599,0-15.3052-6.8604-15.3052-15.3047
				c0-8.4595,6.8453-15.3052,15.3052-15.3052h32.8213c8.46,0,15.3047,6.8457,15.3047,15.3052
				C568.0127,106.8501,561.168,113.7105,552.708,113.7105L552.708,113.7105z"/>
		</g>
	</g>
	<g>
		<path fill="#535352" d="M349.7993,458.1592c-3.9155,0-7.8315-1.4951-10.8208-4.4839c-5.9785-5.9785-5.9785-15.6636,0-21.6421
			L589.5059,181.521c5.9785-5.9785,15.663-5.9785,21.6415,0c5.9785,5.9785,5.9785,15.6636,0,21.6421L360.6201,453.6753
			C357.6309,456.6641,353.7153,458.1592,349.7993,458.1592L349.7993,458.1592z"/>
	</g>
	<g>
		<g>
			<path fill="#FDF4BC" d="M100.5879,697.8057c0,67.9746,55.1211,123.0361,123.0361,123.0361
				c67.9453,0,123.0069-55.0615,123.0069-123.0361c0-67.9453-55.0616-123.0371-123.0069-123.0371
				C155.709,574.7686,100.5879,629.8604,100.5879,697.8057z"/>
			<path fill="#535352" d="M223.624,836.1465c-76.2851,0-138.3413-62.0566-138.3413-138.3408
				c0-76.2852,62.0562-138.3418,138.3413-138.3418c76.2705,0,138.3115,62.0566,138.3115,138.3418
				C361.9355,774.0899,299.8945,836.1465,223.624,836.1465L223.624,836.1465z M223.624,590.0742
				c-59.4111,0-107.7314,48.335-107.7314,107.7315c0,59.4111,48.3203,107.7314,107.7314,107.7314
				c59.3809,0,107.7022-48.3203,107.7022-107.7314C331.3262,638.4092,283.0049,590.0742,223.624,590.0742L223.624,590.0742z"/>
		</g>
		<path fill="#535352" d="M97.0303,716.7266c0,7.1748,5.8291,13.0332,13.0029,13.0332c7.1743,0,13.0034-5.8584,13.0034-13.0332
			c0-7.2031-5.8291-13.0322-13.0034-13.0322C102.8594,703.6943,97.0303,709.5234,97.0303,716.7266"/>
		<path fill="#535352" d="M149.0728,716.7266c0,7.1748,5.8291,13.0332,13.0034,13.0332c7.1738,0,13.0029-5.8584,13.0029-13.0332
			c0-7.2031-5.8291-13.0322-13.0029-13.0322C154.9019,703.6943,149.0728,709.5234,149.0728,716.7266"/>
		<path fill="#535352" d="M123.0366,742.7637c0,7.1738,5.8291,12.9726,13.0034,12.9726c7.1739,0,13.0328-5.7988,13.0328-12.9726
			c0-7.1748-5.8589-13.0039-13.0328-13.0039C128.8657,729.7598,123.0366,735.5889,123.0366,742.7637"/>
		<path fill="#535352" d="M175.0791,742.7637c0,7.1738,5.8291,12.9726,13.0332,12.9726c7.144,0,13.0029-5.7988,13.0029-12.9726
			c0-7.1748-5.8589-13.0039-13.0029-13.0039C180.9082,729.7598,175.0791,735.5889,175.0791,742.7637"/>
		<path fill="#535352" d="M149.0728,768.7998c0,7.1436,5.8291,12.9727,13.0034,12.9727c7.1738,0,13.0029-5.8291,13.0029-12.9727
			c0-7.2344-5.8291-13.0635-13.0029-13.0635C154.9019,755.7363,149.0728,761.5654,149.0728,768.7998"/>
		<path fill="#535352" d="M227.1514,742.7637c0,7.1738,5.7988,12.9726,13.0029,12.9726c7.1743,0,13.0034-5.7988,13.0034-12.9726
			c0-7.1748-5.8291-13.0039-13.0034-13.0039C232.9502,729.7598,227.1514,735.5889,227.1514,742.7637"/>
		<path fill="#535352" d="M201.1152,768.7998c0,7.1436,5.8291,12.9727,13.003,12.9727c7.2041,0,13.0332-5.8291,13.0332-12.9727
			c0-7.2344-5.8291-13.0635-13.0332-13.0635C206.9443,755.7363,201.1152,761.5654,201.1152,768.7998"/>
		<path fill="#535352" d="M227.1514,794.7754c0,7.2051,5.7988,13.0635,13.0029,13.0635c7.1743,0,13.0034-5.8584,13.0034-13.0635
			c0-7.1436-5.8291-13.0029-13.0034-13.0029C232.9502,781.7725,227.1514,787.6318,227.1514,794.7754"/>
		<path fill="#535352" d="M175.0791,794.7754c0,7.2051,5.8291,13.0635,13.0332,13.0635c7.144,0,13.0029-5.8584,13.0029-13.0635
			c0-7.1436-5.8589-13.0029-13.0029-13.0029C180.9082,781.7725,175.0791,787.6318,175.0791,794.7754"/>
		<path fill="#535352" d="M123.0366,690.7207c0,7.1738,5.8291,12.9736,13.0034,12.9736c7.1739,0,13.0328-5.7999,13.0328-12.9736
			c0-7.2041-5.8589-13.0332-13.0328-13.0332C128.8657,677.6875,123.0366,683.5166,123.0366,690.7207"/>
		<path fill="#535352" d="M188.1123,703.6943c0,7.2041,5.8291,13.0322,13.0029,13.0322c7.1739,0,13.003-5.8281,13.003-13.0322
			c0-7.1445-5.8291-12.9736-13.003-12.9736C193.9414,690.7207,188.1123,696.5498,188.1123,703.6943"/>
	</g>
	<g>
		<path fill="#535352" d="M259.8237,492.3555c0,9.0576,7.3535,16.3808,16.3809,16.3808c9.0571,0,16.3813-7.3232,16.3813-16.3808
			c0-9.0274-7.3242-16.4102-16.3813-16.4102C267.1772,475.9453,259.8237,483.3281,259.8237,492.3555"/>
		<path fill="#535352" d="M829.5107,131.2124c0,9.0274,7.3536,16.3809,16.3809,16.3809c9.0576,0,16.4111-7.3535,16.4111-16.3809
			c0-9.0723-7.3535-16.396-16.4111-16.396C836.8643,114.8164,829.5107,122.1401,829.5107,131.2124"/>
		<path fill="#535352" d="M353.2666,550.915c0,9.0274,7.3535,16.3809,16.3813,16.3809c9.0875,0,16.4107-7.3535,16.4107-16.3809
			c0-9.0576-7.3232-16.3818-16.4107-16.3818C360.6201,534.5332,353.2666,541.8574,353.2666,550.915"/>
		<path fill="#535352" d="M369.6777,181.4014c0,9.0425,7.3536,16.3808,16.4112,16.3808c9.0273,0,16.3808-7.3383,16.3808-16.3808
			s-7.3535-16.396-16.3808-16.396C377.0313,165.0054,369.6777,172.3589,369.6777,181.4014"/>
		<path fill="#535352" d="M470.6836,574.7988c0,9.0274,7.3535,16.3809,16.4111,16.3809c9.0274,0,16.4107-7.3535,16.4107-16.3809
			c0-9.0879-7.3833-16.4111-16.4107-16.4111C478.0371,558.3877,470.6836,565.7109,470.6836,574.7988"/>
		<path fill="#535352" d="M796.6895,270.6597c0,9.0278,7.3535,16.3813,16.4101,16.3813c9.0576,0,16.4111-7.3535,16.4111-16.3813
			c0-9.0723-7.3535-16.4258-16.4111-16.4258C804.043,254.2339,796.6895,261.5874,796.6895,270.6597"/>
		<path fill="#535352" d="M437.8916,451.0449c0,9.042,7.3535,16.4102,16.4111,16.4102c9.0274,0,16.3809-7.3682,16.3809-16.4102
			c0-9.0429-7.3535-16.4258-16.3809-16.4258C445.2451,434.6191,437.8916,442.002,437.8916,451.0449"/>
		<path fill="#535352" d="M557.3115,311.6123c0,9.0571,7.3535,16.3955,16.4113,16.3955c9.0566,0,16.3808-7.3384,16.3808-16.3955
			c0-9.0723-7.3242-16.4111-16.3808-16.4111C564.665,295.2012,557.3115,302.54,557.3115,311.6123"/>
		<path fill="#535352" d="M536.2969,16.396c0,9.0278,7.3535,16.3809,16.3808,16.3809c9.0577,0,16.4112-7.3531,16.4112-16.3809
			c0-9.0425-7.3535-16.396-16.4112-16.396C543.6504,0,536.2969,7.3535,536.2969,16.396"/>
		<path fill="#535352" d="M392.9336,648.6328c0,9.0273,7.3535,16.3809,16.4111,16.3809c9.0274,0,16.3809-7.3535,16.3809-16.3809
			c0-9.0576-7.3535-16.4111-16.3809-16.4111C400.2871,632.2217,392.9336,639.5752,392.9336,648.6328"/>
		<path fill="#535352" d="M646.9287,131.1675c0,9.0723,7.3535,16.4409,16.4111,16.4409c9.0274,0,16.4102-7.3686,16.4102-16.4409
			c0-9.0274-7.3828-16.3809-16.4102-16.3809C654.2822,114.7866,646.9287,122.1401,646.9287,131.1675"/>
	</g>
	<g>
		<path fill="#535352" d="M208.439,919.3672c-55.6744,0-108.0161-21.6719-147.3687-61.04C21.687,818.9883,0,766.6475,0,710.958
			c0-55.6592,21.687-108.0156,61.0703-147.4287l319.2193-319.1748c5.9785-5.9785,15.6635-5.9785,21.642,0
			c5.9786,5.9785,5.9786,15.6636,0,21.6421L82.7119,585.1719c-33.5986,33.6279-52.1025,78.3027-52.1025,125.7861
			c0,47.5137,18.5039,92.1572,52.1025,125.7266c33.584,33.584,78.228,52.0722,125.7271,52.0722
			c47.4985,0,92.143-18.4882,125.727-52.0722l649.708-649.7231c5.9785-5.9785,15.6631-5.9785,21.6415,0
			c5.9785,5.9785,5.9785,15.6636,0,21.6421l-649.708,649.7237C316.4546,897.6953,264.1133,919.3672,208.439,919.3672
			L208.439,919.3672z"/>
	</g>
	<g>
		<path fill="#535352" d="M513.8184,507.6602c-3.8116,0-7.6231-1.4043-10.5821-4.2442c-6.1128-5.8437-6.3222-15.5439-0.4785-21.6426
			l299.0723-312.2841c5.874-6.1128,15.5586-6.292,21.6426-0.4634c6.1132,5.8442,6.3222,15.5439,0.4785,21.6421L524.8789,502.9531
			C521.8594,506.0918,517.8389,507.6602,513.8184,507.6602L513.8184,507.6602z"/>
	</g>
</g>
</svg>
