<?xml version="1.0" encoding="utf-8"?>
<!-- Generator: Adobe Illustrator 17.1.0, SVG Export Plug-In . SVG Version: 6.00 Build 0)  -->
<!DOCTYPE svg PUBLIC "-//W3C//DTD SVG 1.1//EN" "http://www.w3.org/Graphics/SVG/1.1/DTD/svg11.dtd">
<svg version="1.1" id="death-star" xmlns="http://www.w3.org/2000/svg" xmlns:xlink="http://www.w3.org/1999/xlink" x="0px" y="0px"
	 viewBox="0 0 1010 1010" enable-background="new 0 0 1010 1010" xml:space="preserve">
<g id="death-star-death-star">
	<g>
		<path fill="#A5A5A4" d="M993.166,505c0,269.6133-218.5703,488.167-488.166,488.167C235.4033,993.167,16.833,774.6133,16.833,505
			C16.833,235.4038,235.4033,16.8335,505,16.8335C774.5957,16.8335,993.166,235.4038,993.166,505z"/>
		<path fill="#535352" d="M505,1010C226.543,1010,0,783.457,0,505S226.543,0,505,0s505,226.543,505,505S783.457,1010,505,1010
			L505,1010z M505,33.6665C245.1025,33.6665,33.667,245.1025,33.667,505S245.1025,976.333,505,976.333S976.334,764.8975,976.334,505
			S764.8975,33.6665,505,33.6665L505,33.6665z"/>
	</g>
	<g>
		<path fill="#535352" d="M240.9932,193.5835h-85.0547c-9.3047,0-16.833-7.5376-16.833-16.8335
			c0-9.2964,7.5283-16.8335,16.833-16.8335h85.0547c9.3037,0,16.833,7.5371,16.833,16.8335
			C257.8262,186.0459,250.2969,193.5835,240.9932,193.5835L240.9932,193.5835z"/>
	</g>
	<g>
		<path fill="#535352" d="M308.8687,252.6973H111.2085c-9.3042,0-16.8335-7.5371-16.8335-16.8335
			c0-9.2959,7.5293-16.833,16.8335-16.833h197.6602c9.3042,0,16.8334,7.5371,16.8334,16.833
			C325.7021,245.1602,318.1729,252.6973,308.8687,252.6973L308.8687,252.6973z"/>
	</g>
	<g>
		<path fill="#535352" d="M197.9893,316.9731H68.7471c-9.3047,0-16.833-7.5376-16.833-16.8335
			c0-9.2963,7.5283-16.8334,16.833-16.8334h129.2422c9.3037,0,16.833,7.5371,16.833,16.8334
			C214.8223,309.4355,207.293,316.9731,197.9893,316.9731L197.9893,316.9731z"/>
	</g>
	<g>
		<path fill="#535352" d="M263.415,381.2485H54.4785c-9.3047,0-16.834-7.5371-16.834-16.833c0-9.2964,7.5293-16.8335,16.834-16.8335
			H263.415c9.3047,0,16.834,7.5371,16.834,16.8335C280.249,373.7114,272.7197,381.2485,263.415,381.2485L263.415,381.2485z"/>
	</g>
	<g>
		<path fill="#535352" d="M363.1826,445.5078H25.2993c-9.3042,0-16.8335-7.5371-16.8335-16.833
			c0-9.2964,7.5293-16.8335,16.8335-16.8335h337.8833c9.3042,0,16.833,7.5371,16.833,16.8335
			C380.0156,437.9707,372.4868,445.5078,363.1826,445.5078L363.1826,445.5078z"/>
	</g>
	<g>
		<path fill="#535352" d="M993.166,521.834H16.833C7.5293,521.834,0,514.2969,0,505c0-9.2959,7.5293-16.8335,16.833-16.8335h976.333
			c9.3047,0,16.834,7.5376,16.834,16.8335C1010,514.2969,1002.4707,521.834,993.166,521.834L993.166,521.834z"/>
	</g>
	<g>
		<g>
			<path fill="#535352" d="M271.043,593.9502H36.7246c-9.3047,0-16.834-7.5459-16.834-16.833c0-9.2881,7.5293-16.834,16.834-16.834
				H271.043c9.3047,0,16.833,7.5459,16.833,16.834C287.876,586.4043,280.3477,593.9502,271.043,593.9502L271.043,593.9502z"/>
		</g>
		<g>
			<path fill="#535352" d="M350.7383,658.2266H46.1934c-9.3047,0-16.834-7.5459-16.834-16.834
				c0-9.2881,7.5293-16.8329,16.834-16.8329h304.5449c9.3047,0,16.833,7.5449,16.833,16.8329
				C367.5713,650.6807,360.043,658.2266,350.7383,658.2266L350.7383,658.2266z"/>
		</g>
		<g>
			<path fill="#535352" d="M239.0366,722.502H61.0205c-9.3037,0-16.833-7.5459-16.833-16.834c0-9.2871,7.5293-16.833,16.833-16.833
				h178.0161c9.3042,0,16.8335,7.5459,16.8335,16.833C255.8701,714.9561,248.3408,722.502,239.0366,722.502L239.0366,722.502z"/>
		</g>
		<g>
			<path fill="#535352" d="M227.25,786.7607H94.375c-9.3042,0-16.833-7.5283-16.833-16.833c0-9.3046,7.5288-16.8329,16.833-16.8329
				H227.25c9.3047,0,16.833,7.5283,16.833,16.8329C244.083,779.2324,236.5547,786.7607,227.25,786.7607L227.25,786.7607z"/>
		</g>
		<g>
			<path fill="#535352" d="M385.5225,851.0371H153.9326c-9.3037,0-16.833-7.5293-16.833-16.834
				c0-9.3037,7.5293-16.833,16.833-16.833h231.5899c9.3046,0,16.8335,7.5293,16.8335,16.833
				C402.356,843.5078,394.8271,851.0371,385.5225,851.0371L385.5225,851.0371z"/>
		</g>
		<g>
			<path fill="#535352" d="M346.5791,915.3125H225.7539c-9.3042,0-16.833-7.5293-16.833-16.833
				c0-9.3047,7.5288-16.834,16.833-16.834h120.8252c9.3047,0,16.8335,7.5293,16.8335,16.834
				C363.4126,907.7832,355.8838,915.3125,346.5791,915.3125L346.5791,915.3125z"/>
		</g>
	</g>
	<g>
		<g>
			<path fill="#535352" d="M783.3418,915.3125H630.543c-9.3047,0-16.833-7.5293-16.833-16.833c0-9.3047,7.5283-16.834,16.833-16.834
				h152.7988c9.3047,0,16.834,7.5293,16.834,16.834C800.1758,907.7832,792.6465,915.3125,783.3418,915.3125L783.3418,915.3125z"/>
		</g>
		<g>
			<path fill="#535352" d="M855.9189,851.0371H753.6533c-9.3036,0-16.8329-7.5293-16.8329-16.834
				c0-9.3037,7.5293-16.833,16.8329-16.833h102.2656c9.3047,0,16.8331,7.5293,16.8331,16.833
				C872.752,843.5078,865.2236,851.0371,855.9189,851.0371L855.9189,851.0371z"/>
		</g>
		<g>
			<path fill="#535352" d="M897.4102,786.7607H731.2969c-9.3047,0-16.834-7.5283-16.834-16.833
				c0-9.3046,7.5293-16.8329,16.834-16.8329h166.1133c9.3046,0,16.8339,7.5283,16.8339,16.8329
				C914.2441,779.2324,906.7148,786.7607,897.4102,786.7607L897.4102,786.7607z"/>
		</g>
		<g>
			<path fill="#535352" d="M926.4746,722.502h-116.041c-9.3047,0-16.834-7.5459-16.834-16.834c0-9.2871,7.5293-16.833,16.834-16.833
				h116.041c9.3047,0,16.8329,7.5459,16.8329,16.833C943.3076,714.9561,935.7793,722.502,926.4746,722.502L926.4746,722.502z"/>
		</g>
		<g>
			<path fill="#535352" d="M960.1406,658.2266H762.2178c-9.3037,0-16.833-7.5459-16.833-16.834
				c0-9.2881,7.5293-16.8329,16.833-16.8329h197.9228c9.3047,0,16.834,7.5449,16.834,16.8329
				C976.9746,650.6807,969.4453,658.2266,960.1406,658.2266L960.1406,658.2266z"/>
		</g>
		<g>
			<path fill="#535352" d="M976.9746,593.9502H856.1494c-9.3047,0-16.833-7.5459-16.833-16.833
				c0-9.2881,7.5283-16.834,16.833-16.834h120.8252c9.3047,0,16.8329,7.5459,16.8329,16.834
				C993.8076,586.4043,986.2793,593.9502,976.9746,593.9502L976.9746,593.9502z"/>
		</g>
	</g>
	<g>
		<g>
			<path fill="#FDF4BC" d="M806.1094,289.8818c0,83.69-67.8106,151.5166-151.5156,151.5166
				c-83.6905,0-151.5171-67.8266-151.5171-151.5166c0-83.6899,67.8266-151.5166,151.5171-151.5166
				C738.2988,138.3652,806.1094,206.1919,806.1094,289.8818z"/>
			<path fill="#535352" d="M654.5938,458.2314c-92.8301,0-168.3506-75.5195-168.3506-168.3496
				c0-92.83,75.5205-168.3496,168.3506-168.3496c92.8291,0,168.3495,75.5196,168.3495,168.3496
				C822.9434,382.7119,747.4229,458.2314,654.5938,458.2314L654.5938,458.2314z M654.5938,155.1987
				c-74.2715,0-134.6836,60.4209-134.6836,134.6831s60.412,134.6831,134.6836,134.6831
				c74.2695,0,134.6826-60.4209,134.6826-134.6831S728.8633,155.1987,654.5938,155.1987L654.5938,155.1987z"/>
		</g>
		<g>
			<path fill="#E6E6E6" d="M730.3594,289.8818c0,41.8369-33.9131,75.75-75.7656,75.75c-41.8379,0-75.7676-33.9131-75.7676-75.75
				s33.9297-75.75,75.7676-75.75C696.4463,214.1318,730.3594,248.0449,730.3594,289.8818z"/>
			<path fill="#535352" d="M654.5938,382.4653c-51.0596,0-92.6006-41.5327-92.6006-92.5835
				c0-51.0507,41.541-92.5835,92.6006-92.5835c51.0585,0,92.5995,41.5328,92.5995,92.5835
				C747.1934,340.9326,705.6523,382.4653,654.5938,382.4653L654.5938,382.4653z M654.5938,230.9653
				c-32.5,0-58.9336,26.4336-58.9336,58.9165s26.4336,58.9165,58.9336,58.9165c32.499,0,58.9326-26.4336,58.9326-58.9165
				S687.0928,230.9653,654.5938,230.9653L654.5938,230.9653z"/>
		</g>
		<path fill="#535352" d="M669.75,289.8818c0,8.3511-6.7891,15.1568-15.1562,15.1568c-8.3682,0-15.1573-6.8057-15.1573-15.1568
			c0-8.351,6.7891-15.1567,15.1573-15.1567C662.9609,274.7251,669.75,281.5308,669.75,289.8818"/>
	</g>
</g>
</svg>
