<?xml version="1.0" encoding="utf-8"?>
<!-- Generator: Adobe Illustrator 17.1.0, SVG Export Plug-In . SVG Version: 6.00 Build 0)  -->
<!DOCTYPE svg PUBLIC "-//W3C//DTD SVG 1.1//EN" "http://www.w3.org/Graphics/SVG/1.1/DTD/svg11.dtd">
<svg version="1.1" id="falling-star" xmlns="http://www.w3.org/2000/svg" xmlns:xlink="http://www.w3.org/1999/xlink" x="0px"
	 y="0px" viewBox="0 0 1009.9993 963.1771" enable-background="new 0 0 1009.9993 963.1771" xml:space="preserve">
<g id="falling-star-falling-star">
	<path fill="#B0D8EF" d="M876.3186,444.8607c0,218.373-177.0127,395.4687-395.4355,395.4687
		c-218.373,0-395.4194-177.0957-395.4194-395.4687S262.51,49.4163,480.8831,49.4163
		C699.3059,49.4163,876.3186,226.4876,876.3186,444.8607z"/>
	<g>
		<g>
			<path fill="#535352" d="M241.4847,550.513c-3.6993,0-7.4141-1.2003-10.521-3.6982c-7.2496-5.8194-8.4165-16.4229-2.5811-23.6719
				L589.5442,73.2943c5.8184-7.2413,16.4219-8.417,23.6543-2.5889c7.25,5.8193,8.417,16.414,2.5821,23.6631L254.6189,544.2171
				C251.2981,548.3597,246.4163,550.513,241.4847,550.513L241.4847,550.513z"/>
		</g>
		<g>
			<path fill="#535352" d="M450.5535,696.9339c-4.9482,0-9.8472-2.1699-13.1675-6.3291c-5.8032-7.25-4.6196-17.8525,2.6465-23.6553
				l496.1074-396.332c7.2823-5.8193,17.8692-4.6279,23.6553,2.6465c5.8027,7.2578,4.6191,17.8525-2.6475,23.6553l-496.1064,396.332
				C457.9344,695.7336,454.2356,696.9339,450.5535,696.9339L450.5535,696.9339z"/>
		</g>
		<g>
			<path fill="#535352" d="M287.7268,670.6976c-4.3891,0-8.7617-1.71-12.0664-5.0967c-6.4765-6.6738-6.3286-17.3262,0.3291-23.8027
				L930.9612,4.7689c6.6572-6.4854,17.3096-6.337,23.8037,0.3291c6.4766,6.666,6.3282,17.3261-0.3291,23.8027L299.4641,665.93
				C296.1927,669.1194,291.9514,670.6976,287.7268,670.6976L287.7268,670.6976z"/>
		</g>
	</g>
	<polygon fill="#FDF4BC" points="348.4847,751.4778 246.1365,826.4388 285.0804,947.3625 181.844,873.7825 78.4934,948.0198 
		117.4866,826.6693 15.1546,751.4778 141.9475,751.4778 181.844,630.1429 221.6429,751.4778 	"/>
	<g>
		<path fill="#535352" d="M78.4934,963.1771c-3.123,0-6.2631-0.9864-8.9262-2.9102c-5.2769-3.8467-7.4961-10.6523-5.4908-16.8828
			l35.6563-110.9619L6.179,763.675c-5.2764-3.8633-7.4629-10.6855-5.4248-16.915c2.0386-6.2305,7.8579-10.4385,14.4004-10.4385
			h115.8281l36.4775-110.9131c2.0386-6.2139,7.8418-10.4062,14.3838-10.4062l0,0c6.5596,0,12.3623,4.2089,14.4009,10.4228
			l36.3789,110.8965h115.8609c6.559,0,12.3623,4.208,14.4003,10.4551c2.0386,6.2129-0.164,13.0517-5.4414,16.9316l-93.5366,68.4844
			l35.5903,110.5342c2.0049,6.2138-0.1972,13.0195-5.4746,16.8662c-5.2602,3.8633-12.4111,3.9121-17.7373,0.0986l-94.4082-67.2842
			l-94.5395,67.9092C84.6907,962.2239,81.5843,963.1771,78.4934,963.1771L78.4934,963.1771z M61.3645,766.6341l65.0977,47.8369
			c5.2441,3.8467,7.4463,10.6201,5.4414,16.833l-24.938,77.6084l66.0347-47.4267c5.2768-3.7803,12.3623-3.8135,17.6386-0.0323
			l66.002,47.0479L231.72,831.0745c-2.0059-6.2138,0.1973-13.0029,5.4575-16.8662l64.9829-47.5742h-80.5175
			c-6.543,0-12.3624-4.208-14.4004-10.4385l-25.4146-77.5088l-25.4966,77.5254c-2.0381,6.2139-7.8413,10.4219-14.3838,10.4219
			H61.3645L61.3645,766.6341z"/>
	</g>
	<g>
		<path fill="#535352" d="M976.9075,249.4691c0,9.1562,7.4141,16.5537,16.5049,16.5537c9.1572,0,16.5869-7.3975,16.5869-16.5537
			c0-9.1241-7.4297-16.5459-16.5869-16.5459C984.3216,232.9232,976.9075,240.345,976.9075,249.4691"/>
		<path fill="#535352" d="M630.6897,412.9691c0,9.1074,7.4307,16.538,16.5703,16.538s16.5538-7.4306,16.5538-16.538
			c0-9.1729-7.4141-16.5538-16.5538-16.5538S630.6897,403.7962,630.6897,412.9691"/>
		<path fill="#535352" d="M205.5984,412.9857c0,9.0908,7.4302,16.538,16.5703,16.538c9.1402,0,16.5703-7.4472,16.5703-16.538
			c0-9.1729-7.4301-16.5704-16.5703-16.5704C213.0286,396.4153,205.5984,403.8128,205.5984,412.9857"/>
		<path fill="#535352" d="M425.7473,373.2288c0,9.1153,7.4302,16.5371,16.5704,16.5371c9.1396,0,16.5703-7.4218,16.5703-16.5371
			c0-9.1406-7.4307-16.5791-16.5703-16.5791C433.1775,356.6497,425.7473,364.0882,425.7473,373.2288"/>
		<path fill="#535352" d="M71.5564,614.4935c0,9.1396,7.4136,16.5371,16.5703,16.5371c9.107,0,16.5538-7.3975,16.5538-16.5371
			c0-9.1573-7.4468-16.5703-16.5538-16.5703C78.97,597.9232,71.5564,605.3362,71.5564,614.4935"/>
		<path fill="#535352" d="M189.0447,574.925c0,9.1397,7.4136,16.5371,16.5537,16.5371c9.1568,0,16.5703-7.3974,16.5703-16.5371
			c0-9.1728-7.4135-16.5869-16.5703-16.5869C196.4583,558.3382,189.0447,565.7523,189.0447,574.925"/>
		<path fill="#535352" d="M597.5823,218.8021c0,9.1406,7.4307,16.5703,16.5869,16.5703c9.1074,0,16.5205-7.4297,16.5205-16.5703
			c0-9.1397-7.4131-16.5869-16.5205-16.5869C605.013,202.2152,597.5823,209.6624,597.5823,218.8021"/>
		<path fill="#535352" d="M614.1692,33.7015c0,9.1562,7.4141,16.5781,16.5205,16.5781c9.1573,0,16.5703-7.4219,16.5703-16.5781
			c0-9.1406-7.413-16.5703-16.5703-16.5703C621.5833,17.1312,614.1692,24.5609,614.1692,33.7015"/>
		<path fill="#535352" d="M383.8445,706.7318c0,9.1396,7.4141,16.5703,16.5703,16.5703c9.1074,0,16.5542-7.4307,16.5542-16.5703
			c0-9.0918-7.4468-16.5381-16.5542-16.5381C391.2586,690.1937,383.8445,697.64,383.8445,706.7318"/>
		<path fill="#535352" d="M311.6614,856.8831c0,9.124,7.4307,16.5381,16.5381,16.5381c9.1396,0,16.5703-7.4141,16.5703-16.5381
			c0-9.123-7.4307-16.5537-16.5703-16.5537C319.0921,840.3293,311.6614,847.7601,311.6614,856.8831"/>
		<path fill="#535352" d="M630.6897,648.2581c0,9.1397,7.4307,16.5869,16.5703,16.5869c9.1241,0,16.5538-7.4472,16.5538-16.5869
			c0-9.1396-7.4297-16.5371-16.5538-16.5371C638.1204,631.7209,630.6897,639.1185,630.6897,648.2581"/>
	</g>
	<g>
		<g>
			<path fill="#535352" d="M113.5413,489.3441c-6.9702,0-12.625-5.6543-12.625-12.625v-82.5635
				c0-6.9707,5.6548-12.625,12.625-12.625c6.9697,0,12.625,5.6543,12.625,12.625v82.5635
				C126.1663,483.6898,120.511,489.3441,113.5413,489.3441L113.5413,489.3441z"/>
		</g>
		<g>
			<path fill="#535352" d="M154.7864,448.0413H72.1809c-6.9697,0-12.625-5.6543-12.625-12.625c0-6.9697,5.6553-12.625,12.625-12.625
				h82.6055c6.9697,0,12.625,5.6553,12.625,12.625C167.4114,442.387,161.7561,448.0413,154.7864,448.0413L154.7864,448.0413z"/>
		</g>
	</g>
	<g>
		<g>
			<path fill="#535352" d="M771.1761,640.8607c-6.9698,0-12.625-5.6543-12.625-12.625v-82.5889
				c0-6.9697,5.6552-12.625,12.625-12.625c6.9697,0,12.625,5.6553,12.625,12.625v82.5889
				C783.8011,635.2064,778.1458,640.8607,771.1761,640.8607L771.1761,640.8607z"/>
		</g>
		<g>
			<path fill="#535352" d="M812.4046,599.5334h-82.5889c-6.9697,0-12.625-5.6553-12.625-12.625
				c0-6.9697,5.6553-12.625,12.625-12.625h82.5889c6.9697,0,12.625,5.6553,12.625,12.625
				C825.0296,593.8782,819.3743,599.5334,812.4046,599.5334L812.4046,599.5334z"/>
		</g>
	</g>
	<g>
		<g>
			<path fill="#535352" d="M442.3177,910.7698c-6.9703,0-12.625-5.6552-12.625-12.625v-82.5556
				c0-6.9707,5.6547-12.625,12.625-12.625c6.9697,0,12.625,5.6543,12.625,12.625v82.5556
				C454.9427,905.1146,449.2874,910.7698,442.3177,910.7698L442.3177,910.7698z"/>
		</g>
		<g>
			<path fill="#535352" d="M483.6116,869.4759h-82.605c-6.9697,0-12.625-5.6553-12.625-12.625c0-6.9707,5.6553-12.625,12.625-12.625
				h82.605c6.9702,0,12.625,5.6543,12.625,12.625C496.2366,863.8206,490.5818,869.4759,483.6116,869.4759L483.6116,869.4759z"/>
		</g>
	</g>
	<g>
		<g>
			<polygon fill="#FDF4BC" points="283.1731,294.7083 225.4236,236.9915 283.1731,179.2757 340.8899,236.9915 			"/>
			<path fill="#535352" d="M283.1731,318.512l-81.5693-81.5205l81.5693-81.5195l81.5205,81.5195L283.1731,318.512L283.1731,318.512z
				 M249.2434,236.9915l33.9297,33.9141l33.9131-33.9141l-33.9131-33.9131L249.2434,236.9915L249.2434,236.9915z"/>
		</g>
		<g>
			<line fill="#FDF4BC" x1="283.1731" y1="179.2757" x2="283.1731" y2="140.8001"/>
			<path fill="#535352" d="M283.1731,196.1087c-9.3042,0-16.833-7.5371-16.833-16.833v-38.4756
				c0-9.2959,7.5288-16.833,16.833-16.833c9.3047,0,16.8335,7.5371,16.8335,16.833v38.4756
				C300.0066,188.5716,292.4778,196.1087,283.1731,196.1087L283.1731,196.1087z"/>
		</g>
		<g>
			<line fill="#FDF4BC" x1="340.8899" y1="236.9915" x2="379.3733" y2="236.9915"/>
			<path fill="#535352" d="M379.3733,253.8255h-38.4834c-9.3047,0-16.833-7.5371-16.833-16.834
				c0-9.2959,7.5283-16.833,16.833-16.833h38.4834c9.3042,0,16.8335,7.5371,16.8335,16.833
				C396.2068,246.2884,388.6775,253.8255,379.3733,253.8255L379.3733,253.8255z"/>
		</g>
		<g>
			<line fill="#FDF4BC" x1="283.1731" y1="294.7083" x2="283.1731" y2="333.1839"/>
			<path fill="#535352" d="M283.1731,350.0169c-9.3042,0-16.833-7.5371-16.833-16.833v-38.4756
				c0-9.2959,7.5288-16.833,16.833-16.833c9.3047,0,16.8335,7.5371,16.8335,16.833v38.4756
				C300.0066,342.4798,292.4778,350.0169,283.1731,350.0169L283.1731,350.0169z"/>
		</g>
		<g>
			<line fill="#FDF4BC" x1="225.4236" y1="236.9915" x2="186.9568" y2="236.9915"/>
			<path fill="#535352" d="M225.4236,253.8255h-38.4668c-9.3042,0-16.8335-7.5371-16.8335-16.834
				c0-9.2959,7.5293-16.833,16.8335-16.833h38.4668c9.3042,0,16.8335,7.5371,16.8335,16.833
				C242.2571,246.2884,234.7278,253.8255,225.4236,253.8255L225.4236,253.8255z"/>
		</g>
	</g>
</g>
</svg>
