<?xml version="1.0" encoding="utf-8"?>
<!-- Generator: Adobe Illustrator 17.1.0, SVG Export Plug-In . SVG Version: 6.00 Build 0)  -->
<!DOCTYPE svg PUBLIC "-//W3C//DTD SVG 1.1//EN" "http://www.w3.org/Graphics/SVG/1.1/DTD/svg11.dtd">
<svg version="1.1" id="half-moon-stars" xmlns="http://www.w3.org/2000/svg" xmlns:xlink="http://www.w3.org/1999/xlink" x="0px"
	 y="0px" viewBox="0 0 1009.9996 1009.9981" enable-background="new 0 0 1009.9996 1009.9981" xml:space="preserve">
<g id="half-moon-stars-half-moon-stars">
	<g>
		<g>
			<path fill="#A5A5A4" d="M226.9703,737.7716c282.1231,0,510.7861-228.6719,510.7861-510.794
				c0-74.9287-16.2578-146.0098-45.2558-210.1543c177.2588,80.1563,300.665,258.3526,300.665,465.5137
				c0,282.1318-228.6953,510.8281-510.8188,510.8281c-207.1118,0-385.3745-123.3896-465.5137-300.6328
				C80.9283,721.4971,152.0587,737.7716,226.9703,737.7716z"/>
			<path fill="#535352" d="M482.3468,1009.9981c-206.8159,0-395.5581-121.9102-480.8511-310.5283
				c-2.8848-6.3779-1.5205-13.9072,3.4355-18.8389c4.9405-4.9316,12.4366-6.3125,18.8311-3.4521
				c64.2344,29.0303,132.6035,43.7598,203.208,43.7598c272.3662,0,493.9531-221.587,493.9531-493.961
				c0-70.6211-14.7129-138.9902-43.7597-203.2168c-2.877-6.3779-1.5293-13.8906,3.4355-18.8388
				c4.9473-4.9317,12.4609-6.3125,18.8379-3.4356c188.6523,85.3174,310.5625,274.0508,310.5625,480.8506
				C1009.9996,773.2794,773.2975,1009.9981,482.3468,1009.9981L482.3468,1009.9981z M52.045,724.7852
				c86.9692,154.1299,251.4234,251.5469,430.3018,251.5469c272.3911,0,493.9858-221.5957,493.9858-493.9951
				c0-178.8701-97.4326-343.3076-251.5459-430.3018c19.792,56.1055,29.8027,114.7598,29.8027,174.9424
				c0,290.9336-236.6855,527.6279-527.6191,527.6279C166.796,754.6055,108.151,744.5771,52.045,724.7852L52.045,724.7852z"/>
		</g>
	</g>
	<g>
		<g>
			<g>
				<g>
					<g>
						<path fill="#535352" d="M339.3297,159.2823c-6.9702,0-12.625-5.6553-12.625-12.625v-98.501
							c0-6.9707,5.6548-12.625,12.625-12.625c6.9697,0,12.625,5.6543,12.625,12.625v98.501
							C351.9547,153.627,346.2994,159.2823,339.3297,159.2823L339.3297,159.2823z"/>
					</g>
					<g>
						<path fill="#535352" d="M388.5309,109.9991h-98.5176c-6.9702,0-12.625-5.6553-12.625-12.625
							c0-6.9707,5.6548-12.625,12.625-12.625h98.5176c6.9702,0,12.625,5.6543,12.625,12.625
							C401.1559,104.3438,395.5011,109.9991,388.5309,109.9991L388.5309,109.9991z"/>
					</g>
				</g>
				<g>
					<g>
						<path fill="#535352" d="M140.5348,365.5069c-6.9698,0-12.625-5.6553-12.625-12.625v-98.501
							c0-6.9707,5.6552-12.625,12.625-12.625c6.9707,0,12.625,5.6543,12.625,12.625v98.501
							C153.1598,359.8516,147.5055,365.5069,140.5348,365.5069L140.5348,365.5069z"/>
					</g>
					<g>
						<path fill="#535352" d="M189.7691,316.2403H91.2188c-6.9702,0-12.625-5.6553-12.625-12.625
							c0-6.9707,5.6548-12.625,12.625-12.625h98.5503c6.9702,0,12.625,5.6543,12.625,12.625
							C202.3941,310.585,196.7393,316.2403,189.7691,316.2403L189.7691,316.2403z"/>
					</g>
				</g>
				<g>
					<g>
						<path fill="#535352" d="M340.7926,582.6886c-6.9702,0-12.625-5.6553-12.625-12.625V471.586
							c0-6.9697,5.6548-12.625,12.625-12.625c6.9697,0,12.625,5.6553,12.625,12.625v98.4776
							C353.4176,577.0333,347.7623,582.6886,340.7926,582.6886L340.7926,582.6886z"/>
					</g>
					<g>
						<path fill="#535352" d="M390.0597,533.4376h-98.5342c-6.9702,0-12.625-5.6543-12.625-12.6328
							c0-6.9707,5.6548-12.625,12.625-12.625h98.5342c6.9702,0,12.625,5.6543,12.625,12.625
							C402.6847,527.7833,397.0299,533.4376,390.0597,533.4376L390.0597,533.4376z"/>
					</g>
				</g>
			</g>
		</g>
		<g>
			<g>
				<polygon fill="#FDF4BC" points="469.3932,364.2081 408.7672,303.6153 469.3932,243.005 529.9859,303.6153 				"/>
				<path fill="#535352" d="M469.3932,388.0118l-84.4375-84.3965l84.4375-84.4141l84.3974,84.4141L469.3932,388.0118
					L469.3932,388.0118z M432.5787,303.6153l36.8145,36.79l36.79-36.79l-36.79-36.8066L432.5787,303.6153L432.5787,303.6153z"/>
			</g>
			<g>
				<line fill="#FDF4BC" x1="469.3932" y1="243.005" x2="469.3932" y2="202.6153"/>
				<path fill="#535352" d="M469.3932,259.838c-9.2959,0-16.8335-7.5284-16.8335-16.833v-40.3897
					c0-9.3047,7.5376-16.834,16.8335-16.834c9.2963,0,16.8335,7.5293,16.8335,16.834v40.3897
					C486.2267,252.3096,478.6895,259.838,469.3932,259.838L469.3932,259.838z"/>
			</g>
			<g>
				<line fill="#FDF4BC" x1="529.9859" y1="303.6153" x2="570.3932" y2="303.6153"/>
				<path fill="#535352" d="M570.3932,320.4483h-40.4073c-9.2949,0-16.832-7.5293-16.832-16.833
					c0-9.3047,7.5371-16.834,16.832-16.834h40.4073c9.3037,0,16.833,7.5293,16.833,16.834
					C587.2262,312.919,579.6969,320.4483,570.3932,320.4483L570.3932,320.4483z"/>
			</g>
			<g>
				<line fill="#FDF4BC" x1="469.3932" y1="364.2081" x2="469.3932" y2="404.6143"/>
				<path fill="#535352" d="M469.3932,421.4483c-9.2959,0-16.8335-7.5293-16.8335-16.834v-40.4062
					c0-9.3037,7.5376-16.833,16.8335-16.833c9.2963,0,16.8335,7.5293,16.8335,16.833v40.4062
					C486.2267,413.919,478.6895,421.4483,469.3932,421.4483L469.3932,421.4483z"/>
			</g>
			<g>
				<line fill="#FDF4BC" x1="408.7672" y1="303.6153" x2="368.3766" y2="303.6153"/>
				<path fill="#535352" d="M408.7672,320.4483h-40.3906c-9.2959,0-16.8331-7.5293-16.8331-16.833
					c0-9.3047,7.5372-16.834,16.8331-16.834h40.3906c9.2959,0,16.833,7.5293,16.833,16.834
					C425.6002,312.919,418.0631,320.4483,408.7672,320.4483L408.7672,320.4483z"/>
			</g>
		</g>
		<g>
			<path fill="#535352" d="M55.2179,715.547c0,9.2714-7.5454,16.833-16.8335,16.833s-16.833-7.5616-16.833-16.833
				c0-9.3047,7.5449-16.834,16.833-16.834S55.2179,706.2422,55.2179,715.547"/>
			<g>
				<path fill="#535352" d="M38.3844,113.5821c-9.2881,0-16.833,7.5459-16.833,16.834c0,9.2871,7.5449,16.833,16.833,16.833
					s16.8335-7.5459,16.8335-16.833C55.2179,121.128,47.6725,113.5821,38.3844,113.5821z"/>
				<path fill="#535352" d="M223.8795,606.3595c-9.2876,0-16.833,7.5292-16.833,16.8339c0,9.2715,7.5454,16.834,16.833,16.834
					c9.2881,0,16.834-7.5625,16.834-16.834C240.7135,613.8887,233.1676,606.3595,223.8795,606.3595z"/>
				<path fill="#535352" d="M572.8756,51.6085c-9.2881,0-16.833,7.5283-16.833,16.833c0,9.2715,7.5449,16.833,16.833,16.833
					c9.2881,0,16.833-7.5615,16.833-16.833C589.7086,59.1368,582.1637,51.6085,572.8756,51.6085z"/>
				<path fill="#535352" d="M564.7545,421.004c-9.2881,0-16.833,7.5459-16.833,16.834c0,9.2871,7.5449,16.833,16.833,16.833
					c9.2881,0,16.8329-7.5459,16.8329-16.833C581.5875,428.5499,574.0426,421.004,564.7545,421.004z"/>
				<path fill="#535352" d="M33.8805,501.0772c-9.2881,0-16.8335,7.5459-16.8335,16.834c0,9.2803,7.5454,16.8418,16.8335,16.8418
					c9.2876,0,16.833-7.5615,16.833-16.8418C50.7135,508.6231,43.1681,501.0772,33.8805,501.0772z"/>
				<path fill="#535352" d="M240.3844,421.004c-9.2881,0-16.833,7.5459-16.833,16.834c0,9.2871,7.5449,16.833,16.833,16.833
					c9.288,0,16.833-7.5459,16.833-16.833C257.2174,428.5499,249.6724,421.004,240.3844,421.004z"/>
			</g>
		</g>
	</g>
</g>
</svg>
