<?xml version="1.0" encoding="utf-8"?>
<!-- Generator: Adobe Illustrator 17.1.0, SVG Export Plug-In . SVG Version: 6.00 Build 0)  -->
<!DOCTYPE svg PUBLIC "-//W3C//DTD SVG 1.1//EN" "http://www.w3.org/Graphics/SVG/1.1/DTD/svg11.dtd">
<svg version="1.1" id="landing-ufo" xmlns="http://www.w3.org/2000/svg" xmlns:xlink="http://www.w3.org/1999/xlink" x="0px"
	 y="0px" viewBox="0 0 870.4965 1009.9995" enable-background="new 0 0 870.4965 1009.9995" xml:space="preserve">
<g id="landing-ufo-landing-ufo">
	<g>
		<g>
			<polyline fill="#FDF4BC" points="191.1665,993.1631 330.6489,609.6143 539.8813,609.6143 679.3305,993.1631 			"/>
			<path fill="#535352" d="M191.1665,1009.9961c-1.9072,0-3.8467-0.3291-5.7539-1.0195
				c-8.729-3.1719-13.2495-12.838-10.0605-21.5674l139.4824-383.5479c2.417-6.6426,8.729-11.0801,15.8145-11.0801h209.2324
				c7.085,0,13.3975,4.4375,15.8145,11.0801L695.145,987.4092c3.1895,8.7295-1.332,18.3955-10.0605,21.5674
				c-8.7949,3.1894-18.3945-1.3311-21.5683-10.0606L528.0942,626.4473H342.4355L206.9799,998.916
				C204.498,1005.7549,198.0376,1009.9961,191.1665,1009.9961L191.1665,1009.9961z"/>
		</g>
		<g>
			<path fill="#B0D8EF" d="M700.8989,400.2012c-6.6094-132.6441-122.7979-232.0327-265.6504-232.0327
				c-142.9023,0-259.1406,99.5034-265.6338,232.2299"/>
			<path fill="#535352" d="M169.6313,417.2319c-0.2793,0-0.5586-0.0166-0.8384-0.0166c-9.2876-0.4604-16.4389-8.351-15.9946-17.6386
				c6.9204-141.521,128.3535-248.2417,282.4502-248.2417c153.9814,0,275.4141,106.622,282.4668,248.0278
				c0.46,9.2881-6.6904,17.1787-15.9785,17.6387c-9.2715,0.3618-17.1953-6.6905-17.6553-15.9619
				c-6.1318-123.1592-113.1142-216.0376-248.833-216.0376c-135.8169,0-242.7837,92.9609-248.8164,216.2182
				C185.9878,410.229,178.5415,417.2319,169.6313,417.2319L169.6313,417.2319z"/>
		</g>
		<g>
			<g>
				<path fill="#FFFFFF" d="M269.3813,330.0737c-3.1064,0-6.2627-0.8716-9.0742-2.6797
					c-7.8242-5.0136-10.0928-15.436-5.0791-23.2607c6.0986-9.4854,13.2334-18.3784,21.1894-26.4336
					c6.5264-6.5918,17.211-6.6577,23.8033-0.1152c6.6084,6.5429,6.6743,17.1953,0.1313,23.8037
					c-6.3125,6.3779-11.9507,13.4136-16.7837,20.9429C280.3462,327.3447,274.9214,330.0737,269.3813,330.0737L269.3813,330.0737z"/>
			</g>
			<g>
				<path fill="#FFFFFF" d="M330.6323,275.3325c-6.0825,0-11.9512-3.3042-14.9429-9.0742
					c-4.2905-8.2358-1.0849-18.4111,7.1509-22.7017C352.4629,228.1367,386.7544,220,421.9658,220
					c9.3047,0,16.8335,7.5288,16.8335,16.833c0,9.2881-7.5288,16.8335-16.8335,16.8335c-29.836,0-58.7354,6.8384-83.5742,19.7593
					C335.9091,274.7241,333.2461,275.3325,330.6323,275.3325L330.6323,275.3325z"/>
			</g>
		</g>
		<g>
			<path fill="#535352" d="M435.2485,181.2866c-9.3042,0-16.8335-7.5288-16.8335-16.8335V86.583
				c0-9.2881,7.5293-16.833,16.8335-16.833c9.3047,0,16.833,7.5449,16.833,16.833v77.8701
				C452.0815,173.7578,444.5532,181.2866,435.2485,181.2866L435.2485,181.2866z"/>
		</g>
		<g>
			<path fill="#FDF4BC" d="M470.1479,51.6836c0,19.2827-15.6162,34.8994-34.8994,34.8994
				c-19.2661,0-34.8667-15.6167-34.8667-34.8994c0-19.2334,15.6006-34.8501,34.8667-34.8501
				C454.5317,16.8335,470.1479,32.4502,470.1479,51.6836z"/>
			<path fill="#535352" d="M435.2485,103.4165c-28.5049,0-51.6997-23.1953-51.6997-51.7329C383.5488,23.1787,406.7436,0,435.2485,0
				c28.5215,0,51.7324,23.1787,51.7324,51.6836C486.9809,80.2212,463.77,103.4165,435.2485,103.4165L435.2485,103.4165z
				 M435.2485,33.6665c-9.9453,0-18.0332,8.0879-18.0332,18.0171c0,9.9619,8.0879,18.0664,18.0332,18.0664
				c9.9619,0,18.0664-8.1045,18.0664-18.0664C453.3149,41.7544,445.2104,33.6665,435.2485,33.6665L435.2485,33.6665z"/>
		</g>
		<g>
			<path fill="#A5A5A4" d="M749.0473,609.6143H121.4497c-57.7657,0-104.6162-46.834-104.6162-104.6163l0,0
				c0-57.749,46.8505-104.5996,104.6162-104.5996h627.5976c57.7989,0,104.6162,46.8506,104.6162,104.5996l0,0
				C853.6635,562.7803,806.8462,609.6143,749.0473,609.6143z"/>
			<path fill="#535352" d="M749.0473,626.4473H121.4497C54.478,626.4473,0,571.9697,0,504.998
				c0-66.955,54.478-121.4326,121.4497-121.4326h627.5976c66.9717,0,121.4492,54.4776,121.4492,121.4326
				C870.4965,571.9697,816.019,626.4473,749.0473,626.4473L749.0473,626.4473z M121.4497,417.2319
				c-48.3955,0-87.7832,39.3706-87.7832,87.7661c0,48.4122,39.3877,87.7832,87.7832,87.7832h627.5976
				c48.3955,0,87.7832-39.371,87.7832-87.7832c0-48.3955-39.3877-87.7661-87.7832-87.7661H121.4497L121.4497,417.2319z"/>
		</g>
		<g>
			<g>
				<g>
					<path fill="none" d="M400.2666,207.4077"/>
				</g>
			</g>
		</g>
	</g>
	<g>
		<path fill="#535352" d="M77.2788,801.3887c0,8.9756-7.3321,16.2744-16.2744,16.2744c-9.0088,0-16.2745-7.2988-16.2745-16.2744
			c0-8.9756,7.2657-16.2744,16.2745-16.2744C69.9467,785.1143,77.2788,792.4131,77.2788,801.3887"/>
		<path fill="#535352" d="M155.6914,867.3896c-8.9917,0-16.2744,7.2823-16.2744,16.2745c0,8.9755,7.2827,16.2744,16.2744,16.2744
			c8.959,0,16.2744-7.2989,16.2744-16.2744C171.9658,874.6719,164.6504,867.3896,155.6914,867.3896z"/>
		<path fill="#535352" d="M813.2573,899.9385c-8.9922,0-16.2744,7.2988-16.2744,16.2744s7.2822,16.2744,16.2744,16.2744
			c8.959,0,16.2744-7.2988,16.2744-16.2744S822.2163,899.9385,813.2573,899.9385z"/>
		<path fill="#535352" d="M829.5317,712.8984c-8.9922,0-16.2744,7.2832-16.2744,16.2745c0,8.9755,7.2822,16.2744,16.2744,16.2744
			c8.959,0,16.2734-7.2989,16.2734-16.2744C845.8051,720.1816,838.4907,712.8984,829.5317,712.8984z"/>
		<path fill="#535352" d="M659.4067,654.0156c-8.959,0-16.2734,7.2989-16.2734,16.2735c0,8.9765,7.3144,16.2754,16.2734,16.2754
			c9.0089,0,16.2744-7.2989,16.2744-16.2754C675.6811,661.3145,668.4155,654.0156,659.4067,654.0156z"/>
		<path fill="#535352" d="M60.9878,640.6172c-8.9756,0-16.2579,7.2666-16.2579,16.2578c0,8.96,7.2823,16.2754,16.2579,16.2754
			c8.9921,0,16.2744-7.3154,16.2744-16.2754C77.2622,647.8838,69.9799,640.6172,60.9878,640.6172z"/>
		<g>
			<g>
				<path fill="#535352" d="M786.018,814.5068h-86.7148c-6.9688,0-12.625-5.6552-12.625-12.625
					c0-6.9697,5.6562-12.625,12.625-12.625h86.7148c6.9707,0,12.625,5.6553,12.625,12.625
					C798.643,808.8516,792.9887,814.5068,786.018,814.5068L786.018,814.5068z"/>
			</g>
			<g>
				<path fill="#535352" d="M742.6362,857.8223c-6.9697,0-12.625-5.6543-12.625-12.625v-86.7471
					c0-6.9697,5.6553-12.624,12.625-12.624c6.9697,0,12.625,5.6543,12.625,12.624v86.7471
					C755.2612,852.168,749.6059,857.8223,742.6362,857.8223L742.6362,857.8223z"/>
			</g>
		</g>
		<g>
			<g>
				<path fill="#535352" d="M215.1176,725.5732h-86.7148c-6.9697,0-12.625-5.6552-12.625-12.625
					c0-6.9697,5.6553-12.625,12.625-12.625h86.7148c6.9698,0,12.625,5.6553,12.625,12.625
					C227.7426,719.918,222.0874,725.5732,215.1176,725.5732L215.1176,725.5732z"/>
			</g>
			<g>
				<path fill="#535352" d="M171.7358,768.8887c-6.9702,0-12.625-5.6543-12.625-12.625v-86.7471
					c0-6.9697,5.6548-12.624,12.625-12.624c6.9697,0,12.625,5.6543,12.625,12.624v86.7471
					C184.3608,763.2344,178.7055,768.8887,171.7358,768.8887L171.7358,768.8887z"/>
			</g>
		</g>
	</g>
</g>
</svg>
