<?xml version="1.0" encoding="utf-8"?>
<!-- Generator: Adobe Illustrator 17.1.0, SVG Export Plug-In . SVG Version: 6.00 Build 0)  -->
<!DOCTYPE svg PUBLIC "-//W3C//DTD SVG 1.1//EN" "http://www.w3.org/Graphics/SVG/1.1/DTD/svg11.dtd">
<svg version="1.1" id="milky-way" xmlns="http://www.w3.org/2000/svg" xmlns:xlink="http://www.w3.org/1999/xlink" x="0px" y="0px"
	 viewBox="0 0 1009.8403 1009.9998" enable-background="new 0 0 1009.8403 1009.9998" xml:space="preserve">
<g id="milky-way-milky-way">
	<g>
		<g>
			<path fill="#535352" d="M498.7402,607.3123c-73.4204,0-133.1333-59.7285-133.1333-133.1328
				c0-73.4375,59.729-133.166,133.166-133.166c73.4043,0,133.1338,59.7129,133.1338,133.1328
				C631.9067,547.5672,572.1606,607.3123,498.7402,607.3123L498.7402,607.3123z M498.7729,374.6746
				c-54.8637,0-99.5048,44.6406-99.5048,99.5049c0,54.8476,44.6245,99.4717,99.4721,99.4717
				c54.8638,0,99.5044-44.6407,99.5044-99.5049C598.2446,419.2986,553.6206,374.6746,498.7729,374.6746L498.7729,374.6746z"/>
		</g>
		<g>
			<path fill="#535352" d="M16.8306,490.9939L16.8306,490.9939C7.5278,490.9939,0,483.449,0,474.1629
				c0.0161-174.2236,141.7622-315.9531,315.9692-315.9531c174.2075,0,315.9375,141.7295,315.9375,315.9365
				c0,9.2871-7.5283,16.831-16.831,16.831c-9.2862,0-16.8311-7.5439-16.8311-16.831c0-155.6504-126.624-282.2754-282.2754-282.2754
				c-155.6504,0-282.2915,126.625-282.3076,282.292C33.6616,483.449,26.1167,490.9939,16.8306,490.9939L16.8306,490.9939z"/>
		</g>
		<g>
			<path fill="#535352" d="M257.769,908.2928c-2.8599,0-5.7529-0.7237-8.3989-2.252
				c-73.0757-42.1758-125.3423-110.3037-147.186-191.8271c-21.8438-81.5069-10.6348-166.6465,31.5576-239.7217
				c42.1914-73.1084,110.3359-125.3926,191.8428-147.2197c81.5405-21.8272,166.6635-10.6338,239.7226,31.5742
				c8.0537,4.6513,10.8145,14.9404,6.1631,22.9941c-4.6514,8.0371-14.9736,10.7988-22.9941,6.1475
				c-65.2847-37.6885-141.335-47.6983-214.1802-28.2051c-72.8286,19.5098-133.6919,66.2217-171.397,131.5391
				c-37.7041,65.2851-47.7139,141.3515-28.2041,214.1806s66.2212,133.6924,131.5059,171.3799
				c8.0371,4.6524,10.7988,14.9414,6.1635,22.9942C269.2417,905.2684,263.5874,908.2928,257.769,908.2928L257.769,908.2928z"/>
		</g>
		<g>
			<path fill="#535352" d="M590.6352,948.5281c-27.4316,0-55.0449-3.5996-82.247-10.8974
				c-81.5235-21.8272-149.6514-74.1104-191.8433-147.1856c-42.2085-73.0918-53.4174-158.248-31.5737-239.7715
				c21.8271-81.5068,74.1103-149.6357,147.2021-191.8271c8.0376-4.6514,18.3267-1.8897,22.9947,6.164
				c4.6347,8.0538,1.8901,18.3428-6.1636,22.9942c-65.3013,37.6875-112.0127,98.5674-131.5225,171.3799
				c-19.5263,72.8456-9.5,148.912,28.2207,214.2295c37.6885,65.3017,98.5679,111.9969,171.3975,131.5068
				c72.8125,19.5254,148.9121,9.5,214.2129-28.2383c8.0371-4.6836,18.3418-1.8896,22.9941,6.1641
				c4.6514,8.0371,1.8897,18.3427-6.164,22.9775C699.4429,934.1629,645.3843,948.5281,590.6352,948.5281L590.6352,948.5281z"/>
		</g>
		<g>
			<path fill="#535352" d="M681.5102,790.0994c-174.1904,0-315.9033-141.7285-315.9033-315.9199
				c0-9.3027,7.5279-16.8311,16.8306-16.8311c9.2866,0,16.8306,7.5284,16.8306,16.8311
				c0,155.6348,126.6084,282.2588,282.2421,282.2588c155.6348,0,282.2754-126.6406,282.3086-282.2754
				c0-9.3027,7.545-16.8311,16.8311-16.8311l0,0c9.3027,0,16.831,7.5284,16.831,16.8311
				C997.4477,648.3709,855.7017,790.0994,681.5102,790.0994L681.5102,790.0994z"/>
		</g>
		<g>
			<path fill="#535352" d="M589.5825,631.7205c-53.5645,0-107.7881-13.6094-157.4092-42.2412
				c-8.0537-4.6514-10.8149-14.9404-6.1635-22.9941c4.6518-8.0538,14.9077-10.8311,22.9946-6.1641
				c134.7441,77.7607,307.7519,31.4433,385.5937-103.3174c37.6875-65.3008,47.7139-141.3682,28.2041-214.2129
				C843.2925,169.9617,796.5806,109.0984,731.2798,71.41c-8.0371-4.6514-10.7989-14.9405-6.1641-22.9942
				c4.6524-8.0537,14.9082-10.8154,22.9942-6.1631c73.0918,42.1748,125.3593,110.3028,147.2031,191.8262
				c21.8437,81.5244,10.6347,166.6631-31.5742,239.7549C805.2759,575.0486,698.8511,631.7205,589.5825,631.7205L589.5825,631.7205z"
				/>
		</g>
		<g>
			<path fill="#535352" d="M556.9409,591.7312c-5.8184,0-11.4726-3.0244-14.5791-8.415
				c-4.6514-8.0537-1.9062-18.3428,6.1475-22.9951c134.7763-77.8418,181.1269-250.832,103.3017-385.6094
				C573.9517,39.9187,400.9448-6.4318,266.2007,71.4266c-8.0537,4.6181-18.3428,1.874-22.9942-6.1641
				c-4.6513-8.0537-1.8901-18.3428,6.1636-22.9941C400.2217-44.8264,593.8237,7.0135,680.9683,157.8807
				c87.0957,150.8515,35.2236,344.4541-115.628,431.582C562.6938,591.0076,559.8013,591.7312,556.9409,591.7312L556.9409,591.7312z"
				/>
		</g>
		<g>
			<g>
				<polygon fill="#FDF4BC" points="162.3237,141.4617 116.8613,96.032 162.3237,50.6023 207.7368,96.032 				"/>
				<path fill="#535352" d="M162.3237,165.2605L93.0454,96.032l69.2783-69.2295l69.2129,69.2295L162.3237,165.2605
					L162.3237,165.2605z M140.6606,96.032l21.6465,21.6299l21.6304-21.6299l-21.6304-21.6308L140.6606,96.032L140.6606,96.032z"/>
			</g>
			<g>
				<line fill="#FDF4BC" x1="162.3237" y1="50.6023" x2="162.3237" y2="20.3103"/>
				<path fill="#535352" d="M162.3237,67.4324c-9.3027,0-16.8305-7.5439-16.8305-16.8301v-30.292
					c0-9.3037,7.5278-16.831,16.8305-16.831c9.2866,0,16.8311,7.5273,16.8311,16.831v30.292
					C179.1548,59.8885,171.6103,67.4324,162.3237,67.4324L162.3237,67.4324z"/>
			</g>
			<g>
				<line fill="#FDF4BC" x1="207.7368" y1="96.032" x2="238.0454" y2="96.032"/>
				<path fill="#535352" d="M238.0454,112.8621h-30.3086c-9.3027,0-16.8301-7.5439-16.8301-16.8301
					c0-9.3037,7.5274-16.831,16.8301-16.831h30.3086c9.2866,0,16.8311,7.5273,16.8311,16.831
					C254.8764,105.3182,247.332,112.8621,238.0454,112.8621L238.0454,112.8621z"/>
			</g>
			<g>
				<line fill="#FDF4BC" x1="162.3237" y1="141.4617" x2="162.3237" y2="171.7859"/>
				<path fill="#535352" d="M162.3237,188.617c-9.3027,0-16.8305-7.5449-16.8305-16.8311v-30.3242
					c0-9.3037,7.5278-16.831,16.8305-16.831c9.2866,0,16.8311,7.5273,16.8311,16.831v30.3242
					C179.1548,181.0721,171.6103,188.617,162.3237,188.617L162.3237,188.617z"/>
			</g>
			<g>
				<line fill="#FDF4BC" x1="116.8613" y1="96.032" x2="86.602" y2="96.032"/>
				<path fill="#535352" d="M116.8613,112.8621H86.602c-9.3027,0-16.83-7.5439-16.83-16.8301c0-9.3037,7.5273-16.831,16.83-16.831
					h30.2593c9.2866,0,16.8306,7.5273,16.8306,16.831C133.6919,105.3182,126.1479,112.8621,116.8613,112.8621L116.8613,112.8621z"/>
			</g>
		</g>
	</g>
	<g>
		<g>
			<path fill="#B0D8EF" d="M561.6909,474.1795c0,33.7764-27.415,61.1758-61.1758,61.1758
				c-33.7763,0-61.1753-27.3994-61.1753-61.1758s27.399-61.1924,61.1753-61.1924
				C534.2759,412.9871,561.6909,440.4031,561.6909,474.1795z"/>
			<path fill="#535352" d="M500.5151,552.1853c-43.0132,0-78.0058-34.9921-78.0058-78.0058
				c0-43.0303,34.9926-78.0225,78.0058-78.0225c43.0137,0,78.0069,34.9922,78.0069,78.0225
				C578.522,517.1932,543.5288,552.1853,500.5151,552.1853L500.5151,552.1853z M500.5151,429.8182
				c-24.457,0-44.3447,19.9043-44.3447,44.3613c0,24.4404,19.8877,44.3447,44.3447,44.3447
				c24.4571,0,44.3448-19.9043,44.3448-44.3447C544.8599,449.7225,524.9722,429.8182,500.5151,429.8182L500.5151,429.8182z"/>
		</g>
		<g>
			<path fill="#535352" d="M78.7622,155.1687c9.1553,0.0166,16.6172,7.4786,16.6172,16.6172
				c-0.0166,9.1553-7.4619,16.6172-16.6172,16.6172c-9.1553,0.0166-16.6172-7.4453-16.6172-16.6172
				C62.145,162.6473,69.6069,155.1853,78.7622,155.1687"/>
			<path fill="#535352" d="M475.0723,96.0477c9.1547,0,16.6167,7.4296,16.6167,16.6171c0,9.1553-7.4454,16.6172-16.6167,16.6172
				c-9.188,0-16.6006-7.4619-16.6006-16.6172C458.4717,103.4773,465.8843,96.0477,475.0723,96.0477"/>
			<path fill="#535352" d="M353.313,245.6014c9.1543,0.0322,16.584,7.4619,16.6167,16.6162c0,9.1884-7.4624,16.6504-16.6167,16.6172
				c-9.1885,0-16.6338-7.4288-16.6338-16.6172C336.6626,253.0633,344.1411,245.6014,353.313,245.6014"/>
			<path fill="#535352" d="M793.8032,361.9197c9.1719,0.0166,16.6328,7.4785,16.6328,16.6338
				c0,9.1553-7.4609,16.6172-16.6328,16.6172c-9.1387,0-16.6006-7.4453-16.6006-16.6172
				C777.2026,369.3982,784.6645,361.9197,793.8032,361.9197"/>
			<path fill="#535352" d="M345.1606,79.4471c9.1709-0.0157,16.6328,7.4131,16.6167,16.6006
				c-0.0166,9.1718-7.4458,16.6005-16.6167,16.6171c-9.1718,0-16.6338-7.4619-16.6338-16.6328
				C328.5268,86.8768,335.9888,79.4471,345.1606,79.4471"/>
			<path fill="#535352" d="M921.3481,245.6336c9.1719-0.0322,16.6006,7.4297,16.6006,16.6172
				c0,9.1552-7.4287,16.584-16.6006,16.6172c-9.1718-0.0332-16.6338-7.462-16.6338-16.6172
				C904.7143,253.0633,912.1763,245.6014,921.3481,245.6336"/>
			<path fill="#535352" d="M664.9438,671.1678c9.1709,0,16.6329,7.4453,16.6329,16.6172c0,9.1543-7.462,16.5995-16.6329,16.6161
				c-9.1718-0.0166-16.6015-7.4453-16.6347-16.6338C648.3423,678.6131,655.772,671.1678,664.9438,671.1678"/>
			<path fill="#535352" d="M202.5102,628.0555c9.1719,0,16.6338,7.412,16.6338,16.6005c0,9.1543-7.4785,16.6172-16.6338,16.6172
				c-9.1709,0-16.6167-7.4463-16.6167-16.6172C185.8935,635.4842,193.3555,628.0555,202.5102,628.0555"/>
			<path fill="#535352" d="M353.3291,635.8953c9.1548,0,16.6167,7.4453,16.6167,16.6172c0,9.1553-7.4619,16.6162-16.6167,16.6006
				c-9.1548,0.0156-16.6333-7.4453-16.6665-16.6006C336.6958,643.324,344.1743,635.8953,353.3291,635.8953"/>
			<path fill="#535352" d="M527.9311,810.5799c9.1709,0,16.6338,7.4453,16.6338,16.6328c0,9.1719-7.4629,16.6172-16.6338,16.6172
				c-9.1709-0.0166-16.6005-7.4453-16.6005-16.6172C511.314,818.0408,518.7602,810.5955,527.9311,810.5799"/>
			<path fill="#535352" d="M980.6499,396.3699c9.1387,0,16.6338,7.4463,16.6338,16.6006c0,9.1553-7.4629,16.6338-16.6338,16.6504
				c-9.1709-0.0166-16.6006-7.4619-16.6339-16.6504C964.0493,403.8162,971.5112,396.3699,980.6499,396.3699"/>
			<path fill="#535352" d="M926.772,46.1971c9.1386,0.0332,16.5683,7.4619,16.6005,16.6172c0,9.1875-7.4619,16.6494-16.6005,16.6328
				c-9.2041,0-16.6328-7.4453-16.6328-16.6328C910.1059,53.659,917.5679,46.1971,926.772,46.1971"/>
			<path fill="#535352" d="M660.8677,16.7107c9.1709,0,16.6328,7.462,16.6328,16.6162c0,9.1885-7.4619,16.6338-16.6328,16.6338
				c-9.1387-0.0166-16.6016-7.4619-16.6016-16.6338C644.2661,24.156,651.6958,16.7107,660.8677,16.7107"/>
			<path fill="#535352" d="M993.2075,671.1834c9.2041-0.0156,16.6328,7.4297,16.6328,16.6016
				c0,9.1875-7.4287,16.6161-16.6328,16.6161c-9.1719,0.0166-16.6016-7.4286-16.6016-16.6006
				C976.6059,678.6131,984.0356,671.1834,993.2075,671.1834"/>
			<path fill="#535352" d="M904.7143,793.9461c9.2041,0,16.6338,7.4453,16.6338,16.6338c0,9.1709-7.4297,16.6162-16.6338,16.6162
				c-9.1709,0-16.6005-7.4453-16.6005-16.6162C888.1138,801.408,895.5434,793.9627,904.7143,793.9461"/>
			<path fill="#535352" d="M777.2026,960.1648c9.1709-0.0166,16.6006,7.4297,16.6006,16.6006
				c0,9.1885-7.4297,16.6172-16.6006,16.6172c-9.1709,0.0166-16.6006-7.4287-16.6006-16.6006
				C760.602,967.5945,768.0317,960.1648,777.2026,960.1648"/>
			<path fill="#535352" d="M500.499,960.1482c9.187,0.0166,16.6655,7.4629,16.6655,16.6338c0,9.1553-7.4785,16.6006-16.6655,16.6006
				c-9.1387,0-16.5845-7.4287-16.6172-16.6172C483.9145,967.6111,491.3603,960.1648,500.499,960.1482"/>
			<path fill="#535352" d="M660.8677,976.7654c9.1709,0.0166,16.6328,7.463,16.6328,16.6172
				c0,9.1875-7.4619,16.6172-16.6328,16.6172c-9.1719,0-16.6016-7.4297-16.6016-16.6172
				C644.2661,984.2283,651.6958,976.782,660.8677,976.7654"/>
			<path fill="#535352" d="M33.4477,635.8953c9.1875,0,16.6333,7.4287,16.6333,16.6172c0,9.1875-7.4624,16.6338-16.6333,16.6162
				c-9.1718,0.0176-16.6171-7.4287-16.6171-16.6162C16.8306,643.324,24.2759,635.8953,33.4477,635.8953"/>
			<path fill="#535352" d="M78.7622,355.3953c9.1875,0,16.6338,7.4619,16.6172,16.6328
				c0.0166,9.1553-7.4297,16.6172-16.6172,16.6172c-9.1387,0-16.6172-7.4619-16.6172-16.6172
				C62.145,362.8406,69.6235,355.3953,78.7622,355.3953"/>
			<path fill="#535352" d="M235.7446,494.8562c9.1548,0.0332,16.584,7.462,16.6172,16.6172c0,9.1875-7.4624,16.666-16.6172,16.6328
				c-9.1719,0-16.6006-7.4453-16.6006-16.6328C219.1108,502.3182,226.5727,494.8562,235.7446,494.8562"/>
			<path fill="#535352" d="M411.6284,756.6522c9.1548,0,16.6167,7.4619,16.6167,16.6171c0,9.1543-7.4619,16.6006-16.6167,16.6006
				c-9.1553,0-16.6172-7.4464-16.6172-16.6006C395.0112,764.1141,402.4731,756.6522,411.6284,756.6522"/>
			<path fill="#535352" d="M793.8032,842.6629c9.2041,0,16.666,7.4619,16.6328,16.6172c0,9.1709-7.4287,16.6006-16.5995,16.6006
				c-9.1719,0.0322-16.6339-7.4297-16.6339-16.6006C777.2349,850.1248,784.6645,842.6629,793.8032,842.6629"/>
			<path fill="#535352" d="M827.0376,595.7742c9.1709-0.0166,16.666,7.4463,16.6328,16.6006
				c0.0332,9.1875-7.4619,16.6172-16.6328,16.6172c-9.1387,0-16.6016-7.4297-16.6016-16.6006S817.8989,595.7576,827.0376,595.7742"
				/>
			<path fill="#535352" d="M575.2671,201.24c9.2041,0,16.6338,7.4453,16.6338,16.6328c0,9.1553-7.4297,16.6006-16.6338,16.584
				c-9.1377,0.0332-16.6006-7.4287-16.6006-16.6162C558.6665,208.6853,566.1294,201.2566,575.2671,201.24"/>
			<path fill="#535352" d="M760.602,184.6228c9.1719-0.0166,16.6006,7.4288,16.6006,16.6172
				c0,9.1543-7.4287,16.6006-16.6006,16.6006c-9.1718,0-16.666-7.4463-16.6337-16.6338
				C743.9683,192.0516,751.4302,184.6062,760.602,184.6228"/>
			<path fill="#535352" d="M16.8306,532.3309c9.1552,0,16.6171,7.4619,16.6171,16.6171c0,9.1543-7.4619,16.6163-16.6171,16.6006
				c-9.1553,0-16.6172-7.4464-16.6172-16.5849C0.2134,539.7928,7.6753,532.3143,16.8306,532.3309"/>
			<path fill="#535352" d="M235.7446,247.573c18.3755,0.0332,33.2339,14.875,33.2339,33.2676
				c0,18.3594-14.8584,33.2168-33.2339,33.2334c-18.3594-0.0166-33.2344-14.874-33.2344-33.25
				C202.5102,262.448,217.3852,247.573,235.7446,247.573"/>
			<path fill="#535352" d="M332.5537,898.365c18.3594,0.0332,33.2339,14.8907,33.2339,33.25
				c0.0166,18.3438-14.8745,33.2178-33.2178,33.2344c-18.3916-0.0166-33.2173-14.8906-33.25-33.2344
				C299.3364,913.2557,314.1782,898.365,332.5537,898.365"/>
			<path fill="#535352" d="M910.1392,910.2977c18.375,0,33.2011,14.875,33.2333,33.2177
				c-0.0322,18.375-14.8583,33.25-33.2333,33.2666c-18.377-0.0166-33.2344-14.8916-33.2344-33.2666
				C876.9048,925.1727,891.7622,910.3309,910.1392,910.2977"/>
		</g>
	</g>
</g>
</svg>
