<?xml version="1.0" encoding="utf-8"?>
<!-- Generator: Adobe Illustrator 17.1.0, SVG Export Plug-In . SVG Version: 6.00 Build 0)  -->
<!DOCTYPE svg PUBLIC "-//W3C//DTD SVG 1.1//EN" "http://www.w3.org/Graphics/SVG/1.1/DTD/svg11.dtd">
<svg version="1.1" id="moon-flag-2" xmlns="http://www.w3.org/2000/svg" xmlns:xlink="http://www.w3.org/1999/xlink" x="0px"
	 y="0px" viewBox="0 0 1010 1010" enable-background="new 0 0 1010 1010" xml:space="preserve">
<g id="moon-flag-2-moon-flag-2">
	<g>
		<polyline fill="#B0D8EF" points="793.4512,172.147 970.9746,172.147 970.9746,371.8784 682.5059,371.8784 682.5059,283.1089 		"/>
		<path fill="#535352" d="M970.9746,388.7119H682.5059c-9.3047,0-16.8329-7.5371-16.8329-16.8335v-88.7695
			c0-9.2959,7.5283-16.833,16.8329-16.833c9.3046,0,16.8339,7.5371,16.8339,16.833v71.9365h254.8008V188.9805H793.4512
			c-9.3037,0-16.833-7.5371-16.833-16.8335c0-9.2959,7.5293-16.833,16.833-16.833h177.5234c9.3047,0,16.8329,7.5371,16.8329,16.833
			v199.7314C987.8076,381.1748,980.2793,388.7119,970.9746,388.7119L970.9746,388.7119z"/>
	</g>
	<g opacity="0.3">
		<g>
			<defs>
				<rect id="SVGID_1_" x="627.0254" y="693.6191" width="199.7148" height="199.6817"/>
			</defs>
			<clipPath id="SVGID_2_">
				<use xlink:href="#SVGID_1_"  overflow="visible"/>
			</clipPath>
			<path clip-path="url(#SVGID_2_)" fill="#8697CB" d="M815.6602,793.4678c0-49.0204-39.748-88.7696-88.7696-88.7696
				c-49.0195,0-88.7695,39.7491-88.7695,88.7696c0,49.0049,39.75,88.7373,88.7695,88.7373
				C775.9121,882.2051,815.6602,842.4727,815.6602,793.4678"/>
			<g clip-path="url(#SVGID_2_)">
				<path fill="#8787B2" d="M726.8906,890.6211c-53.5898,0-97.1855-43.5791-97.1855-97.1533
					c0-53.5898,43.5957-97.1855,97.1855-97.1855c53.5908,0,97.1865,43.5957,97.1865,97.1855
					C824.0771,847.042,780.4814,890.6211,726.8906,890.6211L726.8906,890.6211z M726.8906,713.1152
					c-44.3027,0-80.3525,36.0508-80.3525,80.3526c0,44.2861,36.0498,80.3203,80.3525,80.3203
					c44.3028,0,80.3535-36.0342,80.3535-80.3203C807.2441,749.166,771.1934,713.1152,726.8906,713.1152L726.8906,713.1152z"/>
			</g>
		</g>
	</g>
	<g>
		<g>
			<polyline fill="#B0D8EF" points="505,83.4268 793.4512,83.4268 793.4512,283.1089 505,283.1089 			"/>
			<g>
				<polygon fill="#8787B2" points="801.8682,291.5259 505,291.5259 505,274.6924 785.0352,274.6924 785.0352,91.8437 505,91.8437 
					505,75.0103 801.8682,75.0103 801.8682,291.5259 				"/>
			</g>
		</g>
	</g>
	<path fill="#FDF4BC" d="M505,482.8242c-269.5967,0-488.167,218.5537-488.167,488.1504v22.1924h976.333v-22.1924
		C993.166,701.3779,774.6133,482.8242,505,482.8242z"/>
	<g>
		<path fill="#A5A5A4" d="M305.3018,993.167c0-49.0205-39.7491-88.7695-88.7696-88.7695c-49.0044,0-88.7534,39.749-88.7534,88.7695"
			/>
		<path fill="#535352" d="M305.3018,1010c-9.3047,0-16.834-7.5293-16.834-16.833c0-39.667-32.2691-71.9365-71.9356-71.9365
			c-39.6504,0-71.9199,32.2695-71.9199,71.9365c0,9.3037-7.5293,16.833-16.8335,16.833s-16.8335-7.5293-16.8335-16.833
			c0-58.2266,47.3604-105.6035,105.5869-105.6035c58.2256,0,105.6026,47.377,105.6026,105.6035
			C322.1348,1002.4707,314.6055,1010,305.3018,1010L305.3018,1010z"/>
	</g>
	<g>
		<path fill="#535352" d="M505,654.9707c-9.3042,0-16.8335-7.5449-16.8335-16.833V16.8335C488.1665,7.5371,495.6958,0,505,0
			c9.3047,0,16.834,7.5371,16.834,16.8335v621.3042C521.834,647.4258,514.3047,654.9707,505,654.9707L505,654.9707z"/>
	</g>
	<g>
		<path fill="#535352" d="M793.4512,299.9424H505c-9.3042,0-16.8335-7.5371-16.8335-16.8335c0-9.2959,7.5293-16.833,16.8335-16.833
			h271.6182V100.2603H505c-9.3042,0-16.8335-7.5372-16.8335-16.8335c0-9.2959,7.5293-16.8331,16.8335-16.8331h288.4512
			c9.3047,0,16.834,7.5372,16.834,16.8331v199.6821C810.2852,292.4053,802.7559,299.9424,793.4512,299.9424L793.4512,299.9424z"/>
	</g>
	<g>
		<path fill="#A5A5A4" d="M815.6602,793.4678c0-49.0204-39.748-88.7696-88.7696-88.7696c-49.0195,0-88.7695,39.7491-88.7695,88.7696
			c0,49.0049,39.75,88.7373,88.7695,88.7373C775.9121,882.2051,815.6602,842.4727,815.6602,793.4678z"/>
		<path fill="#535352" d="M726.8906,899.0381c-58.2265,0-105.6025-47.3604-105.6025-105.5703
			c0-58.2256,47.376-105.6026,105.6025-105.6026c58.2266,0,105.6035,47.377,105.6035,105.6026
			C832.4941,851.6777,785.1172,899.0381,726.8906,899.0381L726.8906,899.0381z M726.8906,721.5322
			c-39.666,0-71.9355,32.2686-71.9355,71.9355c0,39.6505,32.2695,71.9033,71.9355,71.9033
			c39.6671,0,71.9365-32.2529,71.9365-71.9033C798.8271,753.8008,766.5576,721.5322,726.8906,721.5322L726.8906,721.5322z"/>
	</g>
	<g>
		<path fill="#A5A5A4" d="M426.1924,704.7148c0-49.0205-39.749-88.7695-88.7695-88.7695c-49.0206,0-88.7696,39.749-88.7696,88.7695
			c0,49.004,39.749,88.7364,88.7696,88.7364C386.4434,793.4512,426.1924,753.7188,426.1924,704.7148z"/>
		<path fill="#535352" d="M337.4229,810.2852c-58.2266,0-105.6026-47.3604-105.6026-105.5704
			c0-58.2265,47.376-105.6025,105.6026-105.6025c58.226,0,105.603,47.376,105.603,105.6025
			C443.0259,762.9248,395.6489,810.2852,337.4229,810.2852L337.4229,810.2852z M337.4229,632.7793
			c-39.667,0-71.9366,32.2686-71.9366,71.9355c0,39.6504,32.2696,71.9034,71.9366,71.9034c39.6669,0,71.936-32.2531,71.936-71.9034
			C409.3589,665.0479,377.0898,632.7793,337.4229,632.7793L337.4229,632.7793z"/>
	</g>
	<g>
		<path fill="#535352" d="M993.166,1010H16.833C7.5293,1010,0,1002.4707,0,993.167v-22.1924
			c0-278.4404,226.543-504.9839,505-504.9839s505,226.5435,505,504.9839v22.1924C1010,1002.4707,1002.4707,1010,993.166,1010
			L993.166,1010z M33.667,976.333h942.667v-5.3584c0-259.8809-211.4365-471.3174-471.334-471.3174S33.667,711.0937,33.667,970.9746
			V976.333L33.667,976.333z"/>
	</g>
	<g>
		<g>
			<path fill="#535352" d="M60.8232,564.0488c0,9.287-7.5283,16.8321-16.833,16.8321c-9.2715,0-16.833-7.545-16.833-16.8321
				c0-9.289,7.5615-16.834,16.833-16.834C53.2949,547.2148,60.8232,554.7598,60.8232,564.0488"/>
			<g>
				<path fill="#535352" d="M27.1572,183.4736c-9.2715,0-16.834,7.5454-16.834,16.833c0,9.2881,7.5625,16.8335,16.834,16.8335
					c9.3037,0,16.833-7.5454,16.833-16.8335C43.9902,191.019,36.4609,183.4736,27.1572,183.4736z"/>
				<path fill="#535352" d="M229.1572,74.2705c-9.2715,0-16.834,7.5454-16.834,16.8335c0,9.2876,7.5625,16.833,16.834,16.833
					c9.3037,0,16.833-7.5454,16.833-16.833C245.9902,81.8159,238.4609,74.2705,229.1572,74.2705z"/>
				<path fill="#535352" d="M627.0254,386.2788c-9.2881,0-16.834,7.5454-16.834,16.8335c0,9.2881,7.5459,16.8335,16.834,16.8335
					c9.2871,0,16.833-7.5454,16.833-16.8335C643.8584,393.8242,636.3125,386.2788,627.0254,386.2788z"/>
				<path fill="#535352" d="M826.7402,430.5156c-9.2881,0-16.8339,7.5454-16.8339,16.8335c0,9.2881,7.5458,16.8335,16.8339,16.8335
					s16.834-7.5454,16.834-16.8335C843.5742,438.061,836.0283,430.5156,826.7402,430.5156z"/>
				<path fill="#535352" d="M229.1572,401.5176c-9.2715,0-16.834,7.5454-16.834,16.8335s7.5625,16.8335,16.834,16.8335
					c9.3037,0,16.833-7.5454,16.833-16.8335S238.4609,401.5176,229.1572,401.5176z"/>
			</g>
		</g>
		<g>
			<g>
				
					<rect x="256.6881" y="236.3038" transform="matrix(0.7071 0.7071 -0.7071 0.7071 277.9831 -127.0852)" fill="#FDF4BC" width="71.4178" height="71.4178"/>
				<path fill="#535352" d="M292.397,346.3164l-74.3033-74.3037l74.3033-74.3032l74.3032,74.3032L292.397,346.3164L292.397,346.3164
					z M265.7002,272.0127l26.6968,26.6968l26.6968-26.6968l-26.6968-26.6963L265.7002,272.0127L265.7002,272.0127z"/>
			</g>
			<g>
				<line fill="#FDF4BC" x1="292.397" y1="221.5127" x2="292.397" y2="187.8462"/>
				<path fill="#535352" d="M292.397,238.3462c-9.3042,0-16.8335-7.5371-16.8335-16.8335v-33.6665
					c0-9.2964,7.5293-16.8335,16.8335-16.8335s16.8335,7.5371,16.8335,16.8335v33.6665
					C309.2305,230.8091,301.7012,238.3462,292.397,238.3462L292.397,238.3462z"/>
			</g>
			<g>
				<line fill="#FDF4BC" x1="342.897" y1="272.0127" x2="376.5635" y2="272.0127"/>
				<path fill="#535352" d="M376.5635,288.8462H342.897c-9.3042,0-16.8335-7.5371-16.8335-16.8335
					c0-9.2959,7.5293-16.833,16.8335-16.833h33.6665c9.3047,0,16.8335,7.5371,16.8335,16.833
					C393.397,281.3091,385.8682,288.8462,376.5635,288.8462L376.5635,288.8462z"/>
			</g>
			<g>
				<line fill="#FDF4BC" x1="292.397" y1="322.5127" x2="292.397" y2="356.1797"/>
				<path fill="#535352" d="M292.397,373.0127c-9.3042,0-16.8335-7.5371-16.8335-16.833v-33.667
					c0-9.2959,7.5293-16.833,16.8335-16.833s16.8335,7.5371,16.8335,16.833v33.667
					C309.2305,365.4756,301.7012,373.0127,292.397,373.0127L292.397,373.0127z"/>
			</g>
			<g>
				<line fill="#FDF4BC" x1="241.897" y1="272.0127" x2="208.2305" y2="272.0127"/>
				<path fill="#535352" d="M241.897,288.8462h-33.6665c-9.3047,0-16.8335-7.5371-16.8335-16.8335
					c0-9.2959,7.5288-16.833,16.8335-16.833h33.6665c9.3042,0,16.8335,7.5371,16.8335,16.833
					C258.7305,281.3091,251.2012,288.8462,241.897,288.8462L241.897,288.8462z"/>
			</g>
		</g>
	</g>
	<g>
		<path fill="#535352" d="M283.7832,761.5107c0-10.4551,8.499-18.9376,18.9702-18.9376c10.439,0,18.9214,8.4825,18.9214,18.9376
			c0,10.4717-8.4824,18.9374-18.9214,18.9374C292.2822,780.4482,283.7832,771.9824,283.7832,761.5107"/>
		<path fill="#535352" d="M359.5332,761.5107c0-10.4551,8.5151-18.9376,18.9541-18.9376c10.4712,0,18.937,8.4825,18.937,18.9376
			c0,10.4717-8.4658,18.9374-18.937,18.9374C368.0483,780.4482,359.5332,771.9824,359.5332,761.5107"/>
		<path fill="#535352" d="M321.6748,723.6357c0-10.4384,8.4824-18.9375,18.9375-18.9375c10.4385,0,18.9209,8.4991,18.9209,18.9375
			c0,10.4551-8.4824,18.9375-18.9209,18.9375C330.1572,742.5732,321.6748,734.0908,321.6748,723.6357"/>
		<path fill="#535352" d="M245.9248,723.6357c0-10.4384,8.4824-18.9375,18.9375-18.9375c10.4551,0,18.9209,8.4991,18.9209,18.9375
			c0,10.4551-8.4658,18.9375-18.9209,18.9375C254.4072,742.5732,245.9248,734.0908,245.9248,723.6357"/>
		<path fill="#535352" d="M283.7832,685.7607c0-10.455,8.499-18.9375,18.9702-18.9375c10.439,0,18.9214,8.4825,18.9214,18.9375
			c0,10.4551-8.4824,18.9375-18.9214,18.9375C292.2822,704.6982,283.7832,696.2158,283.7832,685.7607"/>
		<path fill="#535352" d="M359.5332,685.7607c0-10.455,8.5151-18.9375,18.9541-18.9375c10.4712,0,18.937,8.4825,18.937,18.9375
			c0,10.4551-8.4658,18.9375-18.937,18.9375C368.0483,704.6982,359.5332,696.2158,359.5332,685.7607"/>
		<path fill="#535352" d="M321.6748,647.8857c0-10.455,8.4824-18.9375,18.9375-18.9375c10.4385,0,18.9209,8.4825,18.9209,18.9375
			c0,10.4551-8.4824,18.9375-18.9209,18.9375C330.1572,666.8232,321.6748,658.3408,321.6748,647.8857"/>
	</g>
</g>
</svg>
