<?xml version="1.0" encoding="utf-8"?>
<!-- Generator: Adobe Illustrator 17.1.0, SVG Export Plug-In . SVG Version: 6.00 Build 0)  -->
<!DOCTYPE svg PUBLIC "-//W3C//DTD SVG 1.1//EN" "http://www.w3.org/Graphics/SVG/1.1/DTD/svg11.dtd">
<svg version="1.1" id="moon-2" xmlns="http://www.w3.org/2000/svg" xmlns:xlink="http://www.w3.org/1999/xlink" x="0px" y="0px"
	 viewBox="0 0 1009.9938 1008.0357" enable-background="new 0 0 1009.9938 1008.0357" xml:space="preserve">
<g id="moon-2-moon-2">
	<g id="moon-2-moon-2_1_">
		<g id="moon-2-fill">
			<path fill="#A5A5A4" d="M159.6138,849.398c189.105,189.1044,501.6382,189.1044,690.7437,0
				c189.1386-189.1378,189.1386-501.6553,0.0332-690.7764c-189.1387-189.1055-501.6719-189.1055-690.7769,0
				C-29.4912,347.7427-29.5244,660.2603,159.6138,849.398z"/>
			<path fill="#FDF4BC" d="M838.4463,837.5025c-88.2354,88.2529-206.6933,136.8828-333.436,136.8828
				c-84.1343,0-164.544-21.5098-234.9126-61.7227c5.873,0.2129,11.7798,0.6563,17.6699,0.6563
				c132.0586,0,260.5733-52.0421,354.7149-146.2178c94.6679-94.6338,146.8085-220.54,146.8085-354.3545
				c0-133.8794-52.1406-259.7529-146.7753-354.3872c-2.2637-2.2642-4.627-4.4629-6.9561-6.7104
				c76.2256,21.5092,145.8896,61.8701,202.9521,118.9003C1022.3671,354.4038,1022.334,653.5992,838.4463,837.5025z"/>
			<g>
				<path fill="#C9C9C8" d="M242.5176,760.9653c31.5503,31.4844,82.6084,31.4189,114.1094-0.0654
					c31.5342-31.5341,31.5342-82.5927,0-114.1259c-31.501-31.502-82.5591-31.502-114.1094,0
					C211,678.2749,211,729.399,242.5176,760.9653z"/>
				<path fill="#C9C9C8" d="M772.3926,411.9756c-2.4609,3.1665-4.6934,6.4478-7.6133,9.3682
					c-47.3163,47.3174-123.9697,47.2847-171.2206-0.0327c-47.3506-47.2515-47.3506-123.8877,0-171.2217
					c38.8184-38.8023,97.2266-45.2173,143.0995-20.2788C760.4151,288.0547,772.3594,349.9742,772.3926,411.9756z"/>
			</g>
		</g>
		<g id="moon-2-line">
			<g>
				<path fill="#535352" d="M504.9776,1008.0357c-135.7339,0-262.6075-52.125-357.2422-146.7589
					c-196.9805-196.9805-196.9805-517.521,0-714.5342C242.3701,52.1084,369.2437,0,504.9937,0
					c135.7339,0,262.6235,52.1084,357.2758,146.7427c196.9795,196.9971,196.9629,517.5371-0.0331,714.5342
					C767.6016,955.9107,640.7275,1008.0357,504.9776,1008.0357L504.9776,1008.0357z M504.9937,33.6016
					c-126.7754,0-245.2163,48.6133-333.5015,136.8984c-183.8877,183.9038-183.8877,483.1314,0,667.0201
					c88.2852,88.2841,206.7261,136.914,333.4854,136.914c126.7754,0,245.2158-48.6299,333.5009-136.914
					c183.8887-183.9043,183.9043-483.1163,0.0332-667.0201C750.2109,82.2149,631.753,33.6016,504.9937,33.6016L504.9937,33.6016z"/>
			</g>
			<g>
				<path fill="#FDF4BC" d="M134.0518,469.7935c15.7178,15.7339,41.3125,15.7998,57.1123,0
					c15.7671-15.7671,15.7012-41.2964-0.0493-57.0469s-41.2632-15.7505-57.0137,0
					C118.3013,428.5303,118.3013,454.0264,134.0518,469.7935z"/>
				<path fill="#535352" d="M162.6162,498.4234L162.6162,498.4234c-15.291,0-29.6474-5.9561-40.4428-16.7515
					c-22.2642-22.2969-22.231-58.5395,0.0659-80.8037c21.5586-21.5913,59.1792-21.5913,80.7539,0
					c22.2969,22.2969,22.3135,58.5395,0.0498,80.8037C192.2471,492.4673,177.8907,498.4234,162.6162,498.4234L162.6162,498.4234z
					 M162.6162,417.7344c-6.2837,0-12.1904,2.4448-16.6367,6.8911c-9.1875,9.1875-9.2041,24.1177-0.0327,33.2891
					c4.4463,4.4463,10.353,6.9072,16.6694,6.9072l0,0c6.3003,0,12.2232-2.4609,16.6695-6.9072
					c9.1714-9.1714,9.1382-24.1016-0.0493-33.2891C174.7901,420.1792,168.8838,417.7344,162.6162,417.7344L162.6162,417.7344z"/>
			</g>
			<g>
				<path fill="#FDF4BC" d="M365.2569,250.0894c15.7832,15.7837,41.2959,15.7837,57.063,0
					c15.7177-15.7505,15.7998-41.2466,0.0327-57.0298c-15.7505-15.7837-41.378-15.7998-57.1284,0
					C349.4405,208.7442,349.5391,234.3389,365.2569,250.0894z"/>
				<path fill="#535352" d="M393.8047,278.7359c-15.2583,0-29.6142-5.9556-40.4263-16.7681
					c-10.8286-10.8613-16.7841-25.2661-16.7514-40.6064c0.0332-15.2256,5.9883-29.5162,16.7514-40.2134
					c21.4766-21.5586,59.2779-21.6079,80.8692,0.0493c22.2148,22.231,22.2148,58.4736-0.0327,80.7544
					C423.4029,272.7803,409.063,278.7359,393.8047,278.7359L393.8047,278.7359z M393.7881,198.0142
					c-6.2998,0-12.2226,2.4609-16.6689,6.9072c-4.4463,4.4297-6.8745,10.271-6.8907,16.522
					c-0.0166,6.333,2.4444,12.2886,6.9234,16.7842c8.8926,8.8759,24.3642,8.9253,33.2895-0.0166
					c9.1714-9.188,9.1875-24.1182,0.0328-33.273C406.0113,200.4751,400.0889,198.0142,393.7881,198.0142L393.7881,198.0142z"/>
			</g>
			<g>
				<path fill="#FDF4BC" d="M522.287,595.4859c15.75,15.7832,41.2793,15.7832,57.0293,0.0498
					c15.751-15.8008,15.7832-41.3457,0-57.1455c-15.7168-15.7178-41.3125-15.7178-57.0957,0
					C506.4707,554.1734,506.5362,579.7349,522.287,595.4859z"/>
				<path fill="#535352" d="M550.8184,624.1324L550.8184,624.1324c-15.2754,0-29.6309-5.9561-40.4268-16.7842
					c-22.2641-22.2637-22.2968-58.5391-0.0654-80.8203c21.7061-21.6075,59.3438-21.5581,80.8691-0.0157
					c22.2637,22.2793,22.2637,58.5723,0.0166,80.8848C580.3994,618.1929,566.0605,624.1324,550.8184,624.1324L550.8184,624.1324z
					 M550.7852,543.4107c-6.3164,0-12.2559,2.4453-16.7188,6.8906c-9.1219,9.1387-9.1053,24.1016,0.0988,33.3066
					c4.4629,4.462,10.3691,6.9239,16.6533,6.9239l0,0c6.2832,0,12.1738-2.4453,16.6191-6.875
					c9.1719-9.2051,9.1719-24.2002-0.0156-33.3887C563.0078,545.8384,557.0859,543.4107,550.7852,543.4107L550.7852,543.4107z"/>
			</g>
			<g>
				<path fill="#535352" d="M299.5313,801.3423L299.5313,801.3423c-26.0049,0-50.4678-10.1064-68.876-28.4824
					c-38.0312-38.0967-38.0312-99.9668-0.0166-137.9648c18.4414-18.4083,42.9204-28.5479,68.958-28.5479
					c26.0381,0,50.5,10.1396,68.9087,28.5479c38.0146,38.0146,38.0146,99.8681,0,137.8828
					C350.0806,791.2027,325.585,801.3423,299.5313,801.3423L299.5313,801.3423z M299.5967,639.9488
					c-17.063,0-33.125,6.6445-45.2007,18.7197c-24.9218,24.8896-24.9057,65.463,0.0161,90.418
					c24.1016,24.0693,66.2022,24.0527,90.336-0.0654c24.9223-24.9218,24.9223-65.4463,0-90.3691
					C332.6895,646.5933,316.6602,639.9488,299.5967,639.9488L299.5967,639.9488z"/>
			</g>
			<g>
				<path fill="#535352" d="M679.168,473.6162c-36.832,0-71.4668-14.3559-97.5049-40.4267
					c-26.0381-26.0049-40.4101-60.5903-40.4267-97.3906c-0.0157-36.8496,14.3554-71.501,40.4433-97.5879
					c25.8076-25.8081,60.1465-40.0161,96.7012-40.0161c23.1016,0,46.0215,5.8242,66.3008,16.8496
					c3.3955,1.854,6.0703,4.8237,7.5302,8.417c24.4952,60.0815,36.9483,123.4941,36.9815,188.4975
					c0,3.7407-1.2481,7.3833-3.5449,10.3203l-1.6407,2.1656c-2.2636,3.019-4.5937,6.0048-7.3496,8.7778
					C750.6035,459.2764,715.9864,473.6162,679.168,473.6162L679.168,473.6162z M678.3809,231.7959
					c-27.5801,0-53.4863,10.7134-72.9443,30.1719c-19.7374,19.7378-30.5987,45.9395-30.5987,73.8145
					c0.0156,27.8095,10.877,53.9785,30.5821,73.6337c19.705,19.7374,45.8906,30.5987,73.748,30.5987
					c27.8437,0,54.0283-10.8447,73.7324-30.5493c0.9688-0.9844,1.8379-2.0181,2.6581-3.0845
					c-0.7051-56.6035-11.501-111.8779-32.1572-164.4619C709.373,235.2906,693.9355,231.7959,678.3809,231.7959L678.3809,231.7959z"
					/>
			</g>
			<g>
				<path fill="#535352" d="M287.7842,913.2857c-25.6606,0-51.4355-1.9688-77.1289-5.9717
					c-9.1714-1.4268-15.4551-10.0244-14.0278-19.1963c1.4272-9.1709,10.123-15.4551,19.1958-14.0107
					c147.3662,22.9697,297.9814-25.9229,402.8701-130.7959c88.3008-88.3008,136.9316-205.709,136.9316-330.5806
					c0.0157-124.8887-48.6308-242.2964-136.9316-330.5811c-12.7813-12.7973-27.416-25.4799-46.1035-39.8852
					c-7.3495-5.6768-8.6953-16.2261-3.0352-23.5767c5.6768-7.3173,16.2422-8.6626,23.5606-3.0351
					c19.8514,15.3237,35.537,28.9087,49.3514,42.7563c94.6348,94.6182,146.7755,220.4585,146.7589,354.3218
					c0,133.8462-52.124,259.687-146.7754,354.3384C548.3076,861.2115,419.8096,913.2857,287.7842,913.2857L287.7842,913.2857z"/>
			</g>
			<g>
				<path fill="#535352" d="M825.9111,156.7837H691.1133c-9.2871,0-16.8008-7.5141-16.8008-16.8003
					c0-9.2866,7.5137-16.8007,16.8008-16.8007h134.7979c9.2705,0,16.8007,7.5141,16.8007,16.8007
					C842.7119,149.2696,835.1816,156.7837,825.9111,156.7837L825.9111,156.7837z"/>
			</g>
			<g>
				<path fill="#535352" d="M908.2079,250.9917H738.3975c-9.2861,0-16.8008-7.5141-16.8008-16.8003
					c0-9.2866,7.5147-16.8007,16.8008-16.8007h169.8105c9.2705,0,16.8008,7.5141,16.8008,16.8007
					C925.0087,243.4776,917.4785,250.9917,908.2079,250.9917L908.2079,250.9917z"/>
			</g>
			<g>
				<path fill="#535352" d="M958.2159,345.1504H765.7305c-9.2852,0-16.7998-7.5141-16.7998-16.8003
					c0-9.2861,7.5146-16.8008,16.7998-16.8008h192.4854c9.2704,0,16.8007,7.5147,16.8007,16.8008
					C975.0165,337.6363,967.4863,345.1504,958.2159,345.1504L958.2159,345.1504z"/>
			</g>
			<g>
				<path fill="#535352" d="M772.3926,439.3584c-9.2871,0-16.8008-7.5141-16.8008-16.8003c0-9.27,7.5137-16.8007,16.8008-16.8007
					l210.4668-0.0162c9.2695,0,16.8008,7.5142,16.8008,16.8003c0,9.2701-7.5313,16.8008-16.8008,16.8008L772.3926,439.3584
					L772.3926,439.3584z"/>
			</g>
			<g>
				<path fill="#535352" d="M977.7734,533.5669H761.2032c-9.2872,0-16.8008-7.5146-16.8008-16.8008
					c0-9.2871,7.5136-16.8007,16.8008-16.8007h216.5703c9.2695,0,16.7998,7.5136,16.7998,16.8007
					C994.5732,526.0523,987.043,533.5669,977.7734,533.5669L977.7734,533.5669z"/>
			</g>
			<g>
				<path fill="#535352" d="M980.9883,627.7749L980.9883,627.7749l-252.2715-0.0332c-9.2851,0-16.8008-7.5302-16.8008-16.8007
					c0-9.2862,7.5157-16.7999,16.8008-16.7999l0,0l252.2715,0.0323c9.2695,0,16.8008,7.5302,16.8008,16.8008
					C997.7891,620.2603,990.2578,627.7749,980.9883,627.7749L980.9883,627.7749z"/>
			</g>
			<g>
				<path fill="#535352" d="M950.0126,721.9829L950.0126,721.9829l-269.4004-0.0332c-9.2861,0-16.7998-7.5312-16.7998-16.8007
					c0-9.2862,7.5137-16.8008,16.7998-16.8008l0,0l269.4004,0.0332c9.2697,0,16.7998,7.5312,16.7998,16.8008
					C966.8124,714.4683,959.2823,721.9829,950.0126,721.9829L950.0126,721.9829z"/>
			</g>
			<g>
				<path fill="#535352" d="M577.8066,816.2232c-9.2852,0-16.7997-7.5137-16.7997-16.8008c0-9.2695,7.5146-16.8008,16.7997-16.8008
					l309.2031-0.0644c9.2705,0,16.8008,7.5136,16.8008,16.7998c0,9.2705-7.5137,16.8007-16.8008,16.8007L577.8066,816.2232
					L577.8066,816.2232z"/>
			</g>
			<g>
				<path fill="#535352" d="M799.627,910.4312L799.627,910.4312l-457.9302-0.0322c-9.27,0-16.8008-7.5313-16.8008-16.8008
					c0-9.2863,7.5308-16.8008,16.8008-16.8008l0,0l457.9302,0.0332c9.2705,0,16.8008,7.5303,16.8008,16.8008
					C816.4277,902.9165,808.8975,910.4312,799.627,910.4312L799.627,910.4312z"/>
			</g>
		</g>
	</g>
</g>
</svg>
