<?xml version="1.0" encoding="utf-8"?>
<!-- Generator: Adobe Illustrator 17.1.0, SVG Export Plug-In . SVG Version: 6.00 Build 0)  -->
<!DOCTYPE svg PUBLIC "-//W3C//DTD SVG 1.1//EN" "http://www.w3.org/Graphics/SVG/1.1/DTD/svg11.dtd">
<svg version="1.1" id="moon-flag" xmlns="http://www.w3.org/2000/svg" xmlns:xlink="http://www.w3.org/1999/xlink" x="0px" y="0px"
	 viewBox="0 0 974.563 1009.9984" enable-background="new 0 0 974.563 1009.9984" xml:space="preserve">
<g id="moon-flag-moon-flag">
	<g id="moon-flag-moon-flag_1_">
		<path fill="#A5A5A4" d="M233.1201,891.8695c76.5561,63.2891,174.811,101.2959,281.8452,101.2959
			c244.5117,0,442.7646-198.1543,442.7646-442.7324c0-219.1543-159.2431-401.1084-368.33-436.5098"/>
		<path fill="#FDF4BC" d="M714.434,650.7758c104.0918-318.9385-125.0341-536.8525-125.0341-536.8525
			c-24.2139-4.0771-49.0694-6.2217-74.4522-6.2217c-244.4131,0-442.7148,198.1543-442.6987,442.7315
			c-0.0161,137.4297,62.6323,260.2607,160.8711,341.4365C233.1201,891.8695,619.894,940.5609,714.434,650.7758z"/>
		<g>
			<path fill="#535352" d="M514.9975,1009.9984c-0.0166,0-0.0166,0-0.0322,0c-122.7334,0-238.1343-47.8036-324.9395-134.6015
				C103.2114,788.6,55.4077,673.182,55.4155,550.433c-0.0078-122.7656,47.8047-238.1826,134.6182-324.9883
				c86.7973-86.7812,202.1899-134.5771,324.914-134.5771c253.4395,0,459.6153,206.1601,459.6153,459.5654
				c0,122.7822-47.8047,238.2002-134.6172,324.9971C753.1479,962.1947,637.7309,1009.9984,514.9975,1009.9984L514.9975,1009.9984z
				 M514.9477,124.5346c-113.7319,0-220.667,44.2949-301.1103,124.7216c-80.46,80.4444-124.7632,187.4034-124.7549,301.1768
				c-0.0083,113.7568,44.2949,220.709,124.7466,301.1611c80.4438,80.419,187.3784,124.7383,301.103,124.7383h0.0332h0.0322
				c113.7569,0,220.7079-44.2871,301.128-124.7226c80.4687-80.4356,124.7714-187.3868,124.7714-301.1768
				C940.8969,315.5961,749.811,124.5346,514.9477,124.5346L514.9477,124.5346z"/>
		</g>
		<g>
			<polyline fill="#B0D8EF" points="258.6987,177.5746 124.081,16.8187 16.8335,106.641 76.6879,178.0599 166.0166,103.2631 			"/>
			<path fill="#535352" d="M76.6958,194.893c-4.8086,0-9.584-2.0469-12.9126-6.0245l-59.854-71.4189
				c-2.8687-3.419-4.2579-7.8418-3.8633-12.2881c0.3945-4.4473,2.54-8.5566,5.959-11.4248L113.2724,3.9144
				c3.4273-2.8691,7.8823-4.2002,12.2881-3.8632c4.4546,0.3945,8.5562,2.54,11.4253,5.9589L271.6035,166.766
				c5.9673,7.126,5.0303,17.7461-2.0962,23.7129c-7.1426,5.959-17.7456,5.0469-23.7129-2.0957l-64.8184-77.4024
				c-0.9946,1.9317-2.3838,3.7071-4.1508,5.1866l-89.3291,74.7968C84.3398,193.6029,80.5097,194.893,76.6958,194.893
				L76.6958,194.893z M40.5551,108.7367l38.2286,45.6182l76.4243-63.9971c1.7754-1.4873,3.7563-2.5391,5.8354-3.1807
				l-39.0586-46.6455L40.5551,108.7367L40.5551,108.7367z"/>
		</g>
		<g>
			<path fill="#A5A5A4" d="M463.8725,294.0775c25.7432,0.041,46.5557-20.8369,46.5557-46.5879
				c0-25.7353-20.8457-46.58-46.5391-46.58c-25.7597,0-46.5879,20.8613-46.5879,46.58
				C417.2026,273.2738,438.0634,294.0775,463.8725,294.0775z"/>
			<path fill="#535352" d="M463.9467,309.226L463.9467,309.226c-0.0083,0-0.0903,0-0.0986,0
				c-16.562,0-32.1216-6.4444-43.7851-18.1573c-11.6138-11.6552-17.9756-27.1572-17.9102-43.6367
				c0-33.9795,27.6914-61.6709,61.7363-61.6709c34.0117,0,61.6953,27.6914,61.6953,61.7285
				c0,16.4883-6.4111,31.9815-18.0175,43.6368C495.9204,302.7982,480.435,309.226,463.9467,309.226L463.9467,309.226z
				 M463.8891,216.058c-17.3349,0-31.4394,14.1045-31.4394,31.4316c-0.0327,8.4248,3.1972,16.291,9.0825,22.2002
				c5.9346,5.959,13.8662,9.2393,22.3403,9.2393h0.0742c8.3755,0,16.2417-3.2637,22.1514-9.1983
				c5.918-5.9345,9.1816-13.833,9.1816-22.2412C495.2797,230.1625,481.1992,216.058,463.8891,216.058L463.8891,216.058z"/>
		</g>
		<g>
			<path fill="#A5A5A4" d="M246.5341,491.4916c38.6314,0,69.9146-31.332,69.9146-69.9229c0-38.6064-31.2832-69.8818-69.9307-69.8818
				c-38.5498,0-69.8164,31.333-69.833,69.8408C176.685,460.2084,207.9682,491.4916,246.5341,491.4916z"/>
			<path fill="#535352" d="M246.5341,508.3256c-47.7963,0-86.6821-38.9356-86.6821-86.7979
				c0.0166-47.7959,38.9024-86.6738,86.666-86.6738c47.8448,0,86.7642,38.9023,86.7642,86.7148
				C333.2822,469.4056,294.3715,508.3256,246.5341,508.3256L246.5341,508.3256z M246.518,368.5209
				c-29.2119,0-52.9829,23.7783-52.999,53.0156c0,29.2852,23.7783,53.1221,53.0151,53.1221
				c29.2696,0,53.0816-23.8125,53.0816-53.0899C299.6157,392.3158,275.7954,368.5209,246.518,368.5209L246.518,368.5209z"/>
		</g>
		<g>
			<path fill="#A5A5A4" d="M514.9653,701.1781c77.1963,0.0654,139.8281-62.5664,139.8281-139.7969
				c0-77.1718-62.6816-139.7627-139.7959-139.8125c-77.164-0.041-139.7964,62.6817-139.8125,139.8457
				C375.185,638.5785,437.8335,701.2435,514.9653,701.1781z"/>
			<path fill="#535352" d="M641.1665,594.6215c0,13.5449-11.0313,24.5595-24.5762,24.5595c-13.5459,0-24.543-11.0146-24.543-24.5595
				c0,13.5449,10.9971,24.5595,24.543,24.5595C630.1352,619.181,641.1665,608.1664,641.1665,594.6215z M592.0473,512.7963
				c0,13.5381,10.9971,24.5849,24.543,24.5849c13.5449,0,24.5762-11.0468,24.5762-24.5849c0-13.5449-11.0313-24.543-24.5762-24.543
				C603.0444,488.2533,592.0473,499.2514,592.0473,512.7963z M575.6567,578.2474c13.6113,0,24.5605-10.9482,24.5605-24.5263l0,0
				C600.2172,567.2992,589.268,578.2474,575.6567,578.2474z M600.2172,553.6879c0-13.5449-10.9492-24.5264-24.5605-24.5264v24.5264
				H600.2172z M653.7749,577.4916L653.7749,577.4916c-11.6885-1.874-20.7784-11.5401-20.7784-23.7705l0,0
				C632.9965,565.9515,642.0864,575.6176,653.7749,577.4916z M632.9965,553.6879h21.42c-0.461-7.9561-1.4962-15.7149-3.1563-23.2442
				C640.8208,533.2709,632.9965,542.3783,632.9965,553.6879z M575.6567,496.432c13.6113,0,24.5605-10.9814,24.5605-24.5605
				c0-13.5284-10.9492-24.5342-24.5605-24.5342V496.432z M600.2172,635.5541L600.2172,635.5541L600.2172,635.5541L600.2172,635.5541
				z M551.1137,635.5541L551.1137,635.5541L551.1137,635.5541L551.1137,635.5541z M632.9965,635.5541L632.9965,635.5541
				L632.9965,635.5541L632.9965,635.5541z M518.4008,553.7211L518.4008,553.7211L518.4008,553.7211L518.4008,553.7211z
				 M518.4008,553.6879L518.4008,553.6879c0-13.5449-10.9814-24.5264-24.5273-24.5264
				C507.3696,529.1615,518.4008,540.143,518.4008,553.6879z M493.8735,578.2474c13.5459,0,24.5273-10.9482,24.5273-24.5263
				C518.4008,567.2992,507.3696,578.2474,493.8735,578.2474z M493.8735,496.432c13.5459,0,24.5273-10.9814,24.5273-24.5605
				C518.4008,485.4506,507.3696,496.432,493.8735,496.432z M518.4008,471.8715c0-13.5284-10.9814-24.5342-24.5273-24.5342
				C507.3696,447.3373,518.4008,458.3431,518.4008,471.8715z M434.6279,481.4389c-3.7153,8.8359-12.4443,14.9931-22.5869,14.9931
				h-0.0166C422.1836,496.432,430.9126,490.2748,434.6279,481.4389z M434.6279,462.3373c-1.5947-3.8711-4.4551-6.9121-7.6934-9.4609
				l0,0C430.1728,455.4252,433.0332,458.4662,434.6279,462.3373z M592.0473,676.4535c0,0.4932,0.2793,0.8877,0.2793,1.3809
				c10.5528-7.0684,20.0547-15.5508,28.3565-25.086c-1.3809-0.2295-2.6143-0.8213-4.0928-0.8213
				C603.0444,651.9271,592.0473,662.9086,592.0473,676.4535z M592.0473,594.6215c0,13.5449,10.9971,24.5595,24.543,24.5595
				c13.5449,0,24.5762-11.0146,24.5762-24.5595c0-13.5127-11.0313-24.5274-24.5762-24.5274
				C603.0444,570.0941,592.0473,581.1088,592.0473,594.6215z M575.6567,611.0267v49.0538c13.6113,0,24.5605-10.9805,24.5605-24.5264
				l0,0l0,0C600.2172,621.975,589.268,611.0267,575.6567,611.0267z M632.9965,635.5541L632.9965,635.5541L632.9965,635.5541
				c0,0.1318,0.1143,0.2627,0.1143,0.4599c4.0772-6.4433,7.7432-13.1835,10.7178-20.2851
				C637.434,620.1342,632.9965,627.1703,632.9965,635.5541z M551.1137,553.6879c0,0,0,0,0,0.0332
				C551.1137,553.6879,551.1137,553.6879,551.1137,553.6879L551.1137,553.6879z M575.6567,578.2474
				c13.6113,0,24.5605-10.9482,24.5605-24.5263c0-0.0332,0-0.0332,0-0.0332l0,0h-24.5605V578.2474z M632.9965,553.6879
				c0,0,0,0,0,0.0332c0,12.2304,9.0899,21.8965,20.7784,23.7705c0.6416-5.2608,1.0185-10.6524,1.0185-16.1104
				c0-2.5644-0.2295-5.1289-0.3769-7.6933H632.9965L632.9965,553.6879z M493.8735,692.8265c7.2334,0,13.4961,3.2559,18.0332,8.2198
				l0,0C507.4194,696.0824,501.1069,692.8265,493.8735,692.8265z M518.4008,635.5541c0-13.5791-10.9814-24.5274-24.5273-24.5274
				C507.3696,611.0267,518.4008,621.975,518.4008,635.5541z M518.4008,635.5541L518.4008,635.5541L518.4008,635.5541
				L518.4008,635.5541z M493.8735,660.0805c13.4961,0,24.5273-10.9805,24.5273-24.5264l0,0
				C518.4008,649.1,507.4194,660.0805,493.8735,660.0805z M434.6279,625.9867c-3.7153-8.8115-12.4443-14.96-22.5869-14.96h-0.0166
				C422.1836,611.0267,430.9126,617.1752,434.6279,625.9867z M434.6279,645.1215c-3.2549,7.7589-10.603,13.0195-19.2007,14.3017l0,0
				C424.0249,658.141,431.373,652.8803,434.6279,645.1215z M559.3335,430.9633c0-0.8047-0.4278-1.4541-0.46-2.2354l0,0
				C558.9057,429.5092,559.3335,430.1586,559.3335,430.9633L559.3335,430.9633z M510.2309,430.9633
				c0-3.2793,0.6895-6.4024,1.8574-9.2549l0,0C510.9204,424.5609,510.2309,427.684,510.2309,430.9633L510.2309,430.9633z
				 M477.4843,430.9633c0-1.4219-0.5756-2.5801-0.7895-3.9287l0,0C476.9087,428.3666,477.4843,429.5414,477.4843,430.9633
				L477.4843,430.9633z M559.3335,594.6215c0,13.5449-11.0303,24.5595-24.5596,24.5595c-13.5625,0-24.543-11.0146-24.543-24.5595
				c0,13.5449,10.9805,24.5595,24.543,24.5595C548.3032,619.181,559.3335,608.1664,559.3335,594.6215z M477.4843,594.6215
				c0,13.5449-10.998,24.5595-24.5268,24.5595c-13.5625,0-24.5435-11.0146-24.5435-24.5595
				c0,13.5449,10.981,24.5595,24.5435,24.5595C466.4863,619.181,477.4843,608.1664,477.4843,594.6215z M395.6679,594.6215
				c0,8.0879-4.1591,14.8604-10.143,19.3642l0,0C391.5088,609.4818,395.6679,602.7094,395.6679,594.6215z M510.2309,512.7963
				c0,13.5381,10.9805,24.5849,24.543,24.5849c13.5293,0,24.5596-11.0468,24.5596-24.5849c0-13.5449-11.0303-24.543-24.5596-24.543
				C521.2114,488.2533,510.2309,499.2514,510.2309,512.7963z M452.9575,537.3812c13.5288,0,24.5268-11.0468,24.5268-24.5849
				c0-13.5449-10.998-24.543-24.5268-24.543c-13.5625,0-24.5435,10.9981-24.5435,24.543
				C428.414,526.3344,439.395,537.3812,452.9575,537.3812z M395.6679,512.7963c0-5.5401-2.1865-10.3809-5.2441-14.5069
				c-5.9839,11.7452-10.3237,24.4278-12.8223,37.711C387.958,533.14,395.6679,524.0326,395.6679,512.7963z M510.2309,430.9799
				c0,13.5537,10.9805,24.5439,24.543,24.5439c13.5293,0,24.5596-10.9902,24.5596-24.5439c0,0,0,0,0-0.0166
				c0-0.8047-0.4278-1.4541-0.46-2.2354c-13.793-4.5859-28.5391-7.1592-43.876-7.1592c-0.9531,0-1.9394,0.1397-2.9092,0.1397
				c-1.1679,2.8525-1.8574,5.9756-1.8574,9.2549C510.2309,430.9799,510.2309,430.9799,510.2309,430.9799z M452.9575,455.5238
				c13.5288,0,24.5268-10.9902,24.5268-24.5439c0,0,0,0,0-0.0166c0-1.4219-0.5756-2.5801-0.7895-3.9287
				c-15.1895,4.3398-29.3433,11.1455-41.9683,20.039C439.2636,452.1781,445.6255,455.5238,452.9575,455.5238z M436.5678,553.7211
				L436.5678,553.7211c0,13.5781-10.9648,24.5263-24.5434,24.5263C425.603,578.2474,436.5678,567.2992,436.5678,553.7211z
				 M387.4648,553.7211L387.4648,553.7211c0,13.5781,11.0142,24.5263,24.5596,24.5263
				C398.479,578.2474,387.4648,567.2992,387.4648,553.7211z M412.0244,529.1615c-13.5454,0-24.5596,10.9815-24.5596,24.5264h49.103
				C436.5678,540.143,425.603,529.1615,412.0244,529.1615z M493.8735,578.2474c-13.5781,0-24.5596-10.9482-24.5596-24.5263l0,0
				C469.3139,567.2992,480.2954,578.2474,493.8735,578.2474z M493.8735,578.2474c13.4961,0,24.5273-10.9482,24.5273-24.5263l0,0
				C518.4008,567.2992,507.3696,578.2474,493.8735,578.2474z M518.4008,553.6879c0-13.5449-11.0312-24.5264-24.5273-24.5264
				c-13.5781,0-24.5596,10.9815-24.5596,24.5264H518.4008z M575.6567,578.2474v-24.5595v-24.5264
				c-13.5117,0-24.543,10.9815-24.543,24.5264c0,0,0,0,0,0.0332l0,0C551.1137,567.2992,562.145,578.2474,575.6567,578.2474z
				 M412.0244,496.432c10.1592,0,18.8882-6.1572,22.6035-14.9931c1.2495-2.9502,1.9399-6.1475,1.9399-9.5674
				c0-3.3448-0.6904-6.5918-1.9399-9.5342c-1.5947-3.8711-4.4551-6.9121-7.6934-9.4609
				c-12.5923,10.2832-23.2773,22.7275-31.727,36.7412C399.6132,493.7933,405.5312,496.432,412.0244,496.432L412.0244,496.432z
				 M493.8735,496.432c13.4961,0,24.5273-10.9814,24.5273-24.5605c0-13.5284-11.0312-24.5342-24.5273-24.5342
				c-13.5781,0-24.5596,11.0058-24.5596,24.5342C469.3139,485.4506,480.2954,496.432,493.8735,496.432z M575.6567,496.432v-49.0947
				c-13.5117,0-24.543,11.0058-24.543,24.5342C551.1137,485.4506,562.145,496.432,575.6567,496.432z M436.5678,635.5541
				L436.5678,635.5541L436.5678,635.5541L436.5678,635.5541z M469.3139,635.5541L469.3139,635.5541L469.3139,635.5541
				L469.3139,635.5541z M518.4008,635.5541L518.4008,635.5541L518.4008,635.5541L518.4008,635.5541L518.4008,635.5541
				L518.4008,635.5541z M559.3335,676.4535c0-13.5449-11.0303-24.5264-24.5596-24.5264c-13.5625,0-24.543,10.9815-24.543,24.5264
				c0,12.1982,9.041,21.8643,20.6465,23.7715c5.4082-0.5918,10.7188-1.5781,15.8965-2.7949
				C554.1215,693.1889,559.3335,685.5276,559.3335,676.4535z M452.9575,651.9271c-11.8692,0-21.3213,8.5811-23.5737,19.8252
				c12.1977,9.4688,25.9902,17.0313,40.9492,22.0283c4.4384-4.4384,7.1513-10.5869,7.1513-17.3271
				C477.4843,662.9086,466.4863,651.9271,452.9575,651.9271z M534.7739,619.181c13.5293,0,24.5596-11.0146,24.5596-24.5595
				c0-13.5127-11.0303-24.5274-24.5596-24.5274c-13.5625,0-24.543,11.0147-24.543,24.5274
				C510.2309,608.1664,521.2114,619.181,534.7739,619.181z M452.9575,619.181c13.5288,0,24.5268-11.0146,24.5268-24.5595
				c0-13.5127-10.998-24.5274-24.5268-24.5274c-13.5625,0-24.5435,11.0147-24.5435,24.5274
				C428.414,608.1664,439.395,619.181,452.9575,619.181z M395.6679,594.6215c0-11.9024-8.6797-21.4043-19.9897-23.6065
				c1.019,15.0908,4.4053,29.5899,9.8467,42.9707C391.5088,609.4818,395.6679,602.7094,395.6679,594.6215z M493.8735,692.8265
				c-4.7676,0-8.9756,1.71-12.7236,4.045c9.8798,2.498,20.1543,3.9453,30.7568,4.1748
				C507.3696,696.0824,501.1069,692.8265,493.8735,692.8265z M434.6279,645.1215c1.2495-2.959,1.9399-6.1817,1.9399-9.5674l0,0l0,0
				c0-3.419-0.6904-6.5752-1.9399-9.5674c-3.7153-8.8115-12.4443-14.96-22.6035-14.96l0,0c-9.5015,0-17.5401,5.5899-21.6172,13.5127
				c6.5264,12.8555,14.9595,24.6582,25.02,34.8838C424.0249,658.141,431.373,652.8803,434.6279,645.1215z M518.4008,635.5541
				L518.4008,635.5541L518.4008,635.5541c0-13.5791-11.0312-24.5274-24.5273-24.5274c-13.5781,0-24.5596,10.9483-24.5596,24.5274
				l0,0l0,0c0,13.5459,10.9815,24.5264,24.5596,24.5264C507.3696,660.0805,518.4008,649.1,518.4008,635.5541z M575.6567,611.0267
				c-13.5117,0-24.543,10.9483-24.543,24.5274l0,0l0,0c0,13.5459,11.0312,24.5264,24.543,24.5264V611.0267z M436.5678,553.7211
				c0-0.0332,0-0.0332,0-0.0332l0,0h-49.103l0,0c0,0,0,0,0,0.0332c0,13.5781,11.0142,24.5263,24.5596,24.5263
				C425.603,578.2474,436.5678,567.2992,436.5678,553.7211z M493.8735,578.2474c13.4961,0,24.5273-10.9482,24.5273-24.5263l0,0
				c0-0.0332,0-0.0332,0-0.0332l0,0l0,0h-49.0869l0,0c0,0,0,0,0,0.0332C469.3139,567.2992,480.2954,578.2474,493.8735,578.2474z"/>
			<g>
				<path fill="#535352" d="M515.063,718.0111h-0.0977c-86.395,0-156.6138-70.2597-156.6138-156.5967
					c0.0161-86.3945,70.2515-156.6787,156.5806-156.6787c86.4355,0.0576,156.6953,70.3252,156.6953,156.6455
					C671.6274,647.7514,601.4008,718.0111,515.063,718.0111L515.063,718.0111z M514.9975,438.4027
					c-67.8266,0-122.9629,55.1768-122.979,123.0117c0,67.7774,55.1113,122.9297,122.8472,122.9297l0.1973,16.834v-16.834
					c67.7617,0,122.8974-55.1678,122.8974-122.9629C637.9604,493.6127,582.7915,438.4437,514.9975,438.4027L514.9975,438.4027z"/>
			</g>
		</g>
		<g>
			<g>
				<path fill="#535352" d="M319.1118,920.4066c-17.565,0-36.1489-1.331-58.4405-4.2079
					c-9.2216-1.1837-15.7314-9.6339-14.54-18.8388c1.1836-9.2383,9.6992-15.7979,18.8477-14.549
					c20.8276,2.6797,38.039,3.9297,54.1494,3.9297c0.0903,0,0.1728,0,0.2627,0c230.5879,0,418.1562-187.5683,418.1562-418.1318
					c0-132.6045-64.3086-258.7813-172.0488-337.5401c-7.5137-5.4824-9.1406-16.0107-3.6504-23.5234
					c5.4902-7.4883,16.0117-9.1484,23.5078-3.6494c116.3877,85.0625,185.8584,221.4072,185.8584,364.7129
					c0,249.123-202.6924,451.7978-451.8066,451.7978C319.309,920.4066,319.2104,920.4066,319.1118,920.4066L319.1118,920.4066z"/>
			</g>
			<g>
				<path fill="#535352" d="M487.7421,1000.2348c-4.3154,0-8.6225-1.6447-11.9101-4.9493l-85.5479-85.6621
					c-6.5673-6.576-6.5673-17.2285,0.0162-23.8036c6.5839-6.5752,17.2363-6.5752,23.8037,0.0166l85.5478,85.662
					c6.5674,6.5762,6.5674,17.2285-0.0166,23.8037C496.3481,998.5901,492.0493,1000.2348,487.7421,1000.2348L487.7421,1000.2348z"/>
			</g>
			<g>
				<path fill="#535352" d="M599.8383,992.6068c-4.3066,0-8.6132-1.6445-11.9013-4.9316L480.0488,879.8363
					c-6.5757-6.5762-6.5757-17.2285,0-23.8037c6.5752-6.5762,17.227-6.5762,23.8032,0l107.8887,107.8389
					c6.5752,6.5752,6.5752,17.2275,0,23.8037C608.4526,990.9623,604.146,992.6068,599.8383,992.6068L599.8383,992.6068z"/>
			</g>
			<g>
				<path fill="#535352" d="M691.3871,964.5941c-4.3067,0-8.6143-1.6435-11.9023-4.9316l-122.289-122.2227
					c-6.5752-6.5752-6.5752-17.2441-0.0157-23.8203c6.5752-6.5753,17.2442-6.5587,23.8204,0l122.288,122.2237
					c6.5753,6.5751,6.5753,17.2441,0,23.8193C700.0005,962.9506,695.6938,964.5941,691.3871,964.5941L691.3871,964.5941z"/>
			</g>
			<g>
				<path fill="#535352" d="M766.8578,920.473c-4.3067,0-8.6309-1.6445-11.918-4.9316L621.2915,781.8265
					c-6.5762-6.5751-6.5762-17.2441,0-23.8193c6.576-6.5596,17.2285-6.5596,23.8036,0.0166l133.6806,133.7139
					c6.5586,6.5752,6.5586,17.2441-0.0156,23.8193C775.4712,918.8285,771.1645,920.473,766.8578,920.473L766.8578,920.473z"/>
			</g>
			<g>
				<path fill="#535352" d="M823.3911,857.3471c-4.3067,0-8.6133-1.6436-11.9023-4.9317L673.9458,714.8881
					c-6.5762-6.5596-6.5762-17.2276,0-23.8037c6.5752-6.5752,17.2275-6.5752,23.8027,0l137.5449,137.5273
					c6.5752,6.5762,6.5752,17.2285,0,23.8037C832.0052,855.7035,827.6977,857.3471,823.3911,857.3471L823.3911,857.3471z"/>
			</g>
			<g>
				<path fill="#535352" d="M885.3491,799.515c-4.3067,0-8.6143-1.6435-11.9014-4.915L713.1684,634.4359
					c-6.5762-6.5752-6.5762-17.2275-0.0166-23.8036c6.5752-6.5752,17.2451-6.5752,23.8203-0.0156l160.2784,160.1631
					c6.5761,6.5761,6.5761,17.2285,0.0175,23.8037C893.9799,797.8715,889.6567,799.515,885.3491,799.515L885.3491,799.515z"/>
			</g>
			<g>
				<path fill="#535352" d="M925.4604,720.017c-4.3076,0-8.6142-1.6436-11.9014-4.9317l-171.08-170.997
					c-6.5762-6.5762-6.5762-17.2285,0-23.8125c6.5761-6.5752,17.2285-6.5674,23.8038-0.0078l171.079,170.9969
					c6.5762,6.5762,6.5762,17.2451,0.0166,23.8203C934.0903,718.3734,929.7671,720.017,925.4604,720.017L925.4604,720.017z"/>
			</g>
			<g>
				<path fill="#535352" d="M945.269,620.1996c-4.3076,0-8.6143-1.6436-11.9014-4.9316l-196.33-196.379
					c-6.5762-6.5751-6.5762-17.2363,0-23.8027c6.5761-6.5762,17.2285-6.5762,23.8036,0l196.3291,196.3789
					c6.5761,6.5752,6.5761,17.2276,0,23.8028C953.8832,618.556,949.5765,620.1996,945.269,620.1996L945.269,620.1996z"/>
			</g>
			<g>
				<path fill="#535352" d="M949.6411,504.8568c-4.3067,0-8.6133-1.6445-11.9004-4.9316L646.9028,209.1625
					c-6.5752-6.5674-6.5752-17.2285,0-23.8037c6.5762-6.5762,17.2285-6.5762,23.8047,0l290.8359,290.7627
					c6.5762,6.5674,6.5762,17.2275,0,23.8037C958.2563,503.2123,953.9487,504.8568,949.6411,504.8568L949.6411,504.8568z"/>
			</g>
		</g>
	</g>
</g>
</svg>
