<?xml version="1.0" encoding="utf-8"?>
<!-- Generator: Adobe Illustrator 17.1.0, SVG Export Plug-In . SVG Version: 6.00 Build 0)  -->
<!DOCTYPE svg PUBLIC "-//W3C//DTD SVG 1.1//EN" "http://www.w3.org/Graphics/SVG/1.1/DTD/svg11.dtd">
<svg version="1.1" id="moon" xmlns="http://www.w3.org/2000/svg" xmlns:xlink="http://www.w3.org/1999/xlink" x="0px" y="0px"
	 viewBox="0 0 1010 1010" enable-background="new 0 0 1010 1010" xml:space="preserve">
<g id="moon-moon">
	<g id="moon-moon_1_">
		<g id="moon-fill">
			<path fill="#A5A5A4" d="M16.833,505C16.833,235.3872,235.3789,16.8335,505,16.8335c269.6289,0,488.166,218.5537,488.166,488.1665
				c0,269.6133-218.5371,488.167-488.166,488.167C235.3789,993.167,16.833,774.6133,16.833,505z"/>
			<path fill="#C9C9C8" d="M186.6465,558.0645c0-64.4976,52.2339-116.732,116.707-116.732
				c64.5137,0,116.7403,52.2344,116.7403,116.732c0,64.4726-52.2266,116.748-116.7403,116.748
				C238.8804,674.8125,186.6465,622.5371,186.6465,558.0645"/>
			<path fill="#C9C9C8" d="M960.3223,681.0596c-25.3164-29.787-62.9942-48.7079-105.1426-48.7079
				c-76.1611,0-137.9385,61.7607-137.9385,137.9707c0,55.662,33.042,103.499,80.5674,125.3291
				C870.3027,841.1738,927.0498,766.9854,960.3223,681.0596"/>
			<path fill="#C9C9C8" d="M685.416,271.5527c75.668,0,137.083-61.0127,137.8887-136.5161
				C760.4258,80.9365,683.7715,42.519,599.1289,25.998c-31.4648,25.2828-51.7168,64.0455-51.7168,107.5674
				C547.4121,209.7593,609.2227,271.5527,685.416,271.5527"/>
			<path fill="#FDF4BC" d="M528.3594,749.0996c-15.8057-15.7646-41.3189-15.7646-57.0181-0.0166
				c-15.7563,15.749-15.8306,41.2783-0.041,57.043c15.7402,15.7314,41.3188,15.748,57.0591,0
				C544.1406,790.4102,544.0586,764.832,528.3594,749.0996z"/>
			<path fill="#FDF4BC" d="M740.6338,429.2583c-15.749-15.7729-41.2608-15.7729-56.9932-0.0083
				c-15.748,15.7402-15.7812,41.2695-0.0165,57.0181c15.7314,15.7563,41.3271,15.7895,57.0751,0
				C756.4316,470.5688,756.3828,444.9902,740.6338,429.2583z"/>
			<path fill="#FDF4BC" d="M353.4834,244.0835c-15.7563-15.7651-41.2612-15.7651-57.0015-0.0249
				c-15.7397,15.7729-15.8061,41.2861-0.041,57.0425c15.7403,15.7568,41.3599,15.7734,57.0923,0
				C369.2813,285.4023,369.2236,259.8315,353.4834,244.0835z"/>
			<g>
				<path fill="#535352" d="M250.2808,611.1289c0-11.7207,9.5347-21.2227,21.2636-21.2227c11.688,0,21.2144,9.502,21.2144,21.2227
					s-9.5264,21.2227-21.2144,21.2227C259.8154,632.3516,250.2808,622.8496,250.2808,611.1289"/>
				<path fill="#535352" d="M335.1787,611.1289c0-11.7207,9.543-21.2227,21.2559-21.2227c11.7207,0,21.2221,9.502,21.2221,21.2227
					s-9.5014,21.2227-21.2221,21.2227C344.7217,632.3516,335.1787,622.8496,335.1787,611.1289"/>
				<path fill="#535352" d="M292.7588,568.668c0-11.6885,9.5098-21.2227,21.2226-21.2227c11.6875,0,21.1973,9.5342,21.1973,21.2227
					c0,11.7207-9.5098,21.2382-21.1973,21.2382C302.2686,589.9062,292.7588,580.3887,292.7588,568.668"/>
				<path fill="#535352" d="M207.8525,568.668c0-11.6885,9.501-21.2227,21.2305-21.2227c11.7207,0,21.1978,9.5342,21.1978,21.2227
					c0,11.7207-9.4771,21.2382-21.1978,21.2382C217.3535,589.9062,207.8525,580.3887,207.8525,568.668"/>
				<path fill="#535352" d="M250.2808,526.2227c0-11.7129,9.5347-21.2227,21.2636-21.2227c11.688,0,21.2144,9.5098,21.2144,21.2227
					c0,11.7207-9.5264,21.2226-21.2144,21.2226C259.8154,547.4453,250.2808,537.9434,250.2808,526.2227"/>
				<path fill="#535352" d="M335.1787,526.2227c0-11.7129,9.543-21.2227,21.2559-21.2227c11.7207,0,21.2221,9.5098,21.2221,21.2227
					c0,11.7207-9.5014,21.2226-21.2221,21.2226C344.7217,547.4453,335.1787,537.9434,335.1787,526.2227"/>
				<path fill="#535352" d="M377.6567,568.668c0-11.6885,9.5103-21.2227,21.2227-21.2227c11.6963,0,21.2144,9.5342,21.2144,21.2227
					c0,11.7207-9.5181,21.2382-21.2144,21.2382C387.167,589.9062,377.6567,580.3887,377.6567,568.668"/>
				<path fill="#535352" d="M292.7588,483.7773c0-11.7207,9.5098-21.2221,21.2226-21.2221c11.6875,0,21.1973,9.5014,21.1973,21.2221
					c0,11.7129-9.5098,21.2227-21.1973,21.2227C302.2686,505,292.7588,495.4902,292.7588,483.7773"/>
				<path fill="#535352" d="M207.8525,483.7773c0-11.7207,9.501-21.2221,21.2305-21.2221c11.7207,0,21.1978,9.5014,21.1978,21.2221
					c0,11.7129-9.4771,21.2227-21.1978,21.2227C217.3535,505,207.8525,495.4902,207.8525,483.7773"/>
			</g>
			<g>
				<path fill="#535352" d="M789.9824,718.2773c9.0742,7.4463,10.3574,20.877,2.9268,29.8858
					c-7.4639,9.041-20.8604,10.3232-29.8858,2.8604c-9.041-7.4307-10.3242-20.8447-2.8925-29.8535
					C767.5938,712.1455,780.9912,710.8633,789.9824,718.2773"/>
				<path fill="#535352" d="M795.7695,778.0322c9.0254,7.4795,10.3067,20.8604,2.8604,29.9023
					c-7.4639,9.0078-20.8447,10.3066-29.919,2.8438c-8.9921-7.4472-10.2734-20.8281-2.8593-29.8691
					C773.3477,771.8672,786.7285,770.585,795.7695,778.0322"/>
				<path fill="#535352" d="M849.7539,712.5566c9.0586,7.4464,10.3574,20.8438,2.8945,29.8858
					c-7.4472,9.041-20.8457,10.3232-29.9199,2.8604c-8.9746-7.4307-10.3066-20.8447-2.8262-29.8857
					C827.3652,706.4248,840.7461,705.0928,849.7539,712.5566"/>
				<path fill="#535352" d="M844.0332,652.8174c9.0742,7.4306,10.3574,20.8115,2.8613,29.8535
					c-7.4472,9.041-20.8447,10.3232-29.8535,2.8603c-9.041-7.4306-10.3232-20.8447-2.8926-29.8535
					C821.6113,646.6367,835.0254,645.3545,844.0332,652.8174"/>
				<path fill="#535352" d="M903.8047,647.0645c9.0254,7.4628,10.3242,20.8437,2.8447,29.8857
					c-7.4139,9.041-20.7959,10.3232-29.8369,2.8603c-9.0244-7.4638-10.3232-20.8447-2.9258-29.8857
					C881.3828,640.8672,894.7803,639.6006,903.8047,647.0645"/>
				<path fill="#535352" d="M909.5254,706.8359c9.042,7.4297,10.291,20.8438,2.8613,29.8858
					c-7.4306,9.0078-20.8447,10.3232-29.8535,2.8603c-9.041-7.4637-10.3232-20.8613-2.8594-29.8857
					C887.1035,700.6543,900.5176,699.3721,909.5254,706.8359"/>
				<path fill="#535352" d="M915.2461,766.5742c9.0586,7.4629,10.3574,20.8936,2.8769,29.8858
					c-7.4462,9.0244-20.8281,10.291-29.8691,2.8603c-9.0078-7.414-10.3066-20.8447-2.8769-29.8525
					C892.8408,760.4258,906.2383,759.1436,915.2461,766.5742"/>
				<path fill="#535352" d="M855.5078,772.3281c9.041,7.4297,10.3242,20.8438,2.8936,29.8692
					c-7.4463,9.0244-20.8936,10.3066-29.919,2.8769c-9.0078-7.4638-10.291-20.8447-2.8594-29.8857
					C833.0693,766.1465,846.4668,764.8643,855.5078,772.3281"/>
				<path fill="#535352" d="M801.4902,837.7871c9.0411,7.4629,10.2911,20.8447,2.877,29.9356
					c-7.4629,8.9746-20.877,10.2734-29.8692,2.8437c-9.041-7.4639-10.3242-20.8447-2.8613-29.9023
					C779.0684,831.6387,792.4648,830.3896,801.4902,837.7871"/>
			</g>
		</g>
		<g id="moon-line">
			<g>
				<path fill="#535352" d="M505,1010C226.543,1010,0,783.457,0,505S226.543,0,505,0s505,226.543,505,505S783.457,1010,505,1010
					L505,1010z M505,33.6665C245.1025,33.6665,33.667,245.1025,33.667,505S245.1025,976.333,505,976.333
					S976.334,764.8975,976.334,505S764.8975,33.6665,505,33.6665L505,33.6665z"/>
			</g>
			<g>
				<path fill="#535352" d="M303.3535,691.6465c-73.6377,0-133.541-59.9365-133.541-133.582
					c0-73.646,59.9033-133.5655,133.541-133.5655c73.6543,0,133.5733,59.9195,133.5733,133.5655
					C436.9268,631.71,377.0078,691.6465,303.3535,691.6465L303.3535,691.6465z M303.3535,458.166
					c-55.0703,0-99.874,44.812-99.874,99.8985c0,55.1035,44.8037,99.915,99.874,99.915c55.0864,0,99.9068-44.8115,99.9068-99.915
					C403.2603,502.978,358.4399,458.166,303.3535,458.166L303.3535,458.166z"/>
			</g>
			<g>
				<path fill="#535352" d="M799.8955,915.1484l-9.124-4.2089c-54.8887-25.2168-90.3633-80.418-90.3633-140.6172
					c0-85.3506,69.4209-154.8047,154.7715-154.8047c45.4687,0,88.457,19.9082,117.9648,54.6426l6.4932,7.6445l-3.6162,9.3369
					c-34.1768,88.2441-92.3047,165.0127-168.1035,221.957L799.8955,915.1484L799.8955,915.1484z M855.1797,649.1846
					c-66.7754,0-121.1055,54.33-121.1055,121.1377c0,43.7762,23.9844,84.167,61.8926,105.5038
					c63.9805-50.3028,113.7891-116.0576,144.793-191.1826C918.0908,661.9902,887.4316,649.1846,855.1797,649.1846L855.1797,649.1846
					z"/>
			</g>
			<g>
				<path fill="#535352" d="M685.416,288.3857c-85.3672,0-154.838-69.4536-154.838-154.8203
					c0-47.081,21.1407-91.0713,57.9962-120.6855l6.1153-4.8989l7.6611,1.4961C687.668,26.1294,767.873,65.1304,834.2852,122.2798
					l5.9355,5.1045l-0.083,7.833C839.2344,219.6719,769.8291,288.3857,685.416,288.3857L685.416,288.3857z M603.8135,44.1382
					c-25.2334,22.998-39.5674,55.1767-39.5674,89.4272c0,66.8072,54.3457,121.1538,121.1699,121.1538
					c63.4531,0,116.0742-49.6372,120.7266-112.1455C747.4727,93.8164,677.8379,59.9277,603.8135,44.1382L603.8135,44.1382z"/>
			</g>
			<g>
				<path fill="#535352" d="M499.8384,834.7627L499.8384,834.7627c-15.2803,0-29.6392-5.9512-40.4395-16.7354
					c-10.7925-10.7675-16.7348-25.1015-16.7431-40.3574c0-15.2871,5.9589-29.6719,16.7841-40.4883
					c21.4937-21.5673,59.1548-21.5839,80.8042,0c10.8497,10.8497,16.7676,25.2501,16.752,40.5714
					c-0.0166,15.2549-5.9668,29.5566-16.752,40.3076C529.4775,828.8115,515.1182,834.7627,499.8384,834.7627L499.8384,834.7627z
					 M499.8052,754.1133c-6.2549,0-12.1319,2.4336-16.5454,6.8555c-4.4795,4.4874-6.9375,10.4053-6.9375,16.6855
					c0,6.2627,2.4414,12.1318,6.8715,16.5703c8.8936,8.877,24.4117,8.8604,33.2554,0c4.4395-4.4062,6.8633-10.2744,6.8799-16.5381
					c0.0166-6.3125-2.4326-12.2304-6.8877-16.7012C512.0029,756.5625,506.085,754.1133,499.8052,754.1133L499.8052,754.1133z"/>
			</g>
			<g>
				<path fill="#535352" d="M712.1621,514.9297L712.1621,514.9297c-15.2891,0-29.6562-5.9512-40.4394-16.7681
					c-10.8008-10.7842-16.752-25.143-16.7344-40.415c0-15.2632,5.9502-29.606,16.75-40.4063
					c21.5517-21.5844,59.2295-21.6089,80.7969,0.0244c10.8163,10.792,16.7675,25.1763,16.7675,40.4805
					c0,15.2637-5.9336,29.5816-16.7011,40.3408C741.8174,508.9707,727.4668,514.9297,712.1621,514.9297L712.1621,514.9297z
					 M712.1289,434.2637c-6.2637,0-12.1484,2.4414-16.5703,6.8799c-4.4707,4.455-6.9043,10.3481-6.9043,16.6196
					c0,6.2715,2.4336,12.1645,6.8711,16.5947c8.9101,8.9263,24.3955,8.9019,33.2559,0.0249
					c4.4218-4.4219,6.8553-10.2905,6.8553-16.5459c0-6.3042-2.4492-12.2222-6.9043-16.6689
					C724.293,436.7051,718.3926,434.2637,712.1289,434.2637L712.1289,434.2637z"/>
			</g>
			<g>
				<path fill="#535352" d="M324.9951,329.7539L324.9951,329.7539c-15.2964,0-29.664-5.9507-40.4638-16.7593
					c-22.2501-22.2417-22.2422-58.5053,0.0327-80.8296c21.6255-21.625,59.2207-21.5922,80.8296,0.0166
					c10.8164,10.833,16.7675,25.2251,16.7592,40.5381c-0.0161,15.2471-5.959,29.5572-16.7348,40.2998
					C354.667,323.8032,340.2998,329.7539,324.9951,329.7539L324.9951,329.7539z M324.9619,249.0889
					c-6.2549,0-12.1479,2.4414-16.5781,6.8715c-9.165,9.1812-9.1895,24.0992-0.041,33.231
					c8.8935,8.9097,24.4277,8.8853,33.2719,0.0244c4.4385-4.4219,6.8633-10.2822,6.8716-16.5288
					c0-6.3125-2.4492-12.2388-6.9126-16.7021C337.1353,251.5381,331.2334,249.0889,324.9619,249.0889L324.9619,249.0889z"/>
			</g>
		</g>
	</g>
</g>
</svg>
