<?xml version="1.0" encoding="utf-8"?>
<!-- Generator: Adobe Illustrator 17.1.0, SVG Export Plug-In . SVG Version: 6.00 Build 0)  -->
<!DOCTYPE svg PUBLIC "-//W3C//DTD SVG 1.1//EN" "http://www.w3.org/Graphics/SVG/1.1/DTD/svg11.dtd">
<svg version="1.1" id="moon-lander" xmlns="http://www.w3.org/2000/svg" xmlns:xlink="http://www.w3.org/1999/xlink" x="0px"
	 y="0px" viewBox="0 0 843.7424 1010" enable-background="new 0 0 843.7424 1010" xml:space="preserve">
<g id="moon-lander-moon-lander">
	<g>
		<path fill="#E6E6E6" d="M633.5715,278.9663v-32.8115c0-126.6445-93.3555-229.3213-208.5254-229.3213
			c-115.1377,0-208.5102,102.6768-208.5102,229.3213v32.8115"/>
		<path fill="#535352" d="M633.5715,295.7998c-9.3037,0-16.833-7.5288-16.833-16.8335v-32.8115
			c0-117.1597-85.9912-212.4883-191.6924-212.4883c-105.6855,0-191.6768,95.3286-191.6768,212.4883v32.8115
			c0,9.3047-7.5292,16.8335-16.8334,16.8335s-16.8335-7.5288-16.8335-16.8335v-32.8115C199.7024,110.4194,300.7849,0,425.0461,0
			c124.2607,0,225.3594,110.4194,225.3594,246.1548v32.8115C650.4055,288.271,642.8762,295.7998,633.5715,295.7998
			L633.5715,295.7998z"/>
	</g>
	<polyline fill="#A5A5A4" points="576.0363,832.6748 633.5715,758.6504 633.5715,245.4312 216.5359,245.4312 216.5359,758.6504 
		289.4914,836.7021 	"/>
	<polygon fill="#7C7C7B" points="576.3976,838.3955 287.091,838.3955 222.7824,758.5195 624.6125,758.5195 	"/>
	<g>
		<path fill="#535352" d="M289.4914,853.5352c-4.4878,0-8.9756-1.7911-12.2964-5.3418l-72.9555-78.0518
			c-2.9092-3.1074-4.5371-7.2168-4.5371-11.4912V245.4312c0-9.3042,7.5293-16.8331,16.8335-16.8331h417.0356
			c9.3047,0,16.834,7.5289,16.834,16.8331v513.2192c0,3.748-1.25,7.3809-3.5342,10.3242l-57.5527,74.0234
			c-5.6553,7.3487-16.2578,8.7295-23.6064,2.959c-7.3477-5.704-8.6797-16.2744-2.959-23.6053l53.9854-69.4708V262.2646H233.3693
			v489.7451l68.418,73.2011c6.3457,6.7901,5.9839,17.4424-0.8052,23.7871C297.7434,852.0391,293.6174,853.5352,289.4914,853.5352
			L289.4914,853.5352z"/>
	</g>
	<g>
		<path fill="#535352" d="M624.6125,775.3525H236.5583c-9.3042,0-16.8335-7.5293-16.8335-16.8329
			c0-9.3047,7.5293-16.834,16.8335-16.834h388.0542c9.3047,0,16.834,7.5294,16.834,16.834
			C641.4465,767.8232,633.9172,775.3525,624.6125,775.3525L624.6125,775.3525z"/>
	</g>
	<g>
		<rect x="299.9133" y="302.9014" fill="#B0D8EF" width="250.248" height="50.0395"/>
		<path fill="#535352" d="M550.1613,369.7744h-250.248c-9.3042,0-16.833-7.5288-16.833-16.8335v-50.0395
			c0-9.3042,7.5288-16.8335,16.833-16.8335h250.248c9.3047,0,16.833,7.5293,16.833,16.8335v50.0395
			C566.9943,362.2456,559.4659,369.7744,550.1613,369.7744L550.1613,369.7744z M316.7473,336.1079h216.581v-16.373h-216.581
			V336.1079L316.7473,336.1079z"/>
	</g>
	<g>
		<rect x="299.9133" y="402.981" fill="#B0D8EF" width="250.248" height="50.0395"/>
		<path fill="#535352" d="M550.1613,469.854h-250.248c-9.3042,0-16.833-7.5293-16.833-16.8335V402.981
			c0-9.3047,7.5288-16.8335,16.833-16.8335h250.248c9.3047,0,16.833,7.5288,16.833,16.8335v50.0395
			C566.9943,462.3247,559.4659,469.854,550.1613,469.854L550.1613,469.854z M316.7473,436.187h216.581v-16.373h-216.581V436.187
			L316.7473,436.187z"/>
	</g>
	<g>
		<rect x="397.2151" y="510.2598" fill="#FDF4BC" width="55.6455" height="179.4297"/>
		<path fill="#535352" d="M452.8606,706.5234h-55.6455c-9.3047,0-16.834-7.5293-16.834-16.8339V510.2598
			c0-9.3037,7.5293-16.8326,16.834-16.8326h55.6455c9.3037,0,16.833,7.5289,16.833,16.8326v179.4297
			C469.6936,698.9941,462.1643,706.5234,452.8606,706.5234L452.8606,706.5234z M414.0481,672.8564h21.9785V527.0937h-21.9785
			V672.8564L414.0481,672.8564z"/>
	</g>
	<g>
		<g>
			<path fill="#535352" d="M342.5559,542.8418h-50.0401c-9.3042,0-16.833-7.5293-16.833-16.833s7.5288-16.833,16.833-16.833h50.0401
				c9.3047,0,16.833,7.5293,16.833,16.833S351.8606,542.8418,342.5559,542.8418L342.5559,542.8418z"/>
		</g>
		<g>
			<path fill="#535352" d="M342.5559,595.1172h-50.0401c-9.3042,0-16.833-7.5293-16.833-16.833
				c0-9.3036,7.5288-16.8329,16.833-16.8329h50.0401c9.3047,0,16.833,7.5293,16.833,16.8329
				C359.3889,587.5879,351.8606,595.1172,342.5559,595.1172L342.5559,595.1172z"/>
		</g>
		<g>
			<path fill="#535352" d="M342.5559,647.4258h-50.0401c-9.3042,0-16.833-7.5293-16.833-16.833
				c0-9.3047,7.5288-16.8329,16.833-16.8329h50.0401c9.3047,0,16.833,7.5283,16.833,16.8329
				C359.3889,639.8965,351.8606,647.4258,342.5559,647.4258L342.5559,647.4258z"/>
		</g>
		<g>
			<path fill="#535352" d="M342.5559,699.668h-50.0401c-9.3042,0-16.833-7.5284-16.833-16.833c0-9.3047,7.5288-16.833,16.833-16.833
				h50.0401c9.3047,0,16.833,7.5283,16.833,16.833C359.3889,692.1396,351.8606,699.668,342.5559,699.668L342.5559,699.668z"/>
		</g>
	</g>
	<g>
		<path fill="#535352" d="M372.885,850.0342c-4.7178,0-9.4024-1.9727-12.7237-5.8194l-62.5493-72.2812
			c-6.0825-7.0361-5.3261-17.6553,1.7095-23.7383c7.0361-6.082,17.6719-5.3262,23.7383,1.71l62.5488,72.2812
			c6.083,7.0362,5.3262,17.6553-1.709,23.7373C380.7102,848.6855,376.7981,850.0342,372.885,850.0342L372.885,850.0342z"/>
	</g>
	<g>
		<path fill="#535352" d="M477.1897,850.0342c-3.9121,0-7.8252-1.3487-11.0137-4.1104c-7.0361-6.082-7.792-16.7011-1.71-23.7373
			l62.5498-72.2812c6.0821-7.0518,16.7178-7.792,23.7373-1.71c7.0363,6.083,7.792,16.7021,1.71,23.7383l-62.5498,72.2812
			C486.593,848.0615,481.8908,850.0342,477.1897,850.0342L477.1897,850.0342z"/>
	</g>
	<g>
		<path fill="#535352" d="M564.0685,97.6299H286.0393c-9.3047,0-16.8335-7.5288-16.8335-16.833
			c0-9.3047,7.5288-16.8335,16.8335-16.8335h278.0293c9.3047,0,16.833,7.5288,16.833,16.8335
			C580.9016,90.1011,573.3733,97.6299,564.0685,97.6299L564.0685,97.6299z"/>
	</g>
	<g>
		<path fill="#FDF4BC" d="M457.5949,164.2563c0,17.9844-14.5654,32.5489-32.5488,32.5489
			c-17.9844,0-32.5654-14.5645-32.5654-32.5489c0-17.9838,14.581-32.5488,32.5654-32.5488
			C443.0295,131.7075,457.5949,146.2725,457.5949,164.2563z"/>
		<path fill="#535352" d="M425.0461,213.6387c-27.2393,0-49.3994-22.1597-49.3994-49.3824
			c0-27.2226,22.1601-49.3818,49.3994-49.3818c27.2227,0,49.3818,22.1592,49.3818,49.3818
			C474.4279,191.479,452.2688,213.6387,425.0461,213.6387L425.0461,213.6387z M425.0461,148.541
			c-8.6797,0-15.7324,7.0523-15.7324,15.7153c0,8.6636,7.0527,15.7159,15.7324,15.7159c8.6631,0,15.7148-7.0523,15.7148-15.7159
			C440.7609,155.5933,433.7092,148.541,425.0461,148.541L425.0461,148.541z"/>
	</g>
	<g>
		<path fill="#535352" d="M618.5305,204.1533h-79.8926c-9.3047,0-16.833-7.5288-16.833-16.833
			c0-9.3047,7.5283-16.8335,16.833-16.8335h79.8926c9.3047,0,16.833,7.5288,16.833,16.8335
			C635.3635,196.6245,627.8351,204.1533,618.5305,204.1533L618.5305,204.1533z"/>
	</g>
	<g>
		<path fill="#535352" d="M604.0803,158.0264h-43.4971c-9.3037,0-16.833-7.5293-16.833-16.8335s7.5293-16.8335,16.833-16.8335
			h43.4971c9.3047,0,16.834,7.5293,16.834,16.8335S613.3849,158.0264,604.0803,158.0264L604.0803,158.0264z"/>
	</g>
	<g>
		<path fill="#535352" d="M319.0158,204.1533h-79.9257c-9.3047,0-16.8335-7.5288-16.8335-16.833
			c0-9.3047,7.5288-16.8335,16.8335-16.8335h79.9257c9.3037,0,16.833,7.5288,16.833,16.8335
			C335.8488,196.6245,328.3195,204.1533,319.0158,204.1533L319.0158,204.1533z"/>
	</g>
	<g>
		<path fill="#535352" d="M297.0695,158.0264h-43.5136c-9.3042,0-16.833-7.5293-16.833-16.8335s7.5288-16.8335,16.833-16.8335
			h43.5136c9.3047,0,16.8331,7.5293,16.8331,16.8335S306.3742,158.0264,297.0695,158.0264L297.0695,158.0264z"/>
	</g>
	<g>
		<path fill="#535352" d="M547.1037,711.8662c-9.3047,0-16.833-7.5293-16.833-16.834V505.1313c0-9.3042,7.5283-16.833,16.833-16.833
			c9.3047,0,16.8329,7.5288,16.8329,16.833v189.9009C563.9366,704.3369,556.4084,711.8662,547.1037,711.8662L547.1037,711.8662z"/>
	</g>
	<g>
		<g>
			<path fill="#535352" d="M573.8986,861.1797H201.7902c-9.3042,0-16.833-7.5293-16.833-16.834
				c0-9.3037,7.5288-16.833,16.833-16.833h372.1084c9.3047,0,16.834,7.5293,16.834,16.833
				C590.7325,853.6504,583.2033,861.1797,573.8986,861.1797L573.8986,861.1797z"/>
		</g>
		<g>
			<path fill="#535352" d="M52.9699,1010c-4.3071,0-8.6142-1.6436-11.9018-4.9316c-6.5757-6.5752-6.5757-17.2276,0-23.8038
				l148.8208-148.8203c6.5752-6.5752,17.2275-6.5752,23.8032,0s6.5757,17.2276,0,23.8037L64.8713,1005.0684
				C61.5837,1008.3564,57.2766,1010,52.9699,1010L52.9699,1010z"/>
		</g>
		<g>
			<path fill="#535352" d="M97.6013,1010H23.1828c-9.3047,0-16.8335-7.5293-16.8335-16.833c0-9.3047,7.5288-16.834,16.8335-16.834
				h74.4185c9.3042,0,16.8335,7.5293,16.8335,16.834C114.4348,1002.4707,106.9055,1010,97.6013,1010L97.6013,1010z"/>
		</g>
		<g>
			<path fill="#535352" d="M648.2844,861.1797h-74.3858c-9.3037,0-16.833-7.5293-16.833-16.834
				c0-9.3037,7.5293-16.833,16.833-16.833h74.3858c9.3047,0,16.834,7.5293,16.834,16.833
				C665.1183,853.6504,657.5891,861.1797,648.2844,861.1797L648.2844,861.1797z"/>
		</g>
		<g>
			<path fill="#535352" d="M797.1379,1010c-4.3066,0-8.6143-1.6436-11.9014-4.9316L636.383,856.248
				c-6.5753-6.5761-6.5753-17.2285,0-23.8037c6.5752-6.5752,17.2276-6.5752,23.8036,0l148.8527,148.8203
				c6.576,6.5762,6.576,17.2286,0,23.8038C805.7521,1008.3564,801.4445,1010,797.1379,1010L797.1379,1010z"/>
		</g>
		<g>
			<path fill="#535352" d="M826.9084,1010h-74.418c-9.3046,0-16.8339-7.5293-16.8339-16.833c0-9.3047,7.5293-16.834,16.8339-16.834
				h74.418c9.3047,0,16.834,7.5293,16.834,16.834C843.7424,1002.4707,836.2131,1010,826.9084,1010L826.9084,1010z"/>
		</g>
		<g>
			<path fill="#535352" d="M454.8332,1010H395.259c-9.3047,0-16.834-7.5293-16.834-16.833c0-9.3047,7.5293-16.834,16.834-16.834
				h59.5742c9.3037,0,16.833,7.5293,16.833,16.834C471.6662,1002.4707,464.1369,1010,454.8332,1010L454.8332,1010z"/>
		</g>
		<g>
			<path fill="#535352" d="M425.0461,1008.6523c-9.3047,0-16.834-7.5293-16.834-16.8339V861.9023
				c0-9.3037,7.5293-16.833,16.834-16.833c9.3037,0,16.833,7.5293,16.833,16.833v129.9161
				C441.8791,1001.123,434.3498,1008.6523,425.0461,1008.6523L425.0461,1008.6523z"/>
		</g>
	</g>
	<g>
		<path fill="#535352" d="M618.4318,930.8145c2.17,8.1699-2.6464,16.5537-10.833,18.7568
			c-8.1543,2.2021-16.538-2.6797-18.708-10.8008c-2.2021-8.1865,2.6631-16.5537,10.8008-18.7568
			C607.8283,917.8281,616.2618,922.6602,618.4318,930.8145"/>
		<path fill="#535352" d="M754.0021,630.3623c2.1699,8.1377-2.6788,16.5371-10.7997,18.7402
			c-8.1534,2.17-16.5538-2.6796-18.7404-10.8329c-2.2031-8.1544,2.6631-16.5371,10.7998-18.7236
			C743.4161,617.376,751.8,622.1758,754.0021,630.3623"/>
		<path fill="#535352" d="M30.0871,748.9355c2.1865,8.1699-2.6797,16.5538-10.833,18.7568
			c-8.1538,2.1533-16.5542-2.7129-18.7241-10.833c-2.2026-8.1709,2.6631-16.5547,10.8335-18.7569
			C19.5334,735.916,27.9172,740.7324,30.0871,748.9355"/>
		<path fill="#535352" d="M172.1511,535.0664c2.1865,8.1865-2.6465,16.5547-10.8003,18.7568
			c-8.1699,2.2022-16.5371-2.663-18.7236-10.7998c-2.2032-8.2031,2.663-16.5547,10.8164-18.7578
			C161.5974,522.0635,169.9811,526.9131,172.1511,535.0664"/>
		<path fill="#535352" d="M44.8986,850.4121c2.2188,8.2031-2.6469,16.5371-10.8007,18.7402
			c-8.1534,2.2032-16.5704-2.663-18.773-10.8007c-2.1533-8.1856,2.6958-16.586,10.8496-18.7403
			C34.3283,837.4258,42.7287,842.2422,44.8986,850.4121"/>
		<g>
			<g>
				<path fill="#535352" d="M120.8459,730.9844c-6.9702,0-12.625-5.6553-12.625-12.625v-73.1689
					c0-6.9707,5.6548-12.625,12.625-12.625c6.9697,0,12.625,5.6543,12.625,12.625v73.1689
					C133.4709,725.3291,127.8156,730.9844,120.8459,730.9844L120.8459,730.9844z"/>
			</g>
			<g>
				<path fill="#535352" d="M157.3889,694.3418H84.2365c-6.9702,0-12.625-5.6543-12.625-12.625
					c0-6.9697,5.6548-12.625,12.625-12.625h73.1524c6.9702,0,12.625,5.6553,12.625,12.625
					C170.0139,688.6875,164.3591,694.3418,157.3889,694.3418L157.3889,694.3418z"/>
			</g>
		</g>
		<g>
			<g>
				<path fill="#535352" d="M723.7063,817.4199c-6.9708,0-12.625-5.6553-12.625-12.625v-73.1855
					c0-6.9707,5.6542-12.625,12.625-12.625c6.9697,0,12.625,5.6543,12.625,12.625v73.1855
					C736.3313,811.7646,730.676,817.4199,723.7063,817.4199L723.7063,817.4199z"/>
			</g>
			<g>
				<path fill="#535352" d="M760.2823,780.8105h-73.1855c-6.9707,0-12.625-5.6552-12.625-12.625
					c0-6.9706,5.6543-12.6249,12.625-12.6249h73.1855c6.9698,0,12.625,5.6543,12.625,12.6249
					C772.9073,775.1553,767.2521,780.8105,760.2823,780.8105L760.2823,780.8105z"/>
			</g>
		</g>
		<g>
			<g>
				<path fill="#535352" d="M52.9699,517.0332c-6.9702,0-12.625-5.6543-12.625-12.625v-73.1528
					c0-6.9698,5.6548-12.625,12.625-12.625c6.9698,0,12.625,5.6552,12.625,12.625v73.1528
					C65.5949,511.3789,59.9397,517.0332,52.9699,517.0332L52.9699,517.0332z"/>
			</g>
			<g>
				<path fill="#535352" d="M89.5627,480.4404H16.4099c-6.9702,0-12.625-5.6548-12.625-12.625c0-6.9702,5.6548-12.625,12.625-12.625
					h73.1528c6.9697,0,12.625,5.6548,12.625,12.625C102.1877,474.7856,96.5324,480.4404,89.5627,480.4404L89.5627,480.4404z"/>
			</g>
		</g>
		<path fill="#535352" d="M277.6223,900.583c2.2358,8.1543-2.6299,16.5537-10.7837,18.7236
			c-8.1538,2.1866-16.5703-2.6464-18.773-10.8164c-2.1533-8.1533,2.6958-16.537,10.8496-18.707
			C267.0686,887.5801,275.4524,892.4297,277.6223,900.583"/>
	</g>
</g>
</svg>
