<?xml version="1.0" encoding="utf-8"?>
<!-- Generator: Adobe Illustrator 17.1.0, SVG Export Plug-In . SVG Version: 6.00 Build 0)  -->
<!DOCTYPE svg PUBLIC "-//W3C//DTD SVG 1.1//EN" "http://www.w3.org/Graphics/SVG/1.1/DTD/svg11.dtd">
<svg version="1.1" id="planet-earth" xmlns="http://www.w3.org/2000/svg" xmlns:xlink="http://www.w3.org/1999/xlink" x="0px"
	 y="0px" viewBox="0 0 1010.0015 970.9414" enable-background="new 0 0 1010.0015 970.9414" xml:space="preserve">
<g id="planet-earth-planet-earth">
	<g>
		<g>
			<path fill="#B0D8EF" d="M922.5464,522.5732c0,238.3135-193.1553,431.5342-431.4443,431.5342
				c-238.3291,0-431.5176-193.2207-431.5176-431.5342c0-238.2968,193.1885-431.4526,431.5176-431.4526
				C729.3911,91.1206,922.5464,284.2764,922.5464,522.5732z"/>
			<path fill="#535352" d="M491.1021,970.9414c-247.2227,0-448.3516-201.1455-448.3516-448.3682
				c0-247.1904,201.1289-448.2861,448.3516-448.2861c247.1982,0,448.2783,201.0957,448.2783,448.2861
				C939.3804,769.7959,738.3004,970.9414,491.1021,970.9414L491.1021,970.9414z M491.1021,107.9536
				c-228.6631,0-414.6846,186.0049-414.6846,414.6196c0,228.6631,186.0215,414.7012,414.6846,414.7012
				c228.623,0,414.6113-186.0381,414.6113-414.7012C905.7134,293.9585,719.7251,107.9536,491.1021,107.9536L491.1021,107.9536z"/>
		</g>
		<g>
			<g>
				<path fill="#535352" d="M488.5376,383.4517c-4.668,0-9.3203-1.94-12.6416-5.7207c-5.835-6.625-5.5391-16.6529,0.6582-22.9488
					c1.8906-1.8906,4.5371-3.9619,7.4961-6.0659c7.2822-5.2275,17.376-3.7808,22.9492,3.2056
					c5.5723,7.0029,4.7012,17.1455-2.0068,23.08c-0.8545,0.7564-2.4658,2.1207-6.2461,4.9976
					C495.7056,382.3174,492.1216,383.4517,488.5376,383.4517L488.5376,383.4517z"/>
			</g>
			<g>
				<path fill="#A5A5A4" d="M530.5797,273.2622c-13.208,1.2002-56.3105-63.5356-62.1299-71.5908
					c-4.208-6.0659-27.0254-11.1621-34.8506-14.8936c-17.2607-7.9892-62.8291-16.8003-48.7246-44.4013
					c6.2139-12.5918,47.1465-36.7569,44.9766-34.6695c3.748-3.5176,7.6933-7.4301,11.7051-11.4575
					C321.98,109.1372,217.6265,172.6899,150.3267,265.0098c-1.5782,5.5727-4.0117,11.1948-4.5371,16.6196
					c-2.5323,28.7021,1.6103,55.4316,22.9814,75.4873c6.1152,5.7207,14.6299,7.6934,19.792,14.2852
					c7.5293,9.9453,14.2686,14.3837,23.2441,17.8852c14.959,4.9976,18.4776,14.3018,28.5704,26.9268
					c9.7324,12.7729,18.083,19.6938,23.9023,34.6201c6.6084,17.8525,54.4121,17.8525,70.8838,26.5161
					c22.8828,12.0327,112.1787,72.939,137.9873,69.5356c0,0,31.957-0.6416,25.3818,23.5079
					c-3.123,10.8661-12.9541,17.54-16.998,28.2411c-3.4844,9.6338-1.2158,17.8691-2.4326,27.1572
					c-1.1504,9.584-8.6797-0.082-1.1504,16.1758c3.2871,7.5615,8.3838,14.3349,12.8545,21.1894
					c8.6142,13.792,14.9267,25.7764,26.8613,36.8067c8.1455,7.9238,26.2617,17.1455,30.4687,28.6855
					c3.8477,10.2578,0.7247,33.0586-1.0839,43.9413c-4.0118,22.833-3.42,50.2529-9.6006,71.377
					c-5.8858,20.8281-12.8223,26.8115-7.6934,49.2666c2.3672,10.3574-1.9404,27.3222-1.3807,25.9902
					c-0.6241,1.7422-1.6104,3.2227-2.4991,4.7676c17.6885-1.6602,35.0157-4.4551,51.9805-8.2363
					c0.1309-0.2959,0.3613-0.6573,0.5254-0.8877c2.6631-6.9532,14.8613-35.458,20.9433-37.3653
					c-2.9257-24.8388,34.4883-3.9287,38.5-29.3926c-4.2753-2.3017-3.5185-1.0361-4.1103-4.8496
					c0.8213,4.5704,18.0166-1.9072,19.6943,1.3643c1.2159,2.4492,23.0801-28.4551,25.5118-31.0859
					c6.3125-6.7071,11.705-12,15.4863-20.1036c12.5254-24.248,11.4414-19.957,34.8496-31.6455
					c-3.2539,1.628,24.3955-22.4218,26.0723-31.6767c2.0712-11.5733-0.6582-22.2256,3.0253-32.6973
					c4.6016-13.2168,15.5831-17.4579,22.7832-28.7519c5.6875-8.6133,10.9161-22.5372,3.3868-31.003
					c-13.3809-15.1894-54.5118-18.3955-64.3086-21.9463c-27.2227-9.6494-34.2578-11.7041-36.2969-25.9892
					c-3.5176-31.9072-43.168-28.5869-53.3604-37.169c-28.4384-23.8027-82.1943-33.6494-107.9042-25.5449
					c-18.8965,6-8.9678,20.6465-26.7872,12c-30.5429-14.581-48.6914-25.5781-59.6728-45.0586
					c-3.9453-7.1836-12.4609-2.6133-10.5537-10.4878c1.9072-8.4824,23.54-31.5791,1.414-31.0039
					c-16.9326,0.6084-36.6259,9.7813-38.3359-5.7368c-2.3008-22.3569-3.7803-34.3408,16.9981-47.5576
					c16.833-10.7017,41.0312-20.7456,55.3984,1.6767c4.2412,6.5264,14.5976,31.8091,19.793,15.4361
					c1.6435-4.981-4.0772-26.5156-5.9844-35.6885c0,0.0986-0.0987,0.1973-0.1641,0.312c0-1.0517-0.1318-1.9888-0.2304-3.0083
					c0.0986,0.6904,0.2304,1.6607,0.3945,2.6963c5.4912-8.8115,21.9951-20.9102,18.9053-18.1816
					c5.9179-4.1919,13.7099-8.959,15.3867-14.3345c1.3144-4.0274-4.4385-9.1895-1.4795-14.6636
					c-0.6572,1.2002,15.6416-23.7373,33.1982-38.8281"/>
				<path fill="#535352" d="M525.8784,940.8252c-5.6797,0-11.0381-2.877-14.1445-7.7266
					c-3.4033-5.2929-3.584-12.0322-0.4443-17.4902c0,0,0.4599-0.8057,0.8545-1.4639c2.039-11.2929,1.5293-15.748,1.2168-17.1621
					c-4.8829-21.3867-0.7403-32.7783,3.6494-44.8447c1.331-3.6494,2.8271-7.7256,4.2568-12.7393
					c3.2305-11.0966,4.4805-25.25,5.6641-38.9111c0.8867-10.2412,1.8086-20.8115,3.5507-30.8066
					c3.7813-22.7344,2.6622-33.0742,1.9063-35.1299c-1.249-3.2217-9.8301-9.4844-14.4082-12.8545
					c-4.6191-3.3867-8.9258-6.6416-12.0498-9.666c-11.4082-10.5371-18.2305-21.7159-25.4639-33.5518l-6.707-10.537
					c-3.7813-5.6221-8.0879-11.9844-11.2442-19.2666c-2.5312-5.458-8.9921-19.3975,0.1485-28.6689
					c0.0322-1.4473,0-2.8282-0.0166-4.2247c-0.0664-6.247-0.1485-14.0058,3.0576-22.8671c2.877-7.627,7.249-13.3145,10.7832-17.8848
					c2.7295-3.5508,5.0967-6.625,5.8691-9.2881c0.0332-0.1318,0.0655-0.2627,0.0987-0.3779
					c-1.9238-0.8379-5.5401-1.5625-8.4824-1.6446c-21.42,1.8086-58.0459-17.622-120.9571-56.1709
					c-11.1611-6.8388-20.3183-12.4775-25.6933-15.3037c-3.8135-2.0058-14.0879-4.0449-22.3409-5.6718
					c-22.9814-4.5371-49.0039-9.6993-56.4834-29.9024c-3.1064-7.9565-7.3808-13.0522-13.2988-20.1045
					c-2.6142-3.1235-5.3594-6.395-8.2197-10.143c-2.1699-2.7286-4.2412-5.5728-6.1807-8.2359
					c-6.0654-8.3506-8.0879-10.8496-14.3183-12.937c-13.7266-5.3262-22.5703-12.0991-31.3321-23.6885
					c-0.6904-0.8549-3.2548-2.3178-5.7373-3.7314c-3.5674-2.022-8.0058-4.5537-12.1484-8.417
					c-22.4551-21.0742-31.6777-50.2695-28.2412-89.2627c0.5586-5.7368,2.2187-10.751,3.665-15.1895
					c0.5098-1.5122,1.0196-3.0244,1.4473-4.5371c0.542-1.9233,1.4131-3.7148,2.5967-5.3261
					c71.8545-98.583,182.3066-162.5796,303.0166-175.5826c7.2988-0.6904,13.9238,3.0249,16.9814,9.4522
					c3.0899,6.4277,1.792,14.1045-3.2383,19.168c-4.1591,4.1587-8.2363,8.2026-12.1162,11.852
					c-1.7422,1.6275-3.7314,2.811-5.8349,3.5674c-8.8116,4.8003-31.9414,20.5156-35.7051,26.5322
					c-0.7569,1.4961-0.7891,2.2027-0.7891,2.2027c2.0713,4.5537,20.9424,11.3593,28.044,13.9238
					c5.2109,1.874,9.9619,3.6167,13.5791,5.2934c2.334,1.1011,5.8847,2.1861,9.748,3.4522
					c16.0772,5.2436,26.2363,9.0083,31.8584,17.1128l3.3369,4.7837c31.4483,45.3213,43.4893,56.8779,47.7295,59.8042
					c7.3985,1.2163,13.3164,7.2822,14.0059,15.0742c0.2304,2.4331-0.0645,4.8003-0.8213,6.9702
					c2.6963,0.937,5.1943,2.5806,7.2002,4.915c6.0488,7.0357,5.2275,17.6719-1.8086,23.7378
					c-7.9883,6.8711-17.5566,17.8526-27.1563,31.168c1.3477,4.1094,2.3008,9.1069,0.46,14.7783
					c-3.124,9.9947-12.1562,16.2578-19.4228,21.2881l-2.2354,1.562c-0.5264,0.3614-1.085,0.7066-1.6279,1.0191
					c-2.3008,1.792-5.9014,4.8823-8.7783,7.7426c4.5048,19.6607,6.2138,29.146,3.7324,36.6421
					c-4.3076,13.5787-13.4971,16.4224-18.5928,16.899c-15.3701,1.3315-23.2275-13.5288-29.0635-24.4278
					c-0.8711-1.6274-1.6279-3.0742-2.2363-4.0112c-2.5479-3.9946-7.7588-12.2139-32.2529,3.3535
					c-10.5537,6.7236-11.4248,9.5674-9.9453,25.0693c1.874-0.2631,3.8632-0.5917,5.4912-0.8549
					c5.3095-0.8877,10.8496-1.7588,16.1591-1.94c14.2852-0.6904,21.1241,5.9346,24.2803,11.2935
					c6.8213,11.54,1.0352,23.5405-4.3242,32.9106c1.6445,1.5948,3.2061,3.5674,4.5537,6
					c8.2031,14.5655,22.4561,23.6221,48.8066,36.3623c3.6172-4.125,9.042-8.4648,17.8038-11.2441
					c30.7002-9.6816,90.1748,0.5264,123.8095,28.6855c0.7891,0.3291,5.5557,1.5625,9.0742,2.4668
					c16.2403,4.208,46.4883,12.0332,50.2032,45.7657c0.2304,1.4785,0.5263,2.1035,0.5263,2.1201
					c1.7754,1.7431,12.1319,5.4082,22.1924,8.959l2.4658,0.8877c2.3018,0.789,6.2139,1.4306,10.9815,2.3339
					c24.625,4.6856,47.7705,10.0782,60.3301,24.3467c13.5449,15.2061,7.8574,36.5264-1.9395,51.4033
					c-3.9453,6.1817-8.7461,10.7676-12.625,14.4502c-4.5703,4.3731-7.0361,6.8389-8.3183,10.5704
					c-1.1836,3.3369-1.1836,7.496-1.1836,12.7724c-0.0332,5.1289-0.0332,10.9317-1.1836,17.3438
					c-1.7754,9.7803-10.2578,19.7265-26.3672,35.7705c-0.8223,0.8213-1.5781,1.5449-2.1699,2.1533
					c-1.5782,2.416-3.8145,4.4707-6.5762,5.8516l0,0l0,0c-4.1426,2.0722-7.5625,3.666-10.4219,5.0146
					c-9.2383,4.29-9.2383,4.29-16.998,19.2988c-4.3067,9.2393-10.5215,15.8311-16.5371,22.1924l-1.6446,1.7266
					c-0.4277,0.542-2.2676,3.0244-4.5703,6.1152c-18.8711,25.2988-23.2441,31.2656-34.5215,30.3291
					c-0.3281-0.0322-0.624-0.0654-0.9531-0.1152c-7.7589,15.5185-25.0859,17.4424-33.2383,18.3623
					c-0.625,0.0664-1.3486,0.1484-2.0722,0.2305c-0.8223,4.6357-3.4512,8.8925-7.2989,11.5234
					c-3.3535,4.373-10.6855,19.6279-14.4336,29.3594c-0.3945,1.0527-0.8867,2.0547-1.4785,3.0088
					c-2.334,4.208-6.3457,7.2324-11.0801,8.2852c-17.9511,4.0107-36.166,6.8877-54.0839,8.5811
					C526.9312,940.8086,526.4048,940.8252,525.8784,940.8252L525.8784,940.8252z M493.6343,635.8203
					c2.0869,4.4707,4.9805,8.7617,8.0381,13.2988l7.5293,11.8194c6.4931,10.6191,11.6064,19.0029,19.8994,26.6631
					c2.4648,2.4003,5.5566,4.5703,8.7773,6.9375c9.5684,7.0195,21.502,15.748,26.0723,28.3408
					c1.4141,3.748,5.8525,15.5674-0.2949,52.4726c-1.5137,8.6963-2.335,18.083-3.1895,28.044
					c-1.3476,15.3047-2.6963,31.1357-6.8387,45.3056c-1.6436,5.7862-3.3859,10.6358-4.9639,14.96
					c-3.7481,10.2734-5.1621,14.1201-2.5,25.8242c1.0859,4.7188,1.2832,9.8809,1.0527,14.9102
					c6.1817-0.9531,12.3613-2.0381,18.543-3.2871c6.6406-16.0283,12.3291-25.4317,16.9316-31.0205
					c0.6914-4.7344,2.4668-8.9092,5.3262-12.4932c7.2988-9.1895,18.1816-10.4062,26.1387-11.293
					c0.8535-0.0996,1.9062-0.2148,2.959-0.3457c-0.7569-8.8115,5.3261-17.3427,14.1035-18.707
					c2.959-0.4609,5.8525-0.1816,8.4492,0.707c0.7246-0.0996,1.4805-0.2304,2.2363-0.3291c1.5449-0.2304,3.4522-0.4931,5.5899-0.625
					c3.9121-4.8984,9.3359-12.1806,12.1308-15.9287c3.4199-4.5869,6.1485-8.0879,6.9375-8.959l1.8086-1.9072
					c4.9317-5.2119,8.5156-8.9756,10.7832-13.8916c12-23.2275,15.3535-26.7617,32.9766-34.9814
					c1.874-0.8711,4.0117-1.8575,6.4433-3.0577c1.1192-1.2324,2.2364-2.3339,3.1895-3.2714
					c9.5684-9.5508,15.3535-15.9619,17.1953-19.085c0.4277-3.1563,0.4277-6.6084,0.4609-10.2412c0-7.1016,0-15.1563,3.0567-23.8526
					c4.0117-11.5244,11.1465-18.3291,16.8672-23.7871c3.0566-2.9267,5.7197-5.458,7.6269-8.417
					c3.6817-5.6054,4.7012-10.455,4.4385-11.7373c-5.4912-5.8847-30.2803-10.6025-40.8662-12.625
					c-7.0693-1.3476-12.166-2.3173-16.0449-3.7148l-2.3672-0.8389c-26.7295-9.4687-41.459-14.6797-44.8779-38.5976
					c-1.0518-9.584-7.5284-12.8067-25.25-17.3926c-8.3506-2.1699-16.2413-4.209-22.2911-9.2881
					c-23.54-19.71-71.0478-28.9648-91.9912-22.3564c-2.4004,0.7558-2.4668,0.8877-3.7812,3.0576
					c-2.7041,4.4717-5.7129,7.4629-8.836,9.3857c1.4473,5.1465,1.7754,11.5567-0.3281,19.2998
					c-2.5976,9.042-7.5957,15.5342-11.623,20.7627c-2.5977,3.3692-4.8496,6.2959-5.8682,9.0078
					c-1.0029,2.7618-1.0195,5.7705-0.9707,10.8164c0.0498,4.127,0.0498,8.253-0.5254,12.5762
					C495.4419,630.8555,494.7349,633.4853,493.6343,635.8203L493.6343,635.8203z M165.5982,272.6538
					c-0.2959,0.9536-0.625,1.9072-0.9375,2.877c-0.9532,2.8769-1.9395,5.8686-2.1202,7.726
					c-2.5156,28.6529,2.9424,47.689,17.7539,61.5801c1.2159,1.1343,3.419,2.3999,5.753,3.7149
					c4.8174,2.7456,10.834,6.1645,15.7656,12.477c5.7529,7.5786,9.9121,10.1592,16.1094,12.5757
					c15.9619,5.31,23.1621,15.2226,30.1162,24.8061c1.6602,2.2686,3.4189,4.7017,5.4902,7.2989
					c2.7617,3.6001,5.1787,6.477,7.4629,9.2221c6.7734,8.0718,13.7598,16.4063,18.9707,29.7871
					c3.1895,3.2222,21.6338,6.8716,31.5459,8.8277c12.001,2.3672,23.3272,4.6196,31.4971,8.9101
					c5.7695,3.0245,15.6172,9.0411,27.6006,16.3892c12.5429,7.6934,36.2636,22.2256,57.8476,33.8643
					c-1.9228-2.5147-3.748-5.1456-5.4404-7.9561c-13.5293-5.0801-15.9297-16.1758-13.7266-25.2505
					c0.6084-2.7124,1.792-5.4248,3.2217-8.1699c-10.2412,1.5942-21.4033,2.6792-30.5596-4.2744
					c-3.9453-2.9917-8.8769-8.6138-9.9619-18.4937c-2.416-23.5239-4.6357-44.9433,24.6914-63.6015
					c28.751-18.2471,48.6094-16.439,61.5625-9.4195c1.1016-5.1616,4.4717-9.6987,9.0909-12.0659
					c4.4218-4.9482,10.5214-10.9975,16.8173-14.7295l-0.0498-0.082l2.5323-1.7588c1.249-0.8716,2.9423-2.0386,4.4218-3.1401
					c-1.2988-4.981-1.8418-11.4414,1.8409-18.3125c0.0332-0.0332,0.0498-0.0826,0.082-0.1319
					c0.4443-0.8051,0.9375-1.5615,1.4795-2.2519c9.7158-13.8579,19.1845-25.4146,28.0039-34.2583
					c-12.584-4.5044-29.2695-21.979-64.4981-72.7744l-2.2685-3.2388c-3.1885-1.7588-11.2276-4.3726-15.7149-5.8355
					c-5.54-1.8086-10.5537-3.5346-13.6279-4.9975c-2.7129-1.2495-6.5098-2.5811-10.6689-4.0933
					c-18.0498-6.4931-40.5215-14.5976-48.0176-33.5679c-2.5645-6.4936-4.2578-16.8994,2.2187-29.5898
					c1.2002-2.4331,3.4688-5.3755,6.461-8.5649C292.686,150.251,218.2017,201.54,165.5982,272.6538L165.5982,272.6538z"/>
			</g>
			<g>
				<path fill="#535352" d="M578.0562,932.5234c-5.3926,0-10.4883-2.5976-13.6446-6.9863
					c-3.1562-4.3887-4.0449-10.0439-2.3017-15.1729c0.165-0.5596,0.7236-1.9229,0.9541-2.4493
					c0.2295-0.5097,0.8213-1.6113,1.1836-2.2197c0.0322-0.0986,0.0976-0.1973,0.1308-0.2959
					c3.8789-8.334,13.545-11.54,21.8965-7.7256c7.2324,3.2383,10.8828,11.3418,9.4356,18.9209
					c-0.2305,1.1504-0.5586,2.3174-1.0518,3.4522l0,0c-0.0322,0.082-0.0654,0.164-0.0986,0.2461l0,0c0,0,0,0.0166-0.0332,0.0166
					c-0.0332,0.1152-0.9864,2.3506-1.0518,2.4658c-1.6103,3.4521-4.3398,6.2471-7.7256,7.9394
					C583.4146,931.8828,580.6851,932.5234,578.0562,932.5234L578.0562,932.5234z"/>
			</g>
		</g>
	</g>
	<g>
		<path fill="#535352" d="M873.7241,893.7773c2.2354,8.3672-2.6963,16.9649-11.0468,19.2012
			c-8.3848,2.2354-16.9327-2.7129-19.168-11.0801c-2.2363-8.3515,2.7285-16.8994,11.0469-19.1347
			C862.9068,880.5117,871.4878,885.459,873.7241,893.7773"/>
		<path fill="#535352" d="M74.7075,166.2456c2.2032,8.3345-2.7285,16.9155-11.0791,19.1514
			c-8.3515,2.2519-16.8994-2.729-19.1347-11.0469c-2.2364-8.3511,2.7285-16.8989,11.0791-19.1514
			C63.8579,152.9634,72.4722,157.895,74.7075,166.2456"/>
		<path fill="#535352" d="M30.7505,331.0776c2.2354,8.3345-2.7285,16.899-11.0469,19.1509
			c-8.3506,2.2193-16.8994-2.7451-19.1679-11.063c-2.2354-8.3344,2.7294-16.9155,11.08-19.1513
			C19.9341,317.7456,28.5151,322.71,30.7505,331.0776"/>
		<path fill="#535352" d="M975.0855,693.5859c2.2353,8.3506-2.6963,16.9317-11.0469,19.1836
			c-8.3838,2.2198-16.9317-2.7285-19.1348-11.0625c-2.2685-8.3681,2.6953-16.8994,11.0469-19.1513
			C964.2691,680.3193,972.8491,685.2842,975.0855,693.5859"/>
		<path fill="#535352" d="M276.9702,12.7402c2.2686,8.4004-2.6953,16.9483-11.0468,19.1841
			c-8.3174,2.252-16.8985-2.7124-19.1348-11.0469c-2.2022-8.3671,2.6963-16.9155,11.0469-19.1347
			C266.187-0.5093,274.7349,4.4385,276.9702,12.7402"/>
		<g>
			<g>
				<path fill="#535352" d="M959.9946,885.5586c-6.9697,0-12.625-5.6553-12.625-12.625v-74.8301
					c0-6.9697,5.6553-12.625,12.625-12.625c6.9698,0,12.625,5.6553,12.625,12.625v74.8301
					C972.6196,879.9033,966.9644,885.5586,959.9946,885.5586L959.9946,885.5586z"/>
			</g>
			<g>
				<path fill="#535352" d="M997.3765,848.127h-74.8301c-6.9697,0-12.625-5.6553-12.625-12.625
					c0-6.9708,5.6553-12.625,12.625-12.625h74.8301c6.9697,0,12.625,5.6542,12.625,12.625
					C1010.0015,842.4717,1004.3462,848.127,997.3765,848.127L997.3765,848.127z"/>
			</g>
		</g>
		<g>
			<g>
				<polygon fill="#FDF4BC" points="146.4468,139.5493 100.3853,93.5371 146.4468,47.5083 192.4429,93.5371 				"/>
				<path fill="#535352" d="M146.4634,163.3525L76.565,93.5371l69.8984-69.832l69.7822,69.832L146.4634,163.3525L146.4634,163.3525z
					 M124.2046,93.5371l22.2256,22.2085l22.209-22.2085l-22.209-22.2256L124.2046,93.5371L124.2046,93.5371z"/>
			</g>
			<g>
				<line fill="#FDF4BC" x1="146.4468" y1="47.5083" x2="146.4468" y2="16.8335"/>
				<path fill="#535352" d="M146.4468,64.3418c-9.3047,0-16.833-7.5293-16.833-16.8335V16.8335
					C129.6138,7.5293,137.1421,0,146.4468,0s16.833,7.5293,16.833,16.8335v30.6748
					C163.2798,56.8125,155.7515,64.3418,146.4468,64.3418L146.4468,64.3418z"/>
			</g>
			<g>
				<line fill="#FDF4BC" x1="192.4429" y1="93.5371" x2="223.1499" y2="93.5371"/>
				<path fill="#535352" d="M223.1499,110.3701h-30.707c-9.3047,0-16.834-7.5288-16.834-16.833
					c0-9.3047,7.5293-16.8335,16.834-16.8335h30.707c9.3047,0,16.833,7.5288,16.833,16.8335
					C239.9829,102.8413,232.4546,110.3701,223.1499,110.3701L223.1499,110.3701z"/>
			</g>
			<g>
				<line fill="#FDF4BC" x1="146.4468" y1="139.5493" x2="146.4468" y2="170.2734"/>
				<path fill="#535352" d="M146.4468,187.1064c-9.3047,0-16.833-7.5288-16.833-16.833v-30.7241
					c0-9.3047,7.5283-16.8335,16.833-16.8335s16.833,7.5288,16.833,16.8335v30.7241
					C163.2798,179.5776,155.7515,187.1064,146.4468,187.1064L146.4468,187.1064z"/>
			</g>
			<g>
				<line fill="#FDF4BC" x1="100.3853" y1="93.5371" x2="69.7437" y2="93.5371"/>
				<path fill="#535352" d="M100.3853,110.3701H69.7437c-9.3047,0-16.834-7.5288-16.834-16.833
					c0-9.3047,7.5293-16.8335,16.834-16.8335h30.6416c9.3047,0,16.833,7.5288,16.833,16.8335
					C117.2183,102.8413,109.69,110.3701,100.3853,110.3701L100.3853,110.3701z"/>
			</g>
		</g>
	</g>
</g>
</svg>
