<?xml version="1.0" encoding="utf-8"?>
<!-- Generator: Adobe Illustrator 17.1.0, SVG Export Plug-In . SVG Version: 6.00 Build 0)  -->
<!DOCTYPE svg PUBLIC "-//W3C//DTD SVG 1.1//EN" "http://www.w3.org/Graphics/SVG/1.1/DTD/svg11.dtd">
<svg version="1.1" id="planets" xmlns="http://www.w3.org/2000/svg" xmlns:xlink="http://www.w3.org/1999/xlink" x="0px" y="0px"
	 viewBox="0 0 1010 1010" enable-background="new 0 0 1010 1010" xml:space="preserve">
<g id="planets-planets">
	<path fill="#FDF4BC" d="M127.7788,504.9834c0,208.3291,168.8755,377.2217,377.2212,377.2217s377.2207-168.8926,377.2207-377.2217
		c0-208.3286-168.875-377.2212-377.2207-377.2212S127.7788,296.6548,127.7788,504.9834"/>
	<g>
		<path fill="#A5A5A4" d="M16.833,105.5698c0-49.0039,39.749-88.7363,88.7534-88.7363c49.0366,0,88.7696,39.7324,88.7696,88.7363
			c0,49.0371-39.733,88.7696-88.7696,88.7696C56.582,194.3394,16.833,154.6069,16.833,105.5698z"/>
		<path fill="#535352" d="M105.5864,211.1729C47.3604,211.1729,0,163.7964,0,105.5698C0,47.3604,47.3604,0,105.5864,0
			c58.2261,0,105.6031,47.3604,105.6031,105.5698C211.1895,163.7964,163.8125,211.1729,105.5864,211.1729L105.5864,211.1729z
			 M105.5864,33.6665c-39.6504,0-71.9194,32.2529-71.9194,71.9033c0,39.667,32.269,71.9365,71.9194,71.9365
			c39.6665,0,71.9361-32.2695,71.9361-71.9365C177.5225,65.9194,145.2529,33.6665,105.5864,33.6665L105.5864,33.6665z"/>
	</g>
	<g>
		<path fill="#A5A5A4" d="M815.6445,904.3975c0-49.0205,39.7325-88.7696,88.7696-88.7696c49.004,0,88.752,39.7491,88.752,88.7696
			s-39.748,88.7695-88.752,88.7695C855.377,993.167,815.6445,953.418,815.6445,904.3975z"/>
		<path fill="#535352" d="M904.4141,1010c-58.2266,0-105.6036-47.377-105.6036-105.6025
			c0-58.2266,47.377-105.6036,105.6036-105.6036c58.2255,0,105.5859,47.377,105.5859,105.6036
			C1010,962.623,962.6396,1010,904.4141,1010L904.4141,1010z M904.4141,832.4609c-39.668,0-71.9366,32.2697-71.9366,71.9366
			s32.2686,71.9355,71.9366,71.9355c39.6504,0,71.9199-32.2685,71.9199-71.9355S944.0645,832.4609,904.4141,832.4609
			L904.4141,832.4609z"/>
	</g>
	<g>
		<g>
			<path fill="#535352" d="M870.4023,503.0273H566.6777c-9.3036,0-16.832-7.5288-16.832-16.8335
				c0-9.2876,7.5283-16.833,16.832-16.833h303.7246c9.3038,0,16.8321,7.5454,16.8321,16.833
				C887.2344,495.4985,879.7061,503.0273,870.4023,503.0273L870.4023,503.0273z"/>
		</g>
		<g>
			<path fill="#535352" d="M464.2319,421.0635H155.3633c-9.3047,0-16.8335-7.5288-16.8335-16.8335
				c0-9.2876,7.5288-16.833,16.8335-16.833h308.8686c9.3042,0,16.833,7.5454,16.833,16.833
				C481.0649,413.5347,473.5361,421.0635,464.2319,421.0635L464.2319,421.0635z"/>
		</g>
		<g>
			<path fill="#535352" d="M484.731,503.0273h-81.9639c-9.3042,0-16.8335-7.5288-16.8335-16.8335
				c0-9.2876,7.5293-16.833,16.8335-16.833h81.9639c9.3042,0,16.8335,7.5454,16.8335,16.833
				C501.5645,495.4985,494.0352,503.0273,484.731,503.0273L484.731,503.0273z"/>
		</g>
		<g>
			<path fill="#535352" d="M669.125,666.9883h-81.9316c-9.3038,0-16.8322-7.5459-16.8322-16.834
				c0-9.3037,7.5283-16.833,16.8322-16.833h81.9316c9.3047,0,16.834,7.5293,16.834,16.833
				C685.959,659.4424,678.4297,666.9883,669.125,666.9883L669.125,666.9883z"/>
		</g>
		<g>
			<path fill="#535352" d="M864.9932,584.9912H525.7129c-9.3047,0-16.834-7.5459-16.834-16.833
				c0-9.3047,7.5293-16.834,16.834-16.834h339.2803c9.3047,0,16.833,7.5293,16.833,16.834
				C881.8262,577.4453,874.2979,584.9912,864.9932,584.9912L864.9932,584.9912z"/>
		</g>
		<g>
			<path fill="#535352" d="M382.2676,584.9912H145.4668c-9.3042,0-16.833-7.5459-16.833-16.833
				c0-9.3047,7.5288-16.834,16.833-16.834h236.8008c9.3047,0,16.8335,7.5293,16.8335,16.834
				C399.1011,577.4453,391.5723,584.9912,382.2676,584.9912L382.2676,584.9912z"/>
		</g>
		<g>
			<path fill="#535352" d="M855.0977,421.0635H628.1758c-9.3047,0-16.833-7.5288-16.833-16.8335
				c0-9.2876,7.5283-16.833,16.833-16.833h226.9219c9.3037,0,16.833,7.5454,16.833,16.833
				C871.9307,413.5347,864.4014,421.0635,855.0977,421.0635L855.0977,421.0635z"/>
		</g>
		<g>
			<path fill="#535352" d="M505.2139,666.9883H170.8486c-9.3047,0-16.8335-7.5459-16.8335-16.834
				c0-9.3037,7.5288-16.833,16.8335-16.833h334.3653c9.3037,0,16.833,7.5293,16.833,16.833
				C522.0469,659.4424,514.5176,666.9883,505.2139,666.9883L505.2139,666.9883z"/>
		</g>
	</g>
	<g>
		<path fill="#535352" d="M505,899.0381c-217.2881,0-394.0547-176.7666-394.0547-394.0547
			c0-217.2715,176.7666-394.0542,394.0547-394.0542s394.0547,176.7827,394.0547,394.0542
			C899.0547,722.2715,722.2881,899.0381,505,899.0381L505,899.0381z M505,144.5957c-198.7119,0-360.3877,161.6758-360.3877,360.3877
			S306.2881,865.3711,505,865.3711c198.7129,0,360.3877-161.6758,360.3877-360.3877S703.7129,144.5957,505,144.5957L505,144.5957z"
			/>
	</g>
	<g>
		<path fill="#535352" d="M944.9512,726.0361c0,9.2715,7.5459,16.833,16.834,16.833c9.2871,0,16.833-7.5615,16.833-16.833
			c0-9.3047-7.5459-16.8329-16.833-16.8329C952.4971,709.2031,944.9512,716.7314,944.9512,726.0361"/>
		<g>
			<path fill="#535352" d="M944.9512,247.6997c9.289,0,16.834,7.5454,16.834,16.8335c0,9.2881-7.545,16.8335-16.834,16.8335
				c-9.2871,0-16.833-7.5454-16.833-16.8335C928.1182,255.2451,935.6641,247.6997,944.9512,247.6997z"/>
			<path fill="#535352" d="M669.125,950.8691c9.2881,0,16.834,7.5459,16.834,16.834c0,9.2881-7.5459,16.8329-16.834,16.8329
				s-16.834-7.5449-16.834-16.8329C652.291,958.415,659.8369,950.8691,669.125,950.8691z"/>
			<path fill="#535352" d="M732.2988,0c9.2891,0,16.834,7.5454,16.834,16.8335c0,9.2876-7.5449,16.833-16.834,16.833
				c-9.2871,0-16.833-7.5454-16.833-16.833C715.4658,7.5454,723.0117,0,732.2988,0z"/>
			<path fill="#535352" d="M33.667,278.3584c9.2876,0,16.833,7.5454,16.833,16.833c0,9.2881-7.5454,16.8335-16.833,16.8335
				c-9.2881,0-16.834-7.5454-16.834-16.8335C16.833,285.9038,24.3789,278.3584,33.667,278.3584z"/>
			<path fill="#535352" d="M402.7671,757.2041c9.2881,0,16.8335,7.5615,16.8335,16.833c0,9.3047-7.5454,16.834-16.8335,16.834
				c-9.2881,0-16.8335-7.5293-16.8335-16.834C385.9336,764.7656,393.479,757.2041,402.7671,757.2041z"/>
			<path fill="#535352" d="M733.2197,316.3975c9.2881,0,16.833,7.5454,16.833,16.8335c0,9.288-7.5449,16.8335-16.833,16.8335
				c-9.2881,0-16.8329-7.5455-16.8329-16.8335C716.3867,323.9429,723.9316,316.3975,733.2197,316.3975z"/>
		</g>
	</g>
	<g>
		<g>
			
				<rect x="819.3888" y="69.8775" transform="matrix(-0.7071 0.7071 -0.7071 -0.7071 1534.4039 -424.398)" fill="#FDF4BC" width="71.4178" height="71.4178"/>
			<path fill="#535352" d="M855.0977,179.8896l-74.3038-74.3032l74.3038-74.3032l74.3027,74.3032L855.0977,179.8896
				L855.0977,179.8896z M828.4004,105.5864l26.6973,26.6968l26.6962-26.6968l-26.6962-26.6968L828.4004,105.5864L828.4004,105.5864z
				"/>
		</g>
		<g>
			<line fill="#FDF4BC" x1="855.0977" y1="55.0864" x2="855.0977" y2="21.4199"/>
			<path fill="#535352" d="M855.0977,71.9199c-9.3046,0-16.834-7.5293-16.834-16.8335V21.4199
				c0-9.2881,7.5294-16.8335,16.834-16.8335c9.3037,0,16.833,7.5454,16.833,16.8335v33.6665
				C871.9307,64.3906,864.4014,71.9199,855.0977,71.9199L855.0977,71.9199z"/>
		</g>
		<g>
			<line fill="#FDF4BC" x1="804.5977" y1="105.5864" x2="770.9307" y2="105.5864"/>
			<path fill="#535352" d="M804.5977,122.4199h-33.667c-9.3047,0-16.8329-7.5293-16.8329-16.8335
				c0-9.2881,7.5283-16.8335,16.8329-16.8335h33.667c9.3037,0,16.833,7.5454,16.833,16.8335
				C821.4307,114.8906,813.9014,122.4199,804.5977,122.4199L804.5977,122.4199z"/>
		</g>
		<g>
			<line fill="#FDF4BC" x1="855.0977" y1="156.0864" x2="855.0977" y2="189.7529"/>
			<path fill="#535352" d="M855.0977,206.5864c-9.3046,0-16.834-7.5288-16.834-16.8335v-33.6665
				c0-9.2881,7.5294-16.8335,16.834-16.8335c9.3037,0,16.833,7.5454,16.833,16.8335v33.6665
				C871.9307,199.0576,864.4014,206.5864,855.0977,206.5864L855.0977,206.5864z"/>
		</g>
		<g>
			<line fill="#FDF4BC" x1="905.5977" y1="105.5864" x2="939.2637" y2="105.5864"/>
			<path fill="#535352" d="M939.2637,122.4199h-33.666c-9.3046,0-16.834-7.5293-16.834-16.8335
				c0-9.2881,7.5294-16.8335,16.834-16.8335h33.666c9.3047,0,16.834,7.5454,16.834,16.8335
				C956.0977,114.8906,948.5684,122.4199,939.2637,122.4199L939.2637,122.4199z"/>
		</g>
	</g>
</g>
</svg>
