<?xml version="1.0" encoding="utf-8"?>
<!-- Generator: Adobe Illustrator 17.1.0, SVG Export Plug-In . SVG Version: 6.00 Build 0)  -->
<!DOCTYPE svg PUBLIC "-//W3C//DTD SVG 1.1//EN" "http://www.w3.org/Graphics/SVG/1.1/DTD/svg11.dtd">
<svg version="1.1" id="rocket-2" xmlns="http://www.w3.org/2000/svg" xmlns:xlink="http://www.w3.org/1999/xlink" x="0px" y="0px"
	 viewBox="0 0 1006.3383 1010.0002" enable-background="new 0 0 1006.3383 1010.0002" xml:space="preserve">
<g id="rocket-2-rocket-2">
	<g>
		<path fill="#FDF4BC" d="M180.3418,785.9709c-28.5049-12.1396-64.3799-5.2969-89.4639,19.7705
			c-47.898,47.8984-44,150.6367-44,150.6367s103.4619,3.0919,150.6035-44.0497c25.002-25.0674,31.8936-60.8926,19.7876-89.414"/>
		<path fill="#535352" d="M51.2041,973.2873c-2.6646,0-4.3423-0.0664-4.8194-0.0664c-8.8657-0.2627-16.0044-7.3359-16.3335-16.1855
			c-0.1811-4.5059-3.5854-110.7315,48.9185-163.2022c29.1138-29.1143,72.5049-38.4902,107.9844-23.3574
			c8.5537,3.6514,12.5341,13.5537,8.8828,22.1064c-3.6519,8.5537-13.5371,12.5674-22.1075,8.8828
			c-22.9292-9.7705-51.4511-3.29-70.9423,16.1856c-31.3838,31.3838-37.7168,92.3096-38.8848,121.5879
			c29.4434-1.3487,90.7637-7.9278,121.6704-38.8184c19.4258-19.4756,25.9395-47.9648,16.1851-70.9267
			c-3.6348-8.5537,0.3623-18.4551,8.9316-22.1065c8.4878-3.5859,18.4395,0.3613,22.0908,8.9473
			c15.0342,35.4306,5.6416,78.789-23.3735,107.8701C163.2685,970.3596,73.2617,973.2873,51.2041,973.2873L51.2041,973.2873z"/>
	</g>
	<g>
		<path fill="#E6E6E6" d="M591.0058,634.2482l26.7451,129.1544c0,0,11.8438,32.1406-28.2256,55.2344
			c-40.1015,23.0938-236.7856,151.2285-236.7856,151.2285l40.3154-185.4082"/>
		<path fill="#535352" d="M352.7397,986.7092c-3.3394,0-6.6948-0.9873-9.5566-2.961c-5.6255-3.8818-8.356-10.79-6.9087-17.4687
			l40.3154-185.4082c1.9907-9.0801,10.873-14.8691,20.0513-12.8633c9.0796,1.9746,14.853,10.9551,12.8794,20.0352l-31.6143,145.373
			c58.3921-37.8984,173.0967-112.0488,203.1973-129.3847c27.4365-15.8243,20.8896-34.6084,20.8242-34.8057
			c-0.2627-0.7901-0.4932-1.5791-0.6904-2.4014l-26.7129-129.1875c-1.875-9.0791,3.9804-17.9941,13.0927-19.9023
			c8.8819-1.8428,17.9952,3.9804,19.9034,13.0927l26.5146,128.1348c5.2637,16.3828,4.1455,51.0557-36.1211,74.249
			c-39.2461,22.5996-234.0224,149.4844-235.9795,150.7676C359.1381,985.8205,355.9306,986.7092,352.7397,986.7092L352.7397,986.7092
			z"/>
	</g>
	<g>
		<path fill="#E6E6E6" d="M368.5468,412.7434l-127.9043-26.4493c0,0-32.0913-11.8261-55.185,28.2422
			c-23.1099,40.086-151.2779,236.7862-151.2779,236.7862l186.544-40.4971"/>
		<path fill="#535352" d="M34.1796,668.1662c-5.4609,0-10.6748-2.665-13.8662-7.2705c-3.8818-5.626-3.9804-13.0273-0.2466-18.7519
			c1.2833-1.9737,128.1841-196.7823,150.8008-236.0127c23.1763-40.2657,57.899-41.3682,74.2163-36.1211l126.8677,26.2353
			c9.1128,1.8916,14.9683,10.8076,13.0933,19.9033c-1.8916,9.1123-10.8892,14.8692-19.9029,13.0928l-127.9043-26.4492
			c-0.8227-0.1807-1.6284-0.4111-2.4179-0.6904c-2.9116-0.9219-19.9849-4.8194-34.7725,20.8398
			c-17.353,30.1172-91.52,144.8223-129.4341,203.2471l146.5411-31.8448c9.0302-1.9736,18.0605,3.7833,20.0341,12.8965
			c1.9737,9.0791-3.7998,18.0606-12.8955,20.0342L37.749,667.8039C36.5649,668.0344,35.3642,668.1662,34.1796,668.1662
			L34.1796,668.1662z"/>
	</g>
	<g>
		<path fill="#535352" d="M285.9912,862.5881c-0.0494,0-0.0987,0-0.1641,0c-10.1655-0.0332-20.3311-4.4746-27.8642-12.1719
			c-6.5137-6.6455-6.4151-17.3047,0.2304-23.8174c6.6123-6.5135,17.3037-6.415,23.8174,0.2296
			c1.9248,1.9745,3.6514,2.1387,4.145,2.0733l36.105-36.4171c6.5791-6.5469,17.2544-6.5469,23.834,0.0322
			c6.5625,6.5791,6.5625,17.2383-0.0166,23.8174l-36.96,36.9111C303.0976,859.2658,294.8901,862.5881,285.9912,862.5881
			L285.9912,862.5881z"/>
	</g>
	<g>
		<path fill="#535352" d="M166.8212,752.4152c-4.3261,0-8.6518-1.6445-11.9414-4.9678
			c-14.7876-14.8691-15.955-37.7657-2.6152-51.0889l36.5156-36.4834c6.5791-6.5791,17.2383-6.5791,23.8174,0
			c6.5796,6.5801,6.5796,17.2383,0,23.8184l-36.499,36.4824c0.4272-0.461,0.6738,1.5137,2.664,3.5195
			c6.5635,6.6133,6.5303,17.2715-0.0654,23.8184C175.4072,750.8029,171.1142,752.4152,166.8212,752.4152L166.8212,752.4152z"/>
	</g>
	<g>
		<path fill="#E6E6E6" d="M560.247,157.84c0,0,4.9014-5.4775,7.5332-8.1914C766.874-49.4285,971.2314,33.258,971.2314,33.258
			s88.2305,198.8145-116.4238,403.418c-2.5,2.5166-7.6641,7.0732-7.6641,7.0732"/>
		<path fill="#535352" d="M858.2959,456.382l-22.2715-25.2656c0.0331-0.0488,4.6385-4.0791,6.8418-6.3154
			c174.125-174.0762,127.5428-343.6446,115.4043-378.3018C922.2148,34.5744,750.6884-9.3934,579.6884,161.5568
			c-2.3027,2.3858-6.875,7.4678-6.9082,7.5176l-25.0996-22.4687c0,0,5.2305-5.8233,8.0596-8.7178
			C760.4921-66.8973,975.3759,16.7766,977.5478,17.6486c4.0469,1.628,7.3027,4.7862,9.0801,8.7832
			c0.9199,2.0889,90.4668,211.8086-119.9102,422.1534C863.9873,451.3322,858.2959,456.382,858.2959,456.382L858.2959,456.382z"/>
	</g>
	<g>
		<path fill="#A5A5A4" d="M198.5507,640.8615c-7.3198,9.6055-7.6816,20.2637,0,27.9619l137.1485,137.1163
			c7.665,7.664,18.1919,7.664,27.8471,0l484.2554-363.128c0,0-31.2529-60.5312-128.3984-157.7744
			c-85.4336-85.4014-157.7422-128.3984-157.7422-128.3984L198.5507,640.8615z"/>
		<path fill="#535352" d="M348.874,828.5061c-9.293,0-18.1919-3.7832-25.084-10.6582L186.6416,680.7326
			c-13.4546-13.4883-14.0469-33.588-1.4805-50.0703l363.0449-484.123c5.1328-6.8916,14.6729-8.7832,22.0742-4.375
			c3.0274,1.7929,75.1045,45.0527,161.0323,130.9638c97.9013,97.9678,130.1084,159.3867,131.457,161.9532
			c3.75,7.3193,1.7099,16.2675-4.8682,21.2021L373.646,819.3938C366.2768,825.2824,357.5756,828.5061,348.874,828.5061
			L348.874,828.5061z M565.7734,179.2561L212.0219,650.9602c-3.2402,4.2763-2.0063,5.4941-1.5464,5.9541L348.874,794.8195
			c0.7241,0,2.2539-0.5263,4.1943-2.0722l472.5274-354.3438c-13.8497-21.9424-49.0498-72.3574-118.1006-141.458
			C645.2197,234.6877,589.8212,195.2443,565.7734,179.2561L565.7734,179.2561z"/>
	</g>
	<g>
		<path fill="#B0D8EF" d="M537.5146,360.4699c31.3184-31.3183,82.375-31.3183,113.7266,0.0498
			c31.3828,31.3672,31.3828,82.4239,0,113.8242c-31.3516,31.3672-82.375,31.3672-113.7266-0.0332
			C506.1064,442.9436,506.1064,391.8869,537.5146,360.4699z"/>
		<path fill="#535352" d="M594.3935,514.7082c-26.0215,0-50.4629-10.1152-68.8203-28.4883
			c-18.3477-18.3408-28.4644-42.7832-28.4644-68.8047c0-26.0214,10.1167-50.4804,28.4976-68.8535
			c18.3242-18.3242,42.7334-28.4238,68.7227-28.4238c26.0214,0,50.4628,10.1162,68.8203,28.4727
			c37.9629,37.9306,37.9629,99.6787,0,137.6416C644.8252,504.6096,620.3828,514.7082,594.3935,514.7082L594.3935,514.7082z
			 M594.3291,353.8244c-16.9756,0-32.9307,6.5967-44.9053,18.5547c-12.0069,12.0068-18.6201,28.0117-18.6201,45.0361
			c0,17.0079,6.6132,32.9961,18.6201,44.9864c23.9814,24.0156,65.9258,24.0156,89.9072,0.0332
			c24.8047-24.8203,24.8379-65.2022,0-90.0069C627.3574,360.4367,611.3691,353.8244,594.3291,353.8244L594.3291,353.8244z"/>
	</g>
	<g>
		<path fill="#B0D8EF" d="M405.8359,533.7482c20.9883-20.997,55.1518-20.997,76.124,0c21.0049,20.9883,21.0049,55.1348,0,76.1241
			c-20.9722,21.0204-55.1357,21.0204-76.124,0C384.831,588.883,384.7978,554.7365,405.8359,533.7482z"/>
		<path fill="#535352" d="M443.8979,642.4729c-18.8994,0-36.6475-7.336-49.9873-20.7247
			c-13.3237-13.291-20.6763-31.0556-20.6763-49.9384c-0.0161-18.916,7.3526-36.6475,20.6929-49.9951
			c13.3232-13.3233,31.0874-20.6602,49.9707-20.6602c18.8994,0,36.6475,7.3369,49.9707,20.6768
			c13.3394,13.331,20.6929,31.0957,20.6929,49.9785c0,18.916-7.3535,36.6473-20.6929,49.9706
			C480.5615,635.1369,462.8134,642.4729,443.8979,642.4729L443.8979,642.4729z M443.8979,534.8332
			c-9.8857,0-19.1792,3.8496-26.1533,10.8232c-6.9907,6.9747-10.8399,16.251-10.8233,26.1534
			c0,9.8691,3.8326,19.1786,10.8233,26.1201c13.9975,14.0478,38.3911,14.0146,52.29,0.0332
			c6.9907-6.9746,10.8394-16.251,10.8394-26.1533c0-9.9024-3.8487-19.1787-10.8228-26.1534
			C463.0766,538.6828,453.7998,534.8332,443.8979,534.8332L443.8979,534.8332z"/>
	</g>
	<g>
		<path fill="#535352" d="M214.8349,969.8654c0,9.4414,7.6651,17.0743,17.0899,17.0743c9.4248,0,17.0737-7.6329,17.0737-17.0743
			c0-9.4082-7.6489-17.0732-17.0737-17.0732C222.5,952.7922,214.8349,960.4572,214.8349,969.8654"/>
		<path fill="#535352" d="M17.0898,741.1975c0,9.4413,7.665,17.1064,17.0898,17.1064c9.4253,0,17.0904-7.665,17.0904-17.1064
			c0-9.4414-7.6651-17.0743-17.0904-17.0743C24.7548,724.1232,17.0898,731.7561,17.0898,741.1975"/>
		<path fill="#535352" d="M0,823.5725c0,9.4413,7.665,17.1053,17.0898,17.1053s17.0898-7.664,17.0898-17.1053
			c0-9.4092-7.665-17.0743-17.0898-17.0743S0,814.1633,0,823.5725"/>
		<path fill="#535352" d="M142.6582,992.927c0,9.4082,7.665,17.0732,17.0903,17.0732c9.4253,0,17.0903-7.665,17.0903-17.0732
			c0-9.4424-7.665-17.1065-17.0903-17.1065C150.3232,975.8205,142.6582,983.4846,142.6582,992.927"/>
		<path fill="#535352" d="M252.8642,900.1897c0,9.4414,7.665,17.0732,17.1065,17.0732c9.4248,0,17.0898-7.6318,17.0898-17.0732
			c0-9.4415-7.665-17.1065-17.0898-17.1065C260.5292,883.0832,252.8642,890.7482,252.8642,900.1897"/>
		<path fill="#535352" d="M81.7163,721.1955c0,9.4092,7.6489,17.0742,17.0903,17.0742c9.4248,0,17.0898-7.665,17.0898-17.0742
			c0-9.4414-7.665-17.1064-17.0898-17.1064C89.3652,704.0891,81.7163,711.7541,81.7163,721.1955"/>
	</g>
</g>
</svg>
