<?xml version="1.0" encoding="utf-8"?>
<!-- Generator: Adobe Illustrator 17.1.0, SVG Export Plug-In . SVG Version: 6.00 Build 0)  -->
<!DOCTYPE svg PUBLIC "-//W3C//DTD SVG 1.1//EN" "http://www.w3.org/Graphics/SVG/1.1/DTD/svg11.dtd">
<svg version="1.1" id="rocket" xmlns="http://www.w3.org/2000/svg" xmlns:xlink="http://www.w3.org/1999/xlink" x="0px" y="0px"
	 viewBox="0 0 776.8619 1010" enable-background="new 0 0 776.8619 1010" xml:space="preserve">
<g id="rocket-rocket">
	<g id="rocket-rocket_1_">
		<g id="rocket-fill">
			<path fill="#FDF4BC" d="M388.4463,662.8281c-38.1333,0-69.0581,30.9102-69.0581,69.0274v126.2343h138.086V731.8555
				C457.4742,693.7383,426.5796,662.8281,388.4463,662.8281z"/>
			<polyline fill="#C9C9C8" points="264.1539,333.9858 222.6978,333.9858 15.5386,541.1455 15.5386,665.4678 264.1539,665.4678 			
				"/>
			<polyline fill="#C9C9C8" points="512.7388,333.9858 554.1343,333.9858 761.3238,541.1455 761.3238,665.4678 512.7388,665.4678 
							"/>
			<path fill="#A5A5A4" d="M234.6094,328.4932c0-124.293,153.8369-248.6006,153.8369-248.6006s153.8218,124.3076,153.8218,248.6006
				v388.6132H234.6094V328.4932z"/>
			<path fill="#B0D8EF" d="M429.8873,420.9951c0,22.8526-18.543,41.4107-41.441,41.4107c-22.8676,0-41.4257-18.5581-41.4257-41.4107
				c0-22.8828,18.5581-41.4409,41.4257-41.4409C411.3443,379.5542,429.8873,398.1123,429.8873,420.9951z"/>
			<path fill="#B0D8EF" d="M429.8873,282.8486c0,22.8828-18.543,41.4561-41.441,41.4561c-22.8676,0-41.4257-18.5733-41.4257-41.4561
				c0-22.8828,18.5581-41.4257,41.4257-41.4257C411.3443,241.4229,429.8873,259.9658,429.8873,282.8486z"/>
			<path fill="#B8C9F1" d="M429.8873,559.0811c0,22.8828-18.543,41.4414-41.441,41.4414c-22.8676,0-41.4257-18.5586-41.4257-41.4414
				c0-22.8526,18.5581-41.4561,41.4257-41.4561C411.3443,517.625,429.8873,536.2285,429.8873,559.0811z"/>
		</g>
		<g id="rocket-line">
			<g>
				<polygon fill="#535352" points="473.0123,873.6289 303.8497,873.6289 303.8497,731.8555 334.9263,731.8555 334.9263,842.5518 
					441.9351,842.5518 441.9351,731.8555 473.0123,731.8555 473.0123,873.6289 				"/>
			</g>
			<g>
				<polygon fill="#535352" points="376.3829,1010 345.3062,1010 345.3062,899.5313 376.3829,899.5313 376.3829,1010 				"/>
			</g>
			<g>
				<polygon fill="#535352" points="431.5865,1010 400.5093,1010 400.5093,899.5313 431.5865,899.5313 431.5865,1010 				"/>
			</g>
			<g>
				<polygon fill="#535352" points="403.9849,858.0898 372.9078,858.0898 372.9078,757.5908 403.9849,757.5908 403.9849,858.0898 
									"/>
			</g>
			<g>
				<path fill="#535352" d="M557.8062,732.6445H219.0708V328.4932c0-130.2188,153.0938-255.4209,159.6036-260.6866l9.7719-7.8906
					l9.7574,7.8906c6.5244,5.2657,159.6025,130.4678,159.6025,260.6866V732.6445L557.8062,732.6445z M250.148,701.5674H526.73
					V328.4932c0-97.9043-105.2646-198.8672-138.2837-228.1231C355.4419,129.6494,250.148,230.7324,250.148,328.4932V701.5674
					L250.148,701.5674z"/>
			</g>
			<g>
				<path fill="#535352" d="M388.4463,477.9443c-31.4106,0-56.9643-25.5459-56.9643-56.9492
					c0-31.418,25.5537-56.9795,56.9643-56.9795c31.4263,0,56.979,25.5615,56.979,56.9795
					C445.4253,452.3984,419.8726,477.9443,388.4463,477.9443L388.4463,477.9443z M388.4463,395.0928
					c-14.2788,0-25.8872,11.6235-25.8872,25.9023c0,14.2637,11.6084,25.8721,25.8872,25.8721s25.9029-11.6084,25.9029-25.8721
					C414.3492,406.7163,402.7251,395.0928,388.4463,395.0928L388.4463,395.0928z"/>
			</g>
			<g>
				<path fill="#535352" d="M388.4463,339.8433c-31.4106,0-56.9643-25.5689-56.9643-56.9947
					c0-31.4111,25.5537-56.9638,56.9643-56.9638c31.4263,0,56.979,25.5527,56.979,56.9638
					C445.4253,314.2744,419.8726,339.8433,388.4463,339.8433L388.4463,339.8433z M388.4463,256.9609
					c-14.2788,0-25.8872,11.6162-25.8872,25.8877c0,14.294,11.6084,25.918,25.8872,25.918s25.9029-11.624,25.9029-25.918
					C414.3492,268.5771,402.7251,256.9609,388.4463,256.9609L388.4463,256.9609z"/>
			</g>
			<g>
				<path fill="#B0D8EF" d="M429.8873,559.0811c0,22.8828-18.543,41.4414-41.441,41.4414
					c-22.8676,0-41.4257-18.5586-41.4257-41.4414c0-22.8526,18.5581-41.4561,41.4257-41.4561
					C411.3443,517.625,429.8873,536.2285,429.8873,559.0811z"/>
				<path fill="#535352" d="M388.4463,616.0605c-31.4106,0-56.9643-25.5683-56.9643-56.9794
					c0-31.4258,25.5537-56.9942,56.9643-56.9942c31.4263,0,56.979,25.5684,56.979,56.9942
					C445.4253,590.4922,419.8726,616.0605,388.4463,616.0605L388.4463,616.0605z M388.4463,533.1641
					c-14.2788,0-25.8872,11.623-25.8872,25.917c0,14.2793,11.6084,25.9023,25.8872,25.9023s25.9029-11.623,25.9029-25.9023
					C414.3492,544.7871,402.7251,533.1641,388.4463,533.1641L388.4463,533.1641z"/>
			</g>
			<g>
				<polygon fill="#535352" points="776.8619,681.0068 537.5337,681.0068 537.5337,649.9297 745.7857,649.9297 745.7857,547.9434 
					531.4791,349.5244 467.1558,349.5244 467.1558,318.4473 543.649,318.4473 776.8619,534.3477 776.8619,681.0068 				"/>
			</g>
			<g>
				<polygon fill="#535352" points="239.3892,681.0068 0,681.0068 0,534.3477 233.2134,318.4473 309.7222,318.4473 
					309.7222,349.5244 245.3833,349.5244 31.0767,547.9434 31.0767,649.9297 239.3892,649.9297 239.3892,681.0068 				"/>
			</g>
			<g>
				<path fill="#535352" d="M388.4463,172.6533c-8.5883,0-15.5385-6.958-15.5385-15.539V15.5381
					C372.9078,6.957,379.858,0,388.4463,0c8.5738,0,15.5386,6.957,15.5386,15.5381v141.5762
					C403.9849,165.6953,397.0201,172.6533,388.4463,172.6533L388.4463,172.6533z"/>
			</g>
		</g>
	</g>
	<path fill="#535352" d="M139.8462,885.9355c0,8.8916,7.2227,16.1153,16.1153,16.1153c8.8769,0,16.0996-7.2237,16.0996-16.1153
		c0-8.8769-7.2227-16.1005-16.0996-16.1005C147.0689,869.835,139.8462,877.0586,139.8462,885.9355"/>
	<path fill="#535352" d="M496.6236,794.9648c0,8.8926,7.2236,16.1153,16.1152,16.1153c8.8916,0,16.1153-7.2227,16.1153-16.1153
		c0-8.8916-7.2237-16.1142-16.1153-16.1142C503.8472,778.8506,496.6236,786.0732,496.6236,794.9648"/>
	<path fill="#535352" d="M202.774,850.458c0,8.8916,7.2226,16.1143,16.1152,16.1143c8.8916,0,16.1148-7.2227,16.1148-16.1143
		c0-8.8926-7.2232-16.1152-16.1148-16.1152C209.9966,834.3428,202.774,841.5654,202.774,850.458"/>
	<path fill="#535352" d="M202.774,927.998c0,8.8926,7.2226,16.1153,16.1152,16.1153c8.877,0,16.0996-7.2227,16.0996-16.1153
		c0-8.8916-7.2226-16.1152-16.0996-16.1152C209.9966,911.8828,202.774,919.1064,202.774,927.998"/>
	<path fill="#535352" d="M35.7354,226.5068c0,8.8916,7.2231,16.1153,16.1147,16.1153c8.877,0,16.1006-7.2237,16.1006-16.1153
		c0-8.8925-7.2236-16.1152-16.1006-16.1152C42.9585,210.3916,35.7354,217.6143,35.7354,226.5068"/>
	<path fill="#535352" d="M564.5738,853.7207c0,8.8916,7.2236,16.1143,16.1152,16.1143c8.8926,0,16.1152-7.2227,16.1152-16.1143
		c0-8.8926-7.2226-16.1152-16.1152-16.1152C571.7974,837.6055,564.5738,844.8281,564.5738,853.7207"/>
	<path fill="#535352" d="M496.6236,869.835c0,8.8769,7.2236,16.1005,16.1152,16.1005c8.8916,0,16.1153-7.2236,16.1153-16.1005
		c0-8.8916-7.2237-16.1143-16.1153-16.1143C503.8472,853.7207,496.6236,860.9434,496.6236,869.835"/>
	<g>
		<g>
			<path fill="#535352" d="M614.2847,818.0908c-6.4336,0-11.6533-5.2197-11.6533-11.6533v-80.0449
				c0-6.4336,5.2197-11.6533,11.6533-11.6533c6.4346,0,11.6543,5.2197,11.6543,11.6533v80.0449
				C625.939,812.8711,620.7193,818.0908,614.2847,818.0908L614.2847,818.0908z"/>
		</g>
		<g>
			<path fill="#535352" d="M654.2847,778.0459h-80.0898c-6.4336,0-11.6543-5.2197-11.6543-11.6533
				c0-6.4346,5.2207-11.6543,11.6543-11.6543h80.0898c6.4336,0,11.6533,5.2197,11.6533,11.6543
				C665.938,772.8262,660.7183,778.0459,654.2847,778.0459L654.2847,778.0459z"/>
		</g>
	</g>
	<g>
		<g>
			<path fill="#535352" d="M162.6832,825.3291c-6.4336,0-11.6534-5.2197-11.6534-11.6533v-80.0449
				c0-6.4336,5.2198-11.6543,11.6534-11.6543c6.434,0,11.6543,5.2207,11.6543,11.6543v80.0449
				C174.3375,820.1094,169.1172,825.3291,162.6832,825.3291L162.6832,825.3291z"/>
		</g>
		<g>
			<path fill="#535352" d="M202.6675,785.2842h-80.0742c-6.4346,0-11.6543-5.2197-11.6543-11.6533
				c0-6.4346,5.2197-11.6544,11.6543-11.6544h80.0742c6.4341,0,11.6543,5.2197,11.6543,11.6544
				C214.3218,780.0645,209.1016,785.2842,202.6675,785.2842L202.6675,785.2842z"/>
		</g>
	</g>
	<g>
		<g>
			<path fill="#535352" d="M542.3287,1006.4336c-6.4336,0-11.6534-5.2197-11.6534-11.6533v-80.0439
				c0-6.4345,5.2198-11.6544,11.6534-11.6544s11.6533,5.2198,11.6533,11.6544v80.0439
				C553.982,1001.2139,548.7623,1006.4336,542.3287,1006.4336L542.3287,1006.4336z"/>
		</g>
		<g>
			<path fill="#535352" d="M582.3277,966.3887h-80.0899c-6.4336,0-11.6533-5.2198-11.6533-11.6533
				c0-6.4336,5.2197-11.6534,11.6533-11.6534h80.0899c6.4346,0,11.6543,5.2198,11.6543,11.6534
				C593.982,961.1689,588.7623,966.3887,582.3277,966.3887L582.3277,966.3887z"/>
		</g>
	</g>
	<g>
		<g>
			<polygon fill="#FDF4BC" points="139.6792,165.4756 83.7164,109.543 139.6792,53.5957 195.6119,109.543 			"/>
			<path fill="#535352" d="M139.6792,187.4482L61.7291,109.543l77.9501-77.92l77.9048,77.92L139.6792,187.4482L139.6792,187.4482z
				 M105.689,109.543l33.9902,33.9599l33.96-33.9599l-33.96-33.9746L105.689,109.543L105.689,109.543z"/>
		</g>
		<g>
			<line fill="#FDF4BC" x1="139.6792" y1="53.5957" x2="139.6792" y2="16.3125"/>
			<path fill="#535352" d="M139.6792,69.1338c-8.5889,0-15.5385-6.957-15.5385-15.5381V16.3125
				c0-8.5811,6.9497-15.5381,15.5385-15.5381c8.5732,0,15.5381,6.957,15.5381,15.5381v37.2832
				C155.2173,62.1768,148.2525,69.1338,139.6792,69.1338L139.6792,69.1338z"/>
		</g>
		<g>
			<line fill="#FDF4BC" x1="195.6119" y1="109.543" x2="232.9097" y2="109.543"/>
			<path fill="#535352" d="M232.9097,125.082h-37.2978c-8.5889,0-15.5391-6.958-15.5391-15.539
				c0-8.5811,6.9502-15.5381,15.5391-15.5381h37.2978c8.5737,0,15.5391,6.957,15.5391,15.5381
				C248.4488,118.124,241.4834,125.082,232.9097,125.082L232.9097,125.082z"/>
		</g>
		<g>
			<line fill="#FDF4BC" x1="139.6792" y1="165.4756" x2="139.6792" y2="202.7744"/>
			<path fill="#535352" d="M139.6792,218.3125c-8.5889,0-15.5385-6.957-15.5385-15.5381v-37.2988
				c0-8.5811,6.9497-15.5381,15.5385-15.5381c8.5732,0,15.5381,6.957,15.5381,15.5381v37.2988
				C155.2173,211.3555,148.2525,218.3125,139.6792,218.3125L139.6792,218.3125z"/>
		</g>
		<g>
			<line fill="#FDF4BC" x1="83.7164" y1="109.543" x2="46.4332" y2="109.543"/>
			<path fill="#535352" d="M83.7164,125.082H46.4332c-8.5889,0-15.5381-6.958-15.5381-15.539
				c0-8.5811,6.9492-15.5381,15.5381-15.5381h37.2832c8.5732,0,15.5385,6.957,15.5385,15.5381
				C99.2549,118.124,92.2896,125.082,83.7164,125.082L83.7164,125.082z"/>
		</g>
	</g>
	<path fill="#535352" d="M123.731,304.1987c0,8.8921,7.2227,16.1153,16.1152,16.1153c8.877,0,16.0996-7.2232,16.0996-16.1153
		c0-8.8921-7.2226-16.1147-16.0996-16.1147C130.9537,288.084,123.731,295.3066,123.731,304.1987"/>
	<path fill="#535352" d="M216.8101,26.752c0,8.8925,7.2227,16.1152,16.1152,16.1152c8.877,0,16.0997-7.2227,16.0997-16.1152
		c0-8.8916-7.2227-16.1143-16.0997-16.1143C224.0328,10.6377,216.8101,17.8604,216.8101,26.752"/>
</g>
</svg>
