<?xml version="1.0" encoding="utf-8"?>
<!-- Generator: Adobe Illustrator 17.1.0, SVG Export Plug-In . SVG Version: 6.00 Build 0)  -->
<!DOCTYPE svg PUBLIC "-//W3C//DTD SVG 1.1//EN" "http://www.w3.org/Graphics/SVG/1.1/DTD/svg11.dtd">
<svg version="1.1" id="rocket-3" xmlns="http://www.w3.org/2000/svg" xmlns:xlink="http://www.w3.org/1999/xlink" x="0px" y="0px"
	 viewBox="0 0 809.6733 1010.0005" enable-background="new 0 0 809.6733 1010.0005" xml:space="preserve">
<g id="rocket-3-rocket-3">
	<g>
		<g>
			<g>
				<path fill="#C9C9C8" d="M232.3004,286.9702c-41.4776-6.9043-63.7705,46.8037-63.7705,46.8037
					c-12.4942,23.0323-97.833,229.8858-136.6143,319.3516h0.082c-3.5341,8.1865-6.5595,15.1572-8.5322,19.9902
					c-15.6504,37.3848-2.4326,51.8184,28.54,51.8184h174.6231"/>
				<path fill="#535352" d="M226.6285,741.7681H52.0054c-21.8154,0-37.121-6.4112-45.5058-19.0039
					c-8.6963-13.0528-8.6631-30.3477,0.082-52.8047H6.3521l10.1104-23.541c15.0097-34.5898,36.9726-86.7696,59.0019-139.0567
					c35.5596-84.4511,69.1787-164.2988,77.876-180.8867c3.5342-8.0225,30.5772-64.4609,81.7217-56.1094l-5.5235,33.209
					c-27.4707-4.7021-45.2919,36.2334-45.456,36.6602l-0.7568,1.5625c-7.2657,13.3818-44.2227,101.1699-76.8389,178.6181
					c-17.5254,41.6339-35.0166,83.1602-49.0068,115.876h0.0156l-11.8692,27.7168c-2.6963,6.2471-4.9814,11.5742-6.5761,15.4531
					c-6.3946,15.2891-5.836,22.6543-4.5205,24.6602c0.9863,1.4795,5.7705,3.9785,17.4755,3.9785h174.6231V741.7681
					L226.6285,741.7681z"/>
			</g>
			<g>
				<path fill="#C9C9C8" d="M577.3638,286.9702c41.4932-6.9043,63.7852,46.8037,63.7852,46.8037
					c12.4619,23.0323,97.916,229.8858,136.582,319.3516h-0.164c3.6172,8.1865,6.5761,15.1572,8.713,19.9902
					c15.5527,37.3848,2.4668,51.8184-28.5391,51.8184h-174.623"/>
				<path fill="#535352" d="M757.7408,741.7681h-174.623v-33.668h174.623c11.6719,0,16.4395-2.499,17.4258-3.9785
					c1.3154-1.9727,1.875-9.3711-4.4385-24.5606L751.69,636.2916h0.4942c-13.4805-31.5644-30.25-71.3818-47.1495-111.5283
					c-33.4384-79.3789-71.3154-169.3379-78.6806-182.9658l-0.7559-1.5625c-0.165-0.3614-17.6894-41.2471-45.4726-36.6602
					l-5.5245-33.209c51.5225-8.499,78.2208,48.1035,81.7393,56.1094c8.8106,16.8506,43.2695,98.6719,79.7324,185.2109
					c21.4043,50.8233,42.5791,101.0957,57.1115,134.7647l10.1601,23.5088h-0.1973c8.7129,22.6543,8.6797,39.8828,0.0333,52.8711
					C794.7955,735.3901,779.5064,741.7681,757.7408,741.7681L757.7408,741.7681z"/>
			</g>
		</g>
		<g>
			<g>
				<g>
					<polygon fill="#FDF4BC" points="492.2056,861.1871 493.4215,865.4282 523.901,975.9371 446.9957,926.9136 404.7867,993.1655 
						361.0894,929.8726 285.7457,973.1754 324.1168,861.1871 					"/>
					<path fill="#535352" d="M404.7867,1010.0005c-5.5244,0-10.7031-2.6963-13.8594-7.2666l-34.8847-50.5361l-61.9122,35.576
						c-6.0996,3.4844-13.6943,2.8272-19.1035-1.6113c-5.4082-4.4717-7.4795-11.8037-5.2109-18.4453l38.3701-111.9883
						c2.335-6.8056,8.7295-11.376,15.9307-11.376h168.0888c7.4961,0,14.1055,4.9971,16.1758,12.1983l1.2168,4.2412l30.5449,110.6728
						c1.8418,6.7071-0.625,13.875-6.2461,18.0176c-5.5898,4.1436-13.1855,4.4062-19.038,0.6582l-62.7012-39.9814l-33.167,52.0478
						c-3.041,4.7676-8.2529,7.6944-13.8916,7.793C404.9996,1010.0005,404.8853,1010.0005,404.7867,1010.0005L404.7867,1010.0005z
						 M361.0728,913.0386c5.376,0,10.6201,2.5644,13.875,7.2666l29.2793,42.4141l28.5645-44.8477
						c2.4004-3.7481,6.2148-6.4111,10.5879-7.3984c4.3398-0.9532,8.9101-0.1641,12.6582,2.2695l39.9814,25.4814l-16.6045-60.2021
						H336.15l-19.958,58.2295l36.5127-20.9776C355.3355,913.7623,358.2291,913.0386,361.0728,913.0386L361.0728,913.0386z"/>
				</g>
			</g>
			<polygon fill="#C9C9C8" points="319.2828,854.6118 490.2974,854.7759 490.2974,689.3589 319.2828,689.3589 			"/>
			<g>
				<path fill="#535352" d="M507.1324,871.6431l-204.6836-0.1973V672.5239h204.6836V871.6431L507.1324,871.6431z M336.1178,837.8101
					l137.3457,0.1318v-131.749H336.1178V837.8101L336.1178,837.8101z"/>
			</g>
			<path fill="#D8E9C9" d="M523.1783,174.9664c10.3564,26.9776,19.9238,53.8565,28.0459,78.2041
				c12.9541,38.8799,20.7139,75.1953,20.7139,111.4942c0,44.042,0,396.3388,0,396.3388H237.7086c0,0,0-352.2148,0-396.3388
				c0-36.2334,7.6289-72.6143,20.747-111.4942c8.7627-26.3037,19.334-55.7314,30.5782-84.9941"/>
			<path fill="#A5A5A4" d="M520.1197,178.6647c12.9883,38.8642,51.8184,149.7011,51.8184,186c0,44.042,0,396.3388,0,396.3388
				H237.7086c0,0,0-352.2148,0-396.3388c0-36.2334,38.206-157.6407,51.3252-196.4883"/>
			<path fill="#EBEEF0" d="M523.2428,175.0485c10.2919,26.8955,19.8593,53.7744,27.9814,78.122"/>
			<path fill="#E6E6E6" d="M289.0338,168.1764c11.9677-31.0879,24.6601-61.9121,36.7265-88.5615
				c13.8418-30.7422,36.3975-51.5713,49.3526-56.9795c18.1162-7.7764,38.8642-7.7764,59.4541-0.083
				c13.1191,4.9326,35.4775,26.3203,49.3525,56.9804c12.8565,28.6875,26.5342,62.1426,39.3233,95.5157"/>
			<path fill="#EBEEF0" d="M258.4556,253.1705c8.7627-26.4023,19.334-55.7314,30.5782-84.9941"/>
			<g>
				<path fill="#535352" d="M588.772,777.8375H220.8746V364.6646c0-36.003,6.8721-73.1407,21.6348-116.8702
					c19.4316-58.4433,45.456-125.5673,67.913-175.1328c15.7159-34.9023,41.1973-58.4599,58.1963-65.5625
					c21.668-9.3047,47.2481-9.5185,71.834-0.3125c17.3936,6.543,43.1709,31.2364,58.7881,65.8086
					c22.8848,50.9307,48.9258,118.0703,67.9629,175.2647c14.7305,44.1406,21.5683,81.2617,21.5683,116.8047V777.8375
					L588.772,777.8375z M254.5435,744.1685h300.5605V364.6646c0-31.8106-6.3125-65.545-19.8594-106.168
					c-18.709-56.208-44.2559-122.1309-66.6797-172.0586c-12.7578-28.1943-32.2881-45.2588-39.916-48.1191
					c-16.415-6.1329-32.8721-6.2471-46.8945-0.2139c-7.3819,3.0742-27.6026,19.4482-40.6397,48.415
					c-22.0293,48.6123-47.5762,114.4864-66.6797,171.96c-13.5791,40.2285-19.8916,73.9463-19.8916,106.1846V744.1685
					L254.5435,744.1685z"/>
			</g>
		</g>
		<g>
			<polygon fill="#535352" points="520.1197,195.4995 289.5269,195.4995 289.5269,161.8307 520.1197,161.8307 520.1197,195.4995 			
				"/>
		</g>
		<g>
			<g>
				<path fill="#B0D8EF" d="M358.3765,464.6187c0,26.3037,21.4053,47.6425,47.709,47.708c26.4434,0,47.7158-21.4043,47.6504-47.708
					c0-26.3203-21.3056-47.626-47.6504-47.626C379.7818,416.9928,358.4586,438.2985,358.3765,464.6187z"/>
				<path fill="#535352" d="M406.0855,529.1694h-0.0498c-35.5596-0.0986-64.4931-29.0576-64.4931-64.5507
					c0.1152-35.5596,29.0654-64.461,64.5429-64.461c35.5508,0,64.4854,28.918,64.4854,64.461
					c0.0322,17.1797-6.6094,33.3886-18.7754,45.5869C439.5982,522.4293,423.3883,529.1694,406.0855,529.1694L406.0855,529.1694z
					 M406.0855,433.8268c-16.9658,0-30.8252,13.8427-30.874,30.8408c0,16.9336,13.8584,30.7754,30.9063,30.8252
					c8.2695-0.0166,16.0214-3.2227,21.8076-9.042c5.8193-5.8193,9.0088-13.5625,8.9765-21.7832
					C436.9019,447.6363,423.0592,433.8268,406.0855,433.8268L406.0855,433.8268z"/>
			</g>
			<g>
				<path fill="#B0D8EF" d="M358.4586,305.6461c-0.0821,26.4024,21.3232,47.8066,47.7256,47.708
					c26.2461,0,47.6171-21.4043,47.6171-47.708s-21.371-47.626-47.7158-47.626
					C379.7818,258.0201,358.3765,279.3423,358.4586,305.6461z"/>
				<path fill="#535352" d="M406.0025,370.188c-17.2285,0-33.4219-6.7236-45.5869-18.9219
					c-12.166-12.2148-18.8398-28.4238-18.791-45.6699c-0.0488-17.0811,6.6094-33.2578,18.7578-45.4395
					c12.1982-12.2314,28.4248-18.9716,45.7031-18.9716c35.583,0,64.5508,28.9179,64.5508,64.4609
					c0,35.5918-28.9014,64.542-64.4521,64.542H406.0025L406.0025,370.188z M406.0855,274.8541
					c-8.2695,0-16.0293,3.2227-21.8652,9.0752c-5.7871,5.8027-8.96,13.4971-8.9268,21.667
					c-0.0332,8.335,3.1563,16.0781,8.96,21.8984c5.8027,5.8194,13.5293,9.0254,21.749,9.0254v16.834l0.1153-16.834
					c17.041,0,30.8496-13.8427,30.8496-30.874C436.9674,288.6637,423.1256,274.8541,406.0855,274.8541L406.0855,274.8541z"/>
			</g>
			<g>
				<path fill="#B0D8EF" d="M358.3765,623.5991c0,26.3037,21.4053,47.6104,47.709,47.6104c26.3448,0,47.7158-21.4053,47.7158-47.709
					c0-26.2373-21.371-47.708-47.7158-47.708C379.7818,575.7925,358.4586,597.1968,358.3765,623.5991z"/>
				<path fill="#535352" d="M406.0855,688.0435c-35.5927,0-64.5429-28.9014-64.5429-64.4444
					c0.1152-35.6738,29.0654-64.6406,64.5429-64.6406c35.583,0,64.5508,28.9668,64.5508,64.542
					C470.6363,659.1099,441.6685,688.0435,406.0855,688.0435L406.0855,688.0435z M406.0855,592.6265
					c-16.9658,0-30.8252,13.9082-30.874,31.0058c0,16.9327,13.8418,30.7422,30.874,30.7422
					c17.0401,0,30.8819-13.8418,30.8819-30.874C436.9674,606.4692,423.1256,592.6265,406.0855,592.6265L406.0855,592.6265z"/>
			</g>
		</g>
	</g>
	<g>
		<g>
			<path fill="#535352" d="M242.5426,859.7075c0,8.8448-7.2178,16.045-16.0616,16.045c-8.8613,0-16.0781-7.2002-16.0781-16.045
				c0-8.8447,7.2168-16.0449,16.0781-16.0449C235.3248,843.6627,242.5426,850.8629,242.5426,859.7075"/>
			<path fill="#535352" d="M186.2193,818.0493c0,8.8448-7.2168,16.0782-16.0781,16.0782c-8.8447,0-16.0615-7.2334-16.0615-16.0782
				c0-8.8447,7.2168-16.0781,16.0615-16.0781C179.0025,801.9713,186.2193,809.2047,186.2193,818.0493"/>
			<path fill="#535352" d="M186.7945,901.3336c0,9.042-7.2168,16.2754-16.0615,16.2754c-8.8604,0-16.0781-7.2334-16.0781-16.2754
				c0-8.8115,7.2178-16.0459,16.0781-16.0459C179.5777,885.2877,186.7945,892.522,186.7945,901.3336"/>
		</g>
		<g>
			<path fill="#535352" d="M657.3922,818.0493c0,8.8448-7.2003,16.0782-16.0782,16.0782c-8.8447,0-16.0781-7.2334-16.0781-16.0782
				c0-8.8447,7.2334-16.0781,16.0781-16.0781C650.192,801.9713,657.3922,809.2047,657.3922,818.0493"/>
			<path fill="#535352" d="M597.8472,859.7075c0,9.0089-7.1679,16.21-16.2099,16.21c-8.877,0-16.0781-7.2012-16.0781-16.21
				c0-8.8447,7.2011-16.0449,16.0781-16.0449C590.6793,843.6627,597.8472,850.8629,597.8472,859.7075"/>
			<path fill="#535352" d="M663.2779,901.4976c0,8.8779-7.2012,16.1113-16.0449,16.1113c-8.8457,0-16.0781-7.2334-16.0781-16.1113
				c0-8.8116,7.2324-16.045,16.0781-16.045C656.0767,885.4526,663.2779,892.686,663.2779,901.4976"/>
		</g>
	</g>
</g>
</svg>
