<?xml version="1.0" encoding="utf-8"?>
<!-- Generator: Adobe Illustrator 17.1.0, SVG Export Plug-In . SVG Version: 6.00 Build 0)  -->
<!DOCTYPE svg PUBLIC "-//W3C//DTD SVG 1.1//EN" "http://www.w3.org/Graphics/SVG/1.1/DTD/svg11.dtd">
<svg version="1.1" id="satellite-2" xmlns="http://www.w3.org/2000/svg" xmlns:xlink="http://www.w3.org/1999/xlink" x="0px"
	 y="0px" viewBox="0 0 1010 1010.0001" enable-background="new 0 0 1010 1010.0001" xml:space="preserve">
<g id="satellite-2-satellite-2">
	<g id="satellite-2-satellite">
		<g id="satellite-2-fill">
			<path fill="#B0D8EF" d="M677.7559,790.0001l-43.1036,43.0693c-57.371-57.4043-51.8476-148.4756,3.4854-203.8086
				c55.2998-55.3486,146.4043-60.8564,203.874-3.4355l-49.3495,49.333L677.7559,790.0001z"/>
			<path fill="#E6E6E6" d="M324.8633,324.8473c55.3169-55.399,144.3164-56.6812,199.6826-1.315l207.6875,207.6709l-200.915,201.0137
				L325.5215,526.5187C270.4019,471.3663,269.5469,380.1476,324.8633,324.8473z"/>
			<polygon fill="#A5A5A4" points="993.166,165.3907 759.7031,398.8712 611.0957,250.3136 844.5762,16.8336 			"/>
			<polygon fill="#A5A5A4" points="16.833,844.5763 250.3135,611.1124 398.9038,759.6534 165.4238,993.1671 			"/>
		</g>
		<g id="satellite-2-line">
			<g>
				<path fill="#535352" d="M634.6523,849.9024c-4.3066,0-8.6132-1.6435-11.9013-4.9316
					c-61.7764-61.8096-60.2158-163.9111,3.4853-227.6113c31.1192-31.1348,73.9082-49.0039,117.4063-49.0039
					c41.7051,0,80.8613,16.1757,110.2715,45.5683c3.1562,3.1563,4.9316,7.4297,4.9316,11.9014
					c0,4.4717-1.7754,8.7451-4.9316,11.9014L646.5547,844.9708C643.2666,848.2589,638.96,849.9024,634.6523,849.9024
					L634.6523,849.9024z M743.6426,602.0216c-34.6367,0-68.7481,14.2695-93.6035,39.1406
					c-46.373,46.374-51.5352,118.1465-14.5479,167.2656l181.8954-181.7802C796.2949,610.6681,770.6504,602.0216,743.6426,602.0216
					L743.6426,602.0216z"/>
			</g>
			<g>
				<path fill="#535352" d="M531.3184,749.0509c-4.4551,0-8.7452-1.7754-11.9014-4.9317L313.6191,538.42
					c-62.3359-62.3686-62.6318-163.5166-0.6572-225.4746c30.3457-30.395,70.4732-47.1299,113.0005-47.1299
					c41.7051,0,80.9439,16.2744,110.4849,45.815l207.6875,207.6714c6.5761,6.5752,6.5761,17.2275,0,23.8037L543.2207,744.1192
					C540.0645,747.2755,535.79,749.0509,531.3184,749.0509L531.3184,749.0509z M425.9624,299.482
					c-33.519,0-65.1968,13.2334-89.1807,37.2671c-48.8725,48.8394-48.56,128.6333,0.6412,177.8682l193.8955,193.7969
					l177.1113-177.211L512.6445,335.4337C489.4487,312.255,458.6753,299.482,425.9624,299.482L425.9624,299.482z"/>
			</g>
			<g>
				<path fill="#535352" d="M736.1787,871.5362c-8.3672,0-15.6339-6.2304-16.6846-14.7627
					c-1.1513-9.2216,5.3907-17.622,14.6299-18.7724c29.5732-3.6826,57.1905-16.9981,77.7549-37.5137
					c19.3818-19.3809,32.0899-44.3193,36.7411-72.1172c1.5283-9.1885,10.2256-15.4687,19.382-13.8252
					c9.1718,1.5293,15.3535,10.209,13.8242,19.3819c-5.8184,34.7519-21.7813,66.0019-46.1602,90.3808
					c-25.8419,25.7754-60.4287,42.4942-97.3994,47.0967C737.5762,871.503,736.8691,871.5362,736.1787,871.5362L736.1787,871.5362z"
					/>
			</g>
			<g>
				<path fill="#535352" d="M736.1289,955.1114c-8.7441,0-16.126-6.7568-16.7676-15.6006
					c-0.6738-9.2714,6.2803-17.3427,15.5518-18.0175c49.9248-3.6494,95.3115-24.5264,131.2314-60.3955
					c35.8526-35.9024,56.7305-81.2579,60.3633-131.1661c0.6738-9.2714,8.8926-16.3232,18-15.5673
					c9.2715,0.6748,16.2422,8.7294,15.5674,18.0009c-4.1592,57.2559-29.0635,111.4219-70.1279,152.5518
					c-41.1465,41.0644-95.3125,65.9687-152.5684,70.1445C736.9512,955.0948,736.541,955.1114,736.1289,955.1114L736.1289,955.1114z"
					/>
			</g>
			<g>
				<path fill="#535352" d="M611.0957,415.7047c-4.3066,0-8.6133-1.6441-11.9014-4.9317c-6.5752-6.5756-6.5752-17.228,0-23.8037
					l63.7002-63.6674c6.5762-6.5752,17.2285-6.5752,23.8037,0c6.5752,6.5756,6.5752,17.228,0,23.8037L622.998,410.773
					C619.71,414.0606,615.4023,415.7047,611.0957,415.7047L611.0957,415.7047z"/>
			</g>
			<g>
				<path fill="#535352" d="M759.7031,415.7047c-4.3066,0-8.6142-1.6441-11.9023-4.9317L599.1943,262.2154
					c-3.1562-3.1562-4.9316-7.4301-4.9316-11.9018c0-4.4712,1.7754-8.7451,4.9316-11.9014L832.6748,4.9317
					c6.5752-6.5756,17.2275-6.5756,23.8036,0l148.5899,148.5577c3.1562,3.1562,4.9316,7.4301,4.9316,11.9013
					c0,4.4717-1.7754,8.7456-4.9316,11.9019L771.6045,410.773C768.3164,414.0606,764.0098,415.7047,759.7031,415.7047
					L759.7031,415.7047z M634.8994,250.3136L759.7031,375.068l209.6602-209.6773L844.5762,40.6368L634.8994,250.3136
					L634.8994,250.3136z"/>
			</g>
			<g>
				<path fill="#535352" d="M335.2036,691.6134c-4.3071,0-8.6138-1.6436-11.9018-4.9317c-6.5752-6.5752-6.5752-17.2275,0-23.8037
					l63.7002-63.667c6.5756-6.5761,17.228-6.5761,23.8037,0c6.5756,6.5752,6.5756,17.2276,0,23.8028l-63.7002,63.6679
					C343.8174,689.9698,339.5107,691.6134,335.2036,691.6134L335.2036,691.6134z"/>
			</g>
			<g>
				<path fill="#535352" d="M165.4238,1010.0001c-4.4717,0-8.7456-1.7755-11.9018-4.9316L4.9316,856.4786
					C1.7754,853.3224,0,849.048,0,844.5763c0-4.4707,1.7754-8.7451,4.9316-11.9014L238.4121,599.211
					c6.5752-6.5761,17.2276-6.5761,23.8032,0l148.5904,148.5411c3.1562,3.1562,4.9316,7.4297,4.9316,11.9014
					c0,4.4551-1.7754,8.7451-4.9316,11.9014l-233.4805,233.5137C174.1689,1008.2247,169.895,1010.0001,165.4238,1010.0001
					L165.4238,1010.0001z M40.6367,844.5763l124.7871,124.7871l209.6768-209.71L250.3135,634.9161L40.6367,844.5763
					L40.6367,844.5763z"/>
			</g>
			<g>
				<g>
					<polygon fill="#535352" points="506.1016,525.3517 482.2979,501.5807 506.1016,477.7447 529.9043,501.5152 506.1016,525.3517 
											"/>
				</g>
				<g>
					<polygon fill="#535352" points="553.6914,572.9747 529.9043,549.1544 553.7412,525.3517 577.5273,549.171 553.6914,572.9747 
											"/>
				</g>
				<g>
					<polygon fill="#535352" points="458.478,477.7281 434.6748,453.8917 458.5112,430.0885 482.3145,453.9249 458.478,477.7281 
											"/>
				</g>
			</g>
		</g>
	</g>
</g>
</svg>
