<?xml version="1.0" encoding="utf-8"?>
<!-- Generator: Adobe Illustrator 17.1.0, SVG Export Plug-In . SVG Version: 6.00 Build 0)  -->
<!DOCTYPE svg PUBLIC "-//W3C//DTD SVG 1.1//EN" "http://www.w3.org/Graphics/SVG/1.1/DTD/svg11.dtd">
<svg version="1.1" id="satellite" xmlns="http://www.w3.org/2000/svg" xmlns:xlink="http://www.w3.org/1999/xlink" x="0px" y="0px"
	 viewBox="0 0 1009.9668 1010" enable-background="new 0 0 1009.9668 1010" xml:space="preserve">
<g id="satellite-satellite">
	<g id="satellite-satellite_1_">
		<g>
			<g>
				<g>
					<g>
						<path fill="#FFD353" d="M201.582,419.2417L71.1035,353.9653L350.8584,74.2847l65.3008,130.3882L201.582,419.2417
							L201.582,419.2417z M127.9307,344.7598l67.0107,33.5175l180.2373-180.2456l-33.5264-66.9365L127.9307,344.7598
							L127.9307,344.7598z"/>
					</g>
					<g>
						<polygon fill="#FFD353" points="878.79,902.5928 817.1133,840.8828 840.915,817.0801 902.5928,878.79 878.79,902.5928 						
							"/>
					</g>
					<g>
						<path fill="#FFD353" d="M319.8721,1010L0,690.0459l208.8975-208.8975l319.9218,319.8887L319.8721,1010L319.8721,1010z
							 M47.605,690.0459l272.2671,272.3486l161.3413-161.3574L208.8975,528.7539L47.605,690.0459L47.605,690.0459z"/>
					</g>
					<g>
						<path fill="#FFD353" d="M73.2158,756.2266c-4.3066,0-8.6137-1.6445-11.9013-4.9316
							c-6.5752-6.5752-6.5752-17.2275-0.0083-23.8027l185.0126-185.1113c6.5757-6.5752,17.2358-6.5752,23.8111,0
							c6.5752,6.5752,6.5752,17.2265,0.0078,23.8027L85.125,751.2949C81.8379,754.582,77.5225,756.2266,73.2158,756.2266
							L73.2158,756.2266z"/>
					</g>
					<g>
						<path fill="#FFD353" d="M122.5469,805.541c-4.3067,0-8.6133-1.6435-11.9014-4.9316c-6.5752-6.5752-6.5752-17.2276,0-23.8028
							l185.0293-185.0449c6.5752-6.5762,17.2275-6.5762,23.8027,0c6.5752,6.5742,6.5752,17.2266,0,23.8028L134.4482,800.6094
							C131.1606,803.8975,126.8535,805.541,122.5469,805.541L122.5469,805.541z"/>
					</g>
					<g>
						<path fill="#FFD353" d="M171.8779,854.9053c-4.3066,0-8.6133-1.6436-11.9008-4.9317c-6.5757-6.5752-6.5757-17.2275,0-23.8027
							l185.062-185.0459c6.5752-6.5752,17.2275-6.5752,23.8027,0c6.5752,6.5762,6.5752,17.2275,0,23.8027L183.7793,849.9736
							C180.4922,853.2617,176.1851,854.9053,171.8779,854.9053L171.8779,854.9053z"/>
					</g>
					<g>
						<path fill="#FFD353" d="M221.2754,904.2852c-4.3066,0-8.6138-1.6436-11.9014-4.9307
							c-6.5752-6.5752-6.5752-17.2275-0.0083-23.8027l185.0127-185.1114c6.5752-6.5753,17.2354-6.5753,23.8111,0
							c6.5752,6.5752,6.5752,17.2276,0.0078,23.8028L233.1846,899.3545C229.8975,902.6416,225.582,904.2852,221.2754,904.2852
							L221.2754,904.2852z"/>
					</g>
					<g>
						<path fill="#FFD353" d="M270.5732,953.584c-4.3066,0-8.6133-1.6436-11.9008-4.9317c-6.5757-6.5752-6.5757-17.2265,0-23.8027
							l185.062-185.0947c6.5752-6.5752,17.227-6.5752,23.8027,0c6.5752,6.5752,6.5752,17.2275,0,23.8027L282.4746,948.6523
							C279.1875,951.9404,274.8804,953.584,270.5732,953.584L270.5732,953.584z"/>
					</g>
					<g>
						<path fill="#FFD353" d="M801.0693,528.7861l-319.872-319.9214L690.0459,0l319.9209,319.856L801.0693,528.7861
							L801.0693,528.7861z M528.8018,208.8647l272.2675,272.3165l161.293-161.3252L690.0459,47.6055L528.8018,208.8647
							L528.8018,208.8647z"/>
					</g>
					<g>
						<path fill="#FFD353" d="M554.3311,275.0781c-4.3067,0-8.6133-1.644-11.9014-4.9316c-6.5752-6.5752-6.5752-17.2271,0-23.8023
							L727.4912,61.249c6.5762-6.5752,17.2276-6.5752,23.8027,0c6.5762,6.5752,6.5762,17.2276,0,23.8028L566.2324,270.1465
							C562.9443,273.4341,558.6377,275.0781,554.3311,275.0781L554.3311,275.0781z"/>
					</g>
					<g>
						<path fill="#FFD353" d="M603.6455,324.3599c-4.3066,0-8.6133-1.6436-11.9004-4.9312c-6.5762-6.5757-6.5762-17.2275,0-23.8027
							l185.0938-184.9961c6.5761-6.5757,17.2275-6.5757,23.8027,0c6.5762,6.5752,6.5762,17.227,0,23.8022L615.5469,319.4287
							C612.2588,322.7163,607.9522,324.3599,603.6455,324.3599L603.6455,324.3599z"/>
					</g>
					<g>
						<path fill="#FFD353" d="M652.9932,373.8062c-4.3067,0-8.6133-1.6436-11.9004-4.9312c-6.5762-6.5757-6.5762-17.2275,0-23.8027
							l185.0615-185.0948c6.5752-6.5756,17.2275-6.5756,23.8018,0c6.5761,6.5752,6.5761,17.2271,0,23.8023L664.8945,368.875
							C661.6064,372.1626,657.2998,373.8062,652.9932,373.8062L652.9932,373.8062z"/>
					</g>
					<g>
						<path fill="#FFD353" d="M702.374,423.0552c-4.3066,0-8.6133-1.6436-11.9012-4.9312c-6.5753-6.5757-6.5753-17.2275,0-23.8027
							l185.0947-185.0947c6.5762-6.5757,17.2275-6.5757,23.8027,0c6.5753,6.5752,6.5753,17.227,0,23.8022L714.2754,418.124
							C710.9873,421.4116,706.6807,423.0552,702.374,423.0552L702.374,423.0552z"/>
					</g>
					<g>
						<path fill="#FFD353" d="M751.6553,472.4687c-4.3067,0-8.6133-1.6435-11.9004-4.9316c-6.5762-6.5752-6.5762-17.227,0-23.8022
							l185.1269-185.0787c6.5762-6.5751,17.2286-6.5751,23.8028,0c6.5761,6.5752,6.5761,17.2276,0,23.8028l-185.127,185.0781
							C760.2695,470.8252,755.9629,472.4687,751.6553,472.4687L751.6553,472.4687z"/>
					</g>
					<g>

						<path fill="#FFD353" d="M656.2813,777.6621L656.2813,777.6621c-32.5479,0-63.0577-12.6084-85.8897-35.4902L200.6699,372.5571
							l171.8535-171.813L742.1875,570.375c22.8486,22.833,35.458,53.3584,35.458,85.9062
							c0.0156,32.5479-12.5762,63.0577-35.4258,85.9063C719.3389,765.0537,688.8291,777.6621,656.2813,777.6621L656.2813,777.6621z
							 M248.2915,372.5571L594.21,718.3848c16.4882,16.5214,38.5312,25.6113,62.0714,25.6113
							c23.5556,0,45.6318-9.0899,62.1357-25.6113c16.4883-16.4873,25.5781-38.5469,25.5625-62.1036
							c0-23.5556-9.0908-45.6152-25.5947-62.1035L372.5234,248.3496L248.2915,372.5571L248.2915,372.5571z"/>
					</g>
					<g>
						<path fill="#FFD353" d="M730.3193,944.5098c-4.4716,0-8.7461-1.7755-11.9023-4.9317
							c-29.5225-29.5224-45.7969-68.8105-45.7969-110.5957c0-41.8027,16.2578-81.0742,45.7969-110.5976
							c29.5234-29.5557,68.8115-45.8291,110.5977-45.8291c41.7851,0,81.0566,16.2734,110.5957,45.8134
							c6.576,6.5752,6.576,17.2266,0,23.8028L742.2197,939.5781C739.0635,942.7344,734.79,944.5098,730.3193,944.5098
							L730.3193,944.5098z M829.0147,706.2207c-32.8106,0-63.6163,12.7725-86.795,35.9668
							c-23.1777,23.1621-35.9336,53.9834-35.9336,86.7949c0,27.1065,8.7129,52.8809,24.8379,74.0869l171.9776-171.9931
							C881.8799,714.9492,856.1211,706.2207,829.0147,706.2207L829.0147,706.2207z"/>
					</g>
					<g>
						<path fill="#FFD353" d="M412.1563,626.3633c-4.3067,0-8.6216-1.6436-11.9092-4.9307
							c-6.5674-6.5752-6.5674-17.2441,0.0078-23.8027l24.6904-24.6738c6.5752-6.5752,17.2354-6.5752,23.811,0
							c6.5669,6.5751,6.5669,17.2431-0.0083,23.8017l-24.6904,24.6748C420.77,624.7197,416.4634,626.3633,412.1563,626.3633
							L412.1563,626.3633z"/>
					</g>
					<g>
						<path fill="#FFD353" d="M413.7837,624.7363h-98.728c-9.2959,0-16.833-7.5283-16.833-16.832
							c0-9.3047,7.5371-16.834,16.833-16.834h98.728c9.2959,0,16.833,7.5293,16.833,16.834
							C430.6167,617.208,423.0796,624.7363,413.7837,624.7363L413.7837,624.7363z"/>
					</g>
					<g>
						<path fill="#FFD353" d="M413.7344,723.3984h-0.0083c-9.2959,0-16.8325-7.5449-16.8242-16.8486l0.0493-98.6631
							c0.0078-9.2871,7.5366-16.8164,16.8325-16.8164h0.0083c9.2959,0,16.833,7.5459,16.8247,16.8496l-0.0493,98.662
							C430.5591,715.8701,423.0303,723.3984,413.7344,723.3984L413.7344,723.3984z"/>
					</g>
					<g>
						<path fill="#FFD353" d="M576.1768,444.9185c-4.3067,0-8.6133-1.6441-11.9004-4.9317
							c-6.5762-6.5752-6.5762-17.2275-0.0167-23.8027l29.5557-29.5562c6.5762-6.5752,17.2275-6.5752,23.8027,0
							c6.5753,6.5757,6.5753,17.2276,0,23.8028l-29.5235,29.5561C584.8076,443.2744,580.4844,444.9185,576.1768,444.9185
							L576.1768,444.9185z"/>
					</g>
					<g>
						<path fill="#FFD353" d="M605.7168,415.3623c-9.3037,0-16.833-7.5288-16.833-16.833v-88.9307
							c0-9.3042,7.5293-16.833,16.833-16.833s16.833,7.5288,16.833,16.833v88.9307
							C622.5498,407.8335,615.0205,415.3623,605.7168,415.3623L605.7168,415.3623z"/>
					</g>
					<g>
						<path fill="#FFD353" d="M694.6152,415.3623h-88.8984c-9.3037,0-16.833-7.5288-16.833-16.833
							c0-9.3037,7.5293-16.8325,16.833-16.8325h88.8984c9.3037,0,16.833,7.5288,16.833,16.8325
							C711.4482,407.8335,703.9189,415.3623,694.6152,415.3623L694.6152,415.3623z"/>
					</g>
					<g>
						<polygon fill="#FFD353" points="480.7944,504.3921 311.2832,335.0449 335.0693,311.2422 504.5806,480.5894 480.7944,504.3921 
													"/>
					</g>
					<g>
						<path fill="#FFD353" d="M404.8413,902.79c-4.3066,0-8.6138-1.6435-11.9014-4.9316L106.3057,611.2402
							c-6.5752-6.5742-6.5752-17.2264,0-23.8027c6.5756-6.5742,17.2275-6.5742,23.8027,0l286.6343,286.6182
							c6.5752,6.5752,6.5752,17.2275,0,23.8027C413.4551,901.1465,409.148,902.79,404.8413,902.79L404.8413,902.79z"/>
					</g>
					<g>
						<path fill="#FFD353" d="M885.9893,421.6743c-4.3067,0-8.6133-1.6435-11.9014-4.9311L587.4707,130.0435
							c-6.5752-6.5757-6.5752-17.2276,0-23.8028c6.5752-6.5752,17.2275-6.5752,23.8018,0l286.6181,286.6997
							c6.5752,6.5752,6.5752,17.2276,0,23.8028C894.6025,420.0308,890.2959,421.6743,885.9893,421.6743L885.9893,421.6743z"/>
					</g>
				</g>
				<g>
					<g>

						<path fill="#FFD353" d="M915.3809,967.0635c-13.8409,0-26.8271-5.3916-36.5909-15.1729
							c-9.7324-9.6816-15.124-22.6679-15.1406-36.4765c-0.0156-13.8409,5.3594-26.8438,15.1406-36.6241
							c19.6602-19.6113,53.6377-19.5449,73.1827,0c9.7646,9.7647,15.1562,22.7666,15.1396,36.6084
							c-0.0166,13.8077-5.3916,26.7774-15.1562,36.5255C942.1924,961.6875,929.1885,967.0635,915.3809,967.0635L915.3809,967.0635z
							 M915.4141,897.2832c-4.833,0-9.3858,1.8906-12.8389,5.3262c-3.3857,3.3857-5.2598,7.9229-5.2598,12.7558
							c0.0165,4.8164,1.8906,9.3203,5.2773,12.7072c6.8867,6.9199,18.7558,6.8711,25.5771,0.0156
							c3.4033-3.3858,5.2764-7.9063,5.2764-12.7227c0-4.8329-1.8731-9.3701-5.2764-12.7724
							C924.751,899.1572,920.2139,897.2832,915.4141,897.2832L915.4141,897.2832z"/>
					</g>
				</g>
			</g>
		</g>
	</g>
</g>
</svg>
