<?xml version="1.0" encoding="utf-8"?>
<!-- Generator: Adobe Illustrator 17.1.0, SVG Export Plug-In . SVG Version: 6.00 Build 0)  -->
<!DOCTYPE svg PUBLIC "-//W3C//DTD SVG 1.1//EN" "http://www.w3.org/Graphics/SVG/1.1/DTD/svg11.dtd">
<svg version="1.1" id="saturnus" xmlns="http://www.w3.org/2000/svg" xmlns:xlink="http://www.w3.org/1999/xlink" x="0px" y="0px"
	 viewBox="0 0 996.5302 1010" enable-background="new 0 0 996.5302 1010" xml:space="preserve">
<g id="saturnus-saturnus">
	<g>
		<path fill="#FDF4BC" d="M410.7802,841.3721c114.7681,30.8662,242.3736,1.3477,332.4244-88.7188
			c90.1152-90.0664,119.6171-217.7041,88.7675-332.4316"/>
		<path fill="#535352" d="M499.8275,869.9697c-31.1782,0-62.5864-4.0429-93.4194-12.3261
			c-8.9737-2.4327-14.2823-11.669-11.8828-20.6436c2.416-8.957,11.6694-14.2656,20.6264-11.8662
			c112.6992,30.3076,233.8106-2.0215,316.1524-84.3799c82.3593-82.3086,114.7031-203.4707,84.4121-316.1602
			c-2.416-8.9824,2.9101-18.2109,11.8828-20.6269c8.9746-2.4072,18.2109,2.9092,20.6269,11.8828
			c33.4141,124.294-2.2675,257.9141-93.123,348.7197C686.8138,832.8584,594.3314,869.9697,499.8275,869.9697L499.8275,869.9697z"/>
	</g>
	<g>
		<path fill="#B0D8EF" d="M672.7455,212.5352c112.7148-84.5684,199.4941-125.9454,225.1152-100.3389
			c42.668,42.6836-100.6992,255.2842-320.2773,474.8203C358.0223,806.5947,145.4463,949.9775,102.7636,907.2783
			c-25.6064-25.6396,15.7774-112.4189,100.3218-225.1006l-0.0327-0.1963c-14.8418-25.7714-26.4121-53.6123-34.2188-82.9668
			l-0.2304,0.2305c-25.6226,32.3779-48.9444,63.8018-68.815,93.2549C39.372,782.0732-21.1602,893.7354,47.5234,962.4688
			c68.7168,68.7001,180.396,8.1845,270.002-52.2325C411.2075,847.0586,523.183,751.832,632.7905,642.207
			c109.5918-109.624,204.8027-221.5576,268.0293-315.248c60.4336-89.6309,114.375-185.3926,48.5508-256.8701
			c-66.2188-71.9297-188.1367-13.5674-266.2871,39.1328c-29.4688,19.8545-94.4707,68.372-93.2871,68.8486
			c1.2148,0.4268,0.0644-0.0986,0.0644-0.0986c28.713,7.708,56.5703,19.2207,82.8516,34.498"/>
		<path fill="#535352" d="M122.979,1010c-32.0493,0-61.9292-10.2227-87.3545-35.6318
			c-77.4112-77.4444-13.8223-196.3546,50.2104-291.2863c19.3609-28.6797,42.7647-60.4004,69.5713-94.29l1.2984-1.4463
			l20.6757-20.6758l7.7246,28.0059c7.314,27.5791,18.2598,54.1054,32.5259,78.8906l1.5117,2.6455l1.6934,10.1084l-4.29,5.9492
			C109.8466,834.502,107.1845,887.8848,114.6626,895.3789c6.1635,6.1465,45.1318,6.7383,149.7763-63.835
			c88.8008-59.9072,195.7793-150.9765,301.2461-256.4257c253.2051-253.1719,343.0899-428.1934,320.2774-451.0225
			c-7.5118-7.5107-60.8926-4.8066-203.125,101.9004c-5.9004,4.4541-13.791,4.3965-19.5762,0.4521
			c-19.9688-11.5136-41.088-20.8574-62.963-27.8671l-0.3613,0.8632l-25.7715-9.0234l-1.1348-10.6084
			c-0.8379-8.0371-1.6426-15.6387,100.6504-84.5439C747.806,45.2793,883.8256-25.96,961.7455,58.6914
			c74.7167,81.125,14.9238,185.8682-46.9727,277.6768c-63.7519,94.4541-159.6523,207.292-270.084,317.7382
			C534.2767,764.5527,421.4301,860.4707,326.9267,924.1738C263.1572,967.2021,188.5565,1010,122.979,1010L122.979,1010z
			 M162.4072,634.5488c-18.0127,23.584-34.4815,46.3477-48.665,67.3516C56.9248,786.1328-0.5996,890.5137,59.4228,950.5693
			c60.0718,60.0557,164.437,2.4981,248.6851-54.3027c92.7617-62.5537,203.8486-156.9912,312.7842-265.958
			C729.8412,521.333,824.2963,410.2617,886.8666,317.541c69.8007-103.5264,102.541-179.1299,50.1113-236.0537
			c-63.1289-68.585-192.0156,6.3106-244.4941,41.6885c-17.2071,11.5947-46.4297,32.9277-67.1543,48.4433
			c15.8437,5.8506,31.2597,12.8194,46.1503,20.8643c126.043-93.2705,206.1504-124.2676,238.2812-92.1943
			c65.4453,65.4785-155.6934,334.0586-320.2773,498.6269C482.5536,705.8457,373.8007,798.377,283.2578,859.4512
			C181.9492,927.79,119.0014,947.3477,90.8642,919.1777c-32.0986-32.1308-1.0517-112.3203,92.2686-238.4131
			C175.145,665.8418,168.2089,650.3926,162.4072,634.5488L162.4072,634.5488z"/>
	</g>
	<g>
		<path fill="#FDF4BC" d="M797.3588,337.4531c-14.6602-25.2285-32.543-49.0605-54.1543-70.6728
			c-134.1641-134.1709-351.6705-134.1709-485.8492,0c-134.1797,134.1787-134.1797,351.6943,0,485.873
			c21.6123,21.5967,45.4273,39.4453,70.6558,54.1387"/>
		<path fill="#535352" d="M327.9951,823.6221c-2.8765,0-5.7857-0.7393-8.4483-2.3018
			c-27.4799-16.0078-52.4126-35.1055-74.0908-56.751c-140.5234-140.5234-140.5234-369.1728,0-509.6884
			c68.0752-68.0674,158.5694-105.5567,254.8325-105.5567c96.2461,0,186.7383,37.4893,254.8145,105.5567
			c21.7617,21.7607,40.875,46.6933,56.8008,74.1162c4.6679,8.0371,1.9394,18.333-6.0977,23.0097
			c-8.0683,4.667-18.3418,1.9229-23.0097-6.0976c-14.4629-24.9082-31.8028-47.5235-51.4922-67.2295
			c-61.7149-61.7149-143.7598-95.6953-231.0157-95.6953c-87.2729,0-169.3188,33.9883-231.0341,95.6953
			c-127.3912,127.3994-127.3912,334.6836,0,462.0742c19.624,19.624,42.2392,36.9473,67.2378,51.4766
			c8.0205,4.7002,10.7485,14.9883,6.0644,23.0254C339.4336,820.6309,333.7968,823.6221,327.9951,823.6221L327.9951,823.6221z"/>
	</g>
	<g>
		<path fill="#535352" d="M863.347,954.3828c2.4317,9.1045-2.959,18.4727-12.0957,20.9385
			c-9.1054,2.4326-18.4902-2.9912-20.9238-12.0967c-2.4316-9.1387,2.9922-18.4736,12.0801-20.9062
			C851.5131,939.8203,860.9155,945.2773,863.347,954.3828"/>
		<path fill="#535352" d="M948.7787,612.5576c2.4316,9.1055-2.959,18.4736-12.0645,20.9717
			c-9.1211,2.4326-18.4883-3.0234-20.9219-12.1289c-2.4824-9.1387,2.959-18.4736,12.0645-20.9063
			C936.978,598.0283,946.347,603.4199,948.7787,612.5576"/>
		<path fill="#535352" d="M94.2661,424.5771c2.4326,9.1133-2.9912,18.4903-12.0962,20.9385
			c-9.1221,2.4326-18.4902-2.9912-20.9229-12.0879c-2.4648-9.1298,2.959-18.4814,12.0967-20.9384
			C82.4658,410.0234,91.8339,415.4395,94.2661,424.5771"/>
		<path fill="#535352" d="M418.9648,441.6533c2.4492,9.1143-2.958,18.4981-12.0635,20.9551
			c-9.1382,2.4326-18.4897-2.9824-20.9223-12.0879c-2.4654-9.1465,2.9585-18.4902,12.08-20.9385
			C407.1645,427.1328,416.5327,432.54,418.9648,441.6533"/>
		<path fill="#535352" d="M538.6146,971.4424c2.4668,9.1377-2.957,18.5068-12.0801,20.9717
			c-9.1054,2.4326-18.5215-2.9912-20.955-12.0967c-2.4317-9.1377,2.9921-18.5059,12.1132-20.9385
			C526.7982,956.9463,536.183,962.3369,538.6146,971.4424"/>
		<g>
			<g>
				<path fill="#535352" d="M264.2578,585.3408c-6.9683,0-12.6221-5.6543-12.6221-12.623V490.96
					c0-6.9688,5.6538-12.6221,12.6221-12.6221c6.9687,0,12.623,5.6533,12.623,12.6221v81.7578
					C276.8808,579.6865,271.2264,585.3408,264.2578,585.3408L264.2578,585.3408z"/>
			</g>
			<g>
				<path fill="#535352" d="M305.0839,544.416h-81.7334c-6.9687,0-12.623-5.6533-12.623-12.6221
					c0-6.9687,5.6543-12.6142,12.623-12.6142h81.7334c6.9688,0,12.6221,5.6455,12.6221,12.6142
					C317.706,538.7627,312.0526,544.416,305.0839,544.416L305.0839,544.416z"/>
			</g>
		</g>
		<g>
			<g>
				<path fill="#535352" d="M915.2006,858.3008c-6.9688,0-12.621-5.6543-12.621-12.6231v-81.7499
					c0-6.9678,5.6523-12.6221,12.621-12.6221s12.623,5.6543,12.623,12.6221v81.7499
					C927.8236,852.6465,922.1693,858.3008,915.2006,858.3008L915.2006,858.3008z"/>
			</g>
			<g>
				<path fill="#535352" d="M956.0756,817.4424h-81.7656c-6.9687,0-12.623-5.6543-12.623-12.6221
					c0-6.9687,5.6543-12.623,12.623-12.623h81.7656c6.9688,0,12.623,5.6543,12.623,12.623
					C968.6986,811.7881,963.0443,817.4424,956.0756,817.4424L956.0756,817.4424z"/>
			</g>
		</g>
		<g>
			<g>
				<path fill="#535352" d="M504.9878,106.9863c-6.9683,0-12.6221-5.6533-12.6221-12.622V12.6221
					C492.3657,5.6543,498.0194,0,504.9878,0c6.9687,0,12.623,5.6543,12.623,12.6221v81.7422
					C517.6107,101.333,511.9565,106.9863,504.9878,106.9863L504.9878,106.9863z"/>
			</g>
			<g>
				<path fill="#535352" d="M545.8802,66.1035h-81.7505c-6.9687,0-12.6225-5.6543-12.6225-12.6221
					c0-6.9687,5.6538-12.623,12.6225-12.623h81.7505c6.9688,0,12.6211,5.6543,12.6211,12.623
					C558.5013,60.4492,552.8491,66.1035,545.8802,66.1035L545.8802,66.1035z"/>
			</g>
		</g>
		<g>
			<g>
				<polygon fill="#FDF4BC" points="201.7373,181.7354 151.412,131.4424 201.7373,81.1416 252.0302,131.4424 				"/>
				<path fill="#535352" d="M201.7373,205.5332l-74.1402-74.0908l74.1402-74.0987l74.0913,74.0987L201.7373,205.5332
					L201.7373,205.5332z M175.2109,131.4424l26.5264,26.4941l26.4941-26.4941l-26.4941-26.502L175.2109,131.4424L175.2109,131.4424z
					"/>
			</g>
			<g>
				<line fill="#FDF4BC" x1="201.7373" y1="81.1416" x2="201.7373" y2="47.6299"/>
				<path fill="#535352" d="M201.7373,97.9717c-9.3023,0-16.8296-7.5352-16.8296-16.8301V47.6299
					c0-9.294,7.5273-16.8301,16.8296-16.8301c9.2861,0,16.83,7.5361,16.83,16.8301v33.5117
					C218.5673,90.4365,211.0234,97.9717,201.7373,97.9717L201.7373,97.9717z"/>
			</g>
			<g>
				<line fill="#FDF4BC" x1="252.0302" y1="131.4424" x2="285.5752" y2="131.4424"/>
				<path fill="#535352" d="M285.5752,148.2725h-33.545c-9.3027,0-16.83-7.5352-16.83-16.8301c0-9.294,7.5273-16.8301,16.83-16.8301
					h33.545c9.3022,0,16.8295,7.5361,16.8295,16.8301C302.4047,140.7373,294.8773,148.2725,285.5752,148.2725L285.5752,148.2725z"/>
			</g>
			<g>
				<line fill="#FDF4BC" x1="201.7373" y1="181.7354" x2="201.7373" y2="215.2881"/>
				<path fill="#535352" d="M201.7373,232.1182c-9.3023,0-16.8296-7.5362-16.8296-16.8301v-33.5527
					c0-9.295,7.5273-16.8301,16.8296-16.8301c9.2861,0,16.83,7.5351,16.83,16.8301v33.5527
					C218.5673,224.582,211.0234,232.1182,201.7373,232.1182L201.7373,232.1182z"/>
			</g>
			<g>
				<line fill="#FDF4BC" x1="151.412" y1="131.4424" x2="117.917" y2="131.4424"/>
				<path fill="#535352" d="M151.412,148.2725H117.917c-9.2862,0-16.8301-7.5352-16.8301-16.8301
					c0-9.294,7.5439-16.8301,16.8301-16.8301h33.4951c9.2861,0,16.8301,7.5361,16.8301,16.8301
					C168.2422,140.7373,160.6982,148.2725,151.412,148.2725L151.412,148.2725z"/>
			</g>
		</g>
	</g>
</g>
</svg>
