<?xml version="1.0" encoding="utf-8"?>
<!-- Generator: Adobe Illustrator 17.1.0, SVG Export Plug-In . SVG Version: 6.00 Build 0)  -->
<!DOCTYPE svg PUBLIC "-//W3C//DTD SVG 1.1//EN" "http://www.w3.org/Graphics/SVG/1.1/DTD/svg11.dtd">
<svg version="1.1" id="saucer" xmlns="http://www.w3.org/2000/svg" xmlns:xlink="http://www.w3.org/1999/xlink" x="0px" y="0px"
	 viewBox="0 0 1005.6792 1010" enable-background="new 0 0 1005.6792 1010" xml:space="preserve">
<g id="saucer-saucer">
	<g>
		<g>
			<path fill="#B0D8EF" d="M815.608,575.0898c-7.7745-163.4394-144.6475-285.8916-312.7686-285.8916
				c-168.2021,0-305.084,122.5997-312.7197,286.1534"/>
			<path fill="#535352" d="M190.1363,592.1133c-0.2705,0-0.5323,0-0.8023-0.0166c-9.2397-0.4258-16.393-8.2822-15.9594-17.5303
				C181.42,402.3208,323.0562,272.437,502.8394,272.437c179.6602,0,321.3125,129.7691,329.5137,301.8677
				c0.4414,9.2314-6.6953,17.0879-15.959,17.5303c-9.3789,0.081-17.0889-6.6944-17.5313-15.9434
				c-7.3164-153.896-134.581-269.9321-296.0234-269.9321c-161.5405,0-288.7891,116.1504-295.9746,270.1772
				C206.4473,585.123,199.0328,592.1133,190.1363,592.1133L190.1363,592.1133z"/>
		</g>
		<g>
			<path fill="#535352" d="M502.8394,301.3926c-9.2563,0-16.7612-7.4966-16.7612-16.7613V175.5845
				c0-9.2481,7.5049-16.7613,16.7612-16.7613c9.2559,0,16.7617,7.5132,16.7617,16.7613v109.0468
				C519.6011,293.896,512.0953,301.3926,502.8394,301.3926L502.8394,301.3926z"/>
		</g>
		<g>
			<path fill="#535352" d="M155.6397,937.3564c-3.0034,0-6.04-0.8017-8.7817-2.4873c-7.8814-4.8613-10.3287-15.1904-5.4668-23.0634
				l56.0127-90.8615c4.8613-7.9062,15.1899-10.3291,23.0629-5.4677c7.8814,4.8457,10.3287,15.1738,5.4673,23.0634l-56.0127,90.8615
				C166.7535,934.541,161.2623,937.3564,155.6397,937.3564L155.6397,937.3564z"/>
		</g>
		<g>
			<path fill="#535352" d="M850.0796,937.3564c-5.6308,0-11.1132-2.8154-14.2734-7.955L779.7945,838.54
				c-4.8789-7.8896-2.4238-18.2177,5.4668-23.0634c7.873-4.8615,18.2011-2.4385,23.0469,5.4677l56.0126,90.8615
				c4.878,7.873,2.4229,18.2021-5.4677,23.0634C856.1207,936.5547,853.0914,937.3564,850.0796,937.3564L850.0796,937.3564z"/>
		</g>
		<g>
			<path fill="#FDF4BC" d="M537.5894,139.2466c0,20.0679-15.5498,36.3379-34.75,36.3379c-19.1509,0-34.7095-16.27-34.7095-36.3379
				c0-20.0513,15.5586-36.3218,34.7095-36.3218C522.0396,102.9248,537.5894,119.1953,537.5894,139.2466z"/>
			<path fill="#535352" d="M502.8394,192.3457c-28.3828,0-51.4707-23.8159-51.4707-53.0991c0-29.2671,23.0879-53.083,51.4707-53.083
				c28.416,0,51.5117,23.8159,51.5117,53.083C554.3511,168.5298,531.2554,192.3457,502.8394,192.3457L502.8394,192.3457z
				 M502.8394,119.686c-9.8945,0-17.9482,8.774-17.9482,19.5606c0,10.8032,8.0537,19.5766,17.9482,19.5766
				c9.9199,0,17.9883-8.7734,17.9883-19.5766C520.8277,128.46,512.7593,119.686,502.8394,119.686L502.8394,119.686z"/>
		</g>
		<g>
			<path fill="#B0D8EF" d="M172.9903,956.9336c0,20.0508-15.5259,36.3047-34.7095,36.3047c-19.1592,0-34.709-16.2539-34.709-36.3047
				c0-20.0684,15.5498-36.3379,34.709-36.3379C157.4644,920.5957,172.9903,936.8652,172.9903,956.9336z"/>
			<path fill="#535352" d="M138.2808,1010c-28.3828,0-51.4707-23.7998-51.4707-53.0664c0-29.2676,23.0879-53.0996,51.4707-53.0996
				s51.4707,23.832,51.4707,53.0996C189.7515,986.2002,166.6636,1010,138.2808,1010L138.2808,1010z M138.2808,937.3564
				c-9.8945,0-17.9482,8.7901-17.9482,19.5772s8.0537,19.5439,17.9482,19.5439c9.8945,0,17.9482-8.7568,17.9482-19.5439
				S148.1753,937.3564,138.2808,937.3564L138.2808,937.3564z"/>
		</g>
		<g>
			<path fill="#B0D8EF" d="M902.0992,956.9336c0,20.0508-15.501,36.3047-34.7012,36.3047
				c-19.1836,0-34.7012-16.2539-34.7012-36.3047c0-20.0684,15.5176-36.3379,34.7012-36.3379
				C886.5982,920.5957,902.0992,936.8652,902.0992,956.9336z"/>
			<path fill="#535352" d="M867.398,1010c-28.3828,0-51.463-23.7998-51.463-53.0664c0-29.2676,23.0801-53.0996,51.463-53.0996
				c28.3828,0,51.4629,23.832,51.4629,53.0996C918.8609,986.2002,895.7808,1010,867.398,1010L867.398,1010z M867.398,937.3564
				c-9.8867,0-17.9395,8.7901-17.9395,19.5772s8.0528,19.5439,17.9395,19.5439c9.8867,0,17.9394-8.7568,17.9394-19.5439
				S877.2847,937.3564,867.398,937.3564L867.398,937.3564z"/>
		</g>
		<g>
			<path fill="#B0D8EF" d="M537.5894,956.9336c0,20.0508-15.5498,36.3047-34.75,36.3047c-19.1509,0-34.7095-16.2539-34.7095-36.3047
				c0-20.0684,15.5586-36.3379,34.7095-36.3379C522.0396,920.5957,537.5894,936.8652,537.5894,956.9336z"/>
			<path fill="#535352" d="M502.8394,1010c-28.3828,0-51.4707-23.7998-51.4707-53.0664c0-29.2676,23.0879-53.0996,51.4707-53.0996
				c28.416,0,51.5117,23.832,51.5117,53.0996C554.3511,986.2002,531.2554,1010,502.8394,1010L502.8394,1010z M502.8394,937.3564
				c-9.8945,0-17.9482,8.7901-17.9482,19.5772s8.0537,19.5439,17.9482,19.5439c9.9199,0,17.9883-8.7568,17.9883-19.5439
				S512.7593,937.3564,502.8394,937.3564L502.8394,937.3564z"/>
		</g>
		<g>
			<path fill="#535352" d="M502.8394,937.3564c-9.2563,0-16.7612-7.496-16.7612-16.7607v-90.8613
				c0-9.248,7.5049-16.7617,16.7612-16.7617c9.2559,0,16.7617,7.5136,16.7617,16.7617v90.8613
				C519.6011,929.8604,512.0953,937.3564,502.8394,937.3564L502.8394,937.3564z"/>
		</g>
		<g>
			<path fill="#A5A5A4" d="M867.398,829.7344H138.2808c-67.1191,0-121.5195-56.9629-121.5195-127.1992l0,0
				c0-70.254,54.4004-127.1836,121.5195-127.1836H867.398c67.1113,0,121.5195,56.9296,121.5195,127.1836l0,0
				C988.9175,772.7715,934.5093,829.7344,867.398,829.7344z"/>
			<path fill="#535352" d="M867.398,846.4951H138.2808C62.0367,846.4951,0,781.9219,0,702.5352
				c0-79.3711,62.0367-143.9454,138.2808-143.9454H867.398c76.2441,0,138.2812,64.5743,138.2812,143.9454
				C1005.6792,781.9219,943.6421,846.4951,867.398,846.4951L867.398,846.4951z M138.2808,592.1133
				c-57.7646,0-104.7578,49.5312-104.7578,110.4219c0,60.9062,46.9932,110.4375,104.7578,110.4375H867.398
				c57.7637,0,104.7578-49.5313,104.7578-110.4375c0-60.8907-46.9941-110.4219-104.7578-110.4219H138.2808L138.2808,592.1133z"/>
		</g>
		<g>
			<g>
				<g>
					<path fill="none" d="M463.3423,337.5181"/>
				</g>
			</g>
		</g>
		<g>
			<g>
				<path fill="#FFFFFF" d="M307.1216,483.2134c-2.7417,0-5.5244-0.6709-8.0942-2.0952
					c-8.1021-4.4683-11.0405-14.6661-6.5557-22.7681c5.9995-10.8525,13.2339-21.2793,21.5-30.9858
					c5.999-7.0713,16.565-7.8897,23.628-1.8824c7.0463,5.9908,7.8979,16.5816,1.8906,23.6197
					c-6.8174,8.0044-12.7671,16.5649-17.6861,25.4692C318.7432,480.1035,313.0225,483.2134,307.1216,483.2134L307.1216,483.2134z"/>
			</g>
			<g>
				<path fill="#FFFFFF" d="M371.4825,417.085c-5.6553,0-11.1714-2.8482-14.3306-8.0371
					c-4.8125-7.9058-2.3164-18.2178,5.5898-23.0303c31.5254-19.2168,68.4937-30.3633,106.9268-32.2622
					c9.2813-0.2783,17.1133,6.6782,17.5718,15.9262c0.4502,9.2486-6.6782,17.1055-15.9185,17.5635
					c-32.8677,1.6206-64.3769,11.0982-91.1313,27.4009C377.4654,416.2993,374.4537,417.085,371.4825,417.085L371.4825,417.085z"/>
			</g>
		</g>
	</g>
	<g>
		<path fill="#FDF4BC" d="M226.4908,647.2256c29.2666,0,52.8779,24.7334,52.8779,55.293c0,30.5927-23.6113,55.3085-52.8779,55.3085
			c-29.1856,0-52.7969-24.7158-52.7969-55.3085C173.6939,671.959,197.3052,647.2256,226.4908,647.2256"/>
		<path fill="#535352" d="M226.4908,774.5889c-38.3516,0-69.5581-32.3282-69.5581-72.0703
			c0-39.7266,31.2065-72.0538,69.5581-72.0538c38.4004,0,69.6396,32.3272,69.6396,72.0538
			C296.1304,742.2607,264.8912,774.5889,226.4908,774.5889L226.4908,774.5889z M226.4908,663.9873
			c-19.8716,0-36.0352,17.2842-36.0352,38.5313c0,21.2626,16.1636,38.5478,36.0352,38.5478
			c19.9121,0,36.1167-17.2852,36.1167-38.5478C262.6075,681.2715,246.4029,663.9873,226.4908,663.9873L226.4908,663.9873z"/>
	</g>
	<g>
		<path fill="#FDF4BC" d="M504.4107,647.2256c29.2666,0,52.8701,24.7334,52.8701,55.293c0,30.5927-23.6035,55.3085-52.8701,55.3085
			c-29.1851,0-52.7964-24.7158-52.7964-55.3085C451.6143,671.959,475.2256,647.2256,504.4107,647.2256"/>
		<path fill="#535352" d="M504.4107,774.5889c-38.3511,0-69.5576-32.3282-69.5576-72.0703
			c0-39.7266,31.2065-72.0538,69.5576-72.0538c38.4004,0,69.6318,32.3272,69.6318,72.0538
			C574.0425,742.2607,542.8111,774.5889,504.4107,774.5889L504.4107,774.5889z M504.4107,663.9873
			c-19.8711,0-36.0352,17.2842-36.0352,38.5313c0,21.2626,16.1641,38.5478,36.0352,38.5478
			c19.9043,0,36.1084-17.2852,36.1084-38.5478C540.5191,681.2715,524.315,663.9873,504.4107,663.9873L504.4107,663.9873z"/>
	</g>
	<g>
		<path fill="#FDF4BC" d="M779.1392,647.2256c29.2666,0,52.8867,24.7334,52.8867,55.293c0,30.5927-23.6201,55.3085-52.8867,55.3085
			c-29.1689,0-52.7725-24.7158-52.7725-55.3085C726.3667,671.959,749.9703,647.2256,779.1392,647.2256"/>
		<path fill="#535352" d="M779.1392,774.5889c-38.335,0-69.5331-32.3282-69.5331-72.0703c0-39.7266,31.1982-72.0538,69.5331-72.0538
			c38.4005,0,69.6475,32.3272,69.6475,72.0538C848.7867,742.2607,817.5396,774.5889,779.1392,774.5889L779.1392,774.5889z
			 M779.1392,663.9873c-19.8545,0-36.0107,17.2842-36.0107,38.5313c0,21.2626,16.1562,38.5478,36.0107,38.5478
			c19.9209,0,36.125-17.2852,36.125-38.5478C815.2642,681.2715,799.0601,663.9873,779.1392,663.9873L779.1392,663.9873z"/>
	</g>
	<g>
		<path fill="#535352" d="M98.7837,476.9771c0,9.6738-7.5131,17.5473-16.7612,17.5473c-9.2485,0-16.7612-7.8735-16.7612-17.5473
			c0-9.69,7.5127-17.5469,16.7612-17.5469C91.2706,459.4302,98.7837,467.2871,98.7837,476.9771"/>
		<path fill="#535352" d="M103.5718,262.8613c-9.2485,0-16.7617,7.8404-16.7617,17.5308c0,9.6733,7.5132,17.5469,16.7617,17.5469
			c9.2481,0,16.7608-7.8736,16.7608-17.5469C120.3326,270.7017,112.8199,262.8613,103.5718,262.8613z"/>
		<path fill="#535352" d="M455.2974,0c-9.2319,0-16.7534,7.873-16.7534,17.5469c0,9.6904,7.5215,17.5307,16.7534,17.5307
			c9.2642,0,16.7612-7.8403,16.7612-17.5307C472.0586,7.873,464.5616,0,455.2974,0z"/>
		<path fill="#535352" d="M625.3082,191.3472c-9.2314,0-16.7618,7.8569-16.7618,17.5473c0,9.6739,7.5303,17.5303,16.7618,17.5303
			c9.2646,0,16.7617-7.8564,16.7617-17.5303C642.0699,199.2041,634.5728,191.3472,625.3082,191.3472z"/>
		<path fill="#535352" d="M793.4781,199.7119c-9.2647,0-16.7617,7.8731-16.7617,17.5469c0,9.6899,7.497,17.5469,16.7617,17.5469
			c9.2314,0,16.7617-7.857,16.7617-17.5469C810.2398,207.585,802.7095,199.7119,793.4781,199.7119z"/>
		<path fill="#535352" d="M266.3887,307.5801c-9.2319,0-16.7534,7.873-16.7534,17.5469c0,9.6899,7.5215,17.5468,16.7534,17.5468
			c9.2642,0,16.7612-7.8569,16.7612-17.5468C283.1499,315.4531,275.6529,307.5801,266.3887,307.5801z"/>
		<g>
			<g>
				<polygon fill="#FDF4BC" points="248.1539,174.6514 197.8702,122.0107 248.1539,69.3857 298.438,122.0107 				"/>
				<path fill="#535352" d="M248.1539,198.9097l-73.4698-76.899l73.4698-76.8828l73.4703,76.8828L248.1539,198.9097
					L248.1539,198.9097z M221.0562,122.0107l27.0977,28.3663l27.0986-28.3663L248.1539,93.644L221.0562,122.0107L221.0562,122.0107z
					"/>
			</g>
			<g>
				<line fill="#FDF4BC" x1="248.1539" y1="69.3857" x2="248.1539" y2="34.3081"/>
				<path fill="#535352" d="M248.1539,86.1475c-9.2559,0-16.7608-7.4971-16.7608-16.7618V34.3081
					c0-9.2642,7.5049-16.7612,16.7608-16.7612c9.2568,0,16.7617,7.497,16.7617,16.7612v35.0776
					C264.9156,78.6504,257.4107,86.1475,248.1539,86.1475L248.1539,86.1475z"/>
			</g>
			<g>
				<line fill="#FDF4BC" x1="298.438" y1="122.0107" x2="331.9605" y2="122.0107"/>
				<path fill="#535352" d="M331.9605,138.772H298.438c-9.2563,0-16.7612-7.4971-16.7612-16.7613
					c0-9.2485,7.5049-16.7617,16.7612-16.7617h33.5225c9.2568,0,16.7617,7.5132,16.7617,16.7617
					C348.7222,131.2749,341.2173,138.772,331.9605,138.772L331.9605,138.772z"/>
			</g>
			<g>
				<line fill="#FDF4BC" x1="248.1539" y1="174.6514" x2="248.1539" y2="209.729"/>
				<path fill="#535352" d="M248.1539,226.4907c-9.2559,0-16.7608-7.497-16.7608-16.7617v-35.0776
					c0-9.2642,7.5049-16.7613,16.7608-16.7613c9.2568,0,16.7617,7.4971,16.7617,16.7613v35.0776
					C264.9156,218.9937,257.4107,226.4907,248.1539,226.4907L248.1539,226.4907z"/>
			</g>
			<g>
				<line fill="#FDF4BC" x1="197.8702" y1="122.0107" x2="164.3477" y2="122.0107"/>
				<path fill="#535352" d="M197.8702,138.772h-33.5225c-9.2563,0-16.7612-7.4971-16.7612-16.7613
					c0-9.2485,7.5049-16.7617,16.7612-16.7617h33.5225c9.2563,0,16.7612,7.5132,16.7612,16.7617
					C214.6314,131.2749,207.1265,138.772,197.8702,138.772L197.8702,138.772z"/>
			</g>
		</g>
	</g>
	<g>
		<g>
			<path fill="#535352" d="M717.0699,129.4907c-6.9395,0-12.5703-5.6303-12.5703-12.5708V26.5498
				c0-6.9404,5.6308-12.5713,12.5703-12.5713c6.9404,0,12.5703,5.6309,12.5703,12.5713v90.3701
				C729.6402,123.8604,724.0103,129.4907,717.0699,129.4907L717.0699,129.4907z"/>
		</g>
		<g>
			<path fill="#535352" d="M760.2173,84.2812h-86.3935c-6.9395,0-12.5703-5.6308-12.5703-12.5708
				c0-6.9404,5.6308-12.5712,12.5703-12.5712h86.3935c6.9405,0,12.5713,5.6308,12.5713,12.5712
				C772.7886,78.6504,767.1578,84.2812,760.2173,84.2812L760.2173,84.2812z"/>
		</g>
	</g>
	<g>
		<g>
			<path fill="#535352" d="M842.3218,390.7319c-6.9404,0-12.5713-5.6308-12.5713-12.5713v-90.3701
				c0-6.9404,5.6309-12.5713,12.5713-12.5713c6.9395,0,12.5703,5.6309,12.5703,12.5713v90.3701
				C854.8921,385.1011,849.2613,390.7319,842.3218,390.7319L842.3218,390.7319z"/>
		</g>
		<g>
			<path fill="#535352" d="M885.4527,345.522h-86.377c-6.9394,0-12.5703-5.6309-12.5703-12.5708
				c0-6.9405,5.6309-12.5713,12.5703-12.5713h86.377c6.9394,0,12.5703,5.6308,12.5703,12.5713
				C898.023,339.8911,892.3921,345.522,885.4527,345.522L885.4527,345.522z"/>
		</g>
	</g>
</g>
</svg>
