<?xml version="1.0" encoding="utf-8"?>
<!-- Generator: Adobe Illustrator 17.1.0, SVG Export Plug-In . SVG Version: 6.00 Build 0)  -->
<!DOCTYPE svg PUBLIC "-//W3C//DTD SVG 1.1//EN" "http://www.w3.org/Graphics/SVG/1.1/DTD/svg11.dtd">
<svg version="1.1" id="solar-system" xmlns="http://www.w3.org/2000/svg" xmlns:xlink="http://www.w3.org/1999/xlink" x="0px"
	 y="0px" viewBox="0 0 1009.6964 1010" enable-background="new 0 0 1009.6964 1010" xml:space="preserve">
<g id="solar-system-solar-system">
	<g>
		
		<path fill="#404857" d="M309.8806,492.2529c-46.4155,0-84.1821-37.7666-84.1821-84.1816c0-46.416,37.7666-84.1826,84.1821-84.1826
			s84.1826,37.7666,84.1826,84.1826C394.0631,454.4863,356.2961,492.2529,309.8806,492.2529L309.8806,492.2529z M309.8806,357.5615
			c-27.8525,0-50.5092,22.6572-50.5092,50.5098c0,27.8525,22.6567,50.5088,50.5092,50.5088
			c27.8526,0,50.5093-22.6563,50.5093-50.5088C360.3899,380.2187,337.7332,357.5615,309.8806,357.5615L309.8806,357.5615z"/>
	</g>
	<g>
		<path fill="#404857" d="M504.6183,605.957c-55.7051,0-101.019-45.3134-101.019-101.0107
			c0-55.7051,45.3139-101.0186,101.019-101.0186c55.6885,0,101.0029,45.3135,101.0029,101.0186
			C605.6213,560.6436,560.3069,605.957,504.6183,605.957L504.6183,605.957z M504.6183,437.6006
			c-37.1421,0-67.3462,30.2041-67.3462,67.3457c0,37.1504,30.2041,67.3379,67.3462,67.3379
			c37.126,0,67.3291-30.1875,67.3291-67.3379C571.9474,467.8047,541.7443,437.6006,504.6183,437.6006L504.6183,437.6006z"/>
	</g>
	<g>
		<g>
			<g>
				<path fill="#404857" d="M935.5275,292.0244c-6.0352,0-11.8711-3.2558-14.8965-8.9609
					c-2.5156-4.7686-5.1465-9.4707-7.8594-14.1563c-4.6699-8.04-1.9404-18.333,6.0995-23.0029
					c8.0401-4.6856,18.333-1.9561,23.0186,6.1006c2.9268,5.0478,5.7715,10.1445,8.501,15.3066
					c4.3574,8.2051,1.2168,18.3985-6.9883,22.7559C940.887,291.3994,938.1906,292.0244,935.5275,292.0244L935.5275,292.0244z"/>
			</g>
			<g>
				<path fill="#404857" d="M509.8635,1010c-9.2241,0-16.7383-7.4316-16.8369-16.6387
					c-0.0986-9.3066,7.3662-16.9355,16.6729-17.0342c10.8183-0.0986,21.5547-0.5917,32.1923-1.414
					c9.257-0.8223,17.3624,6.2148,18.087,15.4883c0.7226,9.2724-6.2159,17.3622-15.4727,18.0859
					c-11.4102,0.8877-23.0186,1.4141-34.4619,1.5127C509.9788,1010,509.929,1010,509.8635,1010L509.8635,1010z M459.9128,1008.0273
					c-0.5097,0-1.0356-0.0332-1.562-0.0664c-11.4599-1.0517-22.9692-2.499-34.2153-4.3076
					c-9.1748-1.4464-15.439-10.0947-13.9595-19.2695c1.4634-9.1748,10.0625-15.4883,19.27-13.9756
					c10.5557,1.6768,21.21,3.0254,31.9795,4.0117c9.2569,0.8545,16.0801,9.043,15.2251,18.2832
					C475.8615,1001.4502,468.512,1008.0273,459.9128,1008.0273L459.9128,1008.0273z M592.7795,1002.1074
					c-7.9746,0-15.0605-5.6885-16.541-13.8105c-1.6758-9.1748,4.3907-17.9219,13.5323-19.5987
					c10.5888-1.9404,21.1767-4.2421,31.4697-6.8398c8.9443-2.4014,18.1678,3.124,20.4706,12.167
					c2.2852,9.0098-3.1572,18.1514-12.168,20.4531c-11.0312,2.7949-22.3769,5.2949-33.7217,7.333
					C594.8019,1002.0098,593.7825,1002.1074,592.7795,1002.1074L592.7795,1002.1074z M377.8839,993.4268
					c-1.4301,0-2.9101-0.1651-4.373-0.5596c-11.0488-2.959-22.1641-6.3789-32.999-10.0947
					c-8.7964-3.0255-13.4659-12.5948-10.4571-21.4073c3.0254-8.7802,12.5782-13.4502,21.4073-10.4247
					c10.1118,3.4532,20.4702,6.6426,30.7793,9.4053c8.9775,2.4004,14.3042,11.6406,11.9038,20.6182
					C392.1227,988.4941,385.3162,993.4268,377.8839,993.4268L377.8839,993.4268z M673.1642,980.1738
					c-6.8564,0-13.2851-4.209-15.8008-11.0156c-3.206-8.7471,1.2657-18.415,9.9961-21.6377
					c9.9971-3.6826,20.0098-7.7607,29.7774-12.1338c8.4668-3.749,18.4472,0,22.2451,8.5166c3.7979,8.4844,0,18.4483-8.4834,22.2295
					c-10.4745,4.6699-21.211,9.043-31.9141,12.9893C677.0607,979.8457,675.1038,980.1738,673.1642,980.1738L673.1642,980.1738z
					 M299.5388,965.0146c-2.3677,0-4.768-0.4931-7.0537-1.5781c-10.3584-4.7685-20.7329-10.0293-30.8286-15.5869
					c-8.1553-4.4726-11.1309-14.6992-6.6587-22.8545c4.4722-8.1221,14.6826-11.1142,22.8706-6.6426
					c9.4209,5.1631,19.0889,10.0625,28.7568,14.5352c8.4346,3.9131,12.1177,13.9092,8.2046,22.3603
					C311.9856,961.3975,305.9016,965.0146,299.5388,965.0146L299.5388,965.0146z M748.5667,944.8242
					c-5.8047,0-11.46-3.0254-14.584-8.4179c-4.6534-8.0567-1.9073-18.3497,6.1328-22.9864
					c9.3066-5.3926,18.497-11.1142,27.3105-17.0664c7.711-5.2285,18.168-3.1562,23.3633,4.5713
					c5.1953,7.6943,3.1563,18.1846-4.5547,23.3467c-9.4531,6.3799-19.2861,12.5293-29.25,18.2842
					C754.3381,944.1006,751.4279,944.8242,748.5667,944.8242L748.5667,944.8242z M227.178,923.6475
					c-3.2881,0-6.626-0.9873-9.5528-2.9932c-9.4375-6.543-18.7597-13.4492-27.7207-20.6172
					c-7.2675-5.7881-8.4511-16.3769-2.6474-23.6435c5.8037-7.2676,16.3926-8.4512,23.6601-2.6641
					c8.3526,6.6758,17.0498,13.1211,25.8467,19.2373c7.6616,5.2617,9.5689,15.751,4.291,23.4131
					C237.783,921.1152,232.5217,923.6475,227.178,923.6475L227.178,923.6475z M816.8499,897.1426
					c-4.8184,0-9.6192-2.0713-12.9395-6.0508c-5.9531-7.1348-4.9824-17.7568,2.1699-23.709
					c8.2539-6.873,16.3438-14.1074,24.0381-21.4394c6.708-6.4131,17.3623-6.2159,23.791,0.5586
					c6.4287,6.708,6.1826,17.3623-0.542,23.8076c-8.2382,7.8593-16.9023,15.5869-25.748,22.9531
					C824.4788,895.8604,820.6476,897.1426,816.8499,897.1426L816.8499,897.1426z M162.9563,870.5723
					c-4.2588,0-8.501-1.6115-11.7891-4.8008c-8.1386-7.9902-16.146-16.376-23.8076-24.9912
					c-6.1826-6.9385-5.5742-17.5596,1.3643-23.7754c6.9717-6.1494,17.5766-5.5576,23.7754,1.3818
					c7.1523,8.0235,14.6328,15.8828,22.2295,23.3145c6.6425,6.5107,6.7573,17.165,0.2461,23.8076
					C171.6868,868.8633,167.3132,870.5723,162.9563,870.5723L162.9563,870.5723z M876.1057,838.5771
					c-3.8633,0-7.7441-1.3154-10.917-4.0126c-7.0693-6.0499-7.9092-16.6719-1.874-23.7413
					c7.0039-8.1884,13.7451-16.6728,20.0752-25.1894c5.541-7.4639,16.0801-9.0098,23.5449-3.4854
					c7.4815,5.5245,9.043,16.0801,3.502,23.545c-6.7901,9.1416-14.0244,18.2168-21.5225,26.997
					C885.593,836.5713,880.8577,838.5771,876.1057,838.5771L876.1057,838.5771z M108.6155,807.4355
					c-5.2285,0-10.375-2.4335-13.6631-6.9707c-6.7578-9.3398-13.2354-18.9746-19.2534-28.6425
					c-4.8999-7.8917-2.499-18.2833,5.4096-23.1827c7.8755-4.9327,18.25-2.5322,23.1827,5.3936
					c5.6069,8.9766,11.6411,17.9873,17.955,26.7012c5.4419,7.5302,3.7481,18.0527-3.7822,23.5117
					C115.4719,806.3838,112.0188,807.4355,108.6155,807.4355L108.6155,807.4355z M924.6262,770.8359
					c-2.9267,0-5.9033-0.7558-8.5986-2.3671c-7.9912-4.7354-10.6055-15.0606-5.8535-23.0518
					c5.4413-9.1748,10.6543-18.6777,15.5038-28.2803c4.1767-8.2539,14.3214-11.6406,22.6074-7.4316
					c8.3037,4.209,11.6416,14.338,7.4492,22.624c-5.1963,10.2598-10.7861,20.4541-16.623,30.2861
					C935.9553,767.9102,930.3644,770.8359,924.6262,770.8359L924.6262,770.8359z M65.7517,736.0127
					c-6.2314,0-12.2163-3.4531-15.1431-9.4385c-5.0312-10.292-9.7666-20.8808-14.0742-31.4687
					c-3.4853-8.6162,0.6577-18.4483,9.2735-21.9337c8.6152-3.5186,18.4311,0.6572,21.9336,9.2734
					c4.0117,9.8643,8.4345,19.7627,13.1201,29.332c4.0942,8.3526,0.625,18.4473-7.7276,22.5254
					C70.7502,735.4863,68.2346,736.0127,65.7517,736.0127L65.7517,736.0127z M960.9299,695.8281
					c-2.0059,0-4.0283-0.3281-6.002-1.0849c-8.6807-3.3214-13.0547-13.0547-9.7324-21.7365
					c3.83-10.0615,7.3496-20.3213,10.457-30.5156c2.6953-8.9111,12.1006-13.9101,21.0117-11.2139
					c8.8955,2.7295,13.9102,12.1348,11.1973,21.0127c-3.3379,10.9502-7.1035,21.9336-11.1973,32.7198
					C974.0999,691.7178,967.7034,695.8281,960.9299,695.8281L960.9299,695.8281z M35.696,658.3408
					c-7.3002,0-14.0083-4.7685-16.1626-12.1339c-3.1728-10.9502-6.0341-22.1971-8.4838-33.4432
					c-1.9732-9.0753,3.7817-18.0529,12.874-20.0255c9.1089-1.9737,18.0532,3.7812,20.0259,12.8574
					c2.2856,10.4893,4.9492,20.9795,7.9253,31.207c2.5981,8.9434-2.5318,18.2832-11.4766,20.8809
					C38.8362,658.1436,37.2581,658.3408,35.696,658.3408L35.696,658.3408z M983.8665,615.6582
					c-1.0694,0-2.1377-0.0986-3.2227-0.3291c-9.1416-1.7754-15.0938-10.6211-13.3174-19.7305
					c2.0381-10.457,3.7481-21.1445,5.0635-31.7988c1.1514-9.2402,9.585-15.9482,18.793-14.6328
					c9.2236,1.1504,15.7675,9.5693,14.6161,18.7764c-1.4141,11.4111-3.2383,22.8877-5.4258,34.1005
					C998.8118,610.0674,991.7747,615.6582,983.8665,615.6582L983.8665,615.6582z M19.3855,576.6582
					c-8.4673,0-15.7515-6.3799-16.7046-14.9951C1.3982,550.2852,0.51,538.71,0.0168,527.2988
					c-0.4111-9.2979,6.7911-17.1562,16.0801-17.5517c9.1582-0.46,17.1494,6.8076,17.5606,16.1054
					c0.4599,10.6544,1.2988,21.4727,2.4824,32.0948c1.0361,9.2402-5.6231,17.5594-14.8633,18.6113
					C20.635,576.625,20.01,576.6582,19.3855,576.6582L19.3855,576.6582z M992.7443,532.8564c-0.1309,0-0.2461,0-0.377,0
					c-9.3066-0.2304-16.6729-7.9248-16.459-17.2226c0.0821-3.5518,0.1153-7.1192,0.1153-10.6875
					c0-7.2012-0.1641-14.3867-0.4766-21.5547c-0.4121-9.29,6.7735-17.1494,16.0635-17.5605
					c9.1572-0.7071,17.165,6.7744,17.5762,16.08c0.3291,7.6289,0.5096,15.3076,0.5096,23.0186
					c0,3.8476-0.0331,7.6455-0.1318,11.4599C1009.3674,525.5566,1001.8693,532.8564,992.7443,532.8564L992.7443,532.8564z
					 M17.1824,493.3711c-0.3286,0-0.6411-0.0166-0.9702-0.0322c-9.2896-0.5264-16.376-8.4844-15.8497-17.7744
					c0.6573-11.3936,1.71-22.9522,3.1402-34.3301c1.1509-9.2403,9.4541-15.752,18.7934-14.6172
					c9.2237,1.1514,15.7676,9.5693,14.6163,18.793c-1.3316,10.6377-2.3184,21.4404-2.9263,32.0947
					C33.4597,486.4492,26.0442,493.3711,17.1824,493.3711L17.1824,493.3711z M987.549,449.6689
					c-8.204,0-15.4062-6.0175-16.6387-14.3701c-1.5625-10.6377-3.5195-21.292-5.8047-31.6836
					c-1.9892-9.0761,3.7656-18.0537,12.8574-20.0429c9.0606-1.9727,18.0537,3.749,20.043,12.8418
					c2.4502,11.1474,4.5381,22.5576,6.2148,33.9521c1.3652,9.207-4.998,17.7568-14.1895,19.1221
					C989.1935,449.6035,988.3712,449.6689,987.549,449.6689L987.549,449.6689z M29.0208,410.915
					c-1.2667,0-2.5489-0.1308-3.8311-0.4267c-9.043-2.1045-14.6992-11.1485-12.5947-20.2071
					c2.5815-11.0986,5.5903-22.3125,8.9609-33.3447c2.7295-8.8945,12.1504-13.9101,21.0293-11.164
					c8.895,2.7129,13.8936,12.1347,11.1641,21.0293c-3.1407,10.2763-5.9522,20.7334-8.3526,31.0752
					C43.6047,405.6543,36.6663,410.915,29.0208,410.915L29.0208,410.915z M968.3284,368.5937
					c-7.0703,0-13.6465-4.4882-15.9815-11.5585c-3.3369-10.128-7.0869-20.2891-11.1474-30.2032
					c-3.5186-8.5996,0.6084-18.4316,9.2245-21.9502c8.6309-3.5351,18.4472,0.625,21.9492,9.2237
					c4.3408,10.6211,8.3691,21.5224,11.9531,32.374c2.9102,8.8291-1.8906,18.3496-10.7197,21.2598
					C971.8635,368.3311,970.0714,368.5937,968.3284,368.5937L968.3284,368.5937z M54.7356,331.665
					c-2.1865,0-4.4063-0.4267-6.544-1.331c-8.5664-3.6172-12.5781-13.499-8.9443-22.0654
					c4.4229-10.4737,9.3223-21.0127,14.5347-31.3213c4.1929-8.3037,14.3374-11.6416,22.624-7.4317
					c8.3032,4.1924,11.6245,14.3369,7.4316,22.624c-4.8833,9.6348-9.4536,19.4668-13.5805,29.25
					C67.5442,327.8184,61.2961,331.665,54.7356,331.665L54.7356,331.665z M93.6702,257.9727c-3.1075,0-6.2647-0.8545-9.0928-2.6797
					c-7.8096-5.0313-10.0786-15.4385-5.0474-23.2657c6.2315-9.7002,12.8575-19.2529,19.6646-28.3945
					c5.5571-7.4648,16.0967-8.9941,23.561-3.4365c7.4644,5.5576,8.9937,16.1133,3.4365,23.5615
					c-6.3466,8.5166-12.5122,17.4277-18.3325,26.4873C104.637,255.2432,99.2112,257.9727,93.6702,257.9727L93.6702,257.9727z
					 M144.574,191.9922c-4.0611,0-8.1387-1.4639-11.3614-4.4229c-6.8559-6.2812-7.333-16.9355-1.0522-23.792
					c7.7441-8.4511,15.8828-16.7373,24.186-24.6298c6.7246-6.3789,17.3955-6.1163,23.7915,0.5918
					c6.4121,6.7412,6.1495,17.3955-0.5918,23.8076c-7.7441,7.3662-15.3242,15.0937-22.5586,22.9863
					C153.6663,190.1504,149.1282,191.9922,144.574,191.9922L144.574,191.9922z M205.886,135.5635
					c-5.0313,0-9.9971-2.2364-13.3184-6.5274c-5.7051-7.3496-4.3569-17.9218,2.9927-23.6113
					c9.0596-7.0205,18.4644-13.8271,27.9678-20.1904c7.7275-5.2285,18.1845-3.1407,23.3638,4.6035
					c5.1792,7.7119,3.124,18.1689-4.6036,23.3476c-8.8623,5.9522-17.6425,12.2989-26.0937,18.8428
					C213.1204,134.4121,209.4866,135.5635,205.886,135.5635L205.886,135.5635z M275.8459,90.332
					c-6.0341,0-11.8545-3.2392-14.8798-8.9453c-4.3569-8.2207-1.2334-18.3984,6.9716-22.7715
					c10.1773-5.3925,20.585-10.4736,30.9766-15.1103c8.5-3.7979,18.4473,0.0332,22.229,8.501
					c3.7984,8.5-0.0161,18.4472-8.5005,22.2451c-9.6841,4.3242-19.4179,9.0761-28.9209,14.124
					C281.2063,89.707,278.5095,90.332,275.8459,90.332L275.8459,90.332z M710.3391,78.8721c-2.3838,0-4.8008-0.5098-7.1025-1.5791
					c-9.6192-4.4883-19.5996-8.7139-29.6289-12.5616c-8.6817-3.3212-13.0215-13.0712-9.6836-21.7529
					c3.3047-8.6806,13.0703-12.9883,21.7363-9.6836c10.7695,4.127,21.4727,8.6651,31.7979,13.4824
					c8.4345,3.9297,12.0849,13.9424,8.1552,22.377C722.7521,75.2705,716.6857,78.8721,710.3391,78.8721L710.3391,78.8721z
					 M352.4485,57.7109c-7.086,0-13.6797-4.4882-15.9981-11.5918c-2.9101-8.8291,1.9078-18.3486,10.7369-21.2431
					c11.0493-3.6172,22.2133-6.8555,33.1962-9.6016c9.0103-2.2363,18.1685,3.2227,20.4371,12.2324
					c2.2529,9.0274-3.2227,18.169-12.2491,20.4209c-10.2104,2.5655-20.6015,5.5743-30.8779,8.9444
					C355.9509,57.4482,354.175,57.7109,352.4485,57.7109L352.4485,57.7109z M632.0588,50.3281c-1.4464,0-2.9102-0.1806-4.373-0.5752
					c-10.3584-2.7949-20.9141-5.2451-31.4043-7.3164c-9.1084-1.8086-15.044-10.6709-13.2354-19.7959
					c1.8087-9.1094,10.5889-15.0117,19.7803-13.2519c11.2129,2.2353,22.5244,4.8662,33.6065,7.8427
					c8.9775,2.4161,14.3046,11.6573,11.8877,20.6338C646.298,45.3799,639.4905,50.3281,632.0588,50.3281L632.0588,50.3281z
					 M433.5237,38.6543c-8.2212,0-15.4224-6.0342-16.6392-14.4023c-1.3481-9.2081,5.0313-17.7579,14.2222-19.0889
					c11.3447-1.6611,22.8706-2.9434,34.2978-3.8154c9.5035-0.6739,17.3623,6.2324,18.0694,15.5048
					c0.707,9.2735-6.2315,17.3633-15.5044,18.0704c-10.6543,0.8212-21.4238,2.0058-31.9961,3.5507
					C435.1516,38.6055,434.3293,38.6543,433.5237,38.6543L433.5237,38.6543z M550.0471,35.6133
					c-0.5097,0-1.0195-0.0166-1.5449-0.0664c-10.6387-0.9698-21.375-1.6114-32.21-1.874
					c-9.29-0.2305-16.6391-7.9581-16.4091-17.2637C500.1129,7.1191,507.8079,0.2461,517.131,0
					c11.3613,0.2959,22.9356,0.9697,34.4287,2.0059c9.2569,0.8545,16.0801,9.0429,15.2412,18.2998
					C566.012,29.0361,558.6624,35.6133,550.0471,35.6133L550.0471,35.6133z"/>
			</g>
			<g>
				<path fill="#404857" d="M770.2209,112.0518c-3.1406,0-6.33-0.8721-9.1583-2.7295c-4.5214-2.9434-9.0927-5.8203-13.746-8.5996
					c-7.9747-4.7842-10.5723-15.126-5.7872-23.1006c4.7676-7.958,15.1094-10.5391,23.084-5.8037
					c5.0157,3.0087,9.9317,6.1162,14.8145,9.289c7.793,5.0645,9.9962,15.4883,4.9326,23.2822
					C781.1212,109.3545,775.7288,112.0518,770.2209,112.0518L770.2209,112.0518z"/>
			</g>
		</g>
	</g>
	<g>
		<g>
			<g>
				<path fill="#404857" d="M505.9993,875.3408c-9.2569,0-16.7871-7.4648-16.8365-16.7373
					c-0.0654-9.3066,7.4317-16.8701,16.7378-16.9355c5.3926-0.0332,10.7696-0.1973,16.0967-0.4279
					c8.9776-0.7226,17.1651,6.709,17.6094,16.0147c0.4443,9.2734-6.7245,17.165-16.0146,17.626
					c-5.7871,0.2627-11.6406,0.4277-17.4941,0.4599C506.0647,875.3408,506.0324,875.3408,505.9993,875.3408L505.9993,875.3408z"/>
			</g>
			<g>
				<path fill="#404857" d="M456.3615,872.0859c-0.7564,0-1.5293-0.0332-2.3023-0.165
					c-11.4106-1.5459-22.8867-3.6826-34.1333-6.3135c-9.0429-2.1045-14.666-11.1806-12.5449-20.2236
					c2.1211-9.0762,11.1641-14.6338,20.2236-12.5615c10.2105,2.4004,20.6509,4.3408,31.0259,5.7548
					c9.207,1.2491,15.6524,9.7667,14.3862,18.9737C471.866,865.9688,464.6482,872.0859,456.3615,872.0859L456.3615,872.0859z
					 M376.3058,851.3359c-2.0391,0-4.1103-0.3613-6.1162-1.1513c-10.6382-4.1436-21.3086-8.878-31.7002-14.0742
					c-8.3193-4.1758-11.6904-14.3038-7.5137-22.6241c4.1597-8.2861,14.2715-11.6406,22.5909-7.497
					c9.4707,4.7353,19.1875,9.0752,28.8554,12.8242c8.6651,3.3877,12.94,13.1533,9.5694,21.8017
					C389.3938,847.291,383.0305,851.3359,376.3058,851.3359L376.3058,851.3359z M303.304,812.5
					c-3.3213,0-6.6592-0.9531-9.586-2.9922c-9.4541-6.5771-18.727-13.6465-27.5561-21.0781
					c-7.1197-5.9854-8.024-16.6074-2.0386-23.7422c6.001-7.1035,16.6059-8.0244,23.709-2.0391
					c8.0566,6.7734,16.4912,13.2188,25.0898,19.204c7.6294,5.294,9.5205,15.7842,4.2256,23.4131
					C313.8762,810.001,308.6311,812.5,303.304,812.5L303.304,812.5z M241.3342,757.7812c-4.6201,0-9.207-1.874-12.5449-5.5898
					c-7.6123-8.4844-14.9951-17.5273-21.917-26.833c-5.5576-7.4648-4.0117-18.0205,3.4531-23.5781
					c7.4644-5.5244,18.0039-3.9785,23.5606,3.4854c6.314,8.4844,13.039,16.7051,19.9775,24.4336
					c6.2149,6.9375,5.6231,17.5918-1.2827,23.7744C249.3581,756.3672,245.3464,757.7812,241.3342,757.7812L241.3342,757.7812z
					 M781.1057,742.1289c-3.6836,0-7.3994-1.2168-10.5078-3.6836c-7.2666-5.8203-8.4502-16.4082-2.6465-23.6758
					c6.5117-8.1552,12.7422-16.7383,18.5137-25.5508c5.0976-7.7607,15.5371-9.9638,23.3144-4.8339
					c7.7775,5.0976,9.9473,15.5214,4.8506,23.2822c-6.3467,9.7002-13.2031,19.1709-20.372,28.1152
					C790.9376,739.959,786.0374,742.1289,781.1057,742.1289L781.1057,742.1289z M193.7024,690.2715
					c-5.9688,0-11.7559-3.1904-14.8145-8.8135c-5.5244-10.1934-10.6045-20.6836-15.1098-31.2393
					c-3.6499-8.5498,0.3286-18.4472,8.8784-22.0976c8.5498-3.6836,18.4482,0.3281,22.0981,8.8789
					c4.0943,9.6016,8.7144,19.1377,13.729,28.4111c4.4395,8.1553,1.4141,18.382-6.7578,22.8214
					C199.1614,689.6133,196.4153,690.2715,193.7024,690.2715L193.7024,690.2715z M824.7747,671.9219
					c-2.4004,0-4.834-0.4932-7.1524-1.5782c-8.418-3.9785-12.0351-14.0087-8.0732-22.4267
					c4.456-9.4707,8.5176-19.2705,12.0527-29.1358c3.1406-8.746,12.7754-13.3173,21.5391-10.1601
					c8.7461,3.1562,13.3008,12.791,10.1601,21.5391c-3.9131,10.8837-8.3691,21.6699-13.2851,32.0937
					C837.1555,668.3711,831.0881,671.9219,824.7747,671.9219L824.7747,671.9219z M163.0549,613.4873
					c-7.4482,0-14.2553-4.9648-16.2612-12.4629c-2.9761-11.1142-5.4585-22.5254-7.3823-33.9033
					c-1.562-9.1738,4.6035-17.8555,13.7783-19.4336c9.1909-1.4141,17.8721,4.6367,19.418,13.8105
					c1.7588,10.3262,4.0117,20.7168,6.708,30.8125c2.417,8.9776-2.9268,18.2178-11.9038,20.6182
					C165.9485,613.3232,164.4851,613.4873,163.0549,613.4873L163.0549,613.4873z M850.9171,593.4941
					c-1.1338,0-2.2685-0.0986-3.4199-0.3291c-9.0928-1.874-14.9619-10.7851-13.0879-19.8945
					c2.1045-10.2598,3.7647-20.749,4.8994-31.1738c1.0197-9.2403,9.3721-15.8495,18.5801-14.8965
					c9.2403,1.0195,15.916,9.3389,14.8965,18.5801c-1.2666,11.4433-3.0752,22.9853-5.3936,34.2646
					C865.7482,588.0352,858.7433,593.4941,850.9171,593.4941L850.9171,593.4941z M151.1672,531.6729
					c-9.0761,0-16.5732-7.2344-16.8203-16.3682c-0.0986-3.4522-0.1474-6.9219-0.1313-10.4072c0-8.1065,0.2632-16.212,0.7729-24.252
					c0.6084-9.2734,8.7305-16.0146,17.8887-15.7187c9.2734,0.5918,16.3105,8.5996,15.7187,17.8886
					c-0.4609,7.3174-0.707,14.6992-0.707,22.1309c-0.0166,3.1738,0.0327,6.3135,0.1148,9.4375
					c0.2631,9.2978-7.0699,17.0264-16.3599,17.2891C151.4797,531.6729,151.3313,531.6729,151.1672,531.6729L151.1672,531.6729z
					 M858.0042,511.1123c-9.0762,0-16.5577-7.2178-16.8204-16.3437c-0.3125-10.4893-1.118-21.0782-2.4004-31.4698
					c-1.1347-9.2236,5.4258-17.625,14.6495-18.7597c9.2236-1.2168,17.6416,5.4091,18.7763,14.6494
					c1.3985,11.4111,2.2852,23.0517,2.6309,34.5937c0.2637,9.2901-7.0371,17.0508-16.3438,17.3301
					C858.3322,511.1123,858.1682,511.1123,858.0042,511.1123L858.0042,511.1123z M158.5002,449.3564
					c-1.1347,0-2.3017-0.1152-3.4526-0.3613c-9.1089-1.8916-14.9458-10.8027-13.0552-19.9111
					c2.3682-11.3613,5.2945-22.6738,8.6817-33.624c2.7456-8.8789,12.1504-13.8604,21.062-11.0987
					c8.8784,2.7461,13.8603,12.1836,11.0981,21.0625c-3.0742,9.9307-5.7217,20.2071-7.8755,30.5323
					C173.2981,443.8975,166.3103,449.3564,158.5002,449.3564L158.5002,449.3564z M845.9514,429.3301
					c-7.415,0-14.2051-4.9326-16.2441-12.4297c-2.7461-10.1611-5.9844-20.2568-9.6514-30.0391
					c-3.2725-8.6982,1.1514-18.415,9.8652-21.6709c8.6651-3.206,18.4151,1.167,21.6709,9.8653
					c4.0274,10.7529,7.5957,21.8672,10.6212,33.0312c2.4336,8.9776-2.877,18.2344-11.8554,20.6514
					C848.8947,429.1494,847.4152,429.3301,845.9514,429.3301L845.9514,429.3301z M184.7415,370.9619
					c-2.417,0-4.8667-0.5098-7.2012-1.6113c-8.4024-3.9795-11.9863-14.0254-8.0078-22.4268
					c4.9492-10.4736,10.4248-20.7832,16.2778-30.6474c4.7515-7.9746,15.0772-10.6553,23.0845-5.8702
					c7.9907,4.7354,10.6211,15.0772,5.8696,23.0674c-5.311,8.9453-10.2925,18.3164-14.7974,27.8526
					C197.0891,367.4102,191.0388,370.9619,184.7415,370.9619L184.7415,370.9619z M815.2053,352.6621
					c-5.9687,0-11.7392-3.1738-14.7969-8.7637c-5.0156-9.1914-10.5234-18.2509-16.3925-26.9482
					c-5.1964-7.7109-3.174-18.1846,4.537-23.3809c7.7109-5.1787,18.168-3.1728,23.3808,4.5381
					c6.4454,9.586,12.5284,19.5498,18.0372,29.6446c4.4551,8.1718,1.4462,18.3984-6.7255,22.8544
					C820.6974,352.0039,817.9182,352.6621,815.2053,352.6621L815.2053,352.6621z M228.5588,300.8535
					c-3.6992,0-7.415-1.2002-10.5224-3.6992c-7.251-5.8047-8.4346-16.4092-2.6143-23.6602
					c7.2676-9.0761,14.9951-17.8398,22.9693-26.0605c6.4614-6.6748,17.1323-6.8232,23.8081-0.3613
					c6.6753,6.4775,6.8398,17.1318,0.3613,23.8076c-7.2344,7.4648-14.2549,15.4228-20.8643,23.6601
					C238.3752,298.6992,233.4915,300.8535,228.5588,300.8535L228.5588,300.8535z M767.3928,285.2334
					c-4.6035,0-9.1914-1.874-12.5127-5.5732c-7.0049-7.7608-14.4687-15.3243-22.1963-22.4434
					c-6.8398-6.2979-7.2841-16.9522-0.9707-23.792c6.2646-6.8398,16.9355-7.2832,23.7754-0.9697
					c8.5176,7.8261,16.7207,16.1299,24.416,24.6797c6.2149,6.9052,5.6563,17.5595-1.25,23.7744
					C775.4319,283.8027,771.4044,285.2334,767.3928,285.2334L767.3928,285.2334z M287.4211,242.7969
					c-5.0146,0-9.9638-2.2198-13.2851-6.4776c-5.7217-7.333-4.4229-17.9052,2.9101-23.6269
					c9.0762-7.0869,18.6289-13.8281,28.3623-20.043c7.8428-4.998,18.2505-2.6963,23.2491,5.1299
					c4.998,7.8428,2.6963,18.25-5.1465,23.249c-8.8457,5.6397-17.4942,11.7725-25.7481,18.2012
					C294.6887,241.6299,291.0383,242.7969,287.4211,242.7969L287.4211,242.7969z M705.2913,230.6465
					c-3.3047,0-6.626-0.9697-9.5528-2.9756c-8.6484-5.9688-17.6582-11.5918-26.7832-16.7051
					c-8.1064-4.5381-11-14.7978-6.4619-22.9033c4.5537-8.1064,14.8311-11,22.9199-6.4619
					c10.0293,5.6064,19.9444,11.789,29.4473,18.3486c7.6621,5.2949,9.585,15.7686,4.292,23.4297
					C715.8967,228.1143,710.6349,230.6465,705.2913,230.6465L705.2913,230.6465z M358.0554,199.9336
					c-6.3794,0-12.4956-3.6504-15.3237-9.833c-3.8643-8.4668-0.1318-18.4473,8.3193-22.3115
					c10.523-4.8008,21.3584-9.1416,32.2588-12.9063c8.813-3.0088,18.3823,1.6436,21.4077,10.4238
					c3.0254,8.7959-1.644,18.3653-10.4243,21.4073c-9.8813,3.4033-19.7139,7.3496-29.25,11.6904
					C362.7742,199.4395,360.4065,199.9336,358.0554,199.9336L358.0554,199.9336z M632.2239,191.9258
					c-2.0225,0-4.0772-0.3613-6.0674-1.1348c-9.7988-3.7812-19.8613-7.1357-29.9082-9.9629
					c-8.96-2.5322-14.1719-11.8222-11.6406-20.7832c2.5156-8.9443,11.8056-14.1396,20.7666-11.6406
					c11.0654,3.124,22.1474,6.8066,32.917,10.9834c8.6806,3.3535,12.9882,13.1035,9.6347,21.7685
					C645.3439,187.832,638.9807,191.9258,632.2239,191.9258L632.2239,191.9258z M436.7462,174.7109
					c-7.9087,0-14.9624-5.5898-16.5078-13.6298c-1.7759-9.125,4.1929-17.9707,13.3179-19.7305
					c11.3286-2.2031,22.8706-3.8965,34.3144-5.0313c9.273-0.7724,17.4942,5.8369,18.4146,15.0938
					c0.9209,9.2402-5.8364,17.4941-15.0771,18.415c-10.4239,1.0362-20.9302,2.5811-31.2393,4.5703
					C438.8835,174.6123,437.7986,174.7109,436.7462,174.7109L436.7462,174.7109z M552.2014,171.3896
					c-0.7568,0-1.5127-0.0488-2.2695-0.1474c-10.3906-1.3975-20.963-2.3184-31.4199-2.7461
					c-9.2901-0.3613-16.5245-8.2041-16.146-17.4941c0.3613-9.2891,7.8589-16.6885,17.4936-16.1456
					c11.5098,0.46,23.1348,1.4629,34.5781,3.0088c9.2072,1.2491,15.668,9.7168,14.4356,18.9405
					C567.7228,165.2568,560.5042,171.3896,552.2014,171.3896L552.2014,171.3896z"/>
			</g>
			<g>
				<path fill="#404857" d="M734.1467,790.7305c-4.7343,0-9.4375-1.9727-12.7754-5.8526
					c-6.0664-7.0371-5.2617-17.6591,1.7754-23.7422c4.0625-3.4854,8.0742-7.0703,11.9541-10.7197
					c6.7744-6.3476,17.4286-6.0508,23.8076,0.6895c6.379,6.7744,6.0665,17.4287-0.6904,23.8087
					c-4.2588,4.0117-8.665,7.9248-13.1045,11.7392C741.9396,789.416,738.0275,790.7305,734.1467,790.7305L734.1467,790.7305z"/>
			</g>
		</g>
	</g>
	<g>
		<g>
			<g>
				<path fill="#404857" d="M387.1082,337.1074c-5.5572,0-10.9996-2.7451-14.2056-7.7763
					c-5.0147-7.8262-2.7129-18.2344,5.1133-23.2491c5.0966-3.2558,10.3091-6.2968,15.6528-9.1582
					c8.2041-4.4062,18.3984-1.2988,22.7881,6.8731c4.3901,8.1875,1.3154,18.3984-6.8726,22.7881
					c-4.5874,2.4658-9.0595,5.08-13.4331,7.8759C393.3396,336.2529,390.1995,337.1074,387.1082,337.1074L387.1082,337.1074z"/>
			</g>
			<g>
				<path fill="#404857" d="M504.6677,740.6484c-6.2646,0-12.4135-0.2295-18.497-0.7226
					c-9.2735-0.7237-16.1954-8.8125-15.4717-18.086c0.7231-9.2734,8.977-16.08,18.102-15.4882
					c9.8653,0.789,19.9942,0.8222,29.9903,0.1308c9.1093-0.4599,17.3134,6.3799,17.9375,15.6533
					c0.625,9.2725-6.3789,17.2969-15.6524,17.9541C515.6506,740.4512,510.176,740.6484,504.6677,740.6484L504.6677,740.6484z
					 M567.7551,731.4082c-7.2343,0-13.9267-4.7021-16.1123-12.002c-2.6806-8.9121,2.3672-18.2832,11.2783-20.9804
					c9.5528-2.8604,18.9581-6.4776,27.9346-10.7197c8.4024-3.9786,18.4317-0.3946,22.4102,8.0234
					c3.9795,8.3857,0.3945,18.4482-8.0069,22.4267c-10.4892,4.9659-21.4736,9.1749-32.6377,12.5293
					C570.9943,731.1787,569.3665,731.4082,567.7551,731.4082L567.7551,731.4082z M439.7224,730.8828
					c-1.6606,0-3.3379-0.2637-5.0151-0.7568c-11.0655-3.4521-21.999-7.7608-32.5054-12.8242
					c-8.3691-4.045-11.8872-14.1075-7.8594-22.4932c4.0283-8.3848,14.1236-11.9365,22.4761-7.8262
					c9.0269,4.3408,18.3984,8.0235,27.8857,10.9834c8.8785,2.7627,13.8438,12.2002,11.0816,21.0791
					C453.55,726.2461,446.8909,730.8828,439.7224,730.8828L439.7224,730.8828z M639.426,694.25
					c-4.999,0-9.9482-2.2363-13.2695-6.4785c-5.7383-7.332-4.4395-17.8887,2.8769-23.6426
					c7.8438-6.1172,15.3086-12.8906,22.1641-20.125c6.3965-6.7744,17.0508-7.0703,23.8086-0.6582
					c6.7402,6.4121,7.0371,17.0664,0.6406,23.8086c-8.0078,8.4512-16.705,16.3428-25.8633,23.5117
					C646.7092,693.0664,643.0588,694.25,639.426,694.25L639.426,694.25z M368.3313,693.0664c-3.6826,0-7.3818-1.1836-10.4893-3.6504
					c-9.0927-7.2676-17.708-15.2246-25.6333-23.709c-6.3462-6.8066-5.9682-17.4609,0.8218-23.8076
					c6.791-6.3467,17.4619-5.9853,23.792,0.8213c6.8067,7.2676,14.2056,14.1406,22.0156,20.3555
					c7.2671,5.7871,8.4673,16.3759,2.6631,23.6436C378.1799,690.8965,373.2805,693.0664,368.3313,693.0664L368.3313,693.0664z
					 M692.7629,633.6455c-2.9434,0-5.9189-0.79-8.6162-2.4004c-7.9902-4.7685-10.5879-15.0937-5.8359-23.0849
					c5.0967-8.5166,9.6016-17.5264,13.3828-26.7676c3.5195-8.6153,13.335-12.7256,21.9668-9.2071
					c8.5996,3.5186,12.7266,13.3506,9.1914,21.9668c-4.4062,10.7852-9.668,21.3086-15.6201,31.2715
					C704.0745,630.7187,698.4846,633.6455,692.7629,633.6455L692.7629,633.6455z M315.5042,632.0342
					c-5.7881,0-11.4278-2.9932-14.5513-8.3526c-5.8696-10.0625-11.0327-20.6181-15.3404-31.4043
					c-3.4531-8.6152,0.7398-18.415,9.3721-21.8671c8.6812-3.4864,18.4473,0.7226,21.9004,9.371
					c3.6826,9.2413,8.1221,18.3165,13.1533,26.9327c4.6861,8.0234,1.9732,18.3154-6.0508,23.0185
					C321.3079,631.2773,318.3976,632.0342,315.5042,632.0342L315.5042,632.0342z M720.5491,557.8154
					c-0.9043,0-1.8242-0.0654-2.7451-0.2304c-9.1748-1.5127-15.3897-10.1612-13.877-19.336
					c1.6113-9.8642,2.5156-19.9189,2.6797-29.8828c0.165-9.3057,7.8271-16.4746,17.1162-16.5566
					c9.3066,0.1474,16.7051,7.8095,16.5566,17.1162c-0.1971,11.5908-1.25,23.3056-3.123,34.7822
					C735.7913,551.9619,728.6555,557.8154,720.5491,557.8154L720.5491,557.8154z M718.8889,477.0771
					c-7.8105,0-14.8144-5.458-16.459-13.416c-2.0381-9.7832-4.8164-19.4511-8.2529-28.7734
					c-3.2227-8.7139,1.2158-18.3984,9.9473-21.6211c8.7304-3.2881,18.3984,1.2168,21.6377,9.9473
					c4.0273,10.8847,7.2675,22.1797,9.6347,33.6074c1.8907,9.1084-3.9629,18.0205-13.0714,19.9111
					C721.1741,476.9619,720.0236,477.0771,718.8889,477.0771L718.8889,477.0771z M688.1262,402.4482
					c-5.5088,0-10.9013-2.6972-14.124-7.6455c-5.4258-8.3369-11.5254-16.3603-18.168-23.8408
					c-6.166-6.9551-5.5244-17.5928,1.4473-23.7588c6.9551-6.1826,17.5918-5.5244,23.7578,1.4307
					c7.7285,8.7139,14.8633,18.0693,21.1934,27.7861c5.0644,7.8106,2.8613,18.2344-4.9317,23.2988
					C694.4562,401.5596,691.2833,402.4482,688.1262,402.4482L688.1262,402.4482z M632.3381,344.0303
					c-3.4023,0-6.8388-1.0362-9.8145-3.1739c-8.0898-5.8203-16.6729-11.082-25.5508-15.6523
					c-8.2715-4.2588-11.5098-14.4033-7.252-22.6738c4.2588-8.2539,14.4366-11.5254,22.6739-7.251
					c10.3418,5.3271,20.3711,11.46,29.7928,18.251c7.5469,5.4258,9.2735,15.9482,3.8477,23.4951
					C642.7307,341.5967,637.5842,344.0303,632.3381,344.0303L632.3381,344.0303z M446.7921,310.6035
					c-7.415,0-14.1894-4.9326-16.228-12.414c-2.4497-8.9766,2.8442-18.2334,11.8218-20.667
					c11.2627-3.0586,22.8047-5.3106,34.3306-6.6592c9.2075-1.167,17.5927,5.5078,18.6777,14.748
					c1.0854,9.2412-5.5078,17.6094-14.7481,18.6953c-9.8652,1.167-19.7631,3.0743-29.4311,5.7051
					C449.735,310.4229,448.2556,310.6035,446.7921,310.6035L446.7921,310.6035z M559.2385,309.7812
					c-1.3808,0-2.7949-0.164-4.1933-0.5263c-9.6348-2.4824-19.5489-4.2412-29.4629-5.2608
					c-9.2578-0.9541-15.9824-9.2246-15.0283-18.4648c0.9365-9.2568,9.125-15.8828,18.4638-15.0439
					c11.5752,1.2001,23.1504,3.2558,34.4131,6.1494c8.9932,2.3183,14.419,11.4922,12.1182,20.5029
					C573.592,304.7334,566.7521,309.7812,559.2385,309.7812L559.2385,309.7812z"/>
			</g>
			<g>
				<path fill="#404857" d="M288.2433,555.2832c-8.1885,0-15.373-5.9844-16.623-14.3369
					c-0.8877-5.8867-1.5782-11.8711-2.0391-17.9219c-0.7065-9.2646,6.2319-17.3545,15.5049-18.0615
					c9.3066-0.6904,17.3628,6.248,18.0698,15.5049c0.3945,5.2197,1.0029,10.416,1.7593,15.4795
					c1.3808,9.208-4.9492,17.79-14.1563,19.1718C289.9202,555.2178,289.0818,555.2832,288.2433,555.2832L288.2433,555.2832z"/>
			</g>
		</g>
	</g>
	<g>

		<path fill="#404857" d="M858.1682,252.3994c-46.416,0-84.1826-37.7676-84.1826-84.1826s37.7666-84.1826,84.1826-84.1826
			s84.1817,37.7676,84.1817,84.1826S904.5842,252.3994,858.1682,252.3994L858.1682,252.3994z M858.1682,117.707
			c-27.8525,0-50.5098,22.6573-50.5098,50.5098s22.6573,50.5098,50.5098,50.5098c27.8526,0,50.5098-22.6573,50.5098-50.5098
			S886.0208,117.707,858.1682,117.707L858.1682,117.707z"/>
	</g>
	<g>

		<path fill="#404857" d="M637.6174,917.4316c-46.416,0-84.1836-37.75-84.1836-84.1816c0-46.3994,37.7676-84.1826,84.1836-84.1826
			c46.4141,0,84.1817,37.7832,84.1817,84.1826C721.7991,879.6816,684.0314,917.4316,637.6174,917.4316L637.6174,917.4316z
			 M637.6174,782.7402c-27.8535,0-50.5097,22.6573-50.5097,50.5098s22.6562,50.5098,50.5097,50.5098
			c27.8516,0,50.5088-22.6573,50.5088-50.5098S665.4689,782.7402,637.6174,782.7402L637.6174,782.7402z"/>
	</g>
</g>
</svg>
