<?xml version="1.0" encoding="utf-8"?>
<!-- Generator: Adobe Illustrator 17.1.0, SVG Export Plug-In . SVG Version: 6.00 Build 0)  -->
<!DOCTYPE svg PUBLIC "-//W3C//DTD SVG 1.1//EN" "http://www.w3.org/Graphics/SVG/1.1/DTD/svg11.dtd">
<svg version="1.1" id="solar-system-2" xmlns="http://www.w3.org/2000/svg" xmlns:xlink="http://www.w3.org/1999/xlink" x="0px"
	 y="0px" viewBox="0 0 1009.9668 1010" enable-background="new 0 0 1009.9668 1010" xml:space="preserve">
<g id="solar-system-2-solar-system-2">
	<g>
		<path fill="#535352" d="M504.9834,1010c-120.4102,0-237.1055-43.1992-328.5684-121.6592l-10.4707-8.9756l6.7559-12.0332
			c2.022-3.5995,3.041-7.249,3.041-10.8486c0-15.9131-17.7861-27.8467-33.0576-19.2168l-12.0488,6.8223l-9.0083-10.5039
			C43.1992,742.1221,0,625.4268,0,505C0,226.5361,226.5352,0,504.9834,0c120.4434,0,237.1387,43.1997,328.584,121.6597
			l10.5371,9.041l-6.8711,12.0659c-2.0059,3.5015-3.0078,7.1177-3.0078,10.7505c0,15.9121,17.7363,27.9121,33.0898,19.1997
			l12.0331-6.7559l8.9912,10.4712c78.4268,91.4458,121.627,208.125,121.627,328.5679
			C1009.9668,783.4648,783.4307,1010,504.9834,1010L504.9834,1010z M207.5493,870.4883
			C291.4668,938.8389,396.606,976.334,504.9834,976.334c259.8887,0,471.3184-211.4453,471.3184-471.334
			c0-108.4102-37.4961-213.5493-105.8301-297.4502c-4.5703,1.2163-9.2549,1.8408-14.0215,1.8408
			c-30.8223,0-55.8906-25.0683-55.8906-55.8735c0-4.7671,0.625-9.4522,1.8574-14.022
			C718.5322,71.1616,613.3779,33.6655,504.9834,33.6655C245.0942,33.6655,33.665,245.1113,33.665,505
			c0,108.3945,37.4961,213.5498,105.8135,297.4502c4.586-1.2158,9.271-1.8408,14.0381-1.8408
			c30.8218,0,55.8901,25.0683,55.8901,55.874C209.4067,861.2168,208.7822,865.9023,207.5493,870.4883L207.5493,870.4883z"/>
	</g>
	<g>
		<path fill="#535352" d="M504.9834,658.5176c-84.6572,0-153.5171-68.8604-153.5171-153.5176
			c0-84.6733,68.8599-153.5498,153.5171-153.5498c84.6406,0,153.5,68.8765,153.5,153.5498
			C658.4834,589.6572,589.624,658.5176,504.9834,658.5176L504.9834,658.5176z M504.9834,385.1157
			c-66.082,0-119.8516,53.7862-119.8516,119.8843c0,66.082,53.7696,119.8516,119.8516,119.8516S624.8184,571.082,624.8184,505
			C624.8184,438.9019,571.0654,385.1157,504.9834,385.1157L504.9834,385.1157z"/>
	</g>
	<g>
		<path fill="#B0D8EF" d="M797.8975,153.5171c0,32.334,26.2343,58.5859,58.5527,58.5859c32.3496,0,58.5693-26.2519,58.5693-58.5859
			c0-32.3667-26.2197-58.5859-58.5693-58.5859C824.1318,94.9312,797.8975,121.1504,797.8975,153.5171z"/>
		<path fill="#535352" d="M856.4502,228.936c-41.5723,0-75.3867-33.83-75.3867-75.4189s33.8144-75.419,75.3867-75.419
			c41.5723,0,75.4023,33.8301,75.4023,75.419S898.0225,228.936,856.4502,228.936L856.4502,228.936z M856.4502,111.7642
			c-22.998,0-41.7207,18.7231-41.7207,41.7529c0,23.0303,18.7227,41.7534,41.7207,41.7534
			c23.0137,0,41.7363-18.7231,41.7363-41.7534C898.1865,130.4873,879.4639,111.7642,856.4502,111.7642L856.4502,111.7642z"/>
	</g>
	<g>
		<path fill="#535352" d="M504.9834,853.7871c-192.3281,0-348.7871-156.459-348.7871-348.7871
			c0-176.8755,132.4101-325.7241,308.0034-346.2393l17.6221-2.0546l1.1343,17.7041c0.7397,11.7041,10.4218,20.8603,22.0273,20.8603
			c11.6055,0,21.2871-9.1562,22.0273-20.8603l1.1348-17.7041l17.6211,2.0546c160.9961,18.8057,286.5684,144.4434,305.3906,305.5054
			l2.0547,17.6216l-17.7051,1.1343c-11.6543,0.7397-20.7773,10.3891-20.7773,21.978c0,11.5889,9.1396,21.2549,20.8271,22.0107
			l17.6875,1.1339l-2.0546,17.623C830.7236,721.3604,681.8916,853.7871,504.9834,853.7871L504.9834,853.7871z M453.4331,194.251
			C302.168,219.1221,189.8618,350.168,189.8618,505c0,173.7529,141.3687,315.1211,315.1216,315.1211
			c154.8652,0,285.9102-112.3057,310.7158-263.6035c-20.3837-8.4004-34.6357-28.4551-34.6357-51.5176
			c0-23.063,14.2363-43.1011,34.6035-51.4844c-21.8633-133.561-125.6543-237.4013-259.1328-259.2646
			c-8.4004,20.4165-28.4551,34.685-51.5508,34.685S461.833,214.6675,453.4331,194.251L453.4331,194.251z"/>
	</g>
	<g>
		<path fill="#C9C9C8" d="M778.4014,505c0,32.334,26.2021,58.5703,58.5361,58.5703c32.3672,0,58.5537-26.2363,58.5537-58.5703
			s-26.1865-58.5693-58.5537-58.5693C804.6035,446.4307,778.4014,472.666,778.4014,505z"/>
		<path fill="#434A54" d="M836.9375,580.4023c-41.5557,0-75.3691-33.83-75.3691-75.4023s33.8134-75.4023,75.3691-75.4023
			c41.5723,0,75.3857,33.83,75.3857,75.4023S878.5098,580.4023,836.9375,580.4023L836.9375,580.4023z M836.9375,463.2632
			c-22.9971,0-41.7041,18.7231-41.7041,41.7368c0,23.0137,18.707,41.7363,41.7041,41.7363S878.6572,528.0137,878.6572,505
			C878.6572,481.9863,859.9346,463.2632,836.9375,463.2632L836.9375,463.2632z"/>
	</g>
	<g>
		<path fill="#B8C9F1" d="M450.77,173.0459c0,29.9341,24.2461,54.2295,54.2134,54.2295c29.9502,0,54.2129-24.2954,54.2129-54.2295
			s-24.2627-54.2627-54.2129-54.2627C475.0161,118.7832,450.77,143.1118,450.77,173.0459z"/>
		<path fill="#535352" d="M504.9834,244.1084c-39.1724,0-71.0464-31.874-71.0464-71.0625c0-39.2056,31.874-71.0957,71.0464-71.0957
			c39.1719,0,71.0459,31.8901,71.0459,71.0957C576.0293,212.2344,544.1553,244.1084,504.9834,244.1084L504.9834,244.1084z
			 M504.9834,135.6157c-20.6138,0-37.3809,16.7837-37.3809,37.4302c0,20.6133,16.7671,37.397,37.3809,37.397
			c20.6133,0,37.3809-16.7837,37.3809-37.397C542.3643,152.3994,525.5967,135.6157,504.9834,135.6157L504.9834,135.6157z"/>
	</g>
	<g>
		<path fill="#A5A5A4" d="M108.3115,856.4834c0,24.9531,20.2188,45.1885,45.2051,45.1885c24.937,0,45.2051-20.2354,45.2051-45.1885
			c0-24.9697-20.2681-45.1885-45.2051-45.1885C128.5303,811.2949,108.3115,831.5137,108.3115,856.4834z"/>
		<path fill="#535352" d="M153.5166,918.5049c-34.208,0-62.0381-27.8301-62.0381-62.0215c0-34.1924,27.8301-62.0215,62.0381-62.0215
			s62.0381,27.8291,62.0381,62.0215C215.5547,890.6748,187.7246,918.5049,153.5166,918.5049L153.5166,918.5049z M153.5166,828.127
			c-15.6494,0-28.3721,12.7236-28.3721,28.3564s12.7227,28.3555,28.3721,28.3555s28.3726-12.7227,28.3726-28.3555
			S169.166,828.127,153.5166,828.127L153.5166,828.127z"/>
	</g>
	<g>
		<path fill="#FDF4BC" d="M450.77,505c0,29.9336,24.2461,54.2305,54.2134,54.2305c29.9668,0,54.2129-24.2969,54.2129-54.2305
			c0-29.9668-24.2461-54.2295-54.2129-54.2295C475.0161,450.7705,450.77,475.0332,450.77,505z"/>
		<path fill="#535352" d="M504.9834,576.0625c-39.1724,0-71.0464-31.873-71.0464-71.0625c0-39.1885,31.874-71.0625,71.0464-71.0625
			c39.1719,0,71.0459,31.874,71.0459,71.0625C576.0293,544.1895,544.1553,576.0625,504.9834,576.0625L504.9834,576.0625z
			 M504.9834,467.603c-20.6138,0-37.3809,16.7837-37.3809,37.397s16.7671,37.3965,37.3809,37.3965
			c20.6133,0,37.3809-16.7832,37.3809-37.3965S525.5967,467.603,504.9834,467.603L504.9834,467.603z"/>
	</g>
</g>
</svg>
