<?xml version="1.0" encoding="utf-8"?>
<!-- Generator: Adobe Illustrator 17.1.0, SVG Export Plug-In . SVG Version: 6.00 Build 0)  -->
<!DOCTYPE svg PUBLIC "-//W3C//DTD SVG 1.1//EN" "http://www.w3.org/Graphics/SVG/1.1/DTD/svg11.dtd">
<svg version="1.1" id="space-station" xmlns="http://www.w3.org/2000/svg" xmlns:xlink="http://www.w3.org/1999/xlink" x="0px"
	 y="0px" viewBox="0 0 982.0022 1010" enable-background="new 0 0 982.0022 1010" xml:space="preserve">
<g id="space-station-space-station">
	<g>
		<g>
			<g>
				<polyline fill="#7C7C7B" points="394.8176,530.9727 394.8176,438.2583 587.1848,438.2583 587.1848,530.9727 				"/>
				<polygon fill="#535352" points="604.0178,530.9727 570.3508,530.9727 570.3508,455.0918 411.6511,455.0918 411.6511,530.9727 
					377.9846,530.9727 377.9846,421.4253 604.0178,421.4253 604.0178,530.9727 				"/>
			</g>
			<path fill="#E6E6E6" d="M617.6457,536.3652c-1.2324-0.3281-2.4492-0.6904-3.6816-1.0527
				c-11.9356-3.2871-24.0664-6.1152-36.3467-8.4492c-1.7754-0.3281-3.5342-0.6572-5.2939-0.9531
				c-12.2305-2.17-24.5918-3.9454-37.1016-5.1456c-1.5449-0.1474-3.0908-0.2294-4.6367-0.3447
				c-13.0684-1.1181-26.2363-1.8418-39.5674-1.8418c-13.332,0-26.4995,0.7237-39.5684,1.8418
				c-1.5454,0.1153-3.0903,0.1973-4.6191,0.3447c-12.5264,1.2002-24.8887,2.9756-37.1025,5.1456
				c-1.7754,0.2959-3.5508,0.625-5.3096,0.9531c-12.2964,2.334-24.4116,5.1621-36.3301,8.4492
				c-1.249,0.3623-2.4985,0.7246-3.7314,1.0859c-196,55.924-341.0723,238.2969-347.5166,456.7686h948.3213
				C958.7346,774.6953,813.6614,592.3223,617.6457,536.3652z"/>
			<path fill="#A5A5A4" d="M805.8205,642.0664c-53.3271-48.8555-117.4228-85.5137-188.1748-105.7012
				c-1.2324-0.3281-2.4492-0.6904-3.6816-1.0527c-11.9356-3.2871-24.0664-6.1152-36.3467-8.4492
				c-1.7754-0.3281-3.5342-0.6572-5.2939-0.9531c-12.2305-2.17-24.5918-3.9454-37.1016-5.1456
				c-1.5449-0.1474-3.0908-0.2294-4.6367-0.3447c-13.0684-1.1181-26.2363-1.8418-39.5674-1.8418
				c-13.332,0-26.4995,0.7237-39.5684,1.8418c-1.5454,0.1153-3.0903,0.1973-4.6191,0.3447
				c-12.5264,1.2002-24.8887,2.9756-37.1025,5.1456c-1.7754,0.2959-3.5508,0.625-5.3096,0.9531
				c-12.2964,2.334-24.4116,5.1621-36.3301,8.4492c-1.249,0.3623-2.4985,0.7246-3.7314,1.0859
				c-73.2349,20.9102-139.3682,59.4424-193.7969,110.9287"/>
			<g>
				<path fill="#B0D8EF" d="M429.7009,975.4131V780.0869c0-33.8643,27.4526-61.3164,61.3169-61.3164l0,0
					c33.8799,0,61.3164,27.4521,61.3164,61.3164v195.3262"/>
				<path fill="#535352" d="M569.1672,975.4131h-33.666V780.0869c0-24.5264-19.957-44.4834-44.4834-44.4834
					c-24.5269,0-44.4834,19.957-44.4834,44.4834v195.3262h-33.667V780.0869c0-43.1025,35.064-78.1504,78.1504-78.1504
					c43.0859,0,78.1494,35.0479,78.1494,78.1504V975.4131L569.1672,975.4131z"/>
			</g>
			<g>
				<g>
					<g>
						<path fill="#FDF4BC" d="M491.0178,16.8335c19.5791,0,35.5078,15.9126,35.5078,35.5078
							c0,19.5947-15.9287,35.5078-35.5078,35.5078c-19.5952,0-35.5078-15.9131-35.5078-35.5078
							C455.51,32.7461,471.4226,16.8335,491.0178,16.8335z"/>
						<path fill="#535352" d="M491.0178,104.6821c-28.8667,0-52.3413-23.4746-52.3413-52.3408
							C438.6765,23.4912,462.1511,0,491.0178,0c28.8662,0,52.3408,23.4912,52.3408,52.3413
							C543.3586,81.2075,519.884,104.6821,491.0178,104.6821L491.0178,104.6821z M491.0178,33.6665
							c-10.291,0-18.6748,8.3838-18.6748,18.6748c0,10.3071,8.3838,18.6743,18.6748,18.6743c10.29,0,18.6748-8.3672,18.6748-18.6743
							C509.6926,42.0503,501.3078,33.6665,491.0178,33.6665L491.0178,33.6665z"/>
					</g>
				</g>
			</g>
			<g>
				<g>
					<path fill="#A5A5A4" d="M539.5119,458.9058c0.2305-0.0494,0.4444-0.1319,0.6748-0.1812
						c7.1338-1.7095,14.1534-3.8628,21.1075-6.2959c1.166-0.3945,2.2841-0.7725,3.4023-1.1836
						c57.5195-21.0088,109.9424-65.9687,153.5713-128.6665H515.0344H263.7678c61.6782,88.6382,140.8145,142.064,227.25,142.064
						c7.3643,0,14.6631-0.5425,21.9287-1.315c1.6777-0.1806,3.3535-0.3452,5.0313-0.5752
						C525.2268,461.7988,532.3782,460.5825,539.5119,458.9058z"/>
					<path fill="#535352" d="M491.0178,481.4761c-88.4736,0-174.0869-53.0152-241.0752-149.2808
						c-3.5674-5.1455-3.9946-11.8525-1.1016-17.4087c2.9102-5.5561,8.663-9.0415,14.9267-9.0415h454.5
						c6.2628,0,12.0166,3.4854,14.9268,9.0415c2.8925,5.5562,2.4648,12.2632-1.1016,17.4087
						c-46.2921,66.5278-102.1837,113.1484-161.627,134.8638l-3.7812,1.3154c-7.9229,2.7778-15.3691,4.9971-22.5703,6.7232
						c-7.8906,1.874-15.4844,3.2387-23.9346,4.3564l-4.4541,0.5098C505.6809,481.0322,498.1516,481.4761,491.0178,481.4761
						L491.0178,481.4761z M297.4182,339.4121c56.8447,70.1773,124.688,108.3975,193.5996,108.3975
						c5.918,0,12.3125-0.3784,20.1533-1.2168l4.5215-0.5093c6.7891-0.9043,13.3809-2.0059,19.9727-3.5674
						c7.1836-1.7427,13.6601-3.7314,20.0722-5.9673l3.1563-1.1015c44.8769-16.3892,87.8808-49.3326,125.707-96.0352H297.4182
						L297.4182,339.4121z"/>
				</g>
			</g>
			<g>
				<g>
					<path fill="#FDF4BC" d="M282.7541,760.9521c26.1216,0,47.3604,21.1729,47.3604,47.3438
						c0,26.1045-21.2388,47.3105-47.3604,47.3105c-26.1538,0-47.3598-21.206-47.3598-47.3105
						C235.3943,782.125,256.6003,760.9521,282.7541,760.9521z"/>
					<path fill="#535352" d="M282.7541,872.4404c-35.3925,0-64.1933-28.7841-64.1933-64.1445
						c0-35.3926,28.8008-64.1768,64.1933-64.1768c35.3931,0,64.1939,28.7842,64.1939,64.1768
						C346.948,843.6563,318.1472,872.4404,282.7541,872.4404L282.7541,872.4404z M282.7541,777.7852
						c-16.833,0-30.5263,13.6777-30.5263,30.5107c0,16.8008,13.6933,30.4775,30.5263,30.4775
						c16.834,0,30.5274-13.6767,30.5274-30.4775C313.2815,791.4629,299.5881,777.7852,282.7541,777.7852L282.7541,777.7852z"/>
				</g>
				<g>
					<path fill="#FDF4BC" d="M699.2649,760.9521c26.1367,0,47.3437,21.1729,47.3437,47.3438
						c0,26.1045-21.207,47.3105-47.3437,47.3105c-26.1211,0-47.377-21.206-47.377-47.3105
						C651.8879,782.125,673.1438,760.9521,699.2649,760.9521z"/>
					<path fill="#535352" d="M699.2649,872.4404c-35.4102,0-64.211-28.7841-64.211-64.1445
						c0-35.3926,28.8008-64.1768,64.211-64.1768c35.3926,0,64.1767,28.7842,64.1767,64.1768
						C763.4416,843.6563,734.6575,872.4404,699.2649,872.4404L699.2649,872.4404z M699.2649,777.7852
						c-16.8496,0-30.544,13.6777-30.544,30.5107c0,16.8008,13.6944,30.4775,30.544,30.4775
						c16.8164,0,30.5097-13.6767,30.5097-30.4775C729.7746,791.4629,716.0813,777.7852,699.2649,777.7852L699.2649,777.7852z"/>
				</g>
			</g>
			<g>
				<path fill="#535352" d="M965.1614,1010H16.8401c-4.5533,0-8.9092-1.8408-12.0821-5.1123
					c-3.1728-3.2715-4.8828-7.6768-4.7509-12.2139c6.5918-223.0919,151.1547-412.959,359.7304-472.4677l3.5342-1.0362
					c12.7568-3.5176,25.4307-6.4599,38.0064-8.8437l5.6879-1.0196c13.3814-2.3828,25.9571-4.1259,38.2696-5.2929l3.5508-0.2793
					c32.3842-2.729,53.3105-2.6304,83.2294-0.0825l4.8174,0.3618c12.2793,1.167,24.8555,2.9101,38.4336,5.3261l4.9649,0.8877
					c13.1172,2.4825,25.792,5.4414,38.2031,8.8604l3.5508,1.0029c208.8711,59.6397,353.4336,249.5078,360.0097,472.583
					c0.1309,4.537-1.5947,8.959-4.7509,12.2139C974.0715,1008.1592,969.716,1010,965.1614,1010L965.1614,1010z M34.4792,976.333
					h913.0435c-12.8711-200.7998-145.4824-369.8232-334.4961-423.792l-3.4024-0.9697c-11.6718-3.2061-23.4423-5.9512-35.1464-8.1709
					l-4.9483-0.8867c-12.8222-2.2852-24.5107-3.8965-35.9023-4.9815l-2.6299-0.2138c-0.0996,0-1.7432-0.1153-1.8418-0.1153
					c-28.0117-2.3994-48.2642-2.3994-76.2759,0c-0.0986,0-1.7261,0.1153-1.8247,0.1153l-2.5972,0.1972
					c-11.4414,1.1016-23.1294,2.7129-35.7876,4.9649l-5.1616,0.9199c-11.6386,2.2197-23.4087,4.9492-34.9487,8.1377l-3.4688,1.0029
					C179.9787,606.5098,47.3674,775.5332,34.4792,976.333L34.4792,976.333z"/>
			</g>
		</g>
		<g>
			<g>
				<path fill="#535352" d="M924.591,882.2373h-88.7363c-9.3047,0-16.834-7.5449-16.834-16.833
					c0-9.3047,7.5293-16.833,16.834-16.833h88.7363c9.3047,0,16.834,7.5283,16.834,16.833
					C941.425,874.6924,933.8957,882.2373,924.591,882.2373L924.591,882.2373z"/>
			</g>
			<g>
				<path fill="#535352" d="M944.926,945.4609h-88.7373c-9.3036,0-16.8329-7.5449-16.8329-16.8329
					c0-9.3047,7.5293-16.833,16.8329-16.833h88.7373c9.3037,0,16.833,7.5283,16.833,16.833
					C961.759,937.916,954.2297,945.4609,944.926,945.4609L944.926,945.4609z"/>
			</g>
		</g>
		<g>
			<g>
				<path fill="#535352" d="M146.1477,882.2373H57.3948c-9.3042,0-16.8331-7.5449-16.8331-16.833
					c0-9.3047,7.5289-16.833,16.8331-16.833h88.7529c9.3047,0,16.834,7.5283,16.834,16.833
					C162.9817,874.6924,155.4524,882.2373,146.1477,882.2373L146.1477,882.2373z"/>
			</g>
			<g>
				<path fill="#535352" d="M125.8293,945.4609H37.0764c-9.3042,0-16.833-7.5449-16.833-16.8329
					c0-9.3047,7.5288-16.833,16.833-16.833h88.7529c9.3047,0,16.834,7.5283,16.834,16.833
					C142.6633,937.916,135.134,945.4609,125.8293,945.4609L125.8293,945.4609z"/>
			</g>
		</g>
		<g>
			<polygon fill="#535352" points="507.8508,993.167 474.1843,993.167 474.1843,718.7705 507.8508,718.7705 507.8508,993.167 			"/>
		</g>
		<g>
			<path fill="#535352" d="M491.0178,337.7515c-9.3047,0-16.8335-7.5288-16.8335-16.833V95.5425
				c0-9.2881,7.5288-16.8335,16.8335-16.8335c9.3037,0,16.833,7.5454,16.833,16.8335v225.376
				C507.8508,330.2227,500.3215,337.7515,491.0178,337.7515L491.0178,337.7515z"/>
		</g>
		<g>
			<polygon fill="#535352" points="810.5227,665.3437 171.4963,665.3437 171.4963,631.6777 810.5227,631.6777 810.5227,665.3437 			
				"/>
		</g>
		<g>
			<path fill="#535352" d="M540.4817,157.418h-98.9121c-9.3042,0-16.833-7.5288-16.833-16.8335
				c0-9.2876,7.5288-16.833,16.833-16.833h98.9121c9.3047,0,16.834,7.5454,16.834,16.833
				C557.3157,149.8892,549.7864,157.418,540.4817,157.418L540.4817,157.418z"/>
		</g>
		<g>
			<path fill="#535352" d="M540.4817,224.6689h-98.9121c-9.3042,0-16.833-7.5288-16.833-16.833
				c0-9.288,7.5288-16.8335,16.833-16.8335h98.9121c9.3047,0,16.834,7.5455,16.834,16.8335
				C557.3157,217.1401,549.7864,224.6689,540.4817,224.6689L540.4817,224.6689z"/>
		</g>
		<g>
			<path fill="#535352" d="M540.4817,291.9365h-98.9121c-9.3042,0-16.833-7.5288-16.833-16.833
				c0-9.2881,7.5288-16.8335,16.833-16.8335h98.9121c9.3047,0,16.834,7.5454,16.834,16.8335
				C557.3157,284.4077,549.7864,291.9365,540.4817,291.9365L540.4817,291.9365z"/>
		</g>
	</g>
	<g>
		<g>
			<g>
				<path fill="#535352" d="M248.5285,435.5298h-86.6982c-6.9697,0-12.625-5.6553-12.625-12.625
					c0-6.9702,5.6553-12.625,12.625-12.625h86.6982c6.9707,0,12.625,5.6548,12.625,12.625
					C261.1535,429.8745,255.4992,435.5298,248.5285,435.5298L248.5285,435.5298z"/>
			</g>
			<g>
				<path fill="#535352" d="M205.1633,478.8296c-6.9697,0-12.625-5.6553-12.625-12.625v-86.7315
					c0-6.9697,5.6553-12.625,12.625-12.625s12.625,5.6553,12.625,12.625v86.7315
					C217.7883,473.1743,212.133,478.8296,205.1633,478.8296L205.1633,478.8296z"/>
			</g>
		</g>
		<g>
			<g>
				<path fill="#535352" d="M761.6164,198.104h-86.7148c-6.9697,0-12.625-5.6548-12.625-12.625
					c0-6.9702,5.6553-12.625,12.625-12.625h86.7148c6.9707,0,12.625,5.6548,12.625,12.625
					C774.2414,192.4492,768.5871,198.104,761.6164,198.104L761.6164,198.104z"/>
			</g>
			<g>
				<path fill="#535352" d="M718.2346,241.4204c-6.9697,0-12.625-5.6553-12.625-12.625v-86.7475
					c0-6.9703,5.6553-12.625,12.625-12.625c6.9697,0,12.625,5.6547,12.625,12.625v86.7475
					C730.8596,235.7651,725.2043,241.4204,718.2346,241.4204L718.2346,241.4204z"/>
			</g>
		</g>
		<g>
			<g>
				<path fill="#535352" d="M853.7893,484.1392h-86.7315c-6.9697,0-12.625-5.6548-12.625-12.625
					c0-6.9703,5.6553-12.625,12.625-12.625h86.7315c6.9697,0,12.625,5.6547,12.625,12.625
					C866.4143,478.4844,860.759,484.1392,853.7893,484.1392L853.7893,484.1392z"/>
			</g>
			<g>
				<path fill="#535352" d="M810.3908,527.5215c-6.9697,0-12.625-5.6553-12.625-12.625v-86.7481
					c0-6.9697,5.6553-12.625,12.625-12.625c6.9698,0,12.625,5.6553,12.625,12.625v86.7481
					C823.0158,521.8662,817.3606,527.5215,810.3908,527.5215L810.3908,527.5215z"/>
			</g>
		</g>
	</g>
	<g>
		<path fill="#535352" d="M363.4197,144.4971c9.2876,0,16.8335,7.5454,16.8335,16.8335c0,9.2876-7.5459,16.833-16.8335,16.833
			s-16.8335-7.5454-16.8335-16.833C346.5862,152.0425,354.1321,144.4971,363.4197,144.4971"/>
		<path fill="#535352" d="M313.2815,54.7578c9.2881,0,16.833,7.5454,16.833,16.833c0,9.2881-7.5449,16.8335-16.833,16.8335
			c-9.2881,0-16.8335-7.5454-16.8335-16.8335C296.448,62.3032,303.9934,54.7578,313.2815,54.7578"/>
		<path fill="#535352" d="M262.4197,206.2578c9.2876,0,16.8335,7.5454,16.8335,16.833c0,9.2881-7.5459,16.8335-16.8335,16.8335
			c-9.2876,0-16.8335-7.5454-16.8335-16.8335C245.5862,213.8032,253.1321,206.2578,262.4197,206.2578"/>
	</g>
</g>
</svg>
