<?xml version="1.0" encoding="utf-8"?>
<!-- Generator: Adobe Illustrator 17.1.0, SVG Export Plug-In . SVG Version: 6.00 Build 0)  -->
<!DOCTYPE svg PUBLIC "-//W3C//DTD SVG 1.1//EN" "http://www.w3.org/Graphics/SVG/1.1/DTD/svg11.dtd">
<svg version="1.1" id="sputnik" xmlns="http://www.w3.org/2000/svg" xmlns:xlink="http://www.w3.org/1999/xlink" x="0px" y="0px"
	 viewBox="0 0 1009.8863 1009.9996" enable-background="new 0 0 1009.8863 1009.9996" xml:space="preserve">
<g id="sputnik-sputnik">
	<g>
		<g>
			<line fill="#FDF4BC" x1="132.1711" y1="183.1519" x2="132.1711" y2="216.8194"/>
			<path fill="#535352" d="M132.1711,233.6534c-9.2969,0-16.834-7.5293-16.834-16.834v-33.6675
				c0-9.3046,7.5371-16.8339,16.834-16.8339c9.2959,0,16.834,7.5293,16.834,16.8339v33.6675
				C149.0051,226.1241,141.467,233.6534,132.1711,233.6534L132.1711,233.6534z"/>
		</g>
		<g>
			<g>
				<polygon fill="#FDF4BC" points="132.1711,183.1519 81.6613,132.6505 132.1711,82.1485 182.6555,132.6505 				"/>
				<path fill="#535352" d="M132.1711,206.9557l-74.3223-74.3052l74.3223-74.3057l74.2891,74.3057L132.1711,206.9557
					L132.1711,206.9557z M105.4738,132.6505l26.6973,26.6972l26.6807-26.6972l-26.6807-26.6978L105.4738,132.6505L105.4738,132.6505
					z"/>
			</g>
			<g>
				<line fill="#FDF4BC" x1="132.1711" y1="82.1485" x2="132.1711" y2="48.4975"/>
				<path fill="#535352" d="M132.1711,98.9825c-9.2969,0-16.834-7.5293-16.834-16.834V48.4975
					c0-9.3046,7.5371-16.8339,16.834-16.8339c9.2959,0,16.834,7.5293,16.834,16.8339v33.6509
					C149.0051,91.4532,141.467,98.9825,132.1711,98.9825L132.1711,98.9825z"/>
			</g>
			<g>
				<line fill="#FDF4BC" x1="182.6555" y1="132.6505" x2="216.3322" y2="132.6505"/>
				<path fill="#535352" d="M216.3322,149.484h-33.6767c-9.2959,0-16.833-7.5454-16.833-16.8335
					c0-9.3047,7.5371-16.834,16.833-16.834h33.6767c9.2959,0,16.8331,7.5293,16.8331,16.834
					C233.1653,141.9385,225.6281,149.484,216.3322,149.484L216.3322,149.484z"/>
			</g>
			<g>
				<line fill="#FDF4BC" x1="81.6613" y1="132.6505" x2="47.9934" y2="132.6505"/>
				<path fill="#535352" d="M81.6613,149.484H47.9934c-9.2959,0-16.834-7.5454-16.834-16.8335c0-9.3047,7.5381-16.834,16.834-16.834
					h33.6679c9.2959,0,16.834,7.5293,16.834,16.834C98.4953,141.9385,90.9572,149.484,81.6613,149.484L81.6613,149.484z"/>
			</g>
		</g>
	</g>
	<g>
		<g>
			<path fill="#B0D8EF" d="M482.4016,527.441c106.543,106.5254,106.5596,279.2695,0,385.8124
				c-106.543,106.543-279.2627,106.543-385.8135,0c-106.5518-106.543-106.5098-279.2538,0-385.8124
				C203.1389,420.8965,375.8586,420.8965,482.4016,527.441z"/>
			<path fill="#535352" d="M289.4953,1009.9996c-77.3632,0-150.0996-30.1328-204.8095-84.8438
				C-28.2273,812.2672-28.2273,628.5093,84.678,515.5386c54.7177-54.711,127.4541-84.8443,204.8173-84.8443
				c77.3633,0,150.0987,30.1333,204.8086,84.8443c54.71,54.6933,84.8438,127.4375,84.8438,204.8007
				c0,77.379-30.1172,150.1075-84.8438,204.8165C439.594,979.8668,366.8586,1009.9996,289.4953,1009.9996L289.4953,1009.9996z
				 M289.4953,464.3624c-68.3711,0-132.6494,26.6313-181.0048,74.9809c-99.7872,99.834-99.7872,262.2383,0,362.0079
				c48.3554,48.3496,112.6337,74.9804,181.0048,74.9804c68.3702,0,132.6563-26.6308,181.0039-74.9804
				c48.3575-48.3477,74.9805-112.625,74.9805-181.0118c0-68.3711-26.6318-132.6484-74.9805-180.9961
				C422.1516,490.9937,357.8655,464.3624,289.4953,464.3624L289.4953,464.3624z"/>
		</g>
		<g>
			<path fill="#535352" d="M373.0061,656.5054c-4.3643,0-8.7285-1.6934-12.0254-5.0645c-6.5098-6.6406-6.3945-17.293,0.2471-23.8027
				l405.1621-396.6646c6.6425-6.5263,17.2949-6.395,23.8047,0.2466c6.5097,6.6416,6.3945,17.2939-0.2461,23.8042L384.7854,651.689
				C381.5051,654.9097,377.2561,656.5054,373.0061,656.5054L373.0061,656.5054z"/>
		</g>
		<g>
			<path fill="#535352" d="M79.5569,561.3062c-3.3291,0-6.6905-0.9863-9.625-3.0254c-7.6202-5.3261-9.4854-15.832-4.1592-23.4433
				L434.5305,7.1855c5.3506-7.6113,15.8389-9.4692,23.4424-4.1591c7.6191,5.3261,9.4853,15.831,4.1592,23.4423L93.3742,554.1207
				C90.0949,558.8062,84.8664,561.3062,79.5569,561.3062L79.5569,561.3062z"/>
		</g>
		<g>
			<path fill="#535352" d="M465.3869,947.1187c-5.3183,0-10.5371-2.498-13.8173-7.1836c-5.3262-7.6289-3.46-18.1171,4.1591-23.4433
				l527.6768-368.7988c7.6113-5.3086,18.1162-3.4512,23.4424,4.1601c5.3271,7.627,3.4687,18.1152-4.1592,23.4414L475.0119,944.0933
				C472.0774,946.1323,468.716,947.1187,465.3869,947.1187L465.3869,947.1187z"/>
		</g>
	</g>
	<g>
		<path fill="#535352" d="M152.219,841.8082c8.8847,0,16.0693,7.2012,16.0693,16.0293c0,8.8926-7.1846,16.0937-16.0449,16.0781
			c-8.8447,0.0313-16.0528-7.2168-16.0528-16.0781C136.2317,849.0093,143.3664,841.8257,152.219,841.8082"/>
		<path fill="#535352" d="M216.4221,825.7632c8.8613,0,16.0693,7.2168,16.1025,16.0449
			c-0.0332,8.8613-7.209,16.0293-16.0615,16.0293c-8.8769,0.0332-16.0937-7.1836-16.0937-16.0293
			C200.4026,832.9644,207.5862,825.7964,216.4221,825.7632"/>
		<path fill="#535352" d="M168.2883,777.6304c8.8438,0,16.0195,7.1836,16.0527,16.0273c0,8.8945-7.2089,16.0625-16.0527,16.0449
			c-8.8779,0.0176-16.0449-7.1679-16.0449-16.0273C152.2434,784.814,159.4104,777.6304,168.2883,777.6304"/>
		<path fill="#535352" d="M200.3694,889.9761c8.8935-0.0332,16.0937,7.1836,16.0527,16.0449
			c0,8.8281-7.1592,16.0117-16.0527,16.0273c-8.8282,0-16.0284-7.1992-16.0284-16.0449
			C184.341,897.1597,191.5412,889.9761,200.3694,889.9761"/>
		<path fill="#535352" d="M88.0481,793.6754c8.8603,0,16.0605,7.166,16.0449,16.0449c0.0156,8.877-7.1846,16.0606-16.0449,16.043
			c-8.8526,0.0176-16.045-7.1836-16.045-16.043C72.0031,800.8746,79.1955,793.6754,88.0481,793.6754"/>
	</g>
	<path fill="#535352" d="M138.2697,311.0493c2.0547,7.6113-2.4326,15.4199-10.0527,17.4912
		c-7.5947,2.0225-15.4199-2.4985-17.458-10.0771c-2.0391-7.628,2.5068-15.42,10.0772-17.4751
		C128.4309,298.9337,136.2639,303.4547,138.2697,311.0493"/>
	<path fill="#535352" d="M213.2658,229.6255c2.0469,7.5952-2.4824,15.4365-10.0693,17.4912
		c-7.6279,2.0224-15.4521-2.4819-17.4668-10.0772c-2.0547-7.644,2.4658-15.4526,10.0938-17.4751
		C203.3938,217.5265,211.219,222.0142,213.2658,229.6255"/>
	<path fill="#535352" d="M30.4778,196.254c2.0302,7.6279-2.4991,15.4692-10.0938,17.5078
		c-7.6113,2.0386-15.4531-2.499-17.4834-10.1103c-2.0137-7.6114,2.5147-15.42,10.1104-17.4585
		C20.5979,184.171,28.4221,188.6588,30.4778,196.254"/>
	<g>
		<g>
			<path fill="#535352" d="M48.0344,327.3902c-6.9697,0-12.625-5.6552-12.625-12.6255v-68.2065
				c0-6.9702,5.6553-12.6255,12.625-12.6255c6.9707,0,12.626,5.6553,12.626,12.6255v68.2065
				C60.6604,321.735,55.0051,327.3902,48.0344,327.3902L48.0344,327.3902z"/>
		</g>
		<g>
			<path fill="#535352" d="M82.0969,293.2291h-68.207c-6.9698,0-12.625-5.6548-12.625-12.625
				c0-6.9707,5.6552-12.6255,12.625-12.6255h68.207c6.9697,0,12.625,5.6548,12.625,12.6255
				C94.7219,287.5742,89.0666,293.2291,82.0969,293.2291L82.0969,293.2291z"/>
		</g>
	</g>
</g>
</svg>
