<?xml version="1.0" encoding="utf-8"?>
<!-- Generator: Adobe Illustrator 17.1.0, SVG Export Plug-In . SVG Version: 6.00 Build 0)  -->
<!DOCTYPE svg PUBLIC "-//W3C//DTD SVG 1.1//EN" "http://www.w3.org/Graphics/SVG/1.1/DTD/svg11.dtd">
<svg version="1.1" id="sun" xmlns="http://www.w3.org/2000/svg" xmlns:xlink="http://www.w3.org/1999/xlink" x="0px" y="0px"
	 viewBox="0 0 1010 1010" enable-background="new 0 0 1010 1010" xml:space="preserve">
<g id="sun-sun">
	<g>
		<path fill="#FDF4BC" d="M753.5215,505c0,137.2803-111.291,248.5381-248.5215,248.5381
			c-137.2559,0-248.5215-111.2578-248.5215-248.5381S367.7441,256.4619,505,256.4619
			C642.2305,256.4619,753.5215,367.7197,753.5215,505z"/>
		<path fill="#535352" d="M505,770.3711c-146.3135,0-265.3555-119.0488-265.3555-265.3711
			c0-146.3218,119.042-265.3716,265.3555-265.3716c146.3047,0,265.3555,119.0498,265.3555,265.3716
			C770.3555,651.3223,651.3047,770.3711,505,770.3711L505,770.3711z M505,273.2949c-127.7539,0-231.6885,103.9429-231.6885,231.7051
			c0,127.7627,103.9346,231.7051,231.6885,231.7051c127.7617,0,231.6885-103.9424,231.6885-231.7051
			C736.6885,377.2378,632.7617,273.2949,505,273.2949L505,273.2949z"/>
	</g>
	<g>
		<g>
			<path fill="#535352" d="M505,202c-9.2964,0-16.8335-7.5288-16.8335-16.8335V151.5c0-9.3042,7.5371-16.8335,16.8335-16.8335
				c9.2959,0,16.834,7.5293,16.834,16.8335v33.6665C521.834,194.4712,514.2959,202,505,202L505,202z"/>
		</g>
		<g>
			<path fill="#535352" d="M505,117.8169c-9.2964,0-16.8335-7.5288-16.8335-16.8335V16.8335C488.1665,7.5288,495.7036,0,505,0
				c9.2959,0,16.834,7.5288,16.834,16.8335v84.1499C521.834,110.2881,514.2959,117.8169,505,117.8169L505,117.8169z"/>
		</g>
		<g>
			<path fill="#535352" d="M505,875.333c-9.2964,0-16.8335-7.5283-16.8335-16.833v-33.667c0-9.3037,7.5371-16.833,16.8335-16.833
				c9.2959,0,16.834,7.5293,16.834,16.833V858.5C521.834,867.8047,514.2959,875.333,505,875.333L505,875.333z"/>
		</g>
		<g>
			<path fill="#535352" d="M505,1010c-9.2964,0-16.8335-7.5293-16.8335-16.833v-84.1504c0-9.3047,7.5371-16.833,16.8335-16.833
				c9.2959,0,16.834,7.5283,16.834,16.833v84.1504C521.834,1002.4707,514.2959,1010,505,1010L505,1010z"/>
		</g>
		<g>
			<path fill="#535352" d="M858.5166,521.834H824.834c-9.3047,0-16.834-7.5293-16.834-16.834
				c0-9.3042,7.5293-16.8335,16.834-16.8335h33.6826c9.2881,0,16.833,7.5293,16.833,16.8335
				C875.3496,514.3047,867.8047,521.834,858.5166,521.834L858.5166,521.834z"/>
		</g>
		<g>
			<path fill="#535352" d="M993.166,521.834H909c-9.3047,0-16.834-7.5293-16.834-16.834c0-9.3042,7.5293-16.8335,16.834-16.8335
				h84.166c9.3047,0,16.834,7.5293,16.834,16.8335C1010,514.3047,1002.4707,521.834,993.166,521.834L993.166,521.834z"/>
		</g>
		<g>
			<path fill="#535352" d="M185.1582,521.834h-33.6748c-9.2959,0-16.833-7.5293-16.833-16.834
				c0-9.3042,7.5371-16.8335,16.833-16.8335h33.6748c9.2964,0,16.8335,7.5293,16.8335,16.8335
				C201.9917,514.3047,194.4546,521.834,185.1582,521.834L185.1582,521.834z"/>
		</g>
		<g>
			<path fill="#535352" d="M101,521.834H16.833C7.5371,521.834,0,514.3047,0,505c0-9.3042,7.5371-16.8335,16.833-16.8335H101
				c9.2959,0,16.833,7.5293,16.833,16.8335C117.833,514.3047,110.2959,521.834,101,521.834L101,521.834z"/>
		</g>
		<g>
			<path fill="#535352" d="M731.165,295.6685c-4.3076,0-8.6142-1.6441-11.9013-4.9317c-6.5762-6.5757-6.5762-17.228,0-23.8037
				l23.8027-23.8032c6.5762-6.5757,17.2285-6.5757,23.8037,0c6.5752,6.5757,6.5752,17.228,0,23.8032l-23.8037,23.8037
				C739.7793,294.0244,735.4727,295.6685,731.165,295.6685L731.165,295.6685z"/>
		</g>
		<g>
			<path fill="#535352" d="M790.6738,236.1597c-4.3066,0-8.6142-1.6436-11.9023-4.9317c-6.5752-6.5752-6.5752-17.2275,0-23.8032
				l59.541-59.5083c6.5762-6.5757,17.2285-6.5757,23.8047,0c6.5742,6.5752,6.5742,17.2275,0,23.8032l-59.542,59.5083
				C799.2871,234.5161,794.9805,236.1597,790.6738,236.1597L790.6738,236.1597z"/>
		</g>
		<g>
			<path fill="#535352" d="M255.04,771.8184c-4.3071,0-8.6143-1.6446-11.9018-4.9317c-6.5757-6.5596-6.5757-17.2285-0.0083-23.8037
				l23.8037-23.8193c6.5752-6.5762,17.2358-6.5762,23.8115,0c6.5752,6.5587,6.5752,17.2275,0.0078,23.8027l-23.8032,23.8203
				C263.6621,770.1738,259.3467,771.8184,255.04,771.8184L255.04,771.8184z"/>
		</g>
		<g>
			<path fill="#535352" d="M159.7935,867.0313c-4.3072,0-8.6138-1.6436-11.9019-4.9317c-6.5752-6.5752-6.5752-17.2275,0-23.8027
				l59.5332-59.5254c6.5752-6.5752,17.2275-6.5752,23.8037,0c6.5752,6.5762,6.5752,17.2285,0,23.8037l-59.5332,59.5244
				C168.4072,865.3877,164.1006,867.0313,159.7935,867.0313L159.7935,867.0313z"/>
		</g>
		<g>
			<path fill="#535352" d="M754.9688,771.8184c-4.3067,0-8.6143-1.6446-11.9024-4.9317l-23.8027-23.8203
				c-6.5762-6.5752-6.5762-17.2441,0-23.8027c6.5752-6.5762,17.2275-6.5762,23.8027,0l23.8037,23.8193
				c6.5752,6.5752,6.5752,17.2441,0,23.8037C763.582,770.1738,759.2754,771.8184,754.9688,771.8184L754.9688,771.8184z"/>
		</g>
		<g>
			<path fill="#535352" d="M850.2148,867.0313c-4.3066,0-8.6132-1.6436-11.9023-4.9317l-59.541-59.5244
				c-6.5752-6.5752-6.5752-17.2275,0-23.8037c6.5762-6.5752,17.2285-6.5752,23.8037,0l59.542,59.5254
				c6.5742,6.5752,6.5742,17.2275,0,23.8027C858.8281,865.3877,854.5215,867.0313,850.2148,867.0313L850.2148,867.0313z"/>
		</g>
		<g>
			<path fill="#535352" d="M278.8433,295.6685c-4.3072,0-8.6138-1.6441-11.9019-4.9317l-23.8032-23.8037
				c-6.5757-6.5752-6.5757-17.2275,0-23.8032c6.5757-6.5757,17.228-6.5757,23.8032,0l23.8037,23.8032
				c6.5752,6.5757,6.5752,17.228,0,23.8037C287.457,294.0244,283.1504,295.6685,278.8433,295.6685L278.8433,295.6685z"/>
		</g>
		<g>
			<path fill="#535352" d="M219.3262,236.1597c-4.3067,0-8.6133-1.6436-11.9014-4.9317l-59.5332-59.5083
				c-6.5752-6.5757-6.5752-17.228,0-23.8032c6.5591-6.5757,17.228-6.5757,23.8037,0l59.5332,59.5083
				c6.5752,6.5757,6.5752,17.228,0,23.8032C227.9487,234.5161,223.6338,236.1597,219.3262,236.1597L219.3262,236.1597z"/>
		</g>
		<g>
			<path fill="#535352" d="M629.9678,227.4307c-2.2022,0-4.4385-0.4273-6.5752-1.3316
				c-8.5488-3.6328-12.5596-13.5127-8.9102-22.0771l13.1505-30.9873c3.6338-8.5479,13.5137-12.5264,22.0615-8.9263
				c8.5479,3.6333,12.5596,13.5127,8.9092,22.0776l-13.1505,30.9869C642.7402,223.584,636.5098,227.4307,629.9678,227.4307
				L629.9678,227.4307z"/>
		</g>
		<g>
			<path fill="#535352" d="M662.8457,149.9546c-2.1865,0-4.4062-0.4273-6.5596-1.3316c-8.5644-3.6328-12.542-13.5288-8.9267-22.0771
				l32.9111-77.4927c3.6162-8.5644,13.5127-12.5263,22.0615-8.9262c8.5469,3.6333,12.5586,13.5292,8.9092,22.0776l-32.8779,77.4922
				C675.6348,146.1079,669.4043,149.9546,662.8457,149.9546L662.8457,149.9546z"/>
		</g>
		<g>
			<path fill="#535352" d="M366.873,847.2393c-2.1865,0-4.414-0.4268-6.559-1.3311c-8.5562-3.6328-12.5591-13.5127-8.9346-22.0615
				l13.1431-31.0196c3.6328-8.5644,13.4716-12.5761,22.0688-8.9423c8.5562,3.6328,12.5591,13.5117,8.9346,22.0605l-13.1431,31.0195
				C379.6621,843.3926,373.4321,847.2393,366.873,847.2393L366.873,847.2393z"/>
		</g>
		<g>
			<path fill="#535352" d="M314.2275,971.2041c-2.1943,0-4.4218-0.4268-6.5673-1.3311c-8.5645-3.6328-12.5508-13.5292-8.918-22.0771
				l32.9023-77.4932c3.6328-8.5644,13.521-12.5262,22.0694-8.9257c8.5644,3.6328,12.5507,13.5293,8.9179,22.0771l-32.9023,77.4922
				C327.0088,967.3574,320.7783,971.2041,314.2275,971.2041L314.2275,971.2041z"/>
		</g>
		<g>
			<path fill="#535352" d="M830.3896,659.9687c-2.2021,0-4.4384-0.4277-6.5917-1.3476l-30.9708-13.1846
				c-8.5654-3.6328-12.5429-13.5293-8.8935-22.0771c3.6494-8.5645,13.5449-12.5586,22.0771-8.8936l30.9707,13.1846
				c8.5655,3.6328,12.543,13.5283,8.8936,22.0771C843.1465,656.1387,836.9316,659.9687,830.3896,659.9687L830.3896,659.9687z"/>
		</g>
		<g>
			<path fill="#535352" d="M954.3711,712.5889c-2.2031,0-4.4385-0.4268-6.5762-1.3311l-77.4922-32.8945
				c-8.5478-3.6328-12.5586-13.5293-8.9101-22.0772c3.6172-8.5478,13.5137-12.5262,22.0615-8.9257l77.4932,32.8935
				c8.5468,3.6328,12.5586,13.5293,8.9091,22.0772C967.1445,708.7422,960.9141,712.5889,954.3711,712.5889L954.3711,712.5889z"/>
		</g>
		<g>
			<path fill="#535352" d="M210.5811,396.8818c-2.1944,0-4.4302-0.4272-6.5752-1.3476l-31.0039-13.1841
				c-8.5567-3.6328-12.543-13.5127-8.9102-22.0772c3.6416-8.5317,13.5376-12.5756,22.0776-8.8935l31.0035,13.1841
				c8.5566,3.6328,12.5429,13.5127,8.9101,22.0771C223.354,393.0352,217.1318,396.8818,210.5811,396.8818L210.5811,396.8818z"/>
		</g>
		<g>
			<path fill="#535352" d="M133.105,363.9717c-2.1948,0-4.4224-0.4278-6.5674-1.3316l-77.4927-32.894
				c-8.5561-3.6333-12.5508-13.5293-8.9179-22.0776c3.6328-8.5645,13.5292-12.5425,22.0693-8.9263l77.4922,32.894
				c8.5566,3.6333,12.5512,13.5293,8.9179,22.0777C145.8862,360.125,139.6558,363.9717,133.105,363.9717L133.105,363.9717z"/>
		</g>
		<g>
			<path fill="#535352" d="M801.5566,399.3315c-6.6748,0-12.9873-3.9785-15.6171-10.5376
				c-3.4854-8.6137,0.6738-18.4277,9.3046-21.8964l31.2002-12.6084c8.6475-3.4849,18.4444,0.6904,21.9287,9.3042
				c3.4864,8.6142-0.6894,18.4282-9.3037,21.8964l-31.2334,12.6089C805.7813,398.937,803.6436,399.3315,801.5566,399.3315
				L801.5566,399.3315z"/>
		</g>
		<g>
			<path fill="#535352" d="M879.5742,367.7852c-6.6572,0-12.9531-3.9781-15.6172-10.5372
				c-3.4843-8.6137,0.6914-18.4277,9.3047-21.913l78.0518-31.5132c8.6474-3.4356,18.4443,0.707,21.9287,9.3208
				c3.4863,8.6142-0.6895,18.4282-9.3037,21.9131l-78.0518,31.5131C883.8164,367.3906,881.6787,367.7852,879.5742,367.7852
				L879.5742,367.7852z"/>
		</g>
		<g>
			<path fill="#535352" d="M177.2432,651.5684c-6.6661,0-12.9703-3.9786-15.6172-10.5372
				c-3.4844-8.6142,0.6826-18.4277,9.3047-21.913l31.2255-12.6084c8.6387-3.4024,18.4444,0.707,21.9131,9.3203
				c3.4849,8.6142-0.6826,18.4277-9.3047,21.9131l-31.2255,12.6084C181.4761,651.1738,179.3389,651.5684,177.2432,651.5684
				L177.2432,651.5684z"/>
		</g>
		<g>
			<path fill="#535352" d="M52.374,702.0029c-6.666,0-12.9702-3.9785-15.6172-10.5381c-3.4843-8.6132,0.6827-18.4277,9.3047-21.8964
				l78.0679-31.5293c8.6304-3.501,18.4443,0.6904,21.9126,9.3046c3.4853,8.6133-0.6816,18.4278-9.3037,21.8965l-78.0684,31.5293
				C56.6069,701.6084,54.4697,702.0029,52.374,702.0029L52.374,702.0029z"/>
		</g>
		<g>
			<path fill="#535352" d="M637.3984,846.8945c-6.6582,0-12.9707-3.9785-15.6171-10.537l-12.5918-31.2344
				c-3.4688-8.6298,0.6894-18.4277,9.3203-21.913c8.6308-3.419,18.4443,0.707,21.9131,9.3213l12.5927,31.2333
				c3.4678,8.6309-0.6913,18.4278-9.3213,21.9131C641.6387,846.5,639.502,846.8945,637.3984,846.8945L637.3984,846.8945z"/>
		</g>
		<g>
			<path fill="#535352" d="M687.8652,971.7637c-6.6582,0-12.9531-3.9785-15.6172-10.5215l-31.5292-78.0508
				c-3.4844-8.6309,0.6904-18.4443,9.3046-21.9131c8.6465-3.5019,18.4434,0.6905,21.9297,9.2881l31.5293,78.0508
				c3.4844,8.6308-0.6913,18.4443-9.3047,21.9131C692.1064,971.3691,689.9688,971.7637,687.8652,971.7637L687.8652,971.7637z"/>
		</g>
		<g>
			<path fill="#535352" d="M385.2021,222.5815c-6.666,0-12.9702-3.9785-15.6167-10.521l-12.6-31.1845
				c-3.4854-8.6304,0.6816-18.4444,9.3037-21.9126c8.6474-3.4688,18.4443,0.6904,21.913,9.2876l12.6006,31.1845
				c3.4849,8.6304-0.6821,18.4444-9.3047,21.9131C389.4355,222.187,387.2979,222.5815,385.2021,222.5815L385.2021,222.5815z"/>
		</g>
		<g>
			<path fill="#535352" d="M353.6729,144.5464c-6.6661,0-12.9708-3.978-15.6172-10.521l-31.5293-78.0513
				c-3.4854-8.6304,0.6816-18.4443,9.3042-21.9131c8.6303-3.5014,18.436,0.6905,21.9126,9.2881l31.5297,78.0513
				c3.4849,8.6304-0.6821,18.4443-9.3041,21.9131C357.9053,144.1519,355.7686,144.5464,353.6729,144.5464L353.6729,144.5464z"/>
		</g>
	</g>
</g>
</svg>
