<?xml version="1.0" encoding="utf-8"?>
<!-- Generator: Adobe Illustrator 17.1.0, SVG Export Plug-In . SVG Version: 6.00 Build 0)  -->
<!DOCTYPE svg PUBLIC "-//W3C//DTD SVG 1.1//EN" "http://www.w3.org/Graphics/SVG/1.1/DTD/svg11.dtd">
<svg version="1.1" id="telescope" xmlns="http://www.w3.org/2000/svg" xmlns:xlink="http://www.w3.org/1999/xlink" x="0px" y="0px"
	 viewBox="0 0 957.9769 1010" enable-background="new 0 0 957.9769 1010" xml:space="preserve">
<g id="telescope-telescope">
	<g id="telescope-telescope_1_">
		<g>
			<g>
				<path fill="#B0D8EF" d="M271.5404,805.3525v-20.5214c0-29.4151,23.8945-53.3418,53.3095-53.3418h68.9473
					c29.415,0,53.3096,23.9267,53.3096,53.3418v20.5214H271.5404z"/>
			</g>
			<g>
				<path fill="#A5A5A4" d="M64.1571,675.1094c-3.0542,0-13.4268-0.9698-18.3267-13.252l-31.4829-78.8418l6.9682-16.1631
					l146.4698-58.4326h3.5156c8.145,0,15.3994,4.8682,18.5176,12.3613l36.6689,88.5147l-15.6699,8.1143l-2.418,1.1601
					L75.7865,671.5781l-2.7842,3.0391L64.1571,675.1094z"/>
			</g>
			<g>
				<path fill="#B7B7B6" d="M255.346,651.0244c-3.0068,0-13.2202-0.9385-18.2158-13.0127l-68.5811-165.4492
					c-4.1684-9.8955,0.7315-21.9063,10.7378-26.1055l146.6768-60.6914h3.6108c8.0181,0,15.2246,4.7412,18.3907,12.0908
					l71.3339,173.1475l-3.166,8.4961c-2.1797,4.8994-6.1406,8.6855-11.1357,10.5947l-137.7363,57.1748l-2.8155,3.2461
					L255.346,651.0244z"/>
			</g>
			<g>
				<path fill="#C9C9C8" d="M442.907,599.0352c-8.0337,0-15.272-4.836-18.4058-12.2969l-87.752-213.0635
					c-4.0883-9.6875,0.1592-21.0303,9.7842-25.6914L592.304,231.7871h4.0889c7.9375,0,15.1288,4.6934,18.3262,11.9316
					l103.5322,245.9297l-7.3652,16.7832L446.598,598.9395L442.907,599.0352z"/>
			</g>
		</g>
		<g>
			<g>
				<path fill="#535352" d="M442.9866,614.7207c-14.5722,0-27.5376-8.7012-33.0419-22.1602L322.1932,379.625
					c-7.2066-17.6504,0.6206-37.791,17.7856-45.8965l241.126-114.2148c17.833-8.4717,40.582,0.247,48.2188,18.4541
					l100.3349,238.3408c3.8174,8.9888,3.7539,19.3291-0.207,28.3174c-3.9932,9.0049-11.5977,16.0283-20.9043,19.2734
					l-253.7881,88.8018C450.973,614.0371,447.0114,614.7207,442.9866,614.7207L442.9866,614.7207z M596.3763,248.6426
					l-242.4775,114.541c-1.5274,0.7158-2.1954,2.5059-1.5586,4.0801l87.7509,212.9199c0.732,1.7978,2.5772,2.291,3.8819,1.7812
					l253.8359-88.8247c1.0664-0.3735,1.5908-1.1215,1.8301-1.6782c0.2538-0.5566,0.4453-1.4238,0.0156-2.4424L599.2874,250.5986
					C598.6829,249.1514,597.347,248.6426,596.3763,248.6426L596.3763,248.6426z"/>
			</g>
			<g>
				<path fill="#535352" d="M255.6639,666.1211L255.6639,666.1211c-14.4771,0-27.4419-8.6377-33.0259-22.0176l-68.5976-165.5117
					c-3.6592-8.7813-3.6748-18.502-0.0323-27.3311c3.6436-8.8369,10.5157-15.7089,19.3609-19.3681l142.5405-59.1084
					c17.7695-7.3819,39.3096,1.5674,46.6914,19.3213l68.2315,165.7265c7.4609,18.1035-1.1768,39.0078-19.2969,46.5957
					l-142.2061,58.9738C264.9544,665.1992,260.3568,666.1211,255.6639,666.1211L255.6639,666.1211z M329.5907,402.6289
					L185.8255,461.999c-1.0019,0.4141-1.4795,1.1533-1.7021,1.7022c-0.2227,0.541-0.4141,1.4004,0,2.3789L252.721,631.584
					c0.8589,2.0361,2.7998,2.2754,4.1358,1.7187l142.1587-58.957c1.559-0.6523,2.3544-2.498,1.686-4.0889l-68.1992-165.6875
					C331.9134,403.1533,330.5609,402.6289,329.5907,402.6289L329.5907,402.6289z"/>
			</g>
			<g>
				<path fill="#535352" d="M64.4915,690.2383L64.4915,690.2383c-14.7158,0-27.7607-8.8125-33.2334-22.4785l-28.667-71.8907
					c-3.5478-8.7812-3.4521-18.4697,0.2862-27.2353c3.7549-8.8135,10.7065-15.6221,19.5996-19.1856l135.5879-54.1684
					c17.8178-7.0791,38.9126,1.9009,46.2622,19.4722l29.6377,71.5244c3.6909,8.8613,3.6748,18.6454-0.0479,27.5224
					c-3.7388,8.8926-10.7222,15.7646-19.6787,19.3604L77.743,687.6934C73.4954,689.3799,69.0413,690.2383,64.4915,690.2383
					L64.4915,690.2383z M171.3011,525.3154L34.5833,579.7061c-1.0024,0.3974-1.4956,1.1455-1.7343,1.6865
					c-0.2227,0.541-0.4131,1.3847-0.0157,2.3546l28.6826,71.9062c0.8277,2.0684,2.8003,2.3233,4.1368,1.7822l136.479-54.5185
					c1.0024-0.3975,1.5112-1.1611,1.7339-1.7178c0.2387-0.5566,0.4296-1.416,0.0161-2.4346l-29.6377-71.4931
					C173.6395,525.8398,172.2874,525.3154,171.3011,525.3154L171.3011,525.3154z"/>
			</g>
			<g>
				<path fill="#535352" d="M462.8089,821.0547H255.8392v-36.2236c0-38.085,30.9575-69.0596,69.0107-69.0596h68.9473
					c38.0537,0,69.0117,30.9746,69.0117,69.0596V821.0547L462.8089,821.0547z M288.4193,788.4736h141.8086v-3.6425
					c0-20.1085-16.3379-36.4786-36.4307-36.4786h-68.9473c-20.0923,0-36.4306,16.3701-36.4306,36.4786V788.4736L288.4193,788.4736z"
					/>
			</g>
			<g>
				<polygon fill="#535352" points="375.6302,732.0625 343.0491,732.0625 343.0491,615.8184 375.6302,615.8184 375.6302,732.0625 
									"/>
			</g>
			<g>
				<path fill="#535352" d="M155.8538,1010c-2.9111,0-5.8545-0.7793-8.5273-2.418c-7.6514-4.709-10.0381-14.7469-5.3291-22.3994
					l116.2598-188.9609c4.6928-7.668,14.7148-10.0547,22.415-5.3291c7.6518,4.708,10.0381,14.7461,5.3291,22.414L169.742,1002.2363
					C166.6717,1007.248,161.3265,1010,155.8538,1010L155.8538,1010z"/>
			</g>
			<g>
				<path fill="#535352" d="M359.3397,1010c-9.0044,0-16.2906-7.2861-16.2906-16.29V822.4551c0-8.9893,7.2862-16.291,16.2906-16.291
					s16.2905,7.3017,16.2905,16.291V993.71C375.6302,1002.7139,368.3441,1010,359.3397,1010L359.3397,1010z"/>
			</g>
			<g>
				<path fill="#535352" d="M562.8411,1010c-5.4726,0-10.8173-2.752-13.8877-7.7471L432.6458,813.3066
					c-4.709-7.6679-2.3222-17.6894,5.3296-22.414c7.6841-4.7256,17.7066-2.3389,22.4151,5.3291L576.6976,985.167
					c4.709,7.668,2.3232,17.706-5.3291,22.415C568.6956,1009.2207,565.7523,1010,562.8411,1010L562.8411,1010z"/>
			</g>
		</g>
	</g>
	<g>
		<g>
			<g>
				<path fill="#535352" d="M819.9387,310.4551c-6.7451,0-12.2178-5.4727-12.2178-12.2178v-87.7041
					c0-6.7451,5.4727-12.2178,12.2178-12.2178c6.7451,0,12.2178,5.4727,12.2178,12.2178v87.7041
					C832.1566,304.9824,826.6838,310.4551,819.9387,310.4551L819.9387,310.4551z"/>
			</g>
			<g>
				<path fill="#535352" d="M863.8303,266.5791h-87.7031c-6.7451,0-12.2178-5.4727-12.2178-12.2178s5.4727-12.2177,12.2178-12.2177
					h87.7031c6.7451,0,12.2178,5.4726,12.2178,12.2177S870.5754,266.5791,863.8303,266.5791L863.8303,266.5791z"/>
			</g>
		</g>
		<g>
			<g>
				<path fill="#535352" d="M776.0637,617.4258c-6.7461,0-12.2178-5.4727-12.2178-12.2178v-87.7041
					c0-6.7451,5.4717-12.2178,12.2178-12.2178c6.7451,0,12.2169,5.4727,12.2169,12.2178v87.7041
					C788.2806,611.9531,782.8088,617.4258,776.0637,617.4258L776.0637,617.4258z"/>
			</g>
			<g>
				<path fill="#535352" d="M819.9866,573.5654h-87.7353c-6.7451,0-12.2178-5.4717-12.2178-12.2177
					c0-6.7452,5.4727-12.2178,12.2178-12.2178h87.7353c6.7452,0,12.2178,5.4726,12.2178,12.2178
					C832.2043,568.0937,826.7318,573.5654,819.9866,573.5654L819.9866,573.5654z"/>
			</g>
		</g>
		<g>
			<g>
				<path fill="#535352" d="M155.8856,374.2002c-6.7451,0-12.2178-5.4727-12.2178-12.2178v-87.6719
					c0-6.7451,5.4727-12.2177,12.2178-12.2177c6.7456,0,12.2177,5.4726,12.2177,12.2177v87.6719
					C168.1033,368.7275,162.6312,374.2002,155.8856,374.2002L155.8856,374.2002z"/>
			</g>
			<g>
				<path fill="#535352" d="M199.7298,330.3408h-87.7197c-6.7451,0-12.2178-5.4726-12.2178-12.2178
					c0-6.746,5.4727-12.2177,12.2178-12.2177h87.7197c6.7451,0,12.2178,5.4717,12.2178,12.2177
					C211.9476,324.8682,206.4749,330.3408,199.7298,330.3408L199.7298,330.3408z"/>
			</g>
		</g>
		<g>
			<g>
				<polygon fill="#FDF4BC" points="704.1566,160.1826 758.1185,106.2051 704.1566,52.2598 650.1946,106.2051 				"/>
				<path fill="#535352" d="M704.1566,183.2266l-76.9971-77.0215l76.9971-76.9815l76.997,76.9815L704.1566,183.2266
					L704.1566,183.2266z M673.2308,106.2051l30.9258,30.9345l30.9267-30.9345l-30.9267-30.9102L673.2308,106.2051L673.2308,106.2051
					z"/>
			</g>
			<g>
				<line fill="#FDF4BC" x1="704.1566" y1="52.2598" x2="704.1566" y2="16.29"/>
				<path fill="#535352" d="M704.1566,68.5498c-9.0039,0-16.2901-7.2939-16.2901-16.29V16.29c0-8.9961,7.2862-16.29,16.2901-16.29
					c9.0049,0,16.291,7.2939,16.291,16.29v35.9698C720.4476,61.2559,713.1614,68.5498,704.1566,68.5498L704.1566,68.5498z"/>
			</g>
			<g>
				<line fill="#FDF4BC" x1="650.1946" y1="106.2051" x2="614.2258" y2="106.2051"/>
				<path fill="#535352" d="M650.1946,122.4951h-35.9688c-9.0038,0-16.29-7.2939-16.29-16.29c0-8.9961,7.2861-16.2901,16.29-16.2901
					h35.9688c9.0048,0,16.291,7.294,16.291,16.2901C666.4857,115.2012,659.1995,122.4951,650.1946,122.4951L650.1946,122.4951z"/>
			</g>
			<g>
				<line fill="#FDF4BC" x1="704.1566" y1="160.1826" x2="704.1566" y2="196.1357"/>
				<path fill="#535352" d="M704.1566,212.4268c-9.0039,0-16.2901-7.294-16.2901-16.2911v-35.9531
					c0-8.9961,7.2862-16.29,16.2901-16.29c9.0049,0,16.291,7.2939,16.291,16.29v35.9531
					C720.4476,205.1328,713.1614,212.4268,704.1566,212.4268L704.1566,212.4268z"/>
			</g>
			<g>
				<line fill="#FDF4BC" x1="758.1185" y1="106.2051" x2="794.0872" y2="106.2051"/>
				<path fill="#535352" d="M794.0872,122.4951h-35.9687c-9.0039,0-16.2901-7.2939-16.2901-16.29
					c0-8.9961,7.2862-16.2901,16.2901-16.2901h35.9687c9.0049,0,16.291,7.294,16.291,16.2901
					C810.3782,115.2012,803.092,122.4951,794.0872,122.4951L794.0872,122.4951z"/>
			</g>
		</g>
		<g>
			<path fill="#535352" d="M848.845,435.4482c0,8.2559,6.7129,14.9854,14.9698,14.9854c8.2724,0,15.0019-6.7295,15.0019-14.9854
				c0-8.2724-6.7295-15.0019-15.0019-15.0019C855.5579,420.4463,848.845,427.1758,848.845,435.4482"/>
			<path fill="#535352" d="M730.2151,310.4551c8.2724,0,15.0019,6.7129,15.0019,14.9853c0,8.2725-6.7295,14.9864-15.0019,14.9864
				c-8.2569,0-14.9698-6.7139-14.9698-14.9864C715.2454,317.168,721.9583,310.4551,730.2151,310.4551z"/>
			<path fill="#535352" d="M565.0687,749.1797c8.2568,0,14.9853,6.7295,14.9853,14.9863c0,8.2715-6.7285,14.9854-14.9853,14.9854
				c-8.2569,0-14.9863-6.7139-14.9863-14.9854C550.0823,755.9092,556.8118,749.1797,565.0687,749.1797z"/>
			<path fill="#535352" d="M942.9915,546.3779c8.2725,0,14.9854,6.7139,14.9854,14.9854c0,8.2568-6.713,14.9863-14.9854,14.9863
				c-8.2724,0-14.9697-6.7295-14.9697-14.9863C928.0217,553.0918,934.7191,546.3779,942.9915,546.3779z"/>
			<path fill="#535352" d="M504.68,177.7617c8.2725,0,15.002,6.7295,15.002,15.002c0,8.2724-6.7295,14.9853-15.002,14.9853
				s-15.0019-6.7129-15.0019-14.9853C489.6781,184.4912,496.4075,177.7617,504.68,177.7617z"/>
			<path fill="#535352" d="M734.2396,655.4629c8.2568,0,14.9863,6.7129,14.9863,14.9853c0,8.2569-6.7295,14.9864-14.9863,14.9864
				c-8.2725,0-15.002-6.7295-15.002-14.9864C719.2375,662.1758,725.967,655.4629,734.2396,655.4629z"/>
			<path fill="#535352" d="M594.181,651.4062c8.2724,0,14.9863,6.7129,14.9863,14.9854c0,8.2568-6.7139,14.9863-14.9863,14.9863
				c-8.2559,0-14.9854-6.7296-14.9854-14.9863C579.1956,658.1191,585.925,651.4062,594.181,651.4062z"/>
		</g>
	</g>
</g>
</svg>
