<?xml version="1.0" encoding="utf-8"?>
<!-- Generator: Adobe Illustrator 17.1.0, SVG Export Plug-In . SVG Version: 6.00 Build 0)  -->
<!DOCTYPE svg PUBLIC "-//W3C//DTD SVG 1.1//EN" "http://www.w3.org/Graphics/SVG/1.1/DTD/svg11.dtd">
<svg version="1.1" id="three-quarter-moon" xmlns="http://www.w3.org/2000/svg" xmlns:xlink="http://www.w3.org/1999/xlink" x="0px"
	 y="0px" viewBox="0 0 1010 1009.9668" enable-background="new 0 0 1010 1009.9668" xml:space="preserve">
<g id="three-quarter-moon-three-quarter-moon">
	<g>
		<g>
			<path fill="#FDF4BC" d="M505.0327,16.833c-40.5049,0-79.6621,5.5073-117.2417,14.7788c0.3291,0,0.6582,0,1.1182,0
				c188.7178,0,341.6963,153.0449,341.6963,341.6475c0,188.7827-152.9785,341.73-341.6963,341.73S47.1465,562.042,47.1465,373.2593
				c0-15.4527,1.4463-30.5596,3.4189-45.5191C29.0967,382.7446,16.833,442.4175,16.833,505.0654
				c0,269.5801,218.5703,488.0684,488.1997,488.0684c269.563,0,488.1333-218.4883,488.1333-488.0684
				C993.166,235.4858,774.5957,16.833,505.0327,16.833z"/>
			<path fill="#535352" d="M505.0327,1009.9668C226.5596,1009.9668,0,783.4736,0,505.0654
				c0-62.4179,11.7373-124.1455,34.8828-183.4404c3.0908-7.9399,11.5899-12.3457,19.875-10.1919
				c8.252,2.1206,13.6113,10.0606,12.4932,18.5098c-2.2686,17.1787-3.2715,30.5268-3.2715,43.3164
				c0,179.1499,145.7632,324.896,324.9297,324.896c179.1338,0,324.8642-145.7461,324.8642-324.896
				c0-179.1006-145.7303-324.8145-324.8642-324.8145c-8.5156,0-16.2412-6.3452-17.2774-14.7949
				c-1.019-8.4492,3.8633-16.3398,12.1319-18.3784C424.8281,5.1289,465.6289,0,505.0327,0C783.4727,0,1010,226.5757,1010,505.0654
				C1010,783.4736,783.4727,1009.9668,505.0327,1009.9668L505.0327,1009.9668z M37.5625,445.1792
				c-2.5972,19.8413-3.8955,39.8311-3.8955,59.8862c0,259.8321,211.4521,471.2344,471.3657,471.2344
				c259.8814,0,471.3013-211.4023,471.3013-471.2344c0-259.9301-211.4199-471.3989-471.3013-471.3989c-0.5752,0-1.167,0-1.7422,0
				c142.064,48.0015,244.149,182.1089,244.149,339.5928c0,197.7095-160.838,358.563-358.5303,358.563
				C215.792,731.8223,70.9502,608.5479,37.5625,445.1792L37.5625,445.1792z"/>
		</g>
	</g>
	<g>
		<g>
			<g>
				<g>
					<path fill="#535352" d="M378.125,221.9731c-6.9697,0-12.625-5.6552-12.625-12.625v-86.6982
						c0-6.9702,5.6553-12.625,12.625-12.625c6.9707,0,12.625,5.6548,12.625,12.625v86.6982
						C390.75,216.3179,385.0957,221.9731,378.125,221.9731L378.125,221.9731z"/>
				</g>
				<g>
					<path fill="#535352" d="M421.4253,178.6074h-86.7149c-6.9702,0-12.625-5.6548-12.625-12.625
						c0-6.9702,5.6548-12.625,12.625-12.625h86.7149c6.9697,0,12.625,5.6548,12.625,12.625
						C434.0503,172.9526,428.395,178.6074,421.4253,178.6074L421.4253,178.6074z"/>
				</g>
			</g>
			<g>
				<g>
					<path fill="#535352" d="M203.1504,403.523c-6.9697,0-12.625-5.6548-12.625-12.625v-86.7144
						c0-6.9702,5.6553-12.625,12.625-12.625c6.9707,0,12.625,5.6548,12.625,12.625v86.7144
						C215.7754,397.8682,210.1211,403.523,203.1504,403.523L203.1504,403.523z"/>
				</g>
				<g>
					<path fill="#535352" d="M246.4834,360.1411h-86.7637c-6.9707,0-12.625-5.6548-12.625-12.625
						c0-6.9702,5.6543-12.625,12.625-12.625h86.7637c6.9697,0,12.625,5.6548,12.625,12.625
						C259.1084,354.4863,253.4531,360.1411,246.4834,360.1411L246.4834,360.1411z"/>
				</g>
			</g>
			<g>
				<g>
					<path fill="#535352" d="M379.4072,594.7061c-6.9697,0-12.625-5.6543-12.625-12.6249v-86.6978
						c0-6.9702,5.6553-12.625,12.625-12.625c6.9707,0,12.625,5.6548,12.625,12.625v86.6978
						C392.0322,589.0518,386.3779,594.7061,379.4072,594.7061L379.4072,594.7061z"/>
				</g>
				<g>
					<path fill="#535352" d="M422.7729,551.3408H336.042c-6.9697,0-12.625-5.6543-12.625-12.625s5.6553-12.625,12.625-12.625
						h86.7309c6.9703,0,12.625,5.6543,12.625,12.625S429.7432,551.3408,422.7729,551.3408L422.7729,551.3408z"/>
				</g>
			</g>
		</g>
		<g>
			<g>
				<polygon fill="#FDF4BC" points="505,396.2407 444.4067,335.6309 505,275.0376 565.627,335.6309 				"/>
				<path fill="#535352" d="M505,420.0439l-84.397-84.413L505,251.2339l84.4297,84.397L505,420.0439L505,420.0439z M468.21,335.6309
					L505,372.4375l36.8223-36.8066L505,298.8408L468.21,335.6309L468.21,335.6309z"/>
			</g>
			<g>
				<line fill="#FDF4BC" x1="505" y1="275.0376" x2="505" y2="234.6309"/>
				<path fill="#535352" d="M505,291.8706c-9.3042,0-16.8335-7.5288-16.8335-16.833v-40.4067
					c0-9.3042,7.5293-16.8335,16.8335-16.8335c9.3047,0,16.834,7.5293,16.834,16.8335v40.4067
					C521.834,284.3418,514.3047,291.8706,505,291.8706L505,291.8706z"/>
			</g>
			<g>
				<line fill="#FDF4BC" x1="565.627" y1="335.6309" x2="606" y2="335.6309"/>
				<path fill="#535352" d="M606,352.4644h-40.373c-9.3047,0-16.834-7.5293-16.834-16.8335s7.5292-16.8335,16.834-16.8335H606
					c9.3047,0,16.834,7.5293,16.834,16.8335S615.3047,352.4644,606,352.4644L606,352.4644z"/>
			</g>
			<g>
				<line fill="#FDF4BC" x1="505" y1="396.2407" x2="505" y2="436.6309"/>
				<path fill="#535352" d="M505,453.4644c-9.3042,0-16.8335-7.5293-16.8335-16.8335v-40.3902
					c0-9.3042,7.5293-16.8335,16.8335-16.8335c9.3047,0,16.834,7.5293,16.834,16.8335v40.3902
					C521.834,445.9351,514.3047,453.4644,505,453.4644L505,453.4644z"/>
			</g>
			<g>
				<line fill="#FDF4BC" x1="444.4067" y1="335.6309" x2="404" y2="335.6309"/>
				<path fill="#535352" d="M444.4067,352.4644H404c-9.3042,0-16.833-7.5293-16.833-16.8335s7.5288-16.8335,16.833-16.8335h40.4067
					c9.3042,0,16.833,7.5293,16.833,16.8335S453.7109,352.4644,444.4067,352.4644L444.4067,352.4644z"/>
			</g>
		</g>
	</g>
	<g>
		<path fill="#535352" d="M92.583,727.9756c0,9.2881-7.5449,16.834-16.833,16.834s-16.833-7.5459-16.833-16.834
			s7.5449-16.833,16.833-16.833S92.583,718.6875,92.583,727.9756"/>
		<g>
			<path fill="#535352" d="M75.75,126.0195c-9.2881,0-16.833,7.5454-16.833,16.8335s7.5449,16.8335,16.833,16.8335
				s16.833-7.5454,16.833-16.8335S85.0381,126.0195,75.75,126.0195z"/>
			<path fill="#535352" d="M176.75,925.8164c-9.2881,0-16.833,7.5459-16.833,16.834s7.5449,16.833,16.833,16.833
				s16.833-7.5449,16.833-16.833S186.0381,925.8164,176.75,925.8164z"/>
			<path fill="#535352" d="M277.75,16.8169c-9.2881,0-16.833,7.5454-16.833,16.833c0,9.2881,7.5449,16.8335,16.833,16.8335
				s16.833-7.5454,16.833-16.8335C294.583,24.3623,287.0381,16.8169,277.75,16.8169z"/>
			<path fill="#535352" d="M951.084,67.3169c-9.2891,0-16.834,7.5454-16.834,16.833c0,9.2881,7.5449,16.8335,16.834,16.8335
				c9.2871,0,16.832-7.5454,16.832-16.8335C967.916,74.8623,960.3711,67.3169,951.084,67.3169z"/>
			<path fill="#535352" d="M791.166,662.7959c-9.2871,0-16.832,7.5449-16.832,16.833c0,9.2881,7.5449,16.834,16.832,16.834
				c9.2891,0,16.834-7.5459,16.834-16.834C808,670.3408,800.4551,662.7959,791.166,662.7959z"/>
			<path fill="#535352" d="M277.75,433.4419c-9.2881,0-16.833,7.5454-16.833,16.833c0,9.2881,7.5449,16.8335,16.833,16.8335
				s16.833-7.5454,16.833-16.8335C294.583,440.9873,287.0381,433.4419,277.75,433.4419z"/>
		</g>
	</g>
</g>
</svg>
