<?xml version="1.0" encoding="utf-8"?>
<!-- Generator: Adobe Illustrator 17.1.0, SVG Export Plug-In . SVG Version: 6.00 Build 0)  -->
<!DOCTYPE svg PUBLIC "-//W3C//DTD SVG 1.1//EN" "http://www.w3.org/Graphics/SVG/1.1/DTD/svg11.dtd">
<svg version="1.1" id="uranus-2" xmlns="http://www.w3.org/2000/svg" xmlns:xlink="http://www.w3.org/1999/xlink" x="0px" y="0px"
	 viewBox="0 0 1010.0006 870.0976" enable-background="new 0 0 1010.0006 870.0976" xml:space="preserve">
<g id="uranus-2-uranus">
	<g>
		<g>
			<path fill="#B0D8EF" d="M830.9711,435.0488c0,179.9854-146.0117,325.9219-325.9668,325.9219
				c-179.9702,0-325.9829-145.9365-325.9829-325.9219c0-180.1372,146.0127-325.8916,325.9829-325.8916
				C684.9595,109.1572,830.9711,254.9116,830.9711,435.0488z"/>
			<path fill="#535352" d="M505.0044,776.5088c-188.3159,0-341.5205-153.1748-341.5205-341.46
				c0-188.27,153.2046-341.4297,341.5205-341.4297c188.3008,0,341.5059,153.1597,341.5059,341.4297
				C846.5103,623.334,693.3052,776.5088,505.0044,776.5088L505.0044,776.5088z M505.0044,124.6943
				c-171.1851,0-310.4458,139.2305-310.4458,310.3545c0,171.1396,139.2607,310.3848,310.4458,310.3848
				c171.1699,0,310.4297-139.2452,310.4297-310.3848C815.434,263.9248,676.1743,124.6943,505.0044,124.6943L505.0044,124.6943z"/>
		</g>
		<g>
			<path fill="#FDF4BC" d="M993.1899,296.2134c-9.3614-33.2295-72.1485-48.1905-165.8145-45.4292
				c13.293,5.5839,23.2617,12.4423,25.9921,21.8496c14.3535,50.6787-137.4844,137.7734-339.0469,194.9775
				c-201.5771,57.2939-376.7529,62.665-390.894,12.2598c-2.7617-9.4688,2.1391-20.6661,10.5302-32.2588
				C52.7647,494.4375,7.3662,539.9267,16.8496,573.4297c19.0269,67.4599,253.333,60.2373,522.9165-16.2364
				C809.35,480.6601,1012.4907,364.0078,993.1899,296.2134z"/>
			<path fill="#535352" d="M161.8906,635.1845h-0.0151c-95.394,0-149.2144-19.3613-159.9868-57.5371
				c-11.5928-40.9521,30.2246-89.2343,124.2993-143.4941c6.3423-3.6563,14.3994-2.3818,19.3003,3.0498
				c4.916,5.4473,5.3408,13.5801,1.0469,19.5137c-9.2862,12.8359-8.4512,17.9189-8.1934,18.7988
				c2.458,8.7705,24.8389,23.3516,93.3613,23.3516c73.6206-0.0147,175.0845-16.8418,278.3697-46.2022
				c213.6543-60.6323,337.166-144.6162,328.334-175.7978c-0.334-1.1534-2.625-5.7051-17.0547-11.7588
				c-6.7364-2.8379-10.5899-9.9844-9.2559-17.1612c1.3359-7.1923,7.5117-12.4726,14.8242-12.7002
				c7.4356-0.2124,14.6875-0.3183,21.7442-0.3183c95.1504,0,148.8047,19.1938,159.4707,57.0664
				c14.6875,51.6045-60.1778,107.2754-125.5899,144.9053c-86.6386,49.8291-206.8711,97.8525-338.5449,135.2392
				C402.7665,612.2119,263.4912,635.1845,161.8906,635.1845L161.8906,635.1845z M107.9043,481.874
				c-61.9678,40.876-80.6309,71.3447-76.1094,87.3223c4.7647,16.8877,41.4385,34.913,130.0806,34.913
				c98.854,0,235.0493-22.5468,373.6426-61.8613c129.3066-36.7041,247.0351-83.6953,331.5351-132.2959
				c90.1914-51.8623,116.5782-90.5693,111.1914-109.4902c-4.3554-15.4317-35.916-31.8032-110.6132-34.1704
				c0.2421,0.6528,0.455,1.3198,0.6523,2.018c19.8008,69.9034-160.9434,160.67-349.7305,214.2471
				c-105.9238,30.1035-210.4677,47.3711-286.8501,47.3858c-73.2412,0-114.6953-15.4307-123.2373-45.8682
				C108.2529,483.3457,108.0557,482.6015,107.9043,481.874L107.9043,481.874z"/>
		</g>
	</g>
	<g>
		<g>
			<g>
				<path fill="#535352" d="M587.6685,696.9092c-6.4336,0-11.6524-5.2198-11.6524-11.6534v-55.4121
					c0-6.4336,5.2188-11.6533,11.6524-11.6533s11.6523,5.2197,11.6523,11.6533v55.4121
					C599.3207,691.6894,594.1021,696.9092,587.6685,696.9092L587.6685,696.9092z"/>
			</g>
			<g>
				<path fill="#535352" d="M615.3599,669.2031h-55.3985c-6.4336,0-11.6523-5.2197-11.6523-11.6533s5.2188-11.6533,11.6523-11.6533
					h55.3985c6.4336,0,11.6523,5.2197,11.6523,11.6533S621.7935,669.2031,615.3599,669.2031L615.3599,669.2031z"/>
			</g>
		</g>
		<g>
			<g>
				<path fill="#535352" d="M309.6786,341.6118c-6.4336,0-11.6533-5.2197-11.6533-11.6528v-55.3526
					c0-6.4336,5.2197-11.6533,11.6533-11.6533s11.6529,5.2197,11.6529,11.6533v55.3526
					C321.3315,336.3921,316.1122,341.6118,309.6786,341.6118L309.6786,341.6118z"/>
			</g>
			<g>
				<path fill="#535352" d="M337.3545,313.9355h-55.3672c-6.4336,0-11.6533-5.2197-11.6533-11.6528
					c0-6.4336,5.2197-11.6528,11.6533-11.6528h55.3672c6.4336,0,11.6533,5.2192,11.6533,11.6528
					C349.0078,308.7158,343.7881,313.9355,337.3545,313.9355L337.3545,313.9355z"/>
			</g>
		</g>
		<g>
			<g>
				<path fill="#535352" d="M660.3188,350.8369c-6.4336,0-11.6543-5.2197-11.6543-11.6528V283.832
					c0-6.4336,5.2207-11.6533,11.6543-11.6533s11.6523,5.2197,11.6523,11.6533v55.3521
					C671.9711,345.6172,666.7524,350.8369,660.3188,350.8369L660.3188,350.8369z"/>
			</g>
			<g>
				<path fill="#535352" d="M688.0239,323.1611h-55.3671c-6.4336,0-11.6524-5.2197-11.6524-11.6533
					c0-6.4336,5.2188-11.6528,11.6524-11.6528h55.3671c6.4336,0,11.6543,5.2192,11.6543,11.6528
					C699.6782,317.9414,694.4575,323.1611,688.0239,323.1611L688.0239,323.1611z"/>
			</g>
		</g>
		<path fill="#FFFFFF" d="M437.1494,220.9238c0-10.3184,8.3452-18.6631,18.5264-18.542c10.0752,0,18.4961,8.2236,18.375,18.542
			c0.1211,10.2871-8.0566,18.3594-18.375,18.3594C445.4946,239.2832,437.1494,231.2109,437.1494,220.9238"/>
		<path fill="#FFFFFF" d="M692.6371,592.9726c0-10.3183,8.3008-18.6933,18.541-18.5722c10.0313,0,18.4356,8.2539,18.3145,18.5722
			c0.1211,10.3174-8.0567,18.3897-18.3145,18.3897C700.9379,611.3623,692.6371,603.29,692.6371,592.9726"/>
		<path fill="#FFFFFF" d="M353.0137,376.1767c0-10.2876,8.2842-18.6328,18.5566-18.4814c9.999,0,18.4053,8.1938,18.3145,18.4814
			c0.0908,10.3477-8.1182,18.4502-18.3145,18.4502C361.2979,394.6269,353.0137,386.5244,353.0137,376.1767"/>
		<g>
			<path fill="#FFFFFF" d="M584.436,261.0722c-1.5312,8.5274-9.6503,14.2325-18.1777,12.7149
				c-8.5566-1.4868-14.2773-9.6504-12.7598-18.1778c1.4864-8.5576,9.6954-14.2324,18.1778-12.7451
				C580.2192,244.3813,585.9243,252.5141,584.436,261.0722"/>
			<path fill="#FFFFFF" d="M468.4521,641.6181c-1.4873,8.5274-9.6353,14.2022-18.1324,12.7452
				c-8.5727-1.5469-14.2631-9.6797-12.7456-18.1778c1.4566-8.5273,9.6504-14.2324,18.1929-12.7451
				C464.2636,624.9277,469.9995,633.0908,468.4521,641.6181"/>
			<path fill="#FFFFFF" d="M476.5244,356.33c2.2608,8.4058-2.7163,16.9639-11.1074,19.2393
				c-8.3603,2.2461-16.9639-2.7612-19.1943-11.1064c-2.2451-8.376,2.7314-16.9639,11.0918-19.2095
				C465.6903,343.0078,474.3242,347.9843,476.5244,356.33"/>
		</g>
	</g>
	<g>
		<path fill="#535352" d="M99.544,657.914c0,8.5879-6.9649,15.5371-15.5376,15.5371c-8.5728,0-15.5376-6.9492-15.5376-15.5371
			c0-8.5576,6.9648-15.5371,15.5376-15.5371C92.5791,642.3769,99.544,649.3564,99.544,657.914"/>
		<g>
			<path fill="#535352" d="M118.1309,100.8115c-8.5728,0-15.5371,6.9492-15.5371,15.5381c0,8.5576,6.9643,15.5371,15.5371,15.5371
				c8.5732,0,15.5376-6.9795,15.5376-15.5371C133.6685,107.7607,126.7041,100.8115,118.1309,100.8115z"/>
			<path fill="#535352" d="M211.3555,839.0224c-8.5728,0-15.5371,6.9795-15.5371,15.5381c0,8.5879,6.9643,15.5371,15.5371,15.5371
				c8.5732,0,15.5376-6.9492,15.5376-15.5371C226.8931,846.0019,219.9287,839.0224,211.3555,839.0224z"/>
			<path fill="#535352" d="M304.58,0c-8.5728,0-15.5371,6.9804-15.5371,15.5381c0,8.5878,6.9643,15.5371,15.5371,15.5371
				c8.5732,0,15.5376-6.9493,15.5376-15.5371C320.1176,6.9804,313.1533,0,304.58,0z"/>
			<path fill="#535352" d="M830.9711,98.915c-8.5723,0-15.5371,6.9649-15.5371,15.5371c0,8.5733,6.9648,15.5381,15.5371,15.5381
				c8.5742,0,15.5391-6.9648,15.5391-15.5381C846.5103,105.8799,839.5453,98.915,830.9711,98.915z"/>
			<path fill="#535352" d="M853.3383,672.2383c-8.5742,0-15.5391,6.9794-15.5391,15.537c0,8.588,6.9649,15.5372,15.5391,15.5372
				c8.5723,0,15.5372-6.9492,15.5372-15.5372C868.8755,679.2177,861.9106,672.2383,853.3383,672.2383z"/>
			<path fill="#535352" d="M68.4688,306.5312c-8.5728,0-15.5371,6.9795-15.5371,15.5371c0,8.5884,6.9643,15.5376,15.5371,15.5376
				c8.5732,0,15.5376-6.9492,15.5376-15.5376C84.0064,313.5107,77.042,306.5312,68.4688,306.5312z"/>
		</g>
	</g>
</g>
</svg>
