<?xml version="1.0" encoding="utf-8"?>
<!-- Generator: Adobe Illustrator 17.1.0, SVG Export Plug-In . SVG Version: 6.00 Build 0)  -->
<!DOCTYPE svg PUBLIC "-//W3C//DTD SVG 1.1//EN" "http://www.w3.org/Graphics/SVG/1.1/DTD/svg11.dtd">
<svg version="1.1" id="uranus" xmlns="http://www.w3.org/2000/svg" xmlns:xlink="http://www.w3.org/1999/xlink" x="0px" y="0px"
	 viewBox="0 0 1010.0007 942.7583" enable-background="new 0 0 1010.0007 942.7583" xml:space="preserve">
<g id="uranus-uranus">
	<g>
		<path fill="#FDF4BC" d="M914.2766,471.3794c0,225.957-183.2129,409.1689-409.1612,409.1689
			c-225.957,0-409.1523-183.2119-409.1523-409.1689c0-225.9731,183.1953-409.1689,409.1523-409.1689
			C731.0637,62.2105,914.2766,245.4063,914.2766,471.3794z"/>
		<path fill="#535352" d="M505.1154,897.3833c-234.8842,0-425.9873-191.1035-425.9873-426.0039S270.2312,45.3755,505.1154,45.3755
			c234.8916,0,425.9951,191.1035,425.9951,426.0039S740.007,897.3833,505.1154,897.3833L505.1154,897.3833z M505.1154,79.0459
			c-216.3232,0-392.3173,175.9941-392.3173,392.3335c0,216.3398,175.9941,392.334,392.3173,392.334
			c216.3145,0,392.3252-175.9942,392.3252-392.334C897.4406,255.04,721.4299,79.0459,505.1154,79.0459L505.1154,79.0459z"/>
	</g>
	<g>
		<path fill="#535352" d="M176.2746,821.7075c-77.418,0-135.2392-21.8984-161.4453-67.2568
			c-33.9985-58.8408-9.0913-144.6436,70.1348-241.5752c5.9023-7.2012,16.4902-8.2539,23.6909-2.3848
			c7.2007,5.8867,8.2695,16.4903,2.3838,23.6914c-68.7212,84.0918-93.1675,158.2383-67.044,203.4336
			c54.6807,94.7129,312.0552,52.8223,562.024-91.458c249.9589-144.2978,414.9218-346.268,360.2089-441.0306
			c-26.0742-45.1944-102.5879-61.0923-209.7793-43.6329c-9.3388,1.4961-17.8222-4.7509-19.3339-13.9082
			c-1.4805-9.1904,4.7343-17.8378,13.9082-19.3339c123.664-20.0738,210.4043,1.2002,244.3701,60.04
			c66.0245,114.376-97.6231,328.2983-372.5401,487.0308C456.9943,771.0718,294.0041,821.7075,176.2746,821.7075L176.2746,821.7075z"
			/>
	</g>
	<g>
		<path fill="#535352" d="M103.8049,711.229c0,9.2881-7.5459,16.834-16.835,16.834c-9.289,0-16.8349-7.5459-16.8349-16.834
			c0-9.2891,7.5459-16.8359,16.8349-16.8359C96.259,694.3931,103.8049,701.9399,103.8049,711.229"/>
		<g>
			<path fill="#535352" d="M86.9699,109.2139c-9.289,0-16.8349,7.5459-16.8349,16.8349c0,9.2886,7.5459,16.835,16.8349,16.835
				c9.2891,0,16.835-7.5464,16.835-16.835C103.8049,116.7598,96.259,109.2139,86.9699,109.2139z"/>
			<path fill="#535352" d="M187.9797,909.0884c-9.2886,0-16.835,7.5469-16.835,16.8359c0,9.2881,7.5464,16.834,16.835,16.834
				c9.2891,0,16.835-7.5459,16.835-16.834C204.8147,916.6353,197.2688,909.0884,187.9797,909.0884z"/>
			<path fill="#535352" d="M288.9895,0c-9.2886,0-16.835,7.5464-16.835,16.835c0,9.289,7.5464,16.8349,16.835,16.8349
				c9.289,0,16.8349-7.5459,16.8349-16.8349C305.8244,7.5464,298.2785,0,288.9895,0z"/>
			<path fill="#535352" d="M962.3801,50.5049c-9.2715,0-16.834,7.5464-16.834,16.8354c0,9.2886,7.5625,16.835,16.834,16.835
				c9.3056,0,16.8359-7.5464,16.8359-16.835C979.2159,58.0513,971.6857,50.5049,962.3801,50.5049z"/>
			<path fill="#535352" d="M802.4484,646.0425c-9.2724,0-16.8349,7.5459-16.8349,16.8349c0,9.2891,7.5625,16.835,16.8349,16.835
				c9.3047,0,16.835-7.5459,16.835-16.835C819.2834,653.5884,811.7531,646.0425,802.4484,646.0425z"/>
			<path fill="#535352" d="M288.9895,416.666c-9.2886,0-16.835,7.5459-16.835,16.835c0,9.2886,7.5464,16.8349,16.835,16.8349
				c9.289,0,16.8349-7.5463,16.8349-16.8349C305.8244,424.2119,298.2785,416.666,288.9895,416.666z"/>
		</g>
	</g>
</g>
</svg>
