<?xml version="1.0" encoding="utf-8"?>
<!-- Generator: Adobe Illustrator 17.1.0, SVG Export Plug-In . SVG Version: 6.00 Build 0)  -->
<!DOCTYPE svg PUBLIC "-//W3C//DTD SVG 1.1//EN" "http://www.w3.org/Graphics/SVG/1.1/DTD/svg11.dtd">
<svg version="1.1" id="ursa-minor" xmlns="http://www.w3.org/2000/svg" xmlns:xlink="http://www.w3.org/1999/xlink" x="0px" y="0px"
	 viewBox="0 0 1009.9999 975.1876" enable-background="new 0 0 1009.9999 975.1876" xml:space="preserve">
<g id="ursa-minor-ursa-minor">
	<path fill="#535352" d="M906.0586,801.4542c9.6016,0,17.4258,7.7919,17.4258,17.4257c0,9.6006-7.792,17.4268-17.4258,17.4268
		c-9.6328,0-17.459-7.8262-17.459-17.4268C888.6328,809.2461,896.4258,801.4542,906.0586,801.4542"/>
	<path fill="#535352" d="M417.853,888.6172c9.6172-0.0332,17.4341,7.792,17.4341,17.4258c0,9.6006-7.8169,17.459-17.4175,17.459
		c-9.6421,0-17.459-7.8584-17.459-17.459C400.4106,896.4092,408.2275,888.6172,417.853,888.6172"/>
	<path fill="#535352" d="M400.4106,539.9004c9.6416,0,17.4424,7.793,17.4424,17.4258c0,9.6338-7.8169,17.4268-17.4424,17.3936
		c-9.601,0.0654-17.434-7.7598-17.4174-17.3936C382.9766,547.6934,390.8096,539.9004,400.4106,539.9004"/>
	<path fill="#535352" d="M69.1289,156.3243c9.625,0,17.4424,7.8086,17.4424,17.4257c0,9.6338-7.8174,17.4424-17.4424,17.4424
		c-9.5928,0-17.4263-7.8252-17.4263-17.4424C51.7026,164.1329,59.5195,156.3243,69.1289,156.3243"/>
	<path fill="#535352" d="M417.853,69.1456c9.6172,0,17.4341,7.8086,17.4341,17.4257c0,9.6006-7.8169,17.4258-17.4341,17.4258
		c-9.6089,0.0166-17.4424-7.8252-17.4424-17.4092C400.4106,76.9375,408.2275,69.1456,417.853,69.1456"/>
	<g>
		<path fill="#FDF4BC" d="M746.1348,37.2686c27.2246,27.2246,27.2246,71.3809,0,98.6211c-27.2245,27.2402-71.3809,27.2402-98.6368,0
			c-27.2246-27.2402-27.2246-71.3799,0-98.6211C674.7539,10.0284,718.9102,10.0284,746.1348,37.2686z"/>
		<path fill="#535352" d="M696.8164,173.1583c-23.1143,0-44.8633-9.0088-61.2207-25.3663c-33.751-33.75-33.751-88.6748,0-122.4248
			C651.9531,9.0098,673.7021,0,696.8164,0c23.1309,0,44.8799,9.0098,61.2207,25.3672
			c16.3408,16.3409,25.3495,38.0733,25.3495,61.2041c0,23.1309-9.0088,44.8633-25.3495,61.2207
			C741.6963,164.1495,719.9473,173.1583,696.8164,173.1583L696.8164,173.1583z M696.8164,33.669
			c-14.1221,0-27.4219,5.5068-37.417,15.5019c-20.6152,20.6319-20.6152,54.1856,0,74.8165
			c19.9911,19.9912,54.8428,19.9912,74.8174,0c10.0117-9.9952,15.502-23.2784,15.502-37.4161
			c0-14.122-5.4903-27.4052-15.4865-37.4004C724.2373,39.1758,710.9541,33.669,696.8164,33.669L696.8164,33.669z"/>
	</g>
	<g>
		<path fill="#FDF4BC" d="M972.7715,259.17c27.2558,27.2568,27.2558,71.414,0,98.6543
			c-27.2246,27.2236-71.3486,27.207-98.6055-0.0166c-27.2568-27.2237-27.2568-71.3643,0-98.6211
			C901.4229,231.9629,945.5469,231.9297,972.7715,259.17z"/>
		<path fill="#535352" d="M923.4844,395.0762c-23.1133,0-44.8467-9.0088-61.2207-25.3496
			c-33.7666-33.751-33.7666-88.6748-0.0157-122.4424c16.3897-16.3574,38.1231-25.3662,61.254-25.3662
			c23.1298,0,44.8466,9.0088,61.1874,25.3496c33.75,33.7676,33.75,88.708-0.0166,122.459
			C968.332,386.0674,946.6152,395.0762,923.4844,395.0762L923.4844,395.0762z M923.502,255.587
			c-14.1221,0-27.4385,5.5068-37.4493,15.5185c-20.6152,20.6153-20.6152,54.1846,0.0157,74.7998
			c19.9902,19.9912,54.8418,19.9746,74.8007,0.0166c20.6475-20.6318,20.6309-54.2011,0-74.8496
			C950.9063,261.0938,937.623,255.587,923.502,255.587L923.502,255.587z"/>
	</g>
	<g>
		<path fill="#FDF4BC" d="M693.8242,525.4668c27.2237,27.2237,27.2237,71.4131,0,98.6045
			c-27.2246,27.2569-71.3808,27.2569-98.6378,0c-27.2236-27.2236-27.2236-71.3808,0-98.6045
			C622.4102,498.2344,666.5996,498.2344,693.8242,525.4668z"/>
		<path fill="#535352" d="M644.5059,661.3565c-23.1154,0-44.8643-9.0089-61.2217-25.3828
			c-16.3408-16.3408-25.3496-38.0742-25.3496-61.1885c0-23.1465,9.0089-44.8799,25.3662-61.2206
			c16.3242-16.3496,38.0576-25.3584,61.2051-25.3584c23.1464,0,44.8788,9.0088,61.2206,25.3584
			c16.3408,16.3408,25.3496,38.0742,25.3496,61.2206c0,23.1143-9.0088,44.8809-25.3661,61.2207
			C689.3848,652.3477,667.6523,661.3565,644.5059,661.3565L644.5059,661.3565z M644.5059,521.8829
			c-14.1387,0-27.4219,5.4912-37.4005,15.4863c-10.0117,9.9951-15.502,23.2783-15.502,37.416
			c0,14.1055,5.4903,27.3887,15.4854,37.3839c20.0234,19.9902,54.8584,20.0234,74.8164,0.0332
			c10.0117-9.9951,15.5029-23.2783,15.5029-37.4171c0-14.1377-5.4912-27.4209-15.4863-37.3838
			C671.9268,527.3741,658.6436,521.8829,644.5059,521.8829L644.5059,521.8829z"/>
	</g>
	<g>
		<path fill="#FDF4BC" d="M479.4849,296.1426c34.0464,34.0635,34.0464,89.2676,0,123.3135
			c-34.0298,34.0469-89.2173,34.0469-123.2803-0.0166c-34.0542-34.0293-34.0542-89.2334,0-123.2637
			C390.2676,262.1299,445.4551,262.1299,479.4849,296.1426z"/>
		<path fill="#535352" d="M417.8613,461.8213c-27.7832,0-53.9052-10.8173-73.5591-30.4795
			c-19.6533-19.6289-30.4707-45.7509-30.4707-73.5341c0-27.7832,10.8174-53.9053,30.4707-73.5342
			c19.6617-19.6455,45.7847-30.4785,73.5674-30.4785c27.7744,0,53.8804,10.8164,73.5176,30.4453
			c40.5562,40.5732,40.5562,106.5615,0,147.1181C471.7583,451.004,445.644,461.8213,417.8613,461.8213L417.8613,461.8213z
			 M417.8696,287.4629c-18.7905,0-36.4633,7.3321-49.7627,20.6153C354.8154,321.3614,347.5,339.0176,347.5,357.8077
			c0,18.791,7.3154,36.4463,20.6069,49.7295c13.2994,13.2998,30.9722,20.6152,49.7544,20.6152
			c18.7823,0,36.438-7.3154,49.7134-20.5986c27.4375-27.4209,27.4292-72.0713,0-99.5088
			C454.3076,294.7784,436.6519,287.4629,417.8696,287.4629L417.8696,287.4629z"/>
	</g>
	<g>
		<path fill="#535352" d="M697.9004,557.8858l-12.8877-16.7354c-0.9697-1.25-1.874-2.5644-3.0576-3.7158
			c-19.662-19.6943-53.5606-20.0234-73.666-0.9863l-11.8857,11.2451l-133.958-133.958l9.6006-11.7871
			c20.8535-25.5801,20.8535-62.7012,0.0083-88.2647l-9.6172-11.7871l187.1157-187.1474l11.8848,10.7842
			c20.2207,18.3466,53.5117,17.6884,72.7949-1.5459l1.6602-2.1534l11.8867-12.872l150.1914,150.2246l-11.9023,11.9023
			c-20.6309,20.6319-20.6309,54.2012,0,74.8164l11.9023,11.9024L697.9004,557.8858L697.9004,557.8858z M644.7031,488.2725
			c20.4005,0,39.7344,7.0527,55.2032,19.9981l151.6064-151.6299c-19.4316-28.999-19.4316-67.2705,0-96.2871L747.7793,156.5713
			c-27.4375,20.0557-66.9746,21.4864-96.041,3.6162L506.9395,305.004c19.1679,32.4023,19.1679,73.1884,0,105.6074l91.207,91.2236
			C611.9551,493.0069,628.0332,488.2725,644.7031,488.2725L644.7031,488.2725z"/>
	</g>
	<g>
		<path fill="#FDF4BC" d="M138.8818,522.4747c28.8926,0,52.3106,23.4101,52.3106,52.3105c0,28.8682-23.4014,52.2783-52.3106,52.2783
			c-28.8847,0-52.3105-23.4101-52.3105-52.3105C86.5713,545.8516,109.981,522.4747,138.8818,522.4747z"/>
		<path fill="#535352" d="M138.8818,643.8975c-38.1235,0-69.145-31.0049-69.145-69.1445c0-38.1074,31.0215-69.1123,69.145-69.1123
			c38.1231,0,69.1446,31.0049,69.1446,69.1445C208.0264,612.8926,177.0049,643.8975,138.8818,643.8975L138.8818,643.8975z
			 M138.8818,539.3086c-19.5634,0-35.4765,15.9141-35.4765,35.4444c0,19.5625,15.9131,35.4765,35.4765,35.4765
			c19.563,0,35.4766-15.914,35.4766-35.4443C174.3584,555.2227,158.4448,539.3086,138.8818,539.3086L138.8818,539.3086z"/>
	</g>
	<g>
		<path fill="#FDF4BC" d="M69.1289,853.7647c28.9087,0,52.3106,23.3779,52.3106,52.2783s-23.4019,52.3106-52.3106,52.3106
			c-28.8926,0-52.2949-23.4102-52.2949-52.3106S40.2363,853.7647,69.1289,853.7647z"/>
		<path fill="#535352" d="M69.1289,975.1876C31.0137,975.1876,0,944.1827,0,906.043c0-38.1074,31.0137-69.1123,69.1289-69.1123
			c38.1231,0,69.1445,31.0049,69.1445,69.1123C138.2734,944.1827,107.252,975.1876,69.1289,975.1876L69.1289,975.1876z
			 M69.1289,870.5997c-19.5552,0-35.4604,15.913-35.4604,35.4433c0,19.5625,15.9052,35.4766,35.4604,35.4766
			c19.5625,0,35.4766-15.9141,35.4766-35.4766C104.6055,886.5127,88.6914,870.5997,69.1289,870.5997L69.1289,870.5997z"/>
	</g>
	<g>
		<path fill="#535352" d="M173.7583,556.7344c-4.644,0-9.2637-1.9062-12.5928-5.6552c-6.1733-6.9375-5.5483-17.5899,1.3975-23.7383
			l156.9155-139.4981c6.9458-6.1972,17.5986-5.5566,23.7715,1.3975c6.1733,6.9375,5.5488,17.5898-1.3975,23.7549l-156.915,139.498
			C181.7314,555.3536,177.7363,556.7344,173.7583,556.7344L173.7583,556.7344z"/>
	</g>
	<g>
		<path fill="#535352" d="M69.145,870.5997c-1.2573,0-2.5317-0.1319-3.8056-0.4278c-9.0582-2.1045-14.7056-11.1465-12.6177-20.1875
			l52.311-226.7021c2.104-9.0752,11.1704-14.6973,20.1958-12.626c9.0586,2.1045,14.7051,11.1465,12.6172,20.1885L85.5352,857.5459
			C83.7354,865.3379,76.8057,870.5997,69.145,870.5997L69.145,870.5997z"/>
	</g>
</g>
</svg>
